%TF.GenerationSoftware,KiCad,Pcbnew,(6.0.2)*%
%TF.CreationDate,2022-05-14T01:06:09+01:00*%
%TF.ProjectId,mcp_breadboard,6d63705f-6272-4656-9164-626f6172642e,rev?*%
%TF.SameCoordinates,Original*%
%TF.FileFunction,Copper,L1,Top*%
%TF.FilePolarity,Positive*%
%FSLAX46Y46*%
G04 Gerber Fmt 4.6, Leading zero omitted, Abs format (unit mm)*
G04 Created by KiCad (PCBNEW (6.0.2)) date 2022-05-14 01:06:09*
%MOMM*%
%LPD*%
G01*
G04 APERTURE LIST*
G04 Aperture macros list*
%AMRoundRect*
0 Rectangle with rounded corners*
0 $1 Rounding radius*
0 $2 $3 $4 $5 $6 $7 $8 $9 X,Y pos of 4 corners*
0 Add a 4 corners polygon primitive as box body*
4,1,4,$2,$3,$4,$5,$6,$7,$8,$9,$2,$3,0*
0 Add four circle primitives for the rounded corners*
1,1,$1+$1,$2,$3*
1,1,$1+$1,$4,$5*
1,1,$1+$1,$6,$7*
1,1,$1+$1,$8,$9*
0 Add four rect primitives between the rounded corners*
20,1,$1+$1,$2,$3,$4,$5,0*
20,1,$1+$1,$4,$5,$6,$7,0*
20,1,$1+$1,$6,$7,$8,$9,0*
20,1,$1+$1,$8,$9,$2,$3,0*%
G04 Aperture macros list end*
%TA.AperFunction,SMDPad,CuDef*%
%ADD10RoundRect,0.250000X0.475000X-0.250000X0.475000X0.250000X-0.475000X0.250000X-0.475000X-0.250000X0*%
%TD*%
%TA.AperFunction,SMDPad,CuDef*%
%ADD11RoundRect,0.200000X-0.200000X-0.275000X0.200000X-0.275000X0.200000X0.275000X-0.200000X0.275000X0*%
%TD*%
%TA.AperFunction,SMDPad,CuDef*%
%ADD12RoundRect,0.243750X0.456250X-0.243750X0.456250X0.243750X-0.456250X0.243750X-0.456250X-0.243750X0*%
%TD*%
%TA.AperFunction,SMDPad,CuDef*%
%ADD13R,1.500000X2.000000*%
%TD*%
%TA.AperFunction,SMDPad,CuDef*%
%ADD14R,3.800000X2.000000*%
%TD*%
%TA.AperFunction,SMDPad,CuDef*%
%ADD15R,0.400000X0.510000*%
%TD*%
%TA.AperFunction,SMDPad,CuDef*%
%ADD16R,1.500000X1.900000*%
%TD*%
%TA.AperFunction,SMDPad,CuDef*%
%ADD17R,1.200000X1.900000*%
%TD*%
%TA.AperFunction,ComponentPad*%
%ADD18O,1.200000X1.900000*%
%TD*%
%TA.AperFunction,ComponentPad*%
%ADD19C,1.450000*%
%TD*%
%TA.AperFunction,SMDPad,CuDef*%
%ADD20R,0.400000X1.350000*%
%TD*%
%TA.AperFunction,ComponentPad*%
%ADD21O,1.700000X1.700000*%
%TD*%
%TA.AperFunction,ComponentPad*%
%ADD22R,1.700000X1.700000*%
%TD*%
%TA.AperFunction,SMDPad,CuDef*%
%ADD23R,1.550000X1.300000*%
%TD*%
%TA.AperFunction,SMDPad,CuDef*%
%ADD24RoundRect,0.150000X-0.825000X-0.150000X0.825000X-0.150000X0.825000X0.150000X-0.825000X0.150000X0*%
%TD*%
%TA.AperFunction,SMDPad,CuDef*%
%ADD25RoundRect,0.225000X0.225000X0.250000X-0.225000X0.250000X-0.225000X-0.250000X0.225000X-0.250000X0*%
%TD*%
%TA.AperFunction,SMDPad,CuDef*%
%ADD26RoundRect,0.243750X-0.456250X0.243750X-0.456250X-0.243750X0.456250X-0.243750X0.456250X0.243750X0*%
%TD*%
%TA.AperFunction,SMDPad,CuDef*%
%ADD27RoundRect,0.225000X-0.225000X-0.250000X0.225000X-0.250000X0.225000X0.250000X-0.225000X0.250000X0*%
%TD*%
%TA.AperFunction,SMDPad,CuDef*%
%ADD28R,1.120000X2.440000*%
%TD*%
%TA.AperFunction,SMDPad,CuDef*%
%ADD29RoundRect,0.200000X-0.275000X0.200000X-0.275000X-0.200000X0.275000X-0.200000X0.275000X0.200000X0*%
%TD*%
%TA.AperFunction,SMDPad,CuDef*%
%ADD30R,0.800000X0.500000*%
%TD*%
%TA.AperFunction,SMDPad,CuDef*%
%ADD31R,0.800000X0.400000*%
%TD*%
%TA.AperFunction,ViaPad*%
%ADD32C,0.600000*%
%TD*%
%TA.AperFunction,Conductor*%
%ADD33C,0.400000*%
%TD*%
%TA.AperFunction,Conductor*%
%ADD34C,0.250000*%
%TD*%
%TA.AperFunction,Conductor*%
%ADD35C,0.200000*%
%TD*%
G04 APERTURE END LIST*
D10*
%TO.P,C4,2*%
%TO.N,GND*%
X68600000Y-34550000D03*
%TO.P,C4,1*%
%TO.N,+3V3*%
X68600000Y-36450000D03*
%TD*%
D11*
%TO.P,R2,2*%
%TO.N,VDD*%
X56075000Y-45650000D03*
%TO.P,R2,1*%
%TO.N,SCL*%
X54425000Y-45650000D03*
%TD*%
D12*
%TO.P,D3,2,A*%
%TO.N,VDD*%
X35500000Y-30802500D03*
%TO.P,D3,1,K*%
%TO.N,Net-(D3-Pad1)*%
X35500000Y-32677500D03*
%TD*%
D13*
%TO.P,U2,3,VO*%
%TO.N,+3V3*%
X66310000Y-36440000D03*
%TO.P,U2,2,GND*%
%TO.N,GND*%
X64010000Y-36440000D03*
D14*
X64010000Y-30140000D03*
D13*
%TO.P,U2,1,VI*%
%TO.N,+5V*%
X61710000Y-36440000D03*
%TD*%
D11*
%TO.P,R3,2*%
%TO.N,VDD*%
X56075000Y-44150000D03*
%TO.P,R3,1*%
%TO.N,Net-(R3-Pad1)*%
X54425000Y-44150000D03*
%TD*%
D12*
%TO.P,D4,2,A*%
%TO.N,VDD*%
X32500000Y-30802500D03*
%TO.P,D4,1,K*%
%TO.N,Net-(D4-Pad1)*%
X32500000Y-32677500D03*
%TD*%
D10*
%TO.P,C3,2*%
%TO.N,GND*%
X59400000Y-34550000D03*
%TO.P,C3,1*%
%TO.N,+5V*%
X59400000Y-36450000D03*
%TD*%
D15*
%TO.P,D6,3,A*%
%TO.N,GND*%
X50331000Y-34017351D03*
%TO.P,D6,2,K2*%
%TO.N,D-*%
X50831000Y-35307351D03*
%TO.P,D6,1,K1*%
%TO.N,D+*%
X49831000Y-35307351D03*
%TD*%
D16*
%TO.P,J5,6,Shield*%
%TO.N,unconnected-(J5-Pad6)*%
X51000000Y-29762500D03*
D17*
X52900000Y-29762500D03*
D16*
X49000000Y-29762500D03*
D18*
X53500000Y-29762500D03*
D17*
X47100000Y-29762500D03*
D18*
X46500000Y-29762500D03*
D19*
X52500000Y-32462500D03*
X47500000Y-32462500D03*
D20*
%TO.P,J5,5,GND*%
%TO.N,GND*%
X48700000Y-32462500D03*
%TO.P,J5,4,ID*%
%TO.N,unconnected-(J5-Pad4)*%
X49350000Y-32462500D03*
%TO.P,J5,3,D+*%
%TO.N,D+*%
X50000000Y-32462500D03*
%TO.P,J5,2,D-*%
%TO.N,D-*%
X50650000Y-32462500D03*
%TO.P,J5,1,VBUS*%
%TO.N,+5V*%
X51300000Y-32462500D03*
%TD*%
D21*
%TO.P,SW3,3,C*%
%TO.N,+3V3*%
X66540000Y-39500000D03*
%TO.P,SW3,2,B*%
%TO.N,VDD*%
X64000000Y-39500000D03*
D22*
%TO.P,SW3,1,A*%
%TO.N,+5V*%
X61460000Y-39500000D03*
%TD*%
D12*
%TO.P,D1,2,A*%
%TO.N,VDD*%
X41500000Y-30802500D03*
%TO.P,D1,1,K*%
%TO.N,Net-(D1-Pad1)*%
X41500000Y-32677500D03*
%TD*%
D23*
%TO.P,SW1,2,2*%
%TO.N,Net-(R3-Pad1)*%
X60025000Y-47250000D03*
X67975000Y-47250000D03*
%TO.P,SW1,1,1*%
%TO.N,GND*%
X60025000Y-42750000D03*
X67975000Y-42750000D03*
%TD*%
D24*
%TO.P,U1,14,VSS*%
%TO.N,GND*%
X52475000Y-40440000D03*
%TO.P,U1,13,D+*%
%TO.N,D+*%
X52475000Y-41710000D03*
%TO.P,U1,12,D-*%
%TO.N,D-*%
X52475000Y-42980000D03*
%TO.P,U1,11,VUSB*%
%TO.N,Net-(C2-Pad1)*%
X52475000Y-44250000D03*
%TO.P,U1,10,SCL*%
%TO.N,SCL*%
X52475000Y-45520000D03*
%TO.P,U1,9,SDA*%
%TO.N,SDA*%
X52475000Y-46790000D03*
%TO.P,U1,8,GP3*%
%TO.N,G3*%
X52475000Y-48060000D03*
%TO.P,U1,7,GP2*%
%TO.N,G2*%
X47525000Y-48060000D03*
%TO.P,U1,6,UTx*%
%TO.N,Tx*%
X47525000Y-46790000D03*
%TO.P,U1,5,URx*%
%TO.N,Rx*%
X47525000Y-45520000D03*
%TO.P,U1,4,~{RST}*%
%TO.N,Net-(R3-Pad1)*%
X47525000Y-44250000D03*
%TO.P,U1,3,GP1*%
%TO.N,G1*%
X47525000Y-42980000D03*
%TO.P,U1,2,GP0*%
%TO.N,G0*%
X47525000Y-41710000D03*
%TO.P,U1,1,VDD*%
%TO.N,VDD*%
X47525000Y-40440000D03*
%TD*%
D25*
%TO.P,C1,2*%
%TO.N,GND*%
X43975000Y-40450000D03*
%TO.P,C1,1*%
%TO.N,VDD*%
X45525000Y-40450000D03*
%TD*%
D26*
%TO.P,D5,2,A*%
%TO.N,Net-(D5-Pad2)*%
X57000000Y-33187500D03*
%TO.P,D5,1,K*%
%TO.N,GND*%
X57000000Y-31312500D03*
%TD*%
D12*
%TO.P,D2,2,A*%
%TO.N,VDD*%
X38500000Y-30802500D03*
%TO.P,D2,1,K*%
%TO.N,Net-(D2-Pad1)*%
X38500000Y-32677500D03*
%TD*%
D27*
%TO.P,C2,2*%
%TO.N,GND*%
X56025000Y-42650000D03*
%TO.P,C2,1*%
%TO.N,Net-(C2-Pad1)*%
X54475000Y-42650000D03*
%TD*%
D28*
%TO.P,SW2,8*%
%TO.N,Net-(RN1-Pad1)*%
X40810000Y-44305000D03*
%TO.P,SW2,7*%
%TO.N,Net-(RN1-Pad2)*%
X38270000Y-44305000D03*
%TO.P,SW2,6*%
%TO.N,Net-(RN1-Pad3)*%
X35730000Y-44305000D03*
%TO.P,SW2,5*%
%TO.N,Net-(RN1-Pad4)*%
X33190000Y-44305000D03*
%TO.P,SW2,4*%
%TO.N,Net-(D4-Pad1)*%
X33190000Y-35695000D03*
%TO.P,SW2,3*%
%TO.N,Net-(D3-Pad1)*%
X35730000Y-35695000D03*
%TO.P,SW2,2*%
%TO.N,Net-(D2-Pad1)*%
X38270000Y-35695000D03*
%TO.P,SW2,1*%
%TO.N,Net-(D1-Pad1)*%
X40810000Y-35695000D03*
%TD*%
D29*
%TO.P,R4,2*%
%TO.N,+5V*%
X57000000Y-36325000D03*
%TO.P,R4,1*%
%TO.N,Net-(D5-Pad2)*%
X57000000Y-34675000D03*
%TD*%
D11*
%TO.P,R1,2*%
%TO.N,VDD*%
X56075000Y-47150000D03*
%TO.P,R1,1*%
%TO.N,SDA*%
X54425000Y-47150000D03*
%TD*%
D30*
%TO.P,RN1,8,R1.2*%
%TO.N,G0*%
X43250000Y-46675000D03*
D31*
%TO.P,RN1,7,R2.2*%
%TO.N,G1*%
X43250000Y-47475000D03*
%TO.P,RN1,6,R3.2*%
%TO.N,G2*%
X43250000Y-48275000D03*
D30*
%TO.P,RN1,5,R4.2*%
%TO.N,G3*%
X43250000Y-49075000D03*
%TO.P,RN1,4,R4.1*%
%TO.N,Net-(RN1-Pad4)*%
X41450000Y-49075000D03*
D31*
%TO.P,RN1,3,R3.1*%
%TO.N,Net-(RN1-Pad3)*%
X41450000Y-48275000D03*
%TO.P,RN1,2,R2.1*%
%TO.N,Net-(RN1-Pad2)*%
X41450000Y-47475000D03*
D30*
%TO.P,RN1,1,R1.1*%
%TO.N,Net-(RN1-Pad1)*%
X41450000Y-46675000D03*
%TD*%
D21*
%TO.P,J3,5,Pin_5*%
%TO.N,G3*%
X44920000Y-62700000D03*
%TO.P,J3,4,Pin_4*%
%TO.N,G2*%
X44920000Y-60160000D03*
%TO.P,J3,3,Pin_3*%
%TO.N,G1*%
X44920000Y-57620000D03*
%TO.P,J3,2,Pin_2*%
%TO.N,G0*%
X44920000Y-55080000D03*
D22*
%TO.P,J3,1,Pin_1*%
%TO.N,+5V*%
X44920000Y-52540000D03*
%TD*%
D21*
%TO.P,J4,5,Pin_5*%
%TO.N,Tx*%
X55080000Y-62700000D03*
%TO.P,J4,4,Pin_4*%
%TO.N,Rx*%
X55080000Y-60160000D03*
%TO.P,J4,3,Pin_3*%
%TO.N,SDA*%
X55080000Y-57620000D03*
%TO.P,J4,2,Pin_2*%
%TO.N,SCL*%
X55080000Y-55080000D03*
D22*
%TO.P,J4,1,Pin_1*%
%TO.N,+3V3*%
X55080000Y-52540000D03*
%TD*%
D21*
%TO.P,J2,4,Pin_4*%
%TO.N,GND*%
X75400000Y-56350000D03*
%TO.P,J2,3,Pin_3*%
X75400000Y-53810000D03*
%TO.P,J2,2,Pin_2*%
%TO.N,VDD*%
X72860000Y-56350000D03*
D22*
%TO.P,J2,1,Pin_1*%
X72860000Y-53810000D03*
%TD*%
D21*
%TO.P,J1,4,Pin_4*%
%TO.N,GND*%
X27140000Y-56350000D03*
%TO.P,J1,3,Pin_3*%
X27140000Y-53810000D03*
%TO.P,J1,2,Pin_2*%
%TO.N,VDD*%
X24600000Y-56350000D03*
D22*
%TO.P,J1,1,Pin_1*%
X24600000Y-53810000D03*
%TD*%
D32*
%TO.N,G3*%
X43950000Y-49100000D03*
%TO.N,G2*%
X43950000Y-48300000D03*
%TO.N,Net-(R3-Pad1)*%
X58750000Y-47250000D03*
%TO.N,D+*%
X50250000Y-41750000D03*
%TO.N,D-*%
X51000000Y-43000000D03*
%TO.N,GND*%
X67550000Y-34550000D03*
X64450000Y-37750000D03*
X64510000Y-35140000D03*
X60000000Y-42750000D03*
X48700000Y-33440000D03*
X48700000Y-31490000D03*
X53700000Y-40500000D03*
X57000000Y-32077000D03*
X64010000Y-31440000D03*
X63510000Y-35140000D03*
X56800000Y-42650000D03*
X43200000Y-40450000D03*
X63550000Y-37750000D03*
X62510000Y-31440000D03*
X68000000Y-42750000D03*
X60450000Y-34550000D03*
X65510000Y-31440000D03*
X50330500Y-34565000D03*
%TO.N,G1*%
X45500000Y-47500000D03*
X43953019Y-47492989D03*
%TO.N,G2*%
X46250000Y-48300000D03*
%TO.N,G3*%
X47000000Y-49100000D03*
X51200000Y-48000000D03*
X49200000Y-48000000D03*
%TO.N,Net-(R3-Pad1)*%
X55100000Y-44150000D03*
%TO.N,D-*%
X50850000Y-36015000D03*
%TO.N,D+*%
X49825000Y-36015000D03*
%TD*%
D33*
%TO.N,+5V*%
X59275000Y-36325000D02*
X59400000Y-36450000D01*
X54325000Y-36325000D02*
X59275000Y-36325000D01*
X51300000Y-33300000D02*
X54325000Y-36325000D01*
X51300000Y-32462500D02*
X51300000Y-33300000D01*
D34*
%TO.N,G3*%
X43925000Y-49075000D02*
X43250000Y-49075000D01*
X43950000Y-49100000D02*
X43925000Y-49075000D01*
X48000000Y-62000000D02*
X47300000Y-62700000D01*
X48000000Y-49100000D02*
X48000000Y-62000000D01*
X47300000Y-62700000D02*
X44920000Y-62700000D01*
X49200000Y-48500000D02*
X49200000Y-48000000D01*
X48600000Y-49100000D02*
X49200000Y-48500000D01*
X47000000Y-49100000D02*
X48600000Y-49100000D01*
%TO.N,G2*%
X43950000Y-48300000D02*
X43925000Y-48275000D01*
X43925000Y-48275000D02*
X43250000Y-48275000D01*
X46390000Y-48060000D02*
X47525000Y-48060000D01*
X46250000Y-48200000D02*
X46390000Y-48060000D01*
X46250000Y-48300000D02*
X46250000Y-48200000D01*
X46250000Y-50170000D02*
X47500000Y-51420000D01*
X46250000Y-48300000D02*
X46250000Y-50170000D01*
X47500000Y-59500000D02*
X46840000Y-60160000D01*
X46840000Y-60160000D02*
X44920000Y-60160000D01*
X47500000Y-51420000D02*
X47500000Y-59500000D01*
%TO.N,GND*%
X43200000Y-40450000D02*
X43975000Y-40450000D01*
X56800000Y-42650000D02*
X56025000Y-42650000D01*
%TO.N,Tx*%
X49950000Y-50450000D02*
X49950000Y-47250000D01*
X49490000Y-46790000D02*
X47525000Y-46790000D01*
X52000000Y-62000000D02*
X52000000Y-52500000D01*
X52000000Y-52500000D02*
X49950000Y-50450000D01*
X52700000Y-62700000D02*
X52000000Y-62000000D01*
X55080000Y-62700000D02*
X52700000Y-62700000D01*
X49950000Y-47250000D02*
X49490000Y-46790000D01*
%TO.N,Rx*%
X49970000Y-45520000D02*
X47525000Y-45520000D01*
X50450000Y-46000000D02*
X49970000Y-45520000D01*
X52500000Y-59500000D02*
X52500000Y-52232482D01*
X53160000Y-60160000D02*
X52500000Y-59500000D01*
X50450000Y-50182482D02*
X50450000Y-46000000D01*
X55080000Y-60160000D02*
X53160000Y-60160000D01*
X52500000Y-52232482D02*
X50450000Y-50182482D01*
%TO.N,SCL*%
X55250000Y-46000000D02*
X54900000Y-45650000D01*
X54900000Y-45650000D02*
X54425000Y-45650000D01*
X53500000Y-51870978D02*
X55250000Y-50120978D01*
X55250000Y-50120978D02*
X55250000Y-46000000D01*
X53500000Y-54500000D02*
X53500000Y-51870978D01*
X54080000Y-55080000D02*
X53500000Y-54500000D01*
X55080000Y-55080000D02*
X54080000Y-55080000D01*
%TO.N,SDA*%
X53620000Y-57620000D02*
X55080000Y-57620000D01*
X53000000Y-51500000D02*
X53000000Y-57000000D01*
X53000000Y-57000000D02*
X53620000Y-57620000D01*
X54425000Y-50075000D02*
X53000000Y-51500000D01*
X54425000Y-47150000D02*
X54425000Y-50075000D01*
%TO.N,G0*%
X46500000Y-54500000D02*
X45920000Y-55080000D01*
X45920000Y-55080000D02*
X44920000Y-55080000D01*
X46500000Y-51920000D02*
X46500000Y-54500000D01*
X44750000Y-50170000D02*
X46500000Y-51920000D01*
X46240000Y-41710000D02*
X44750000Y-43200000D01*
X44750000Y-43200000D02*
X44750000Y-50170000D01*
X47525000Y-41710000D02*
X46240000Y-41710000D01*
%TO.N,G1*%
X46380000Y-57620000D02*
X44920000Y-57620000D01*
X45500000Y-50170000D02*
X47000000Y-51670000D01*
X47000000Y-51670000D02*
X47000000Y-57000000D01*
X47000000Y-57000000D02*
X46380000Y-57620000D01*
X45500000Y-47500000D02*
X45500000Y-50170000D01*
%TO.N,G0*%
X43250000Y-46675000D02*
X44750000Y-46675000D01*
%TO.N,G1*%
X45500000Y-43200000D02*
X45720000Y-42980000D01*
X45500000Y-47500000D02*
X45500000Y-43200000D01*
X45720000Y-42980000D02*
X47525000Y-42980000D01*
%TO.N,Net-(R3-Pad1)*%
X60025000Y-47250000D02*
X58750000Y-47250000D01*
X67975000Y-47250000D02*
X60025000Y-47250000D01*
D35*
%TO.N,D+*%
X50290000Y-41710000D02*
X50250000Y-41750000D01*
X52475000Y-41710000D02*
X50290000Y-41710000D01*
%TO.N,D-*%
X51020000Y-42980000D02*
X51000000Y-43000000D01*
X52475000Y-42980000D02*
X51020000Y-42980000D01*
D34*
%TO.N,Net-(RN1-Pad4)*%
X33190000Y-48610000D02*
X33190000Y-44305000D01*
X33655000Y-49075000D02*
X33190000Y-48610000D01*
X41450000Y-49075000D02*
X33655000Y-49075000D01*
%TO.N,Net-(RN1-Pad3)*%
X35730000Y-47900000D02*
X35730000Y-44305000D01*
X36105000Y-48275000D02*
X35730000Y-47900000D01*
X41450000Y-48275000D02*
X36105000Y-48275000D01*
%TO.N,Net-(RN1-Pad2)*%
X38270000Y-47190000D02*
X38270000Y-44305000D01*
X38555000Y-47475000D02*
X38270000Y-47190000D01*
X41450000Y-47475000D02*
X38555000Y-47475000D01*
%TO.N,Net-(RN1-Pad1)*%
X40810000Y-46560000D02*
X40810000Y-44305000D01*
X41450000Y-46675000D02*
X40925000Y-46675000D01*
X40925000Y-46675000D02*
X40810000Y-46560000D01*
%TO.N,Net-(D1-Pad1)*%
X41500000Y-33310000D02*
X41500000Y-32677500D01*
X40810000Y-34000000D02*
X41500000Y-33310000D01*
X40810000Y-35695000D02*
X40810000Y-34000000D01*
%TO.N,Net-(D2-Pad1)*%
X38270000Y-34000000D02*
X38500000Y-33770000D01*
X38270000Y-35695000D02*
X38270000Y-34000000D01*
X38500000Y-33770000D02*
X38500000Y-32677500D01*
%TO.N,Net-(D3-Pad1)*%
X35500000Y-33770000D02*
X35500000Y-32677500D01*
X35730000Y-34000000D02*
X35500000Y-33770000D01*
X35730000Y-35695000D02*
X35730000Y-34000000D01*
%TO.N,Net-(D4-Pad1)*%
X32500000Y-33310000D02*
X32500000Y-32677500D01*
X33190000Y-34000000D02*
X32500000Y-33310000D01*
X33190000Y-35695000D02*
X33190000Y-34000000D01*
%TO.N,GND*%
X48700000Y-32462500D02*
X48700000Y-31490000D01*
X48700000Y-33440000D02*
X48700000Y-32462500D01*
X50331000Y-34012351D02*
X50331000Y-34589500D01*
X53640000Y-40440000D02*
X53700000Y-40500000D01*
X57000000Y-31312500D02*
X57000000Y-32077000D01*
X52475000Y-40440000D02*
X53640000Y-40440000D01*
%TO.N,VDD*%
X47525000Y-40440000D02*
X45510000Y-40440000D01*
%TO.N,Net-(C2-Pad1)*%
X54475000Y-42775000D02*
X54475000Y-42650000D01*
X53000000Y-44250000D02*
X54475000Y-42775000D01*
X52475000Y-44250000D02*
X53000000Y-44250000D01*
%TO.N,Net-(D5-Pad2)*%
X57000000Y-34675000D02*
X57000000Y-33135500D01*
%TO.N,G1*%
X43935030Y-47475000D02*
X43250000Y-47475000D01*
X43953019Y-47492989D02*
X43935030Y-47475000D01*
%TO.N,G3*%
X51260000Y-48060000D02*
X52475000Y-48060000D01*
X51200000Y-48000000D02*
X51260000Y-48060000D01*
%TO.N,SDA*%
X53900000Y-47150000D02*
X53540000Y-46790000D01*
X53540000Y-46790000D02*
X52475000Y-46790000D01*
X54425000Y-47150000D02*
X53900000Y-47150000D01*
%TO.N,SCL*%
X53670000Y-45520000D02*
X52475000Y-45520000D01*
X54425000Y-45650000D02*
X53800000Y-45650000D01*
X53800000Y-45650000D02*
X53670000Y-45520000D01*
%TO.N,Net-(R3-Pad1)*%
X53675000Y-44900000D02*
X54425000Y-44150000D01*
X55100000Y-44150000D02*
X54425000Y-44150000D01*
X50950000Y-44900000D02*
X53675000Y-44900000D01*
X50300000Y-44250000D02*
X50950000Y-44900000D01*
X47525000Y-44250000D02*
X50300000Y-44250000D01*
D35*
%TO.N,D-*%
X50850000Y-36015000D02*
X50850000Y-35326351D01*
X50850000Y-35326351D02*
X50831000Y-35307351D01*
X50880011Y-35258340D02*
X50831000Y-35307351D01*
X50880011Y-33580011D02*
X50880011Y-35258340D01*
X50650000Y-33350000D02*
X50880011Y-33580011D01*
X50650000Y-32462500D02*
X50650000Y-33350000D01*
%TO.N,D+*%
X49825000Y-36015000D02*
X49825000Y-35313351D01*
X49780989Y-35257340D02*
X49831000Y-35307351D01*
X49825000Y-35313351D02*
X49831000Y-35307351D01*
X50000000Y-33360000D02*
X49780989Y-33579011D01*
X50000000Y-32462500D02*
X50000000Y-33360000D01*
X49780989Y-33579011D02*
X49780989Y-35257340D01*
D34*
%TO.N,unconnected-(J5-Pad6)*%
X52500000Y-30162500D02*
X52900000Y-29762500D01*
X47100000Y-29762500D02*
X53500000Y-29762500D01*
X47500000Y-30162500D02*
X47100000Y-29762500D01*
X52500000Y-32462500D02*
X52500000Y-30162500D01*
X47500000Y-32462500D02*
X47500000Y-30162500D01*
%TD*%
%TA.AperFunction,Conductor*%
%TO.N,+5V*%
G36*
X62392121Y-35470002D02*
G01*
X62438614Y-35523658D01*
X62450000Y-35576000D01*
X62450000Y-37444756D01*
X62449565Y-37455220D01*
X62350000Y-38650000D01*
X62350000Y-40224000D01*
X62329998Y-40292121D01*
X62276342Y-40338614D01*
X62224000Y-40350000D01*
X60672988Y-40350000D01*
X60604867Y-40329998D01*
X60563688Y-40286687D01*
X58939759Y-37455220D01*
X58666700Y-36979118D01*
X58650000Y-36916431D01*
X58650000Y-36076000D01*
X58670002Y-36007879D01*
X58723658Y-35961386D01*
X58776000Y-35950000D01*
X60150000Y-35950000D01*
X60919357Y-35469152D01*
X60986137Y-35450000D01*
X62324000Y-35450000D01*
X62392121Y-35470002D01*
G37*
%TD.AperFunction*%
%TD*%
%TA.AperFunction,Conductor*%
%TO.N,+3V3*%
G36*
X67080643Y-35469152D02*
G01*
X67850000Y-35950000D01*
X69224000Y-35950000D01*
X69292121Y-35970002D01*
X69338614Y-36023658D01*
X69350000Y-36076000D01*
X69350000Y-36916431D01*
X69333300Y-36979118D01*
X67436312Y-40286687D01*
X67385070Y-40335827D01*
X67327012Y-40350000D01*
X65826000Y-40350000D01*
X65757879Y-40329998D01*
X65711386Y-40276342D01*
X65700000Y-40224000D01*
X65700000Y-38650000D01*
X65550973Y-37457784D01*
X65550000Y-37442156D01*
X65550000Y-35576000D01*
X65570002Y-35507879D01*
X65623658Y-35461386D01*
X65676000Y-35450000D01*
X67013863Y-35450000D01*
X67080643Y-35469152D01*
G37*
%TD.AperFunction*%
%TD*%
%TA.AperFunction,Conductor*%
%TO.N,VDD*%
G36*
X45703378Y-28628954D02*
G01*
X45784160Y-28682930D01*
X45838136Y-28763712D01*
X45857090Y-28859000D01*
X45838136Y-28954288D01*
X45817391Y-28993885D01*
X45785988Y-29042613D01*
X45785986Y-29042618D01*
X45778446Y-29054317D01*
X45717022Y-29223078D01*
X45699500Y-29361783D01*
X45699500Y-30157655D01*
X45700276Y-30164571D01*
X45700276Y-30164575D01*
X45704550Y-30202679D01*
X45714454Y-30290972D01*
X45773515Y-30460573D01*
X45780894Y-30472381D01*
X45780894Y-30472382D01*
X45798085Y-30499893D01*
X45868684Y-30612875D01*
X45995230Y-30740307D01*
X46006981Y-30747765D01*
X46006983Y-30747766D01*
X46036204Y-30766310D01*
X46146864Y-30836537D01*
X46159976Y-30841206D01*
X46159978Y-30841207D01*
X46184754Y-30850029D01*
X46316049Y-30896781D01*
X46329872Y-30898429D01*
X46329875Y-30898430D01*
X46419902Y-30909165D01*
X46494376Y-30918045D01*
X46508220Y-30916590D01*
X46508223Y-30916590D01*
X46529399Y-30914364D01*
X46555426Y-30913000D01*
X46925500Y-30913000D01*
X47020788Y-30931954D01*
X47101570Y-30985930D01*
X47155546Y-31066712D01*
X47174500Y-31162000D01*
X47174500Y-31433680D01*
X47155546Y-31528968D01*
X47101570Y-31609750D01*
X47049999Y-31649321D01*
X47046624Y-31651270D01*
X47034701Y-31656578D01*
X46877308Y-31770931D01*
X46868576Y-31780629D01*
X46755864Y-31905807D01*
X46755860Y-31905812D01*
X46747130Y-31915508D01*
X46649856Y-32083992D01*
X46645822Y-32096408D01*
X46600682Y-32235337D01*
X46589738Y-32269018D01*
X46569402Y-32462500D01*
X46589738Y-32655982D01*
X46649856Y-32841008D01*
X46747130Y-33009492D01*
X46755860Y-33019188D01*
X46755864Y-33019193D01*
X46788035Y-33054922D01*
X46877308Y-33154069D01*
X46946896Y-33204627D01*
X47024139Y-33260749D01*
X47024144Y-33260752D01*
X47034701Y-33268422D01*
X47046625Y-33273731D01*
X47046627Y-33273732D01*
X47160579Y-33324466D01*
X47212429Y-33347551D01*
X47402726Y-33388000D01*
X47597274Y-33388000D01*
X47787571Y-33347551D01*
X47856449Y-33316885D01*
X47951207Y-33295443D01*
X48046959Y-33311896D01*
X48129125Y-33363740D01*
X48185198Y-33443081D01*
X48204623Y-33512072D01*
X48206261Y-33524598D01*
X48212980Y-33575979D01*
X48270720Y-33707203D01*
X48362970Y-33816948D01*
X48482313Y-33896390D01*
X48499246Y-33901680D01*
X48499248Y-33901681D01*
X48591495Y-33930500D01*
X48619157Y-33939142D01*
X48685992Y-33940367D01*
X48744760Y-33941445D01*
X48744762Y-33941445D01*
X48762499Y-33941770D01*
X48900817Y-33904060D01*
X48915932Y-33894779D01*
X48915935Y-33894778D01*
X49007876Y-33838326D01*
X49007878Y-33838325D01*
X49022991Y-33829045D01*
X49034895Y-33815894D01*
X49046881Y-33802652D01*
X49124878Y-33744725D01*
X49219105Y-33721055D01*
X49315218Y-33735247D01*
X49398584Y-33785139D01*
X49456511Y-33863136D01*
X49480181Y-33957363D01*
X49480489Y-33969747D01*
X49480489Y-34844495D01*
X49461534Y-34939786D01*
X49455759Y-34953727D01*
X49442133Y-34974120D01*
X49430500Y-35032603D01*
X49430500Y-35582099D01*
X49432884Y-35594084D01*
X49432948Y-35594734D01*
X49423424Y-35691421D01*
X49401989Y-35737206D01*
X49402377Y-35737388D01*
X49353305Y-35841907D01*
X49341447Y-35867163D01*
X49338719Y-35884687D01*
X49338718Y-35884689D01*
X49338412Y-35886658D01*
X49319391Y-36008823D01*
X49337980Y-36150979D01*
X49395720Y-36282203D01*
X49487970Y-36391948D01*
X49607313Y-36471390D01*
X49624246Y-36476680D01*
X49624248Y-36476681D01*
X49727224Y-36508852D01*
X49744157Y-36514142D01*
X49810992Y-36515367D01*
X49869760Y-36516445D01*
X49869762Y-36516445D01*
X49887499Y-36516770D01*
X50025817Y-36479060D01*
X50040932Y-36469779D01*
X50040935Y-36469778D01*
X50132876Y-36413326D01*
X50132878Y-36413325D01*
X50147991Y-36404045D01*
X50159893Y-36390896D01*
X50173546Y-36379561D01*
X50175460Y-36381866D01*
X50230905Y-36340688D01*
X50325132Y-36317020D01*
X50421245Y-36331213D01*
X50502524Y-36379521D01*
X50512970Y-36391948D01*
X50632313Y-36471390D01*
X50649246Y-36476680D01*
X50649248Y-36476681D01*
X50752224Y-36508852D01*
X50769157Y-36514142D01*
X50835992Y-36515367D01*
X50894760Y-36516445D01*
X50894762Y-36516445D01*
X50912499Y-36516770D01*
X51050817Y-36479060D01*
X51065932Y-36469779D01*
X51065935Y-36469778D01*
X51157876Y-36413326D01*
X51157878Y-36413325D01*
X51172991Y-36404045D01*
X51269200Y-36297754D01*
X51331710Y-36168733D01*
X51355496Y-36027354D01*
X51355647Y-36015000D01*
X51342687Y-35924500D01*
X51337838Y-35890642D01*
X51337838Y-35890640D01*
X51335323Y-35873082D01*
X51275984Y-35742572D01*
X51267522Y-35732752D01*
X51233416Y-35645497D01*
X51231030Y-35584462D01*
X51231500Y-35582099D01*
X51231500Y-35032603D01*
X51219867Y-34974120D01*
X51206242Y-34953729D01*
X51199467Y-34937374D01*
X51180511Y-34842082D01*
X51180511Y-34348044D01*
X51199465Y-34252756D01*
X51253441Y-34171974D01*
X51334223Y-34117998D01*
X51429511Y-34099044D01*
X51524799Y-34117998D01*
X51605581Y-34171974D01*
X54064091Y-36630484D01*
X54064095Y-36630487D01*
X54086658Y-36653050D01*
X54104112Y-36661943D01*
X54110011Y-36666229D01*
X54118562Y-36671468D01*
X54125055Y-36674777D01*
X54140910Y-36686296D01*
X54159547Y-36692351D01*
X54166032Y-36695656D01*
X54175315Y-36699501D01*
X54182236Y-36701750D01*
X54199696Y-36710646D01*
X54219053Y-36713712D01*
X54225973Y-36715960D01*
X54235735Y-36718304D01*
X54242927Y-36719443D01*
X54261567Y-36725500D01*
X56255968Y-36725500D01*
X56351256Y-36744454D01*
X56432038Y-36798430D01*
X56486658Y-36853050D01*
X56599696Y-36910646D01*
X56619052Y-36913712D01*
X56619053Y-36913712D01*
X56636221Y-36916431D01*
X56693481Y-36925500D01*
X56999921Y-36925500D01*
X57306518Y-36925499D01*
X57400304Y-36910646D01*
X57513342Y-36853050D01*
X57567962Y-36798430D01*
X57648744Y-36744454D01*
X57744032Y-36725500D01*
X58206478Y-36725500D01*
X58301766Y-36744454D01*
X58382548Y-36798430D01*
X58436524Y-36879212D01*
X58453370Y-36942174D01*
X58456740Y-36967916D01*
X58473440Y-37030603D01*
X58493209Y-37078620D01*
X58497242Y-37085651D01*
X58497243Y-37085654D01*
X58713239Y-37462262D01*
X58766268Y-37554722D01*
X60390197Y-40386189D01*
X60394650Y-40392164D01*
X60394651Y-40392166D01*
X60413891Y-40417985D01*
X60421265Y-40428430D01*
X60451821Y-40474159D01*
X60451823Y-40474161D01*
X60465448Y-40494552D01*
X60531769Y-40538867D01*
X60555818Y-40543651D01*
X60555819Y-40543651D01*
X60578261Y-40548115D01*
X60578263Y-40548115D01*
X60590252Y-40550500D01*
X62329748Y-40550500D01*
X62341737Y-40548115D01*
X62341739Y-40548115D01*
X62364181Y-40543651D01*
X62364182Y-40543651D01*
X62388231Y-40538867D01*
X62454552Y-40494552D01*
X62498867Y-40428231D01*
X62503652Y-40404177D01*
X62508899Y-40391509D01*
X62562876Y-40310728D01*
X62643658Y-40256752D01*
X62738946Y-40237798D01*
X62834234Y-40256752D01*
X62915015Y-40310729D01*
X62942913Y-40343976D01*
X62955654Y-40362172D01*
X62969576Y-40378764D01*
X63121239Y-40530427D01*
X63137823Y-40544343D01*
X63313522Y-40667369D01*
X63332269Y-40678192D01*
X63477772Y-40746042D01*
X63496490Y-40750622D01*
X63500000Y-40736277D01*
X63500000Y-39249000D01*
X63518954Y-39153712D01*
X63572930Y-39072930D01*
X63653712Y-39018954D01*
X63749000Y-39000000D01*
X64251000Y-39000000D01*
X64346288Y-39018954D01*
X64427070Y-39072930D01*
X64481046Y-39153712D01*
X64500000Y-39249000D01*
X64500000Y-40731880D01*
X64503760Y-40750780D01*
X64518245Y-40747899D01*
X64667731Y-40678192D01*
X64686478Y-40667369D01*
X64862177Y-40544343D01*
X64878761Y-40530427D01*
X65030424Y-40378764D01*
X65044345Y-40362173D01*
X65091516Y-40294805D01*
X65161697Y-40227620D01*
X65252246Y-40192407D01*
X65349378Y-40194526D01*
X65438305Y-40233654D01*
X65505490Y-40303835D01*
X65518100Y-40328910D01*
X65518378Y-40328762D01*
X65545536Y-40379727D01*
X65560236Y-40407314D01*
X65569391Y-40417879D01*
X65569392Y-40417881D01*
X65578533Y-40428430D01*
X65606729Y-40460970D01*
X65623851Y-40478445D01*
X65639389Y-40487136D01*
X65639390Y-40487137D01*
X65656457Y-40496683D01*
X65701533Y-40521897D01*
X65769654Y-40541899D01*
X65826000Y-40550000D01*
X66458221Y-40550000D01*
X66487703Y-40551752D01*
X66505800Y-40553910D01*
X66505811Y-40553910D01*
X66517894Y-40555351D01*
X66577897Y-40550734D01*
X66597001Y-40550000D01*
X67327012Y-40550000D01*
X67334400Y-40549111D01*
X67334404Y-40549111D01*
X67351967Y-40546998D01*
X67374443Y-40544294D01*
X67432501Y-40530121D01*
X67447159Y-40525945D01*
X67480141Y-40506172D01*
X67511509Y-40487367D01*
X67511511Y-40487366D01*
X67523500Y-40480178D01*
X67574742Y-40431038D01*
X67584947Y-40417985D01*
X67604329Y-40393191D01*
X67609803Y-40386189D01*
X68749987Y-38398175D01*
X69502757Y-37085654D01*
X69502758Y-37085652D01*
X69506791Y-37078620D01*
X69526560Y-37030603D01*
X69543260Y-36967916D01*
X69550000Y-36916431D01*
X69550000Y-36076000D01*
X69545430Y-36033488D01*
X69534044Y-35981146D01*
X69531622Y-35971238D01*
X69506717Y-35924500D01*
X69496340Y-35905026D01*
X69496338Y-35905023D01*
X69489764Y-35892686D01*
X69473444Y-35873851D01*
X69445764Y-35841907D01*
X69445763Y-35841906D01*
X69443271Y-35839030D01*
X69426149Y-35821555D01*
X69348467Y-35778103D01*
X69280346Y-35758101D01*
X69224000Y-35750000D01*
X69139438Y-35750000D01*
X69132361Y-35749833D01*
X69128834Y-35749500D01*
X68071166Y-35749500D01*
X68067639Y-35749833D01*
X68060562Y-35750000D01*
X67978773Y-35750000D01*
X67883485Y-35731046D01*
X67846803Y-35712152D01*
X67843603Y-35710152D01*
X67772845Y-35643576D01*
X67732950Y-35554990D01*
X67729992Y-35457880D01*
X67764421Y-35367030D01*
X67830997Y-35296272D01*
X67919583Y-35256377D01*
X67975573Y-35250000D01*
X68060562Y-35250000D01*
X68067639Y-35250167D01*
X68071166Y-35250500D01*
X69128834Y-35250500D01*
X69132361Y-35250167D01*
X69139438Y-35250000D01*
X69224000Y-35250000D01*
X69230610Y-35249289D01*
X69230618Y-35249289D01*
X69259879Y-35246143D01*
X69259878Y-35246143D01*
X69266512Y-35245430D01*
X69318854Y-35234044D01*
X69328762Y-35231622D01*
X69365685Y-35211947D01*
X69394974Y-35196340D01*
X69394977Y-35196338D01*
X69407314Y-35189764D01*
X69435056Y-35165726D01*
X69458093Y-35145764D01*
X69458094Y-35145763D01*
X69460970Y-35143271D01*
X69478445Y-35126149D01*
X69488981Y-35107314D01*
X69515072Y-35060668D01*
X69521897Y-35048467D01*
X69541899Y-34980346D01*
X69550000Y-34924000D01*
X69550000Y-34176000D01*
X69548467Y-34161732D01*
X69546143Y-34140121D01*
X69545430Y-34133488D01*
X69534044Y-34081146D01*
X69531622Y-34071238D01*
X69507027Y-34025082D01*
X69496340Y-34005026D01*
X69496338Y-34005023D01*
X69489764Y-33992686D01*
X69478580Y-33979778D01*
X69445764Y-33941907D01*
X69445763Y-33941906D01*
X69443271Y-33939030D01*
X69426149Y-33921555D01*
X69404927Y-33909684D01*
X69379815Y-33895638D01*
X69348467Y-33878103D01*
X69280346Y-33858101D01*
X69224000Y-33850000D01*
X69139438Y-33850000D01*
X69132361Y-33849833D01*
X69128834Y-33849500D01*
X68089964Y-33849500D01*
X67994676Y-33830546D01*
X67913894Y-33776570D01*
X67882784Y-33738621D01*
X67880535Y-33735247D01*
X67366493Y-32964185D01*
X66850103Y-32189600D01*
X70924808Y-32189600D01*
X70939830Y-32462574D01*
X70941548Y-32471209D01*
X70941548Y-32471212D01*
X70953511Y-32531350D01*
X70993166Y-32730708D01*
X70996081Y-32739008D01*
X70996081Y-32739009D01*
X71080770Y-32980168D01*
X71083749Y-32988652D01*
X71087801Y-32996453D01*
X71087803Y-32996457D01*
X71205716Y-33223449D01*
X71205719Y-33223454D01*
X71209774Y-33231260D01*
X71214893Y-33238423D01*
X71214894Y-33238425D01*
X71363605Y-33446526D01*
X71363609Y-33446531D01*
X71368725Y-33453690D01*
X71402327Y-33488914D01*
X71551346Y-33645127D01*
X71551351Y-33645132D01*
X71557431Y-33651505D01*
X71564352Y-33656961D01*
X71564353Y-33656962D01*
X71765207Y-33815303D01*
X71765212Y-33815306D01*
X71772126Y-33820757D01*
X71779739Y-33825179D01*
X71779742Y-33825181D01*
X71940875Y-33918774D01*
X72008528Y-33958070D01*
X72261919Y-34060704D01*
X72285023Y-34066443D01*
X72518703Y-34124490D01*
X72518708Y-34124491D01*
X72527243Y-34126611D01*
X72535998Y-34127508D01*
X72754082Y-34149853D01*
X72754090Y-34149853D01*
X72760401Y-34150500D01*
X72929642Y-34150500D01*
X72934017Y-34150190D01*
X72934023Y-34150190D01*
X72992136Y-34146075D01*
X73132705Y-34136122D01*
X73141318Y-34134268D01*
X73141323Y-34134267D01*
X73288664Y-34102545D01*
X73399968Y-34078582D01*
X73656458Y-33983958D01*
X73793088Y-33910236D01*
X73889308Y-33858319D01*
X73889312Y-33858316D01*
X73897056Y-33854138D01*
X74116962Y-33691713D01*
X74246343Y-33564348D01*
X74305518Y-33506096D01*
X74305523Y-33506091D01*
X74311788Y-33499923D01*
X74320778Y-33488144D01*
X74472308Y-33289592D01*
X74472309Y-33289590D01*
X74477647Y-33282596D01*
X74506397Y-33231260D01*
X74606930Y-33051744D01*
X74611230Y-33044066D01*
X74709871Y-32789095D01*
X74712801Y-32776457D01*
X74769614Y-32531350D01*
X74769614Y-32531347D01*
X74771603Y-32522768D01*
X74795192Y-32250400D01*
X74780865Y-31990053D01*
X74780654Y-31986216D01*
X74780654Y-31986212D01*
X74780170Y-31977426D01*
X74768197Y-31917232D01*
X74754745Y-31849609D01*
X74726834Y-31709292D01*
X74708322Y-31656578D01*
X74639165Y-31459645D01*
X74639163Y-31459641D01*
X74636251Y-31451348D01*
X74630084Y-31439476D01*
X74514284Y-31216551D01*
X74514281Y-31216546D01*
X74510226Y-31208740D01*
X74492499Y-31183933D01*
X74356395Y-30993474D01*
X74356391Y-30993469D01*
X74351275Y-30986310D01*
X74274807Y-30906151D01*
X74168654Y-30794873D01*
X74168649Y-30794868D01*
X74162569Y-30788495D01*
X74143515Y-30773474D01*
X73954793Y-30624697D01*
X73954788Y-30624694D01*
X73947874Y-30619243D01*
X73931867Y-30609945D01*
X73719085Y-30486352D01*
X73711472Y-30481930D01*
X73458081Y-30379296D01*
X73378645Y-30359564D01*
X73201297Y-30315510D01*
X73201292Y-30315509D01*
X73192757Y-30313389D01*
X73172838Y-30311348D01*
X72965918Y-30290147D01*
X72965910Y-30290147D01*
X72959599Y-30289500D01*
X72790358Y-30289500D01*
X72785983Y-30289810D01*
X72785977Y-30289810D01*
X72727864Y-30293925D01*
X72587295Y-30303878D01*
X72578682Y-30305732D01*
X72578677Y-30305733D01*
X72440442Y-30335495D01*
X72320032Y-30361418D01*
X72063542Y-30456042D01*
X71948236Y-30518258D01*
X71830692Y-30581681D01*
X71830688Y-30581684D01*
X71822944Y-30585862D01*
X71715077Y-30665534D01*
X71614246Y-30740009D01*
X71603038Y-30748287D01*
X71555715Y-30794873D01*
X71414482Y-30933904D01*
X71414477Y-30933909D01*
X71408212Y-30940077D01*
X71402873Y-30947073D01*
X71402871Y-30947075D01*
X71247692Y-31150408D01*
X71242353Y-31157404D01*
X71238057Y-31165074D01*
X71238055Y-31165078D01*
X71209229Y-31216551D01*
X71108770Y-31395934D01*
X71010129Y-31650905D01*
X71008143Y-31659472D01*
X71008142Y-31659476D01*
X70983045Y-31767752D01*
X70948397Y-31917232D01*
X70924808Y-32189600D01*
X66850103Y-32189600D01*
X66152319Y-31142924D01*
X66115234Y-31053128D01*
X66110500Y-31004806D01*
X66110500Y-29120252D01*
X66098867Y-29061769D01*
X66055815Y-28997338D01*
X66018636Y-28907578D01*
X66018635Y-28810423D01*
X66055815Y-28720664D01*
X66124513Y-28651964D01*
X66214273Y-28614785D01*
X66262851Y-28610000D01*
X72837277Y-28610000D01*
X72837277Y-28611268D01*
X72840343Y-28610705D01*
X72859642Y-28615143D01*
X72878273Y-28610927D01*
X72881271Y-28611045D01*
X73201623Y-28626783D01*
X73225941Y-28629178D01*
X73552175Y-28677570D01*
X73576141Y-28682337D01*
X73896067Y-28762474D01*
X73919451Y-28769568D01*
X74229980Y-28880678D01*
X74252537Y-28890021D01*
X74550689Y-29031036D01*
X74572226Y-29042548D01*
X74613688Y-29067399D01*
X74855124Y-29212110D01*
X74875428Y-29225677D01*
X75140350Y-29422156D01*
X75159212Y-29437636D01*
X75363758Y-29623026D01*
X75403592Y-29659129D01*
X75420871Y-29676408D01*
X75642364Y-29920788D01*
X75657844Y-29939650D01*
X75854323Y-30204572D01*
X75867890Y-30224876D01*
X75959173Y-30377173D01*
X76024613Y-30486352D01*
X76037450Y-30507770D01*
X76048964Y-30529311D01*
X76189979Y-30827463D01*
X76199322Y-30850020D01*
X76281681Y-31080196D01*
X76310432Y-31160549D01*
X76317526Y-31183933D01*
X76394192Y-31490000D01*
X76397663Y-31503859D01*
X76402430Y-31527825D01*
X76450822Y-31854059D01*
X76453217Y-31878377D01*
X76468938Y-32198387D01*
X76469080Y-32201277D01*
X76464857Y-32219642D01*
X76469088Y-32238342D01*
X76468591Y-32255103D01*
X76470000Y-32269537D01*
X76470000Y-52216000D01*
X76451046Y-52311288D01*
X76397070Y-52392070D01*
X76316288Y-52446046D01*
X76221000Y-52465000D01*
X73816847Y-52465000D01*
X73789955Y-52463544D01*
X73764028Y-52460727D01*
X73750593Y-52460000D01*
X73384527Y-52460000D01*
X73364069Y-52464069D01*
X73360000Y-52484527D01*
X73360000Y-56601000D01*
X73341046Y-56696288D01*
X73287070Y-56777070D01*
X73206288Y-56831046D01*
X73111000Y-56850000D01*
X72609000Y-56850000D01*
X72513712Y-56831046D01*
X72432930Y-56777070D01*
X72378954Y-56696288D01*
X72360000Y-56601000D01*
X72360000Y-52484527D01*
X72355931Y-52464069D01*
X72335473Y-52460000D01*
X72039000Y-52460000D01*
X71943712Y-52441046D01*
X71862930Y-52387070D01*
X71808954Y-52306288D01*
X71790000Y-52211000D01*
X71790000Y-51315741D01*
X71791633Y-51287271D01*
X71791957Y-51284458D01*
X71795142Y-51270716D01*
X71795143Y-51270000D01*
X71794131Y-51265565D01*
X71794174Y-51265194D01*
X71794528Y-51261035D01*
X71793121Y-51261136D01*
X71779388Y-51069123D01*
X71779387Y-51069119D01*
X71778754Y-51060263D01*
X71734058Y-50854795D01*
X71706920Y-50782034D01*
X71679718Y-50709104D01*
X71660575Y-50657780D01*
X71559802Y-50473228D01*
X71542663Y-50450332D01*
X71439120Y-50312015D01*
X71433790Y-50304895D01*
X71285105Y-50156210D01*
X71276522Y-50149785D01*
X71123895Y-50035530D01*
X71123893Y-50035529D01*
X71116772Y-50030198D01*
X70932220Y-49929425D01*
X70856499Y-49901182D01*
X70743544Y-49859052D01*
X70743540Y-49859051D01*
X70735205Y-49855942D01*
X70726516Y-49854052D01*
X70726513Y-49854051D01*
X70538418Y-49813134D01*
X70538413Y-49813133D01*
X70529737Y-49811246D01*
X70520881Y-49810613D01*
X70520877Y-49810612D01*
X70409322Y-49802634D01*
X70329690Y-49796938D01*
X70320716Y-49794858D01*
X70320000Y-49794857D01*
X70306293Y-49797984D01*
X70302082Y-49798455D01*
X70274390Y-49800000D01*
X57665741Y-49800000D01*
X57637271Y-49798367D01*
X57634458Y-49798043D01*
X57620716Y-49794858D01*
X57620000Y-49794857D01*
X57615565Y-49795869D01*
X57615194Y-49795826D01*
X57611035Y-49795472D01*
X57611136Y-49796879D01*
X57419123Y-49810612D01*
X57419119Y-49810613D01*
X57410263Y-49811246D01*
X57401587Y-49813133D01*
X57401582Y-49813134D01*
X57213487Y-49854051D01*
X57213484Y-49854052D01*
X57204795Y-49855942D01*
X57196460Y-49859051D01*
X57196456Y-49859052D01*
X57083501Y-49901182D01*
X57007780Y-49929425D01*
X56823228Y-50030198D01*
X56816107Y-50035529D01*
X56816105Y-50035530D01*
X56663478Y-50149785D01*
X56654895Y-50156210D01*
X56506210Y-50304895D01*
X56500880Y-50312015D01*
X56397338Y-50450332D01*
X56380198Y-50473228D01*
X56279425Y-50657780D01*
X56260282Y-50709104D01*
X56233081Y-50782034D01*
X56205942Y-50854795D01*
X56161246Y-51060263D01*
X56160613Y-51069119D01*
X56160612Y-51069123D01*
X56147084Y-51258264D01*
X56121380Y-51351957D01*
X56061778Y-51428682D01*
X55977351Y-51476758D01*
X55898718Y-51489500D01*
X54942944Y-51489500D01*
X54847656Y-51470546D01*
X54766874Y-51416570D01*
X54712898Y-51335788D01*
X54693944Y-51240500D01*
X54712898Y-51145212D01*
X54766874Y-51064430D01*
X55462430Y-50368874D01*
X55478446Y-50354199D01*
X55486506Y-50347436D01*
X55486506Y-50347435D01*
X55503194Y-50333433D01*
X55514087Y-50314566D01*
X55519353Y-50305445D01*
X55531020Y-50287131D01*
X55549554Y-50260662D01*
X55553318Y-50246615D01*
X55560588Y-50234023D01*
X55564370Y-50212572D01*
X55564372Y-50212567D01*
X55566198Y-50202210D01*
X55570899Y-50181004D01*
X55573626Y-50170826D01*
X55573626Y-50170825D01*
X55579264Y-50149785D01*
X55576447Y-50117585D01*
X55575500Y-50095884D01*
X55575500Y-47243823D01*
X58244391Y-47243823D01*
X58262980Y-47385979D01*
X58320720Y-47517203D01*
X58412970Y-47626948D01*
X58532313Y-47706390D01*
X58549246Y-47711680D01*
X58549248Y-47711681D01*
X58619985Y-47733780D01*
X58669157Y-47749142D01*
X58812499Y-47751770D01*
X58812431Y-47755466D01*
X58877767Y-47760209D01*
X58964600Y-47803789D01*
X59028145Y-47877282D01*
X59055852Y-47951685D01*
X59056348Y-47954178D01*
X59056349Y-47954181D01*
X59061133Y-47978231D01*
X59105448Y-48044552D01*
X59171769Y-48088867D01*
X59195818Y-48093651D01*
X59195819Y-48093651D01*
X59218261Y-48098115D01*
X59218263Y-48098115D01*
X59230252Y-48100500D01*
X60819748Y-48100500D01*
X60831737Y-48098115D01*
X60831739Y-48098115D01*
X60854181Y-48093651D01*
X60854182Y-48093651D01*
X60878231Y-48088867D01*
X60944552Y-48044552D01*
X60988867Y-47978231D01*
X60993651Y-47954181D01*
X60998115Y-47931739D01*
X60998115Y-47931737D01*
X61000500Y-47919748D01*
X61000500Y-47824500D01*
X61019454Y-47729212D01*
X61073430Y-47648430D01*
X61154212Y-47594454D01*
X61249500Y-47575500D01*
X66750500Y-47575500D01*
X66845788Y-47594454D01*
X66926570Y-47648430D01*
X66980546Y-47729212D01*
X66999500Y-47824500D01*
X66999500Y-47919748D01*
X67001885Y-47931737D01*
X67001885Y-47931739D01*
X67006349Y-47954181D01*
X67011133Y-47978231D01*
X67055448Y-48044552D01*
X67121769Y-48088867D01*
X67145818Y-48093651D01*
X67145819Y-48093651D01*
X67168261Y-48098115D01*
X67168263Y-48098115D01*
X67180252Y-48100500D01*
X68769748Y-48100500D01*
X68781737Y-48098115D01*
X68781739Y-48098115D01*
X68804181Y-48093651D01*
X68804182Y-48093651D01*
X68828231Y-48088867D01*
X68894552Y-48044552D01*
X68938867Y-47978231D01*
X68943651Y-47954181D01*
X68948115Y-47931739D01*
X68948115Y-47931737D01*
X68950500Y-47919748D01*
X68950500Y-46580252D01*
X68938867Y-46521769D01*
X68894552Y-46455448D01*
X68828231Y-46411133D01*
X68804182Y-46406349D01*
X68804181Y-46406349D01*
X68781739Y-46401885D01*
X68781737Y-46401885D01*
X68769748Y-46399500D01*
X67180252Y-46399500D01*
X67168263Y-46401885D01*
X67168261Y-46401885D01*
X67145819Y-46406349D01*
X67145818Y-46406349D01*
X67121769Y-46411133D01*
X67055448Y-46455448D01*
X67011133Y-46521769D01*
X66999500Y-46580252D01*
X66999500Y-46675500D01*
X66980546Y-46770788D01*
X66926570Y-46851570D01*
X66845788Y-46905546D01*
X66750500Y-46924500D01*
X61249500Y-46924500D01*
X61154212Y-46905546D01*
X61073430Y-46851570D01*
X61019454Y-46770788D01*
X61000500Y-46675500D01*
X61000500Y-46580252D01*
X60988867Y-46521769D01*
X60944552Y-46455448D01*
X60878231Y-46411133D01*
X60854182Y-46406349D01*
X60854181Y-46406349D01*
X60831739Y-46401885D01*
X60831737Y-46401885D01*
X60819748Y-46399500D01*
X59230252Y-46399500D01*
X59218263Y-46401885D01*
X59218261Y-46401885D01*
X59195819Y-46406349D01*
X59195818Y-46406349D01*
X59171769Y-46411133D01*
X59105448Y-46455448D01*
X59061133Y-46521769D01*
X59056349Y-46545819D01*
X59056347Y-46545824D01*
X59055636Y-46549399D01*
X59018457Y-46639158D01*
X58949758Y-46707857D01*
X58859998Y-46745037D01*
X58809900Y-46749816D01*
X58699114Y-46749139D01*
X58699111Y-46749139D01*
X58681376Y-46749031D01*
X58664322Y-46753905D01*
X58560585Y-46783553D01*
X58560583Y-46783554D01*
X58543529Y-46788428D01*
X58422280Y-46864930D01*
X58327377Y-46972388D01*
X58319839Y-46988442D01*
X58319839Y-46988443D01*
X58286485Y-47059485D01*
X58266447Y-47102163D01*
X58263719Y-47119687D01*
X58263718Y-47119689D01*
X58251666Y-47197100D01*
X58244391Y-47243823D01*
X55575500Y-47243823D01*
X55575500Y-46025082D01*
X55576448Y-46003380D01*
X55577365Y-45992896D01*
X55579264Y-45971193D01*
X55573625Y-45950151D01*
X55573625Y-45950146D01*
X55570899Y-45939974D01*
X55566198Y-45918768D01*
X55564372Y-45908411D01*
X55564370Y-45908406D01*
X55560588Y-45886955D01*
X55553318Y-45874363D01*
X55549554Y-45860316D01*
X55531020Y-45833847D01*
X55519353Y-45815533D01*
X55514087Y-45806412D01*
X55514086Y-45806411D01*
X55503194Y-45787545D01*
X55478431Y-45766767D01*
X55462430Y-45752104D01*
X55147896Y-45437570D01*
X55133221Y-45421554D01*
X55126459Y-45413495D01*
X55126458Y-45413494D01*
X55112455Y-45396806D01*
X55093588Y-45385913D01*
X55090670Y-45383465D01*
X55029858Y-45307695D01*
X55013910Y-45269663D01*
X55013711Y-45269052D01*
X55010646Y-45249696D01*
X54974167Y-45178103D01*
X54961947Y-45154119D01*
X54961947Y-45154118D01*
X54953050Y-45136658D01*
X54892462Y-45076070D01*
X54838486Y-44995288D01*
X54833376Y-44969600D01*
X71064808Y-44969600D01*
X71071308Y-45087709D01*
X71079098Y-45229264D01*
X71079830Y-45242574D01*
X71081548Y-45251209D01*
X71081548Y-45251212D01*
X71093511Y-45311350D01*
X71133166Y-45510708D01*
X71136081Y-45519008D01*
X71136081Y-45519009D01*
X71220635Y-45759784D01*
X71223749Y-45768652D01*
X71227801Y-45776453D01*
X71227803Y-45776457D01*
X71345716Y-46003449D01*
X71345719Y-46003454D01*
X71349774Y-46011260D01*
X71354893Y-46018423D01*
X71354894Y-46018425D01*
X71503605Y-46226526D01*
X71503609Y-46226531D01*
X71508725Y-46233690D01*
X71552829Y-46279923D01*
X71691346Y-46425127D01*
X71691351Y-46425132D01*
X71697431Y-46431505D01*
X71704352Y-46436961D01*
X71704353Y-46436962D01*
X71905207Y-46595303D01*
X71905212Y-46595306D01*
X71912126Y-46600757D01*
X71919739Y-46605179D01*
X71919742Y-46605181D01*
X72091163Y-46704750D01*
X72148528Y-46738070D01*
X72401919Y-46840704D01*
X72445663Y-46851570D01*
X72658703Y-46904490D01*
X72658708Y-46904491D01*
X72667243Y-46906611D01*
X72675998Y-46907508D01*
X72894082Y-46929853D01*
X72894090Y-46929853D01*
X72900401Y-46930500D01*
X73069642Y-46930500D01*
X73074017Y-46930190D01*
X73074023Y-46930190D01*
X73132136Y-46926075D01*
X73272705Y-46916122D01*
X73281318Y-46914268D01*
X73281323Y-46914267D01*
X73448725Y-46878226D01*
X73539968Y-46858582D01*
X73796458Y-46763958D01*
X73927021Y-46693510D01*
X74029308Y-46638319D01*
X74029312Y-46638316D01*
X74037056Y-46634138D01*
X74238457Y-46485381D01*
X74249880Y-46476944D01*
X74249881Y-46476943D01*
X74256962Y-46471713D01*
X74372771Y-46357709D01*
X74445518Y-46286096D01*
X74445523Y-46286091D01*
X74451788Y-46279923D01*
X74492266Y-46226885D01*
X74612308Y-46069592D01*
X74612309Y-46069590D01*
X74617647Y-46062596D01*
X74638656Y-46025083D01*
X74746930Y-45831744D01*
X74751230Y-45824066D01*
X74849871Y-45569095D01*
X74855515Y-45544748D01*
X74909614Y-45311350D01*
X74909614Y-45311347D01*
X74911603Y-45302768D01*
X74935192Y-45030400D01*
X74920170Y-44757426D01*
X74916811Y-44740536D01*
X74895474Y-44633275D01*
X74866834Y-44489292D01*
X74849340Y-44439476D01*
X74779165Y-44239645D01*
X74779163Y-44239641D01*
X74776251Y-44231348D01*
X74772197Y-44223543D01*
X74654284Y-43996551D01*
X74654281Y-43996546D01*
X74650226Y-43988740D01*
X74645106Y-43981575D01*
X74496395Y-43773474D01*
X74496391Y-43773469D01*
X74491275Y-43766310D01*
X74392959Y-43663248D01*
X74308654Y-43574873D01*
X74308649Y-43574868D01*
X74302569Y-43568495D01*
X74289481Y-43558177D01*
X74094793Y-43404697D01*
X74094788Y-43404694D01*
X74087874Y-43399243D01*
X74066411Y-43386776D01*
X73859085Y-43266352D01*
X73851472Y-43261930D01*
X73598081Y-43159296D01*
X73478030Y-43129475D01*
X73341297Y-43095510D01*
X73341292Y-43095509D01*
X73332757Y-43093389D01*
X73312838Y-43091348D01*
X73105918Y-43070147D01*
X73105910Y-43070147D01*
X73099599Y-43069500D01*
X72930358Y-43069500D01*
X72925983Y-43069810D01*
X72925977Y-43069810D01*
X72867864Y-43073925D01*
X72727295Y-43083878D01*
X72718682Y-43085732D01*
X72718677Y-43085733D01*
X72587105Y-43114060D01*
X72460032Y-43141418D01*
X72203542Y-43236042D01*
X72083482Y-43300823D01*
X71970692Y-43361681D01*
X71970688Y-43361684D01*
X71962944Y-43365862D01*
X71743038Y-43528287D01*
X71672105Y-43598115D01*
X71554482Y-43713904D01*
X71554477Y-43713909D01*
X71548212Y-43720077D01*
X71542873Y-43727073D01*
X71542871Y-43727075D01*
X71387692Y-43930408D01*
X71382353Y-43937404D01*
X71378057Y-43945074D01*
X71378055Y-43945078D01*
X71326257Y-44037570D01*
X71248770Y-44175934D01*
X71150129Y-44430905D01*
X71148143Y-44439472D01*
X71148142Y-44439476D01*
X71090386Y-44688650D01*
X71088397Y-44697232D01*
X71064808Y-44969600D01*
X54833376Y-44969600D01*
X54819532Y-44900000D01*
X54838486Y-44804712D01*
X54892462Y-44723930D01*
X54893357Y-44723035D01*
X54974139Y-44669059D01*
X55073990Y-44650147D01*
X55116366Y-44650924D01*
X55144760Y-44651445D01*
X55144762Y-44651445D01*
X55162499Y-44651770D01*
X55300817Y-44614060D01*
X55315932Y-44604779D01*
X55315935Y-44604778D01*
X55407876Y-44548326D01*
X55407878Y-44548325D01*
X55422991Y-44539045D01*
X55440699Y-44519482D01*
X55507297Y-44445904D01*
X55519200Y-44432754D01*
X55581710Y-44303733D01*
X55605496Y-44162354D01*
X55605647Y-44150000D01*
X55595021Y-44075801D01*
X55587838Y-44025642D01*
X55587838Y-44025640D01*
X55585323Y-44008082D01*
X55525984Y-43877572D01*
X55432400Y-43768963D01*
X55398431Y-43746945D01*
X55326983Y-43700635D01*
X55312095Y-43690985D01*
X55295097Y-43685902D01*
X55295096Y-43685901D01*
X55191736Y-43654990D01*
X55191735Y-43654990D01*
X55174739Y-43649907D01*
X55151598Y-43649766D01*
X55056429Y-43630232D01*
X54975978Y-43575765D01*
X54922495Y-43494656D01*
X54908069Y-43419748D01*
X59049500Y-43419748D01*
X59061133Y-43478231D01*
X59105448Y-43544552D01*
X59171769Y-43588867D01*
X59195818Y-43593651D01*
X59195819Y-43593651D01*
X59218261Y-43598115D01*
X59218263Y-43598115D01*
X59230252Y-43600500D01*
X60819748Y-43600500D01*
X60831737Y-43598115D01*
X60831739Y-43598115D01*
X60854181Y-43593651D01*
X60854182Y-43593651D01*
X60878231Y-43588867D01*
X60944552Y-43544552D01*
X60988867Y-43478231D01*
X61000500Y-43419748D01*
X66999500Y-43419748D01*
X67011133Y-43478231D01*
X67055448Y-43544552D01*
X67121769Y-43588867D01*
X67145818Y-43593651D01*
X67145819Y-43593651D01*
X67168261Y-43598115D01*
X67168263Y-43598115D01*
X67180252Y-43600500D01*
X68769748Y-43600500D01*
X68781737Y-43598115D01*
X68781739Y-43598115D01*
X68804181Y-43593651D01*
X68804182Y-43593651D01*
X68828231Y-43588867D01*
X68894552Y-43544552D01*
X68938867Y-43478231D01*
X68950500Y-43419748D01*
X68950500Y-42080252D01*
X68938867Y-42021769D01*
X68894552Y-41955448D01*
X68828231Y-41911133D01*
X68804182Y-41906349D01*
X68804181Y-41906349D01*
X68781739Y-41901885D01*
X68781737Y-41901885D01*
X68769748Y-41899500D01*
X67180252Y-41899500D01*
X67168263Y-41901885D01*
X67168261Y-41901885D01*
X67145819Y-41906349D01*
X67145818Y-41906349D01*
X67121769Y-41911133D01*
X67055448Y-41955448D01*
X67011133Y-42021769D01*
X66999500Y-42080252D01*
X66999500Y-43419748D01*
X61000500Y-43419748D01*
X61000500Y-42080252D01*
X60988867Y-42021769D01*
X60944552Y-41955448D01*
X60878231Y-41911133D01*
X60854182Y-41906349D01*
X60854181Y-41906349D01*
X60831739Y-41901885D01*
X60831737Y-41901885D01*
X60819748Y-41899500D01*
X59230252Y-41899500D01*
X59218263Y-41901885D01*
X59218261Y-41901885D01*
X59195819Y-41906349D01*
X59195818Y-41906349D01*
X59171769Y-41911133D01*
X59105448Y-41955448D01*
X59061133Y-42021769D01*
X59049500Y-42080252D01*
X59049500Y-43419748D01*
X54908069Y-43419748D01*
X54904122Y-43399254D01*
X54923656Y-43304083D01*
X54977047Y-43224701D01*
X55048528Y-43153220D01*
X55053563Y-43143339D01*
X55119897Y-43082020D01*
X55211047Y-43048393D01*
X55308127Y-43052207D01*
X55396358Y-43092881D01*
X55446044Y-43142567D01*
X55451472Y-43153220D01*
X55546780Y-43248528D01*
X55564234Y-43257421D01*
X55564235Y-43257422D01*
X55610078Y-43280780D01*
X55666874Y-43309719D01*
X55686228Y-43312784D01*
X55686230Y-43312785D01*
X55718300Y-43317864D01*
X55766512Y-43325500D01*
X56283488Y-43325500D01*
X56331700Y-43317864D01*
X56363770Y-43312785D01*
X56363772Y-43312784D01*
X56383126Y-43309719D01*
X56439922Y-43280780D01*
X56485765Y-43257422D01*
X56485766Y-43257421D01*
X56503220Y-43248528D01*
X56530945Y-43220803D01*
X56611727Y-43166827D01*
X56707015Y-43147873D01*
X56717896Y-43148748D01*
X56719157Y-43149142D01*
X56796358Y-43150557D01*
X56844760Y-43151445D01*
X56844762Y-43151445D01*
X56862499Y-43151770D01*
X57000817Y-43114060D01*
X57015932Y-43104779D01*
X57015935Y-43104778D01*
X57107876Y-43048326D01*
X57107878Y-43048325D01*
X57122991Y-43039045D01*
X57219200Y-42932754D01*
X57281710Y-42803733D01*
X57305496Y-42662354D01*
X57305647Y-42650000D01*
X57304283Y-42640474D01*
X57287838Y-42525642D01*
X57287838Y-42525640D01*
X57285323Y-42508082D01*
X57225984Y-42377572D01*
X57132400Y-42268963D01*
X57012095Y-42190985D01*
X56995097Y-42185902D01*
X56995096Y-42185901D01*
X56891736Y-42154990D01*
X56891735Y-42154990D01*
X56874739Y-42149907D01*
X56804643Y-42149479D01*
X56749121Y-42149139D01*
X56749118Y-42149139D01*
X56731376Y-42149031D01*
X56729645Y-42149526D01*
X56644233Y-42144378D01*
X56556873Y-42101865D01*
X56531345Y-42079597D01*
X56503220Y-42051472D01*
X56471874Y-42035500D01*
X56400585Y-41999177D01*
X56400586Y-41999177D01*
X56383126Y-41990281D01*
X56363772Y-41987216D01*
X56363770Y-41987215D01*
X56330999Y-41982025D01*
X56283488Y-41974500D01*
X55766512Y-41974500D01*
X55719001Y-41982025D01*
X55686230Y-41987215D01*
X55686228Y-41987216D01*
X55666874Y-41990281D01*
X55649414Y-41999177D01*
X55649415Y-41999177D01*
X55578127Y-42035500D01*
X55546780Y-42051472D01*
X55451472Y-42146780D01*
X55446437Y-42156661D01*
X55380103Y-42217980D01*
X55288953Y-42251607D01*
X55191873Y-42247793D01*
X55103642Y-42207119D01*
X55053956Y-42157433D01*
X55048528Y-42146780D01*
X54953220Y-42051472D01*
X54921874Y-42035500D01*
X54850585Y-41999177D01*
X54850586Y-41999177D01*
X54833126Y-41990281D01*
X54813772Y-41987216D01*
X54813770Y-41987215D01*
X54780999Y-41982025D01*
X54733488Y-41974500D01*
X54216512Y-41974500D01*
X54169001Y-41982025D01*
X54136230Y-41987215D01*
X54136228Y-41987216D01*
X54116874Y-41990281D01*
X54099417Y-41999176D01*
X54099410Y-41999178D01*
X54012544Y-42043439D01*
X53919037Y-42069811D01*
X53822555Y-42058392D01*
X53737788Y-42010920D01*
X53677640Y-41934623D01*
X53651268Y-41841116D01*
X53650500Y-41821579D01*
X53650500Y-41526782D01*
X53640358Y-41457888D01*
X53631830Y-41440518D01*
X53631829Y-41440515D01*
X53589179Y-41353648D01*
X53564197Y-41259760D01*
X53577046Y-41163458D01*
X53625771Y-41079404D01*
X53702952Y-41020395D01*
X53762712Y-41002551D01*
X53762499Y-41001770D01*
X53900817Y-40964060D01*
X53915932Y-40954779D01*
X53915935Y-40954778D01*
X54007876Y-40898326D01*
X54007878Y-40898325D01*
X54022991Y-40889045D01*
X54119200Y-40782754D01*
X54181710Y-40653733D01*
X54205496Y-40512354D01*
X54205647Y-40500000D01*
X54203805Y-40487137D01*
X54187838Y-40375642D01*
X54187838Y-40375640D01*
X54185323Y-40358082D01*
X54125984Y-40227572D01*
X54032400Y-40118963D01*
X53912095Y-40040985D01*
X53895097Y-40035902D01*
X53895096Y-40035901D01*
X53791736Y-40004990D01*
X53791735Y-40004990D01*
X53774739Y-39999907D01*
X53702646Y-39999466D01*
X53649116Y-39999139D01*
X53649113Y-39999139D01*
X53631376Y-39999031D01*
X53614319Y-40003906D01*
X53610165Y-40004475D01*
X53513186Y-39998629D01*
X53467022Y-39981483D01*
X53418881Y-39957951D01*
X53418880Y-39957951D01*
X53401518Y-39949464D01*
X53382398Y-39946675D01*
X53382396Y-39946674D01*
X53342300Y-39940825D01*
X53333218Y-39939500D01*
X51616782Y-39939500D01*
X51547888Y-39949642D01*
X51443145Y-40001068D01*
X51428605Y-40015633D01*
X51428604Y-40015634D01*
X51408373Y-40035901D01*
X51360707Y-40083650D01*
X51309464Y-40188482D01*
X51299500Y-40256782D01*
X51299500Y-40623218D01*
X51309642Y-40692112D01*
X51318170Y-40709481D01*
X51318170Y-40709482D01*
X51331326Y-40736277D01*
X51361068Y-40796855D01*
X51375633Y-40811395D01*
X51375634Y-40811396D01*
X51397402Y-40833126D01*
X51443650Y-40879293D01*
X51448445Y-40881637D01*
X51506223Y-40943055D01*
X51540645Y-41033907D01*
X51537679Y-41131017D01*
X51497776Y-41219600D01*
X51449526Y-41267935D01*
X51443145Y-41271068D01*
X51377911Y-41336416D01*
X51297177Y-41390463D01*
X51201688Y-41409500D01*
X50718388Y-41409500D01*
X50623100Y-41390546D01*
X50584086Y-41366361D01*
X50582400Y-41368963D01*
X50476983Y-41300635D01*
X50462095Y-41290985D01*
X50445097Y-41285902D01*
X50445096Y-41285901D01*
X50341736Y-41254990D01*
X50341735Y-41254990D01*
X50324739Y-41249907D01*
X50251804Y-41249461D01*
X50199114Y-41249139D01*
X50199111Y-41249139D01*
X50181376Y-41249031D01*
X50164322Y-41253905D01*
X50060585Y-41283553D01*
X50060583Y-41283554D01*
X50043529Y-41288428D01*
X49922280Y-41364930D01*
X49827377Y-41472388D01*
X49819839Y-41488442D01*
X49819839Y-41488443D01*
X49819163Y-41489884D01*
X49766447Y-41602163D01*
X49744391Y-41743823D01*
X49762980Y-41885979D01*
X49820720Y-42017203D01*
X49912970Y-42126948D01*
X50032313Y-42206390D01*
X50049246Y-42211680D01*
X50049248Y-42211681D01*
X50152224Y-42243852D01*
X50169157Y-42249142D01*
X50235992Y-42250367D01*
X50294760Y-42251445D01*
X50294762Y-42251445D01*
X50312499Y-42251770D01*
X50329617Y-42247103D01*
X50329618Y-42247103D01*
X50405550Y-42226402D01*
X50502468Y-42219625D01*
X50537998Y-42231513D01*
X50559966Y-42163092D01*
X50593033Y-42116903D01*
X50615208Y-42092404D01*
X50693205Y-42034477D01*
X50787433Y-42010808D01*
X50799816Y-42010500D01*
X50863805Y-42010500D01*
X50959093Y-42029454D01*
X50996287Y-42054306D01*
X51073484Y-42017897D01*
X51133724Y-42010500D01*
X51201603Y-42010500D01*
X51296891Y-42029454D01*
X51377522Y-42083280D01*
X51403910Y-42109623D01*
X51457956Y-42190359D01*
X51476991Y-42285631D01*
X51458118Y-42380935D01*
X51404211Y-42461762D01*
X51323475Y-42515808D01*
X51228203Y-42534843D01*
X51156651Y-42524404D01*
X51074739Y-42499907D01*
X51074738Y-42499907D01*
X51075307Y-42498005D01*
X51005481Y-42472935D01*
X50996357Y-42464647D01*
X50959093Y-42489546D01*
X50930852Y-42497193D01*
X50931377Y-42499031D01*
X50931376Y-42499031D01*
X50846065Y-42523413D01*
X50749238Y-42531374D01*
X50711012Y-42519101D01*
X50687225Y-42590193D01*
X50657678Y-42631463D01*
X50589121Y-42709090D01*
X50577377Y-42722388D01*
X50569839Y-42738442D01*
X50569839Y-42738443D01*
X50542449Y-42796782D01*
X50516447Y-42852163D01*
X50513719Y-42869687D01*
X50513718Y-42869689D01*
X50497549Y-42973542D01*
X50494391Y-42993823D01*
X50512980Y-43135979D01*
X50570720Y-43267203D01*
X50662970Y-43376948D01*
X50782313Y-43456390D01*
X50799246Y-43461680D01*
X50799248Y-43461681D01*
X50902224Y-43493852D01*
X50919157Y-43499142D01*
X50985992Y-43500367D01*
X51044760Y-43501445D01*
X51044762Y-43501445D01*
X51062499Y-43501770D01*
X51079617Y-43497103D01*
X51079618Y-43497103D01*
X51111138Y-43488510D01*
X51208057Y-43481733D01*
X51300191Y-43512561D01*
X51373514Y-43576301D01*
X51416864Y-43663248D01*
X51423641Y-43760167D01*
X51392813Y-43852301D01*
X51379347Y-43873337D01*
X51375248Y-43879084D01*
X51360707Y-43893650D01*
X51351669Y-43912140D01*
X51331696Y-43953001D01*
X51309464Y-43998482D01*
X51306675Y-44017602D01*
X51306674Y-44017604D01*
X51302191Y-44048339D01*
X51299500Y-44066782D01*
X51299500Y-44188034D01*
X51280546Y-44283322D01*
X51226570Y-44364104D01*
X51145788Y-44418080D01*
X51050500Y-44437034D01*
X50955212Y-44418080D01*
X50874430Y-44364104D01*
X50547896Y-44037570D01*
X50533221Y-44021554D01*
X50526458Y-44013494D01*
X50526457Y-44013494D01*
X50512455Y-43996806D01*
X50493589Y-43985914D01*
X50493588Y-43985913D01*
X50484467Y-43980647D01*
X50466153Y-43968980D01*
X50439684Y-43950446D01*
X50425637Y-43946682D01*
X50413045Y-43939412D01*
X50391594Y-43935630D01*
X50391589Y-43935628D01*
X50381232Y-43933802D01*
X50360026Y-43929101D01*
X50349854Y-43926375D01*
X50349849Y-43926375D01*
X50328807Y-43920736D01*
X50307101Y-43922635D01*
X50307100Y-43922635D01*
X50296620Y-43923552D01*
X50274918Y-43924500D01*
X48773354Y-43924500D01*
X48678066Y-43905546D01*
X48597439Y-43851724D01*
X48570917Y-43825248D01*
X48570915Y-43825247D01*
X48556350Y-43810707D01*
X48551555Y-43808363D01*
X48493777Y-43746945D01*
X48459355Y-43656093D01*
X48462321Y-43558983D01*
X48502224Y-43470400D01*
X48550474Y-43422065D01*
X48556855Y-43418932D01*
X48639293Y-43336350D01*
X48690536Y-43231518D01*
X48696171Y-43192896D01*
X48699198Y-43172142D01*
X48700500Y-43163218D01*
X48700500Y-42796782D01*
X48690358Y-42727888D01*
X48638932Y-42623145D01*
X48605923Y-42590193D01*
X48570916Y-42555248D01*
X48556350Y-42540707D01*
X48551555Y-42538363D01*
X48493777Y-42476945D01*
X48459355Y-42386093D01*
X48462321Y-42288983D01*
X48502224Y-42200400D01*
X48550474Y-42152065D01*
X48556855Y-42148932D01*
X48639293Y-42066350D01*
X48671252Y-42000969D01*
X48682050Y-41978879D01*
X48682050Y-41978878D01*
X48690536Y-41961518D01*
X48693410Y-41941823D01*
X48699198Y-41902142D01*
X48700500Y-41893218D01*
X48700500Y-41526782D01*
X48690358Y-41457888D01*
X48681829Y-41440515D01*
X48661648Y-41399412D01*
X48638932Y-41353145D01*
X48556350Y-41270707D01*
X48451518Y-41219464D01*
X48432398Y-41216675D01*
X48432396Y-41216674D01*
X48392300Y-41210825D01*
X48383218Y-41209500D01*
X46666782Y-41209500D01*
X46597888Y-41219642D01*
X46493145Y-41271068D01*
X46478605Y-41285633D01*
X46478604Y-41285634D01*
X46452866Y-41311417D01*
X46372132Y-41365463D01*
X46276644Y-41384500D01*
X46265082Y-41384500D01*
X46243382Y-41383553D01*
X46232893Y-41382635D01*
X46232891Y-41382635D01*
X46211193Y-41380737D01*
X46179970Y-41389103D01*
X46158774Y-41393801D01*
X46148407Y-41395629D01*
X46148406Y-41395629D01*
X46126955Y-41399412D01*
X46114362Y-41406682D01*
X46100316Y-41410446D01*
X46082470Y-41422942D01*
X46073849Y-41428978D01*
X46055532Y-41440647D01*
X46046411Y-41445913D01*
X46046409Y-41445915D01*
X46027545Y-41456806D01*
X46013543Y-41473493D01*
X46006783Y-41481549D01*
X45992109Y-41497564D01*
X44537570Y-42952104D01*
X44521554Y-42966779D01*
X44496806Y-42987545D01*
X44485914Y-43006411D01*
X44485913Y-43006412D01*
X44480647Y-43015533D01*
X44468980Y-43033847D01*
X44450446Y-43060316D01*
X44446682Y-43074363D01*
X44439412Y-43086955D01*
X44435630Y-43108406D01*
X44435628Y-43108411D01*
X44433802Y-43118768D01*
X44429101Y-43139974D01*
X44426375Y-43150146D01*
X44426375Y-43150151D01*
X44420736Y-43171193D01*
X44422635Y-43192896D01*
X44423552Y-43203380D01*
X44424500Y-43225082D01*
X44424500Y-46100500D01*
X44405546Y-46195788D01*
X44351570Y-46276570D01*
X44270788Y-46330546D01*
X44175500Y-46349500D01*
X43959978Y-46349500D01*
X43864690Y-46330546D01*
X43798456Y-46286290D01*
X43794552Y-46280448D01*
X43728231Y-46236133D01*
X43704182Y-46231349D01*
X43704181Y-46231349D01*
X43681739Y-46226885D01*
X43681737Y-46226885D01*
X43669748Y-46224500D01*
X42830252Y-46224500D01*
X42818263Y-46226885D01*
X42818261Y-46226885D01*
X42795819Y-46231349D01*
X42795818Y-46231349D01*
X42771769Y-46236133D01*
X42705448Y-46280448D01*
X42661133Y-46346769D01*
X42649500Y-46405252D01*
X42649500Y-46944748D01*
X42651885Y-46956737D01*
X42651885Y-46956739D01*
X42653353Y-46964120D01*
X42661133Y-47003231D01*
X42668960Y-47014945D01*
X42685879Y-47099997D01*
X42668960Y-47185055D01*
X42661133Y-47196769D01*
X42649500Y-47255252D01*
X42649500Y-47694748D01*
X42661133Y-47753231D01*
X42674758Y-47773621D01*
X42677280Y-47779711D01*
X42696234Y-47874999D01*
X42677280Y-47970289D01*
X42674758Y-47976379D01*
X42661133Y-47996769D01*
X42649500Y-48055252D01*
X42649500Y-48494748D01*
X42661133Y-48553231D01*
X42668960Y-48564945D01*
X42685879Y-48649997D01*
X42668960Y-48735055D01*
X42661133Y-48746769D01*
X42649500Y-48805252D01*
X42649500Y-49344748D01*
X42661133Y-49403231D01*
X42674757Y-49423620D01*
X42684143Y-49446280D01*
X42682077Y-49447136D01*
X42705567Y-49503840D01*
X42705570Y-49600995D01*
X42668394Y-49690756D01*
X42599698Y-49759458D01*
X42509940Y-49796641D01*
X42443589Y-49800793D01*
X42389690Y-49796938D01*
X42380716Y-49794858D01*
X42380000Y-49794857D01*
X42366293Y-49797984D01*
X42362082Y-49798455D01*
X42334390Y-49800000D01*
X42239601Y-49800000D01*
X42144313Y-49781046D01*
X42063531Y-49727070D01*
X42009555Y-49646288D01*
X41990601Y-49551000D01*
X42009555Y-49455712D01*
X42020197Y-49435802D01*
X42025243Y-49423621D01*
X42038867Y-49403231D01*
X42050500Y-49344748D01*
X42050500Y-48805252D01*
X42038867Y-48746769D01*
X42031040Y-48735055D01*
X42014121Y-48650003D01*
X42031040Y-48564945D01*
X42038867Y-48553231D01*
X42050500Y-48494748D01*
X42050500Y-48055252D01*
X42038867Y-47996769D01*
X42025242Y-47976379D01*
X42022720Y-47970289D01*
X42003766Y-47875001D01*
X42022720Y-47779711D01*
X42025242Y-47773621D01*
X42038867Y-47753231D01*
X42050500Y-47694748D01*
X42050500Y-47255252D01*
X42038867Y-47196769D01*
X42031040Y-47185055D01*
X42014121Y-47100003D01*
X42031040Y-47014945D01*
X42038867Y-47003231D01*
X42046647Y-46964120D01*
X42048115Y-46956739D01*
X42048115Y-46956737D01*
X42050500Y-46944748D01*
X42050500Y-46405252D01*
X42038867Y-46346769D01*
X41994552Y-46280448D01*
X41928231Y-46236133D01*
X41904182Y-46231349D01*
X41904181Y-46231349D01*
X41881739Y-46226885D01*
X41881737Y-46226885D01*
X41869748Y-46224500D01*
X41384500Y-46224500D01*
X41289212Y-46205546D01*
X41208430Y-46151570D01*
X41154454Y-46070788D01*
X41135500Y-45975500D01*
X41135500Y-45974500D01*
X41154454Y-45879212D01*
X41208430Y-45798430D01*
X41289212Y-45744454D01*
X41365596Y-45729260D01*
X41365344Y-45726699D01*
X41377520Y-45725500D01*
X41389748Y-45725500D01*
X41401737Y-45723115D01*
X41401739Y-45723115D01*
X41424181Y-45718651D01*
X41424182Y-45718651D01*
X41448231Y-45713867D01*
X41514552Y-45669552D01*
X41558867Y-45603231D01*
X41570500Y-45544748D01*
X41570500Y-43065252D01*
X41558867Y-43006769D01*
X41514552Y-42940448D01*
X41448231Y-42896133D01*
X41424182Y-42891349D01*
X41424181Y-42891349D01*
X41401739Y-42886885D01*
X41401737Y-42886885D01*
X41389748Y-42884500D01*
X40230252Y-42884500D01*
X40218263Y-42886885D01*
X40218261Y-42886885D01*
X40195819Y-42891349D01*
X40195818Y-42891349D01*
X40171769Y-42896133D01*
X40105448Y-42940448D01*
X40061133Y-43006769D01*
X40049500Y-43065252D01*
X40049500Y-45544748D01*
X40061133Y-45603231D01*
X40105448Y-45669552D01*
X40171769Y-45713867D01*
X40195818Y-45718651D01*
X40195819Y-45718651D01*
X40218261Y-45723115D01*
X40218263Y-45723115D01*
X40230252Y-45725500D01*
X40242480Y-45725500D01*
X40254656Y-45726699D01*
X40254404Y-45729260D01*
X40330788Y-45744454D01*
X40411570Y-45798430D01*
X40465546Y-45879212D01*
X40484500Y-45974500D01*
X40484500Y-46534918D01*
X40483552Y-46556620D01*
X40480736Y-46588807D01*
X40486375Y-46609849D01*
X40486375Y-46609854D01*
X40489101Y-46620026D01*
X40493802Y-46641232D01*
X40495628Y-46651589D01*
X40495630Y-46651594D01*
X40499412Y-46673045D01*
X40506682Y-46685637D01*
X40510446Y-46699684D01*
X40528980Y-46726153D01*
X40540647Y-46744467D01*
X40556806Y-46772456D01*
X40553496Y-46774367D01*
X40581619Y-46825636D01*
X40592191Y-46922214D01*
X40565000Y-47015486D01*
X40504185Y-47091253D01*
X40419004Y-47137979D01*
X40344140Y-47149500D01*
X38844500Y-47149500D01*
X38749212Y-47130546D01*
X38668430Y-47076570D01*
X38614454Y-46995788D01*
X38595500Y-46900500D01*
X38595500Y-45974500D01*
X38614454Y-45879212D01*
X38668430Y-45798430D01*
X38749212Y-45744454D01*
X38825596Y-45729260D01*
X38825344Y-45726699D01*
X38837520Y-45725500D01*
X38849748Y-45725500D01*
X38861737Y-45723115D01*
X38861739Y-45723115D01*
X38884181Y-45718651D01*
X38884182Y-45718651D01*
X38908231Y-45713867D01*
X38974552Y-45669552D01*
X39018867Y-45603231D01*
X39030500Y-45544748D01*
X39030500Y-43065252D01*
X39018867Y-43006769D01*
X38974552Y-42940448D01*
X38908231Y-42896133D01*
X38884182Y-42891349D01*
X38884181Y-42891349D01*
X38861739Y-42886885D01*
X38861737Y-42886885D01*
X38849748Y-42884500D01*
X37690252Y-42884500D01*
X37678263Y-42886885D01*
X37678261Y-42886885D01*
X37655819Y-42891349D01*
X37655818Y-42891349D01*
X37631769Y-42896133D01*
X37565448Y-42940448D01*
X37521133Y-43006769D01*
X37509500Y-43065252D01*
X37509500Y-45544748D01*
X37521133Y-45603231D01*
X37565448Y-45669552D01*
X37631769Y-45713867D01*
X37655818Y-45718651D01*
X37655819Y-45718651D01*
X37678261Y-45723115D01*
X37678263Y-45723115D01*
X37690252Y-45725500D01*
X37702480Y-45725500D01*
X37714656Y-45726699D01*
X37714404Y-45729260D01*
X37790788Y-45744454D01*
X37871570Y-45798430D01*
X37925546Y-45879212D01*
X37944500Y-45974500D01*
X37944500Y-47164918D01*
X37943552Y-47186620D01*
X37940736Y-47218807D01*
X37946375Y-47239849D01*
X37946375Y-47239854D01*
X37949101Y-47250026D01*
X37953802Y-47271232D01*
X37955628Y-47281589D01*
X37955630Y-47281594D01*
X37959412Y-47303045D01*
X37966682Y-47315637D01*
X37970446Y-47329684D01*
X37988980Y-47356153D01*
X38000647Y-47374467D01*
X38016806Y-47402455D01*
X38041569Y-47423233D01*
X38057570Y-47437896D01*
X38144104Y-47524430D01*
X38198080Y-47605212D01*
X38217034Y-47700500D01*
X38198080Y-47795788D01*
X38144104Y-47876570D01*
X38063322Y-47930546D01*
X37968034Y-47949500D01*
X36342966Y-47949500D01*
X36247678Y-47930546D01*
X36166896Y-47876570D01*
X36128430Y-47838104D01*
X36074454Y-47757322D01*
X36055500Y-47662034D01*
X36055500Y-45974500D01*
X36074454Y-45879212D01*
X36128430Y-45798430D01*
X36209212Y-45744454D01*
X36285596Y-45729260D01*
X36285344Y-45726699D01*
X36297520Y-45725500D01*
X36309748Y-45725500D01*
X36321737Y-45723115D01*
X36321739Y-45723115D01*
X36344181Y-45718651D01*
X36344182Y-45718651D01*
X36368231Y-45713867D01*
X36434552Y-45669552D01*
X36478867Y-45603231D01*
X36490500Y-45544748D01*
X36490500Y-43065252D01*
X36478867Y-43006769D01*
X36434552Y-42940448D01*
X36368231Y-42896133D01*
X36344182Y-42891349D01*
X36344181Y-42891349D01*
X36321739Y-42886885D01*
X36321737Y-42886885D01*
X36309748Y-42884500D01*
X35150252Y-42884500D01*
X35138263Y-42886885D01*
X35138261Y-42886885D01*
X35115819Y-42891349D01*
X35115818Y-42891349D01*
X35091769Y-42896133D01*
X35025448Y-42940448D01*
X34981133Y-43006769D01*
X34969500Y-43065252D01*
X34969500Y-45544748D01*
X34981133Y-45603231D01*
X35025448Y-45669552D01*
X35091769Y-45713867D01*
X35115818Y-45718651D01*
X35115819Y-45718651D01*
X35138261Y-45723115D01*
X35138263Y-45723115D01*
X35150252Y-45725500D01*
X35162480Y-45725500D01*
X35174656Y-45726699D01*
X35174404Y-45729260D01*
X35250788Y-45744454D01*
X35331570Y-45798430D01*
X35385546Y-45879212D01*
X35404500Y-45974500D01*
X35404500Y-47874918D01*
X35403552Y-47896620D01*
X35400736Y-47928807D01*
X35406375Y-47949849D01*
X35406375Y-47949854D01*
X35409101Y-47960026D01*
X35413802Y-47981232D01*
X35415628Y-47991589D01*
X35415630Y-47991594D01*
X35419412Y-48013045D01*
X35426682Y-48025637D01*
X35430446Y-48039684D01*
X35448980Y-48066153D01*
X35460647Y-48084467D01*
X35465913Y-48093588D01*
X35476806Y-48112455D01*
X35501569Y-48133233D01*
X35517570Y-48147896D01*
X35694104Y-48324430D01*
X35748080Y-48405212D01*
X35767034Y-48500500D01*
X35748080Y-48595788D01*
X35694104Y-48676570D01*
X35613322Y-48730546D01*
X35518034Y-48749500D01*
X33892966Y-48749500D01*
X33797678Y-48730546D01*
X33716897Y-48676570D01*
X33588431Y-48548105D01*
X33534454Y-48467324D01*
X33515500Y-48372035D01*
X33515500Y-45974500D01*
X33534454Y-45879212D01*
X33588430Y-45798430D01*
X33669212Y-45744454D01*
X33745596Y-45729260D01*
X33745344Y-45726699D01*
X33757520Y-45725500D01*
X33769748Y-45725500D01*
X33781737Y-45723115D01*
X33781739Y-45723115D01*
X33804181Y-45718651D01*
X33804182Y-45718651D01*
X33828231Y-45713867D01*
X33894552Y-45669552D01*
X33938867Y-45603231D01*
X33950500Y-45544748D01*
X33950500Y-43065252D01*
X33938867Y-43006769D01*
X33894552Y-42940448D01*
X33828231Y-42896133D01*
X33804182Y-42891349D01*
X33804181Y-42891349D01*
X33781739Y-42886885D01*
X33781737Y-42886885D01*
X33769748Y-42884500D01*
X32610252Y-42884500D01*
X32598263Y-42886885D01*
X32598261Y-42886885D01*
X32575819Y-42891349D01*
X32575818Y-42891349D01*
X32551769Y-42896133D01*
X32485448Y-42940448D01*
X32441133Y-43006769D01*
X32429500Y-43065252D01*
X32429500Y-45544748D01*
X32441133Y-45603231D01*
X32485448Y-45669552D01*
X32551769Y-45713867D01*
X32575818Y-45718651D01*
X32575819Y-45718651D01*
X32598261Y-45723115D01*
X32598263Y-45723115D01*
X32610252Y-45725500D01*
X32622480Y-45725500D01*
X32634656Y-45726699D01*
X32634404Y-45729260D01*
X32710788Y-45744454D01*
X32791570Y-45798430D01*
X32845546Y-45879212D01*
X32864500Y-45974500D01*
X32864500Y-48584918D01*
X32863552Y-48606620D01*
X32860736Y-48638807D01*
X32866375Y-48659849D01*
X32866375Y-48659854D01*
X32869101Y-48670026D01*
X32873802Y-48691232D01*
X32875628Y-48701589D01*
X32875630Y-48701594D01*
X32879412Y-48723045D01*
X32886682Y-48735637D01*
X32890446Y-48749684D01*
X32908980Y-48776153D01*
X32920647Y-48794467D01*
X32936806Y-48822455D01*
X32961572Y-48843236D01*
X32977577Y-48857903D01*
X33407104Y-49287431D01*
X33421779Y-49303446D01*
X33442545Y-49328194D01*
X33461409Y-49339085D01*
X33478099Y-49353090D01*
X33476859Y-49354568D01*
X33528000Y-49399418D01*
X33570971Y-49486553D01*
X33577326Y-49583500D01*
X33546097Y-49675499D01*
X33482038Y-49748544D01*
X33394903Y-49791515D01*
X33330456Y-49800000D01*
X29725741Y-49800000D01*
X29697271Y-49798367D01*
X29694458Y-49798043D01*
X29680716Y-49794858D01*
X29680000Y-49794857D01*
X29675565Y-49795869D01*
X29675194Y-49795826D01*
X29671035Y-49795472D01*
X29671136Y-49796879D01*
X29479123Y-49810612D01*
X29479119Y-49810613D01*
X29470263Y-49811246D01*
X29461587Y-49813133D01*
X29461582Y-49813134D01*
X29273487Y-49854051D01*
X29273484Y-49854052D01*
X29264795Y-49855942D01*
X29256460Y-49859051D01*
X29256456Y-49859052D01*
X29143501Y-49901182D01*
X29067780Y-49929425D01*
X28883228Y-50030198D01*
X28876107Y-50035529D01*
X28876105Y-50035530D01*
X28723478Y-50149785D01*
X28714895Y-50156210D01*
X28566210Y-50304895D01*
X28560880Y-50312015D01*
X28457338Y-50450332D01*
X28440198Y-50473228D01*
X28339425Y-50657780D01*
X28320282Y-50709104D01*
X28293081Y-50782034D01*
X28265942Y-50854795D01*
X28221246Y-51060263D01*
X28206938Y-51260310D01*
X28204858Y-51269284D01*
X28204857Y-51270000D01*
X28207984Y-51283707D01*
X28208455Y-51287918D01*
X28210000Y-51315610D01*
X28210000Y-52216000D01*
X28191046Y-52311288D01*
X28137070Y-52392070D01*
X28056288Y-52446046D01*
X27961000Y-52465000D01*
X25556847Y-52465000D01*
X25529955Y-52463544D01*
X25504028Y-52460727D01*
X25490593Y-52460000D01*
X25124527Y-52460000D01*
X25104069Y-52464069D01*
X25100000Y-52484527D01*
X25100000Y-56601000D01*
X25081046Y-56696288D01*
X25027070Y-56777070D01*
X24946288Y-56831046D01*
X24851000Y-56850000D01*
X24349000Y-56850000D01*
X24253712Y-56831046D01*
X24172930Y-56777070D01*
X24118954Y-56696288D01*
X24100000Y-56601000D01*
X24100000Y-52484527D01*
X24095931Y-52464069D01*
X24075473Y-52460000D01*
X23779000Y-52460000D01*
X23683712Y-52441046D01*
X23602930Y-52387070D01*
X23548954Y-52306288D01*
X23530000Y-52211000D01*
X23530000Y-44969600D01*
X25064808Y-44969600D01*
X25071308Y-45087709D01*
X25079098Y-45229264D01*
X25079830Y-45242574D01*
X25081548Y-45251209D01*
X25081548Y-45251212D01*
X25093511Y-45311350D01*
X25133166Y-45510708D01*
X25136081Y-45519008D01*
X25136081Y-45519009D01*
X25220635Y-45759784D01*
X25223749Y-45768652D01*
X25227801Y-45776453D01*
X25227803Y-45776457D01*
X25345716Y-46003449D01*
X25345719Y-46003454D01*
X25349774Y-46011260D01*
X25354893Y-46018423D01*
X25354894Y-46018425D01*
X25503605Y-46226526D01*
X25503609Y-46226531D01*
X25508725Y-46233690D01*
X25552829Y-46279923D01*
X25691346Y-46425127D01*
X25691351Y-46425132D01*
X25697431Y-46431505D01*
X25704352Y-46436961D01*
X25704353Y-46436962D01*
X25905207Y-46595303D01*
X25905212Y-46595306D01*
X25912126Y-46600757D01*
X25919739Y-46605179D01*
X25919742Y-46605181D01*
X26091163Y-46704750D01*
X26148528Y-46738070D01*
X26401919Y-46840704D01*
X26445663Y-46851570D01*
X26658703Y-46904490D01*
X26658708Y-46904491D01*
X26667243Y-46906611D01*
X26675998Y-46907508D01*
X26894082Y-46929853D01*
X26894090Y-46929853D01*
X26900401Y-46930500D01*
X27069642Y-46930500D01*
X27074017Y-46930190D01*
X27074023Y-46930190D01*
X27132136Y-46926075D01*
X27272705Y-46916122D01*
X27281318Y-46914268D01*
X27281323Y-46914267D01*
X27448725Y-46878226D01*
X27539968Y-46858582D01*
X27796458Y-46763958D01*
X27927021Y-46693510D01*
X28029308Y-46638319D01*
X28029312Y-46638316D01*
X28037056Y-46634138D01*
X28238457Y-46485381D01*
X28249880Y-46476944D01*
X28249881Y-46476943D01*
X28256962Y-46471713D01*
X28372771Y-46357709D01*
X28445518Y-46286096D01*
X28445523Y-46286091D01*
X28451788Y-46279923D01*
X28492266Y-46226885D01*
X28612308Y-46069592D01*
X28612309Y-46069590D01*
X28617647Y-46062596D01*
X28638656Y-46025083D01*
X28746930Y-45831744D01*
X28751230Y-45824066D01*
X28849871Y-45569095D01*
X28855515Y-45544748D01*
X28909614Y-45311350D01*
X28909614Y-45311347D01*
X28911603Y-45302768D01*
X28935192Y-45030400D01*
X28920170Y-44757426D01*
X28916811Y-44740536D01*
X28895474Y-44633275D01*
X28866834Y-44489292D01*
X28849340Y-44439476D01*
X28779165Y-44239645D01*
X28779163Y-44239641D01*
X28776251Y-44231348D01*
X28772197Y-44223543D01*
X28654284Y-43996551D01*
X28654281Y-43996546D01*
X28650226Y-43988740D01*
X28645106Y-43981575D01*
X28496395Y-43773474D01*
X28496391Y-43773469D01*
X28491275Y-43766310D01*
X28392959Y-43663248D01*
X28308654Y-43574873D01*
X28308649Y-43574868D01*
X28302569Y-43568495D01*
X28289481Y-43558177D01*
X28094793Y-43404697D01*
X28094788Y-43404694D01*
X28087874Y-43399243D01*
X28066411Y-43386776D01*
X27859085Y-43266352D01*
X27851472Y-43261930D01*
X27598081Y-43159296D01*
X27478030Y-43129475D01*
X27341297Y-43095510D01*
X27341292Y-43095509D01*
X27332757Y-43093389D01*
X27312838Y-43091348D01*
X27105918Y-43070147D01*
X27105910Y-43070147D01*
X27099599Y-43069500D01*
X26930358Y-43069500D01*
X26925983Y-43069810D01*
X26925977Y-43069810D01*
X26867864Y-43073925D01*
X26727295Y-43083878D01*
X26718682Y-43085732D01*
X26718677Y-43085733D01*
X26587105Y-43114060D01*
X26460032Y-43141418D01*
X26203542Y-43236042D01*
X26083482Y-43300823D01*
X25970692Y-43361681D01*
X25970688Y-43361684D01*
X25962944Y-43365862D01*
X25743038Y-43528287D01*
X25672105Y-43598115D01*
X25554482Y-43713904D01*
X25554477Y-43713909D01*
X25548212Y-43720077D01*
X25542873Y-43727073D01*
X25542871Y-43727075D01*
X25387692Y-43930408D01*
X25382353Y-43937404D01*
X25378057Y-43945074D01*
X25378055Y-43945078D01*
X25326257Y-44037570D01*
X25248770Y-44175934D01*
X25150129Y-44430905D01*
X25148143Y-44439472D01*
X25148142Y-44439476D01*
X25090386Y-44688650D01*
X25088397Y-44697232D01*
X25064808Y-44969600D01*
X23530000Y-44969600D01*
X23530000Y-40443823D01*
X42694391Y-40443823D01*
X42712980Y-40585979D01*
X42770720Y-40717203D01*
X42862970Y-40826948D01*
X42982313Y-40906390D01*
X42999246Y-40911680D01*
X42999248Y-40911681D01*
X43091495Y-40940500D01*
X43119157Y-40949142D01*
X43185992Y-40950367D01*
X43244760Y-40951445D01*
X43244762Y-40951445D01*
X43262499Y-40951770D01*
X43269417Y-40949884D01*
X43358656Y-40956360D01*
X43445489Y-40999938D01*
X43468601Y-41020349D01*
X43496780Y-41048528D01*
X43514234Y-41057421D01*
X43514235Y-41057422D01*
X43560747Y-41081121D01*
X43616874Y-41109719D01*
X43636228Y-41112784D01*
X43636230Y-41112785D01*
X43669001Y-41117975D01*
X43716512Y-41125500D01*
X44233488Y-41125500D01*
X44280999Y-41117975D01*
X44313770Y-41112785D01*
X44313772Y-41112784D01*
X44333126Y-41109719D01*
X44389253Y-41081121D01*
X44435765Y-41057422D01*
X44435766Y-41057421D01*
X44453220Y-41048528D01*
X44548528Y-40953220D01*
X44566094Y-40918746D01*
X44600823Y-40850585D01*
X44609719Y-40833126D01*
X44625500Y-40733488D01*
X44625500Y-40166512D01*
X44609719Y-40066874D01*
X44548528Y-39946780D01*
X44453220Y-39851472D01*
X44333126Y-39790281D01*
X44313772Y-39787216D01*
X44313770Y-39787215D01*
X44280999Y-39782025D01*
X44233488Y-39774500D01*
X43716512Y-39774500D01*
X43669001Y-39782025D01*
X43636230Y-39787215D01*
X43636228Y-39787216D01*
X43616874Y-39790281D01*
X43496780Y-39851472D01*
X43468807Y-39879445D01*
X43388025Y-39933421D01*
X43292737Y-39952375D01*
X43279769Y-39951411D01*
X43274739Y-39949907D01*
X43215410Y-39949544D01*
X43149114Y-39949139D01*
X43149111Y-39949139D01*
X43131376Y-39949031D01*
X43114322Y-39953905D01*
X43010585Y-39983553D01*
X43010583Y-39983554D01*
X42993529Y-39988428D01*
X42872280Y-40064930D01*
X42777377Y-40172388D01*
X42769839Y-40188442D01*
X42769839Y-40188443D01*
X42737754Y-40256782D01*
X42716447Y-40302163D01*
X42713719Y-40319687D01*
X42713718Y-40319689D01*
X42697473Y-40424030D01*
X42694391Y-40443823D01*
X23530000Y-40443823D01*
X23530000Y-32242723D01*
X23531268Y-32242723D01*
X23530705Y-32239657D01*
X23535143Y-32220358D01*
X23530927Y-32201727D01*
X23531045Y-32198729D01*
X23542301Y-31969600D01*
X25064808Y-31969600D01*
X25070481Y-32072685D01*
X25078782Y-32223524D01*
X25079830Y-32242574D01*
X25081548Y-32251209D01*
X25081548Y-32251212D01*
X25093511Y-32311350D01*
X25133166Y-32510708D01*
X25136081Y-32519008D01*
X25136081Y-32519009D01*
X25217581Y-32751087D01*
X25223749Y-32768652D01*
X25227801Y-32776453D01*
X25227803Y-32776457D01*
X25345716Y-33003449D01*
X25345719Y-33003454D01*
X25349774Y-33011260D01*
X25354893Y-33018423D01*
X25354894Y-33018425D01*
X25503605Y-33226526D01*
X25503609Y-33226531D01*
X25508725Y-33233690D01*
X25567634Y-33295443D01*
X25691346Y-33425127D01*
X25691351Y-33425132D01*
X25697431Y-33431505D01*
X25704352Y-33436961D01*
X25704353Y-33436962D01*
X25905207Y-33595303D01*
X25905212Y-33595306D01*
X25912126Y-33600757D01*
X25919739Y-33605179D01*
X25919742Y-33605181D01*
X26068718Y-33691713D01*
X26148528Y-33738070D01*
X26401919Y-33840704D01*
X26460530Y-33855263D01*
X26658703Y-33904490D01*
X26658708Y-33904491D01*
X26667243Y-33906611D01*
X26675998Y-33907508D01*
X26894082Y-33929853D01*
X26894090Y-33929853D01*
X26900401Y-33930500D01*
X27069642Y-33930500D01*
X27074017Y-33930190D01*
X27074023Y-33930190D01*
X27132136Y-33926075D01*
X27272705Y-33916122D01*
X27281318Y-33914268D01*
X27281323Y-33914267D01*
X27426342Y-33883045D01*
X27539968Y-33858582D01*
X27796458Y-33763958D01*
X27995705Y-33656450D01*
X28029308Y-33638319D01*
X28029312Y-33638316D01*
X28037056Y-33634138D01*
X28239877Y-33484332D01*
X28249880Y-33476944D01*
X28249881Y-33476943D01*
X28256962Y-33471713D01*
X28367843Y-33362560D01*
X28445518Y-33286096D01*
X28445523Y-33286091D01*
X28451788Y-33279923D01*
X28460566Y-33268422D01*
X28612308Y-33069592D01*
X28612309Y-33069590D01*
X28617647Y-33062596D01*
X28623725Y-33051744D01*
X28746930Y-32831744D01*
X28751230Y-32824066D01*
X28849871Y-32569095D01*
X28855062Y-32546702D01*
X28893547Y-32380667D01*
X31599500Y-32380667D01*
X31599501Y-32974332D01*
X31602440Y-33005434D01*
X31646702Y-33131476D01*
X31726070Y-33238930D01*
X31741045Y-33249991D01*
X31802139Y-33295116D01*
X31833524Y-33318298D01*
X31851085Y-33324465D01*
X31851087Y-33324466D01*
X31945247Y-33357532D01*
X31945250Y-33357533D01*
X31959566Y-33362560D01*
X31990667Y-33365500D01*
X32011879Y-33365500D01*
X32107167Y-33384454D01*
X32187949Y-33438430D01*
X32215842Y-33471671D01*
X32218968Y-33476135D01*
X32230647Y-33494467D01*
X32246806Y-33522455D01*
X32271572Y-33543236D01*
X32287565Y-33557891D01*
X32620052Y-33890379D01*
X32674025Y-33971156D01*
X32692979Y-34066444D01*
X32674025Y-34161732D01*
X32620049Y-34242514D01*
X32556038Y-34285284D01*
X32551769Y-34286133D01*
X32485448Y-34330448D01*
X32441133Y-34396769D01*
X32429500Y-34455252D01*
X32429500Y-36934748D01*
X32431885Y-36946737D01*
X32431885Y-36946739D01*
X32436349Y-36969181D01*
X32441133Y-36993231D01*
X32485448Y-37059552D01*
X32551769Y-37103867D01*
X32575818Y-37108651D01*
X32575819Y-37108651D01*
X32598261Y-37113115D01*
X32598263Y-37113115D01*
X32610252Y-37115500D01*
X33769748Y-37115500D01*
X33781737Y-37113115D01*
X33781739Y-37113115D01*
X33804181Y-37108651D01*
X33804182Y-37108651D01*
X33828231Y-37103867D01*
X33894552Y-37059552D01*
X33938867Y-36993231D01*
X33943651Y-36969181D01*
X33948115Y-36946739D01*
X33948115Y-36946737D01*
X33950500Y-36934748D01*
X33950500Y-34455252D01*
X33938867Y-34396769D01*
X33894552Y-34330448D01*
X33828231Y-34286133D01*
X33804182Y-34281349D01*
X33804181Y-34281349D01*
X33781739Y-34276885D01*
X33781737Y-34276885D01*
X33769748Y-34274500D01*
X33757520Y-34274500D01*
X33745344Y-34273301D01*
X33745596Y-34270740D01*
X33669212Y-34255546D01*
X33588430Y-34201570D01*
X33534454Y-34120788D01*
X33515500Y-34025500D01*
X33515500Y-34025070D01*
X33516448Y-34003368D01*
X33517364Y-33992893D01*
X33519263Y-33971193D01*
X33510897Y-33939970D01*
X33506199Y-33918774D01*
X33504371Y-33908407D01*
X33504371Y-33908406D01*
X33500588Y-33886955D01*
X33493318Y-33874362D01*
X33489554Y-33860316D01*
X33471022Y-33833849D01*
X33459353Y-33815532D01*
X33454087Y-33806411D01*
X33454085Y-33806409D01*
X33443194Y-33787545D01*
X33418442Y-33766775D01*
X33402436Y-33752109D01*
X33255707Y-33605380D01*
X33201731Y-33524598D01*
X33182777Y-33429310D01*
X33201731Y-33334022D01*
X33255705Y-33253242D01*
X33258959Y-33249988D01*
X33273930Y-33238930D01*
X33284988Y-33223959D01*
X33284990Y-33223957D01*
X33342238Y-33146450D01*
X33342238Y-33146449D01*
X33353298Y-33131476D01*
X33377487Y-33062596D01*
X33392532Y-33019753D01*
X33392533Y-33019748D01*
X33397560Y-33005434D01*
X33400500Y-32974333D01*
X33400499Y-32380668D01*
X33400499Y-32380667D01*
X34599500Y-32380667D01*
X34599501Y-32974332D01*
X34602440Y-33005434D01*
X34646702Y-33131476D01*
X34726070Y-33238930D01*
X34741045Y-33249991D01*
X34802139Y-33295116D01*
X34833524Y-33318298D01*
X34851085Y-33324465D01*
X34851087Y-33324466D01*
X34924551Y-33350264D01*
X34959566Y-33362560D01*
X34974674Y-33363988D01*
X34978862Y-33364907D01*
X35067874Y-33403842D01*
X35135212Y-33473876D01*
X35170622Y-33564348D01*
X35174500Y-33608122D01*
X35174500Y-33744918D01*
X35173552Y-33766620D01*
X35172682Y-33776570D01*
X35170736Y-33798807D01*
X35176374Y-33819846D01*
X35176375Y-33819854D01*
X35179101Y-33830026D01*
X35183802Y-33851232D01*
X35185628Y-33861589D01*
X35185630Y-33861594D01*
X35189412Y-33883045D01*
X35196682Y-33895637D01*
X35200446Y-33909684D01*
X35212943Y-33927531D01*
X35222150Y-33947276D01*
X35219333Y-33948590D01*
X35244333Y-34005413D01*
X35246448Y-34102545D01*
X35211232Y-34193093D01*
X35144045Y-34263272D01*
X35108404Y-34282824D01*
X35091769Y-34286133D01*
X35025448Y-34330448D01*
X34981133Y-34396769D01*
X34969500Y-34455252D01*
X34969500Y-36934748D01*
X34971885Y-36946737D01*
X34971885Y-36946739D01*
X34976349Y-36969181D01*
X34981133Y-36993231D01*
X35025448Y-37059552D01*
X35091769Y-37103867D01*
X35115818Y-37108651D01*
X35115819Y-37108651D01*
X35138261Y-37113115D01*
X35138263Y-37113115D01*
X35150252Y-37115500D01*
X36309748Y-37115500D01*
X36321737Y-37113115D01*
X36321739Y-37113115D01*
X36344181Y-37108651D01*
X36344182Y-37108651D01*
X36368231Y-37103867D01*
X36434552Y-37059552D01*
X36478867Y-36993231D01*
X36483651Y-36969181D01*
X36488115Y-36946739D01*
X36488115Y-36946737D01*
X36490500Y-36934748D01*
X37509500Y-36934748D01*
X37511885Y-36946737D01*
X37511885Y-36946739D01*
X37516349Y-36969181D01*
X37521133Y-36993231D01*
X37565448Y-37059552D01*
X37631769Y-37103867D01*
X37655818Y-37108651D01*
X37655819Y-37108651D01*
X37678261Y-37113115D01*
X37678263Y-37113115D01*
X37690252Y-37115500D01*
X38849748Y-37115500D01*
X38861737Y-37113115D01*
X38861739Y-37113115D01*
X38884181Y-37108651D01*
X38884182Y-37108651D01*
X38908231Y-37103867D01*
X38974552Y-37059552D01*
X39018867Y-36993231D01*
X39023651Y-36969181D01*
X39028115Y-36946739D01*
X39028115Y-36946737D01*
X39030500Y-36934748D01*
X40049500Y-36934748D01*
X40051885Y-36946737D01*
X40051885Y-36946739D01*
X40056349Y-36969181D01*
X40061133Y-36993231D01*
X40105448Y-37059552D01*
X40171769Y-37103867D01*
X40195818Y-37108651D01*
X40195819Y-37108651D01*
X40218261Y-37113115D01*
X40218263Y-37113115D01*
X40230252Y-37115500D01*
X41389748Y-37115500D01*
X41401737Y-37113115D01*
X41401739Y-37113115D01*
X41424181Y-37108651D01*
X41424182Y-37108651D01*
X41448231Y-37103867D01*
X41514552Y-37059552D01*
X41558867Y-36993231D01*
X41563651Y-36969181D01*
X41568115Y-36946739D01*
X41568115Y-36946737D01*
X41570500Y-36934748D01*
X41570500Y-34455252D01*
X41558867Y-34396769D01*
X41514552Y-34330448D01*
X41448231Y-34286133D01*
X41443962Y-34285284D01*
X41379950Y-34242513D01*
X41325974Y-34161731D01*
X41307021Y-34066443D01*
X41325976Y-33971155D01*
X41379952Y-33890374D01*
X41427852Y-33842475D01*
X41712431Y-33557896D01*
X41728446Y-33543221D01*
X41736507Y-33536457D01*
X41736509Y-33536455D01*
X41753194Y-33522455D01*
X41764085Y-33503591D01*
X41764087Y-33503589D01*
X41769353Y-33494468D01*
X41781031Y-33476138D01*
X41784162Y-33471667D01*
X41854347Y-33404487D01*
X41944898Y-33369279D01*
X41988123Y-33365499D01*
X42009332Y-33365499D01*
X42040434Y-33362560D01*
X42121700Y-33334022D01*
X42148913Y-33324466D01*
X42148915Y-33324465D01*
X42166476Y-33318298D01*
X42197862Y-33295116D01*
X42258955Y-33249991D01*
X42273930Y-33238930D01*
X42353298Y-33131476D01*
X42377487Y-33062596D01*
X42392532Y-33019753D01*
X42392533Y-33019748D01*
X42397560Y-33005434D01*
X42400500Y-32974333D01*
X42400499Y-32380668D01*
X42397560Y-32349566D01*
X42373833Y-32282000D01*
X42359466Y-32241087D01*
X42359465Y-32241085D01*
X42353298Y-32223524D01*
X42332516Y-32195387D01*
X42284991Y-32131045D01*
X42273930Y-32116070D01*
X42221034Y-32077000D01*
X42181450Y-32047762D01*
X42181449Y-32047762D01*
X42166476Y-32036702D01*
X42148915Y-32030535D01*
X42148913Y-32030534D01*
X42054753Y-31997468D01*
X42054750Y-31997467D01*
X42040434Y-31992440D01*
X42009333Y-31989500D01*
X42003458Y-31989500D01*
X41499610Y-31989501D01*
X40990668Y-31989501D01*
X40959566Y-31992440D01*
X40901303Y-32012900D01*
X40851087Y-32030534D01*
X40851085Y-32030535D01*
X40833524Y-32036702D01*
X40818551Y-32047762D01*
X40818550Y-32047762D01*
X40778966Y-32077000D01*
X40726070Y-32116070D01*
X40715009Y-32131045D01*
X40667485Y-32195387D01*
X40646702Y-32223524D01*
X40640535Y-32241085D01*
X40640534Y-32241087D01*
X40608985Y-32330928D01*
X40602440Y-32349566D01*
X40599500Y-32380667D01*
X40599501Y-32974332D01*
X40602440Y-33005434D01*
X40646702Y-33131476D01*
X40726070Y-33238930D01*
X40741045Y-33249991D01*
X40744294Y-33253240D01*
X40798270Y-33334022D01*
X40817224Y-33429310D01*
X40798270Y-33524598D01*
X40744294Y-33605379D01*
X40597576Y-33752098D01*
X40581560Y-33766774D01*
X40556806Y-33787545D01*
X40545913Y-33806413D01*
X40545911Y-33806415D01*
X40540647Y-33815533D01*
X40528980Y-33833847D01*
X40510446Y-33860316D01*
X40506682Y-33874363D01*
X40499412Y-33886955D01*
X40495630Y-33908406D01*
X40495628Y-33908411D01*
X40493802Y-33918768D01*
X40489101Y-33939974D01*
X40486375Y-33950146D01*
X40486375Y-33950151D01*
X40480736Y-33971193D01*
X40482635Y-33992893D01*
X40482635Y-33992896D01*
X40483552Y-34003380D01*
X40484500Y-34025082D01*
X40484500Y-34025500D01*
X40465546Y-34120788D01*
X40411570Y-34201570D01*
X40330788Y-34255546D01*
X40254404Y-34270740D01*
X40254656Y-34273301D01*
X40242480Y-34274500D01*
X40230252Y-34274500D01*
X40218263Y-34276885D01*
X40218261Y-34276885D01*
X40195819Y-34281349D01*
X40195818Y-34281349D01*
X40171769Y-34286133D01*
X40105448Y-34330448D01*
X40061133Y-34396769D01*
X40049500Y-34455252D01*
X40049500Y-36934748D01*
X39030500Y-36934748D01*
X39030500Y-34455252D01*
X39018867Y-34396769D01*
X38974552Y-34330448D01*
X38908231Y-34286133D01*
X38894624Y-34283426D01*
X38822696Y-34235365D01*
X38768720Y-34154584D01*
X38749767Y-34059295D01*
X38768722Y-33964007D01*
X38777894Y-33947288D01*
X38777853Y-33947269D01*
X38787059Y-33927529D01*
X38799554Y-33909684D01*
X38803318Y-33895638D01*
X38810588Y-33883045D01*
X38815686Y-33854138D01*
X38816199Y-33851226D01*
X38820898Y-33830026D01*
X38829263Y-33798807D01*
X38826447Y-33766618D01*
X38825500Y-33744918D01*
X38825500Y-33608121D01*
X38844454Y-33512833D01*
X38898430Y-33432051D01*
X38979212Y-33378075D01*
X39021143Y-33364905D01*
X39025323Y-33363988D01*
X39040434Y-33362560D01*
X39121700Y-33334022D01*
X39148913Y-33324466D01*
X39148915Y-33324465D01*
X39166476Y-33318298D01*
X39197862Y-33295116D01*
X39258955Y-33249991D01*
X39273930Y-33238930D01*
X39353298Y-33131476D01*
X39377487Y-33062596D01*
X39392532Y-33019753D01*
X39392533Y-33019748D01*
X39397560Y-33005434D01*
X39400500Y-32974333D01*
X39400499Y-32380668D01*
X39397560Y-32349566D01*
X39373833Y-32282000D01*
X39359466Y-32241087D01*
X39359465Y-32241085D01*
X39353298Y-32223524D01*
X39332516Y-32195387D01*
X39284991Y-32131045D01*
X39273930Y-32116070D01*
X39221034Y-32077000D01*
X39181450Y-32047762D01*
X39181449Y-32047762D01*
X39166476Y-32036702D01*
X39148915Y-32030535D01*
X39148913Y-32030534D01*
X39054753Y-31997468D01*
X39054750Y-31997467D01*
X39040434Y-31992440D01*
X39009333Y-31989500D01*
X39003458Y-31989500D01*
X38499610Y-31989501D01*
X37990668Y-31989501D01*
X37959566Y-31992440D01*
X37901303Y-32012900D01*
X37851087Y-32030534D01*
X37851085Y-32030535D01*
X37833524Y-32036702D01*
X37818551Y-32047762D01*
X37818550Y-32047762D01*
X37778966Y-32077000D01*
X37726070Y-32116070D01*
X37715009Y-32131045D01*
X37667485Y-32195387D01*
X37646702Y-32223524D01*
X37640535Y-32241085D01*
X37640534Y-32241087D01*
X37608985Y-32330928D01*
X37602440Y-32349566D01*
X37599500Y-32380667D01*
X37599501Y-32974332D01*
X37602440Y-33005434D01*
X37646702Y-33131476D01*
X37726070Y-33238930D01*
X37741045Y-33249991D01*
X37802139Y-33295116D01*
X37833524Y-33318298D01*
X37944663Y-33357326D01*
X38028288Y-33406781D01*
X38086622Y-33484473D01*
X38110785Y-33578576D01*
X38097096Y-33674762D01*
X38047641Y-33758388D01*
X38040008Y-33765779D01*
X38033494Y-33773542D01*
X38016806Y-33787545D01*
X38005914Y-33806411D01*
X38005913Y-33806412D01*
X38000647Y-33815533D01*
X37988980Y-33833847D01*
X37970446Y-33860316D01*
X37966682Y-33874363D01*
X37959412Y-33886955D01*
X37955630Y-33908406D01*
X37955628Y-33908411D01*
X37953802Y-33918768D01*
X37949101Y-33939974D01*
X37946375Y-33950146D01*
X37946375Y-33950151D01*
X37940736Y-33971193D01*
X37942635Y-33992893D01*
X37942635Y-33992896D01*
X37943552Y-34003380D01*
X37944500Y-34025082D01*
X37944500Y-34025500D01*
X37925546Y-34120788D01*
X37871570Y-34201570D01*
X37790788Y-34255546D01*
X37714404Y-34270740D01*
X37714656Y-34273301D01*
X37702480Y-34274500D01*
X37690252Y-34274500D01*
X37678263Y-34276885D01*
X37678261Y-34276885D01*
X37655819Y-34281349D01*
X37655818Y-34281349D01*
X37631769Y-34286133D01*
X37565448Y-34330448D01*
X37521133Y-34396769D01*
X37509500Y-34455252D01*
X37509500Y-36934748D01*
X36490500Y-36934748D01*
X36490500Y-34455252D01*
X36478867Y-34396769D01*
X36434552Y-34330448D01*
X36368231Y-34286133D01*
X36344182Y-34281349D01*
X36344181Y-34281349D01*
X36321739Y-34276885D01*
X36321737Y-34276885D01*
X36309748Y-34274500D01*
X36297520Y-34274500D01*
X36285344Y-34273301D01*
X36285596Y-34270740D01*
X36209212Y-34255546D01*
X36128430Y-34201570D01*
X36074454Y-34120788D01*
X36055500Y-34025500D01*
X36055500Y-34025082D01*
X36056447Y-34003382D01*
X36057365Y-33992893D01*
X36057365Y-33992891D01*
X36059263Y-33971193D01*
X36050897Y-33939970D01*
X36046199Y-33918774D01*
X36044371Y-33908407D01*
X36044371Y-33908406D01*
X36040588Y-33886955D01*
X36033318Y-33874362D01*
X36029554Y-33860316D01*
X36011020Y-33833847D01*
X35999353Y-33815533D01*
X35994087Y-33806412D01*
X35994086Y-33806411D01*
X35983194Y-33787545D01*
X35966504Y-33773540D01*
X35952504Y-33756855D01*
X35955069Y-33754702D01*
X35916980Y-33707250D01*
X35889788Y-33613978D01*
X35900359Y-33517400D01*
X35947085Y-33432219D01*
X36022851Y-33371403D01*
X36055336Y-33357327D01*
X36098289Y-33342243D01*
X36166476Y-33318298D01*
X36197862Y-33295116D01*
X36258955Y-33249991D01*
X36273930Y-33238930D01*
X36353298Y-33131476D01*
X36377487Y-33062596D01*
X36392532Y-33019753D01*
X36392533Y-33019748D01*
X36397560Y-33005434D01*
X36400500Y-32974333D01*
X36400499Y-32380668D01*
X36397560Y-32349566D01*
X36373833Y-32282000D01*
X36359466Y-32241087D01*
X36359465Y-32241085D01*
X36353298Y-32223524D01*
X36332516Y-32195387D01*
X36284991Y-32131045D01*
X36273930Y-32116070D01*
X36221034Y-32077000D01*
X36181450Y-32047762D01*
X36181449Y-32047762D01*
X36166476Y-32036702D01*
X36148915Y-32030535D01*
X36148913Y-32030534D01*
X36054753Y-31997468D01*
X36054750Y-31997467D01*
X36040434Y-31992440D01*
X36009333Y-31989500D01*
X36003458Y-31989500D01*
X35499610Y-31989501D01*
X34990668Y-31989501D01*
X34959566Y-31992440D01*
X34901303Y-32012900D01*
X34851087Y-32030534D01*
X34851085Y-32030535D01*
X34833524Y-32036702D01*
X34818551Y-32047762D01*
X34818550Y-32047762D01*
X34778966Y-32077000D01*
X34726070Y-32116070D01*
X34715009Y-32131045D01*
X34667485Y-32195387D01*
X34646702Y-32223524D01*
X34640535Y-32241085D01*
X34640534Y-32241087D01*
X34608985Y-32330928D01*
X34602440Y-32349566D01*
X34599500Y-32380667D01*
X33400499Y-32380667D01*
X33397560Y-32349566D01*
X33373833Y-32282000D01*
X33359466Y-32241087D01*
X33359465Y-32241085D01*
X33353298Y-32223524D01*
X33332516Y-32195387D01*
X33284991Y-32131045D01*
X33273930Y-32116070D01*
X33221034Y-32077000D01*
X33181450Y-32047762D01*
X33181449Y-32047762D01*
X33166476Y-32036702D01*
X33148915Y-32030535D01*
X33148913Y-32030534D01*
X33054753Y-31997468D01*
X33054750Y-31997467D01*
X33040434Y-31992440D01*
X33009333Y-31989500D01*
X33003458Y-31989500D01*
X32499610Y-31989501D01*
X31990668Y-31989501D01*
X31959566Y-31992440D01*
X31901303Y-32012900D01*
X31851087Y-32030534D01*
X31851085Y-32030535D01*
X31833524Y-32036702D01*
X31818551Y-32047762D01*
X31818550Y-32047762D01*
X31778966Y-32077000D01*
X31726070Y-32116070D01*
X31715009Y-32131045D01*
X31667485Y-32195387D01*
X31646702Y-32223524D01*
X31640535Y-32241085D01*
X31640534Y-32241087D01*
X31608985Y-32330928D01*
X31602440Y-32349566D01*
X31599500Y-32380667D01*
X28893547Y-32380667D01*
X28909614Y-32311350D01*
X28909614Y-32311347D01*
X28911603Y-32302768D01*
X28935192Y-32030400D01*
X28920913Y-31770931D01*
X28920654Y-31766216D01*
X28920654Y-31766212D01*
X28920170Y-31757426D01*
X28910596Y-31709292D01*
X28889543Y-31603458D01*
X28866834Y-31489292D01*
X28831353Y-31388256D01*
X28779165Y-31239645D01*
X28779163Y-31239641D01*
X28776251Y-31231348D01*
X28764507Y-31208740D01*
X28654284Y-30996551D01*
X28654281Y-30996546D01*
X28650226Y-30988740D01*
X28637011Y-30970247D01*
X28496395Y-30773474D01*
X28496391Y-30773469D01*
X28491275Y-30766310D01*
X28395140Y-30665534D01*
X28308654Y-30574873D01*
X28308649Y-30574868D01*
X28302569Y-30568495D01*
X28252877Y-30529321D01*
X28094793Y-30404697D01*
X28094788Y-30404694D01*
X28087874Y-30399243D01*
X28059227Y-30382603D01*
X27859085Y-30266352D01*
X27851472Y-30261930D01*
X27598081Y-30159296D01*
X27518645Y-30139564D01*
X27341297Y-30095510D01*
X27341292Y-30095509D01*
X27332757Y-30093389D01*
X27312838Y-30091348D01*
X27105918Y-30070147D01*
X27105910Y-30070147D01*
X27099599Y-30069500D01*
X26930358Y-30069500D01*
X26925983Y-30069810D01*
X26925977Y-30069810D01*
X26867864Y-30073925D01*
X26727295Y-30083878D01*
X26718682Y-30085732D01*
X26718677Y-30085733D01*
X26621049Y-30106752D01*
X26460032Y-30141418D01*
X26203542Y-30236042D01*
X26107047Y-30288108D01*
X25970692Y-30361681D01*
X25970688Y-30361684D01*
X25962944Y-30365862D01*
X25743038Y-30528287D01*
X25657111Y-30612875D01*
X25554482Y-30713904D01*
X25554477Y-30713909D01*
X25548212Y-30720077D01*
X25542873Y-30727073D01*
X25542871Y-30727075D01*
X25399640Y-30914752D01*
X25382353Y-30937404D01*
X25378057Y-30945074D01*
X25378055Y-30945078D01*
X25284365Y-31112374D01*
X25248770Y-31175934D01*
X25150129Y-31430905D01*
X25148143Y-31439472D01*
X25148142Y-31439476D01*
X25099502Y-31649321D01*
X25088397Y-31697232D01*
X25064808Y-31969600D01*
X23542301Y-31969600D01*
X23546783Y-31878377D01*
X23549178Y-31854059D01*
X23597570Y-31527825D01*
X23602337Y-31503859D01*
X23605809Y-31490000D01*
X23682474Y-31183933D01*
X23689568Y-31160549D01*
X23718319Y-31080196D01*
X23800678Y-30850020D01*
X23810021Y-30827463D01*
X23951036Y-30529311D01*
X23962550Y-30507770D01*
X23975388Y-30486352D01*
X24040827Y-30377173D01*
X24132110Y-30224876D01*
X24145677Y-30204572D01*
X24342156Y-29939650D01*
X24357636Y-29920788D01*
X24579129Y-29676408D01*
X24596408Y-29659129D01*
X24636242Y-29623026D01*
X24840788Y-29437636D01*
X24859650Y-29422156D01*
X25124572Y-29225677D01*
X25144876Y-29212110D01*
X25386312Y-29067399D01*
X25427774Y-29042548D01*
X25449311Y-29031036D01*
X25747463Y-28890021D01*
X25770020Y-28880678D01*
X26080549Y-28769568D01*
X26103933Y-28762474D01*
X26423859Y-28682337D01*
X26447825Y-28677570D01*
X26774059Y-28629178D01*
X26798377Y-28626783D01*
X27119267Y-28611019D01*
X27119268Y-28611019D01*
X27121277Y-28610920D01*
X27139642Y-28615143D01*
X27158342Y-28610912D01*
X27175103Y-28611409D01*
X27189537Y-28610000D01*
X45608090Y-28610000D01*
X45703378Y-28628954D01*
G37*
%TD.AperFunction*%
%TD*%
%TA.AperFunction,Conductor*%
%TO.N,GND*%
G36*
X65852121Y-29160002D02*
G01*
X65898614Y-29213658D01*
X65910000Y-29266000D01*
X65910000Y-31140000D01*
X65920347Y-31155521D01*
X65920348Y-31155523D01*
X67200083Y-33075125D01*
X67850000Y-34050000D01*
X69224000Y-34050000D01*
X69292121Y-34070002D01*
X69338614Y-34123658D01*
X69350000Y-34176000D01*
X69350000Y-34924000D01*
X69329998Y-34992121D01*
X69276342Y-35038614D01*
X69224000Y-35050000D01*
X67850000Y-35050000D01*
X67840998Y-35052770D01*
X67840997Y-35052770D01*
X67218109Y-35244428D01*
X67181054Y-35250000D01*
X67144945Y-35250000D01*
X67120364Y-35247579D01*
X67085816Y-35240707D01*
X67079748Y-35239500D01*
X65540252Y-35239500D01*
X65534184Y-35240707D01*
X65499636Y-35247579D01*
X65475055Y-35250000D01*
X65400000Y-35250000D01*
X64760000Y-35440000D01*
X64760000Y-37964000D01*
X64739998Y-38032121D01*
X64686342Y-38078614D01*
X64634000Y-38090000D01*
X63386000Y-38090000D01*
X63317879Y-38069998D01*
X63271386Y-38016342D01*
X63260000Y-37964000D01*
X63260000Y-35440000D01*
X63157257Y-35407998D01*
X62659096Y-35252833D01*
X62659095Y-35252833D01*
X62650000Y-35250000D01*
X62544945Y-35250000D01*
X62520364Y-35247579D01*
X62485816Y-35240707D01*
X62479748Y-35239500D01*
X60940252Y-35239500D01*
X60934184Y-35240707D01*
X60899636Y-35247579D01*
X60875055Y-35250000D01*
X60818946Y-35250000D01*
X60781891Y-35244428D01*
X60159003Y-35052770D01*
X60159002Y-35052770D01*
X60150000Y-35050000D01*
X58776000Y-35050000D01*
X58707879Y-35029998D01*
X58661386Y-34976342D01*
X58650000Y-34924000D01*
X58650000Y-34176000D01*
X58670002Y-34107879D01*
X58723658Y-34061386D01*
X58776000Y-34050000D01*
X60150000Y-34050000D01*
X62110000Y-31140000D01*
X62110000Y-29266000D01*
X62130002Y-29197879D01*
X62183658Y-29151386D01*
X62236000Y-29140000D01*
X65784000Y-29140000D01*
X65852121Y-29160002D01*
G37*
%TD.AperFunction*%
%TD*%
M02*
