%TF.GenerationSoftware,KiCad,Pcbnew,(6.0.2)*%
%TF.CreationDate,2022-06-08T20:40:01+01:00*%
%TF.ProjectId,mcp_breadboard,6d63705f-6272-4656-9164-626f6172642e,rev?*%
%TF.SameCoordinates,Original*%
%TF.FileFunction,Copper,L2,Bot*%
%TF.FilePolarity,Positive*%
%FSLAX46Y46*%
G04 Gerber Fmt 4.6, Leading zero omitted, Abs format (unit mm)*
G04 Created by KiCad (PCBNEW (6.0.2)) date 2022-06-08 20:40:01*
%MOMM*%
%LPD*%
G01*
G04 APERTURE LIST*
%TA.AperFunction,ComponentPad*%
%ADD10C,1.450000*%
%TD*%
%TA.AperFunction,ComponentPad*%
%ADD11O,1.200000X1.900000*%
%TD*%
%TA.AperFunction,ComponentPad*%
%ADD12R,1.700000X1.700000*%
%TD*%
%TA.AperFunction,ComponentPad*%
%ADD13O,1.700000X1.700000*%
%TD*%
%TA.AperFunction,ViaPad*%
%ADD14C,0.600000*%
%TD*%
%TA.AperFunction,Conductor*%
%ADD15C,0.400000*%
%TD*%
%TA.AperFunction,Conductor*%
%ADD16C,0.250000*%
%TD*%
%TA.AperFunction,Conductor*%
%ADD17C,0.200000*%
%TD*%
G04 APERTURE END LIST*
D10*
%TO.P,J5,6,Shield*%
%TO.N,unconnected-(J5-Pad6)*%
X45760000Y-30712500D03*
X50760000Y-30712500D03*
D11*
X44760000Y-28012500D03*
X51760000Y-28012500D03*
%TD*%
D12*
%TO.P,SW3,1,A*%
%TO.N,+5V*%
X59720000Y-37750000D03*
D13*
%TO.P,SW3,2,B*%
%TO.N,VDD*%
X62260000Y-37750000D03*
%TO.P,SW3,3,C*%
%TO.N,+3V3*%
X64800000Y-37750000D03*
%TD*%
D12*
%TO.P,J3,1,Pin_1*%
%TO.N,+5V*%
X44450000Y-50790000D03*
D13*
%TO.P,J3,2,Pin_2*%
%TO.N,G0*%
X44450000Y-53330000D03*
%TO.P,J3,3,Pin_3*%
%TO.N,G1*%
X44450000Y-55870000D03*
%TO.P,J3,4,Pin_4*%
%TO.N,G2*%
X44450000Y-58410000D03*
%TO.P,J3,5,Pin_5*%
%TO.N,G3*%
X44450000Y-60950000D03*
%TD*%
D12*
%TO.P,J4,1,Pin_1*%
%TO.N,+3V3*%
X52070000Y-50790000D03*
D13*
%TO.P,J4,2,Pin_2*%
%TO.N,SCL*%
X52070000Y-53330000D03*
%TO.P,J4,3,Pin_3*%
%TO.N,SDA*%
X52070000Y-55870000D03*
%TO.P,J4,4,Pin_4*%
%TO.N,Rx*%
X52070000Y-58410000D03*
%TO.P,J4,5,Pin_5*%
%TO.N,Tx*%
X52070000Y-60950000D03*
%TD*%
D12*
%TO.P,J2,1,Pin_1*%
%TO.N,VDD*%
X68580000Y-52060000D03*
D13*
%TO.P,J2,2,Pin_2*%
X68580000Y-54600000D03*
%TO.P,J2,3,Pin_3*%
%TO.N,GND*%
X71120000Y-52060000D03*
%TO.P,J2,4,Pin_4*%
X71120000Y-54600000D03*
%TD*%
D12*
%TO.P,J1,1,Pin_1*%
%TO.N,VDD*%
X25400000Y-52060000D03*
D13*
%TO.P,J1,2,Pin_2*%
X25400000Y-54600000D03*
%TO.P,J1,3,Pin_3*%
%TO.N,GND*%
X27940000Y-52060000D03*
%TO.P,J1,4,Pin_4*%
X27940000Y-54600000D03*
%TD*%
D14*
%TO.N,GND*%
X65810000Y-32800000D03*
X62710000Y-36000000D03*
X62770000Y-33390000D03*
X58260000Y-41000000D03*
X46960000Y-31690000D03*
X51960000Y-38750000D03*
X63860000Y-29100000D03*
X56610000Y-32800000D03*
X67910000Y-32800000D03*
X55260000Y-30327000D03*
X60660000Y-27700000D03*
X61770000Y-33390000D03*
X55060000Y-42400000D03*
X41460000Y-38700000D03*
X61810000Y-36000000D03*
X60660000Y-29100000D03*
X62260000Y-27700000D03*
X66260000Y-41000000D03*
X58710000Y-32800000D03*
X63860000Y-27700000D03*
X48590500Y-32815000D03*
X62260000Y-29100000D03*
%TO.N,G1*%
X44530000Y-41230000D03*
X43760000Y-45750000D03*
X42213019Y-45742989D03*
%TO.N,G2*%
X44510000Y-46550000D03*
X42210000Y-46550000D03*
%TO.N,G3*%
X42210000Y-47350000D03*
X45750000Y-47350000D03*
X49460000Y-46250000D03*
X47460000Y-46250000D03*
%TO.N,Net-(R3-Pad1)*%
X57210000Y-45500000D03*
X53510000Y-43150000D03*
%TO.N,D-*%
X49260000Y-41250000D03*
X49110000Y-34265000D03*
%TO.N,D+*%
X48085000Y-34265000D03*
X48510000Y-40000000D03*
%TD*%
D15*
%TO.N,+5V*%
X59720000Y-37750000D02*
X59720000Y-39520000D01*
X49625000Y-50750000D02*
X44490000Y-50750000D01*
X61830000Y-41640000D02*
X61830000Y-45490000D01*
X61830000Y-45490000D02*
X60580000Y-46740000D01*
X59720000Y-39520000D02*
X61830000Y-41630000D01*
X53635000Y-46740000D02*
X49625000Y-50750000D01*
X44490000Y-50750000D02*
X44450000Y-50790000D01*
X60580000Y-46740000D02*
X53635000Y-46740000D01*
%TO.N,+3V3*%
X64800000Y-37750000D02*
X64800000Y-39410000D01*
X52070000Y-49430000D02*
X52070000Y-50790000D01*
X61080000Y-47490000D02*
X54010000Y-47490000D01*
X54010000Y-47490000D02*
X52070000Y-49430000D01*
X62580000Y-41640000D02*
X62580000Y-45990000D01*
X62580000Y-45990000D02*
X61080000Y-47490000D01*
X64800000Y-39410000D02*
X62580000Y-41630000D01*
D16*
%TO.N,G1*%
X44030000Y-41230000D02*
X43760000Y-41500000D01*
X43760000Y-45750000D02*
X43752989Y-45742989D01*
X43752989Y-45742989D02*
X42213019Y-45742989D01*
X44530000Y-41230000D02*
X44030000Y-41230000D01*
X43760000Y-41500000D02*
X43760000Y-45750000D01*
%TO.N,G2*%
X44510000Y-46550000D02*
X42210000Y-46550000D01*
%TO.N,G3*%
X45750000Y-47350000D02*
X42210000Y-47350000D01*
X47460000Y-46250000D02*
X49460000Y-46250000D01*
%TO.N,Net-(R3-Pad1)*%
X57210000Y-45500000D02*
X55860000Y-45500000D01*
X55860000Y-45500000D02*
X53510000Y-43150000D01*
D17*
%TO.N,D-*%
X49260000Y-41250000D02*
X49260000Y-34415000D01*
X49260000Y-34415000D02*
X49110000Y-34265000D01*
%TO.N,D+*%
X48510000Y-40000000D02*
X48510000Y-34690000D01*
X48510000Y-34690000D02*
X48085000Y-34265000D01*
D16*
%TO.N,unconnected-(J5-Pad6)*%
X51760000Y-29712500D02*
X51760000Y-28012500D01*
X45760000Y-30712500D02*
X44760000Y-29712500D01*
X50760000Y-30712500D02*
X51760000Y-29712500D01*
X44760000Y-29712500D02*
X44760000Y-28012500D01*
%TD*%
%TA.AperFunction,Conductor*%
%TO.N,GND*%
G36*
X43956934Y-26888954D02*
G01*
X44037716Y-26942930D01*
X44091692Y-27023712D01*
X44110646Y-27119000D01*
X44091692Y-27214288D01*
X44070946Y-27253887D01*
X44038446Y-27304317D01*
X43977022Y-27473078D01*
X43959500Y-27611783D01*
X43959500Y-28407655D01*
X43960276Y-28414571D01*
X43960276Y-28414575D01*
X43964550Y-28452679D01*
X43974454Y-28540972D01*
X44002058Y-28620239D01*
X44022976Y-28680308D01*
X44033515Y-28710573D01*
X44128684Y-28862875D01*
X44255230Y-28990307D01*
X44266984Y-28997766D01*
X44266986Y-28997768D01*
X44318922Y-29030728D01*
X44389220Y-29097790D01*
X44428504Y-29186649D01*
X44434500Y-29240965D01*
X44434500Y-29687418D01*
X44433553Y-29709107D01*
X44430736Y-29741307D01*
X44436374Y-29762348D01*
X44436375Y-29762354D01*
X44439101Y-29772526D01*
X44443802Y-29793732D01*
X44445628Y-29804089D01*
X44445630Y-29804094D01*
X44449412Y-29825545D01*
X44456682Y-29838137D01*
X44460446Y-29852184D01*
X44478980Y-29878653D01*
X44490647Y-29896967D01*
X44495913Y-29906088D01*
X44506806Y-29924955D01*
X44531569Y-29945733D01*
X44547570Y-29960396D01*
X44804735Y-30217561D01*
X44858711Y-30298343D01*
X44877665Y-30393631D01*
X44865479Y-30470573D01*
X44849738Y-30519018D01*
X44829402Y-30712500D01*
X44849738Y-30905982D01*
X44853772Y-30918397D01*
X44853772Y-30918398D01*
X44858250Y-30932179D01*
X44909856Y-31091008D01*
X45007130Y-31259492D01*
X45015860Y-31269188D01*
X45015864Y-31269193D01*
X45112700Y-31376739D01*
X45137308Y-31404069D01*
X45206896Y-31454627D01*
X45284139Y-31510749D01*
X45284144Y-31510752D01*
X45294701Y-31518422D01*
X45306625Y-31523731D01*
X45306627Y-31523732D01*
X45446626Y-31586063D01*
X45472429Y-31597551D01*
X45662726Y-31638000D01*
X45857274Y-31638000D01*
X46047571Y-31597551D01*
X46073374Y-31586063D01*
X46213373Y-31523732D01*
X46213375Y-31523731D01*
X46225299Y-31518422D01*
X46235856Y-31510752D01*
X46235861Y-31510749D01*
X46313104Y-31454627D01*
X46382692Y-31404069D01*
X46407300Y-31376739D01*
X46504136Y-31269193D01*
X46504140Y-31269188D01*
X46512870Y-31259492D01*
X46610144Y-31091008D01*
X46661750Y-30932179D01*
X46666228Y-30918398D01*
X46666228Y-30918397D01*
X46670262Y-30905982D01*
X46690598Y-30712500D01*
X46670262Y-30519018D01*
X46610144Y-30333992D01*
X46512870Y-30165508D01*
X46504140Y-30155812D01*
X46504136Y-30155807D01*
X46391424Y-30030629D01*
X46382692Y-30020931D01*
X46299373Y-29960396D01*
X46235861Y-29914251D01*
X46235856Y-29914248D01*
X46225299Y-29906578D01*
X46213375Y-29901269D01*
X46213373Y-29901268D01*
X46059493Y-29832757D01*
X46047571Y-29827449D01*
X45857274Y-29787000D01*
X45662726Y-29787000D01*
X45491558Y-29823383D01*
X45394414Y-29824655D01*
X45304176Y-29788653D01*
X45263720Y-29755894D01*
X45158430Y-29650604D01*
X45104454Y-29569822D01*
X45085500Y-29474534D01*
X45085500Y-29241320D01*
X45104454Y-29146032D01*
X45158430Y-29065250D01*
X45204024Y-29029242D01*
X45255955Y-28997294D01*
X45384268Y-28871641D01*
X45399701Y-28847695D01*
X45474014Y-28732382D01*
X45481554Y-28720683D01*
X45542978Y-28551922D01*
X45560500Y-28413217D01*
X45560500Y-27617345D01*
X45559006Y-27604021D01*
X45547097Y-27497859D01*
X45545546Y-27484028D01*
X45486485Y-27314427D01*
X45446820Y-27250950D01*
X45412399Y-27160097D01*
X45415366Y-27062988D01*
X45455269Y-26974405D01*
X45526034Y-26907836D01*
X45616887Y-26873415D01*
X45657984Y-26870000D01*
X50861646Y-26870000D01*
X50956934Y-26888954D01*
X51037716Y-26942930D01*
X51091692Y-27023712D01*
X51110646Y-27119000D01*
X51091692Y-27214288D01*
X51070946Y-27253887D01*
X51038446Y-27304317D01*
X50977022Y-27473078D01*
X50959500Y-27611783D01*
X50959500Y-28407655D01*
X50960276Y-28414571D01*
X50960276Y-28414575D01*
X50964550Y-28452679D01*
X50974454Y-28540972D01*
X51002058Y-28620239D01*
X51022976Y-28680308D01*
X51033515Y-28710573D01*
X51128684Y-28862875D01*
X51255230Y-28990307D01*
X51266984Y-28997766D01*
X51266986Y-28997768D01*
X51318922Y-29030728D01*
X51389220Y-29097790D01*
X51428504Y-29186649D01*
X51434500Y-29240965D01*
X51434500Y-29474534D01*
X51415546Y-29569822D01*
X51361570Y-29650604D01*
X51256280Y-29755894D01*
X51175498Y-29809870D01*
X51080210Y-29828824D01*
X51028445Y-29823384D01*
X50857274Y-29787000D01*
X50662726Y-29787000D01*
X50472429Y-29827449D01*
X50460507Y-29832757D01*
X50306627Y-29901268D01*
X50306625Y-29901269D01*
X50294701Y-29906578D01*
X50284144Y-29914248D01*
X50284139Y-29914251D01*
X50220627Y-29960396D01*
X50137308Y-30020931D01*
X50128576Y-30030629D01*
X50015864Y-30155807D01*
X50015860Y-30155812D01*
X50007130Y-30165508D01*
X49909856Y-30333992D01*
X49849738Y-30519018D01*
X49829402Y-30712500D01*
X49849738Y-30905982D01*
X49853772Y-30918397D01*
X49853772Y-30918398D01*
X49858250Y-30932179D01*
X49909856Y-31091008D01*
X50007130Y-31259492D01*
X50015860Y-31269188D01*
X50015864Y-31269193D01*
X50112700Y-31376739D01*
X50137308Y-31404069D01*
X50206896Y-31454627D01*
X50284139Y-31510749D01*
X50284144Y-31510752D01*
X50294701Y-31518422D01*
X50306625Y-31523731D01*
X50306627Y-31523732D01*
X50446626Y-31586063D01*
X50472429Y-31597551D01*
X50662726Y-31638000D01*
X50857274Y-31638000D01*
X51047571Y-31597551D01*
X51073374Y-31586063D01*
X51213373Y-31523732D01*
X51213375Y-31523731D01*
X51225299Y-31518422D01*
X51235856Y-31510752D01*
X51235861Y-31510749D01*
X51313104Y-31454627D01*
X51382692Y-31404069D01*
X51407300Y-31376739D01*
X51504136Y-31269193D01*
X51504140Y-31269188D01*
X51512870Y-31259492D01*
X51610144Y-31091008D01*
X51661750Y-30932179D01*
X51666228Y-30918398D01*
X51666228Y-30918397D01*
X51670262Y-30905982D01*
X51690598Y-30712500D01*
X51670262Y-30519018D01*
X51654522Y-30470574D01*
X51643102Y-30374096D01*
X51669474Y-30280588D01*
X51715265Y-30217561D01*
X51972430Y-29960396D01*
X51988446Y-29945721D01*
X51996506Y-29938958D01*
X51996506Y-29938957D01*
X52013194Y-29924955D01*
X52024087Y-29906088D01*
X52029353Y-29896967D01*
X52041020Y-29878653D01*
X52059554Y-29852184D01*
X52063318Y-29838137D01*
X52070588Y-29825545D01*
X52074370Y-29804094D01*
X52074372Y-29804089D01*
X52076198Y-29793732D01*
X52080899Y-29772526D01*
X52083626Y-29762348D01*
X52083626Y-29762347D01*
X52089264Y-29741307D01*
X52086447Y-29709107D01*
X52085500Y-29687406D01*
X52085500Y-29411791D01*
X67816865Y-29411791D01*
X67822889Y-29667398D01*
X67867506Y-29919153D01*
X67949691Y-30161263D01*
X68067553Y-30388155D01*
X68218378Y-30594609D01*
X68398696Y-30775874D01*
X68406300Y-30781490D01*
X68406303Y-30781493D01*
X68507223Y-30856033D01*
X68604357Y-30927777D01*
X68830629Y-31046825D01*
X68839566Y-31049911D01*
X68839573Y-31049914D01*
X68948161Y-31087409D01*
X69072305Y-31130277D01*
X69081609Y-31131976D01*
X69081612Y-31131977D01*
X69199331Y-31153476D01*
X69323823Y-31176212D01*
X69331786Y-31176629D01*
X69331792Y-31176630D01*
X69364814Y-31178360D01*
X69405643Y-31180500D01*
X69565007Y-31180500D01*
X69672134Y-31172351D01*
X69745507Y-31166770D01*
X69745511Y-31166769D01*
X69754942Y-31166052D01*
X69764159Y-31163916D01*
X69764163Y-31163915D01*
X69994807Y-31110455D01*
X69994810Y-31110454D01*
X70004017Y-31108320D01*
X70241493Y-31013576D01*
X70461906Y-30884002D01*
X70660184Y-30722579D01*
X70831763Y-30533021D01*
X70927466Y-30388155D01*
X70967483Y-30327582D01*
X70967485Y-30327578D01*
X70972695Y-30319692D01*
X71079737Y-30087499D01*
X71150426Y-29841787D01*
X71183135Y-29588209D01*
X71177111Y-29332602D01*
X71132494Y-29080847D01*
X71061855Y-28872750D01*
X71053350Y-28847695D01*
X71053349Y-28847693D01*
X71050309Y-28838737D01*
X70932447Y-28611845D01*
X70793010Y-28420979D01*
X70787208Y-28413037D01*
X70787207Y-28413035D01*
X70781622Y-28405391D01*
X70601304Y-28224126D01*
X70593700Y-28218510D01*
X70593697Y-28218507D01*
X70454910Y-28115998D01*
X70395643Y-28072223D01*
X70169371Y-27953175D01*
X70160434Y-27950089D01*
X70160427Y-27950086D01*
X70051839Y-27912591D01*
X69927695Y-27869723D01*
X69918391Y-27868024D01*
X69918388Y-27868023D01*
X69743509Y-27836085D01*
X69676177Y-27823788D01*
X69668214Y-27823371D01*
X69668208Y-27823370D01*
X69635186Y-27821640D01*
X69594357Y-27819500D01*
X69434993Y-27819500D01*
X69327866Y-27827649D01*
X69254493Y-27833230D01*
X69254489Y-27833231D01*
X69245058Y-27833948D01*
X69235841Y-27836084D01*
X69235837Y-27836085D01*
X69005193Y-27889545D01*
X69005190Y-27889546D01*
X68995983Y-27891680D01*
X68758507Y-27986424D01*
X68702607Y-28019286D01*
X68548886Y-28109654D01*
X68538094Y-28115998D01*
X68530763Y-28121966D01*
X68530762Y-28121967D01*
X68513181Y-28136280D01*
X68339816Y-28277421D01*
X68168237Y-28466979D01*
X68163024Y-28474870D01*
X68037539Y-28664817D01*
X68027305Y-28680308D01*
X67920263Y-28912501D01*
X67849574Y-29158213D01*
X67816865Y-29411791D01*
X52085500Y-29411791D01*
X52085500Y-29241320D01*
X52104454Y-29146032D01*
X52158430Y-29065250D01*
X52204024Y-29029242D01*
X52255955Y-28997294D01*
X52384268Y-28871641D01*
X52399701Y-28847695D01*
X52474014Y-28732382D01*
X52481554Y-28720683D01*
X52542978Y-28551922D01*
X52560500Y-28413217D01*
X52560500Y-27617345D01*
X52559006Y-27604021D01*
X52547097Y-27497859D01*
X52545546Y-27484028D01*
X52486485Y-27314427D01*
X52446820Y-27250950D01*
X52412399Y-27160097D01*
X52415366Y-27062988D01*
X52455269Y-26974405D01*
X52526034Y-26907836D01*
X52616887Y-26873415D01*
X52657984Y-26870000D01*
X69827277Y-26870000D01*
X69827277Y-26871267D01*
X69830342Y-26870705D01*
X69849642Y-26875143D01*
X69864685Y-26871739D01*
X69867571Y-26872403D01*
X69867652Y-26871068D01*
X70117026Y-26886152D01*
X70146875Y-26889777D01*
X70395183Y-26935281D01*
X70424379Y-26942477D01*
X70665394Y-27017581D01*
X70693507Y-27028243D01*
X70923720Y-27131853D01*
X70950337Y-27145822D01*
X71166377Y-27276423D01*
X71191121Y-27293503D01*
X71389847Y-27449194D01*
X71412355Y-27469133D01*
X71590867Y-27647645D01*
X71610806Y-27670153D01*
X71766497Y-27868879D01*
X71783575Y-27893620D01*
X71914178Y-28109663D01*
X71928147Y-28136280D01*
X72031757Y-28366493D01*
X72042419Y-28394606D01*
X72117523Y-28635621D01*
X72124719Y-28664817D01*
X72170223Y-28913125D01*
X72173848Y-28942974D01*
X72188912Y-29192009D01*
X72184857Y-29209642D01*
X72189088Y-29228339D01*
X72188590Y-29245097D01*
X72190000Y-29259537D01*
X72190000Y-50466000D01*
X72171046Y-50561288D01*
X72117070Y-50642070D01*
X72036288Y-50696046D01*
X71941000Y-50715000D01*
X71615000Y-50715000D01*
X71615000Y-51390000D01*
X71617524Y-51390000D01*
X71620000Y-51415137D01*
X71620000Y-53316407D01*
X71617113Y-53316407D01*
X71617112Y-53338096D01*
X71620178Y-53338163D01*
X71620000Y-53346321D01*
X71620000Y-54851000D01*
X71601046Y-54946288D01*
X71547070Y-55027070D01*
X71466288Y-55081046D01*
X71371000Y-55100000D01*
X70869000Y-55100000D01*
X70773712Y-55081046D01*
X70692930Y-55027070D01*
X70638954Y-54946288D01*
X70620000Y-54851000D01*
X70620000Y-53343593D01*
X70622887Y-53343593D01*
X70622888Y-53321904D01*
X70619822Y-53321837D01*
X70620000Y-53313679D01*
X70620000Y-50828120D01*
X70619784Y-50827034D01*
X70615000Y-50778457D01*
X70615000Y-50715000D01*
X67759000Y-50715000D01*
X67663712Y-50696046D01*
X67582930Y-50642070D01*
X67528954Y-50561288D01*
X67510000Y-50466000D01*
X67510000Y-49565741D01*
X67511633Y-49537271D01*
X67511957Y-49534458D01*
X67515142Y-49520716D01*
X67515143Y-49520000D01*
X67514131Y-49515565D01*
X67514174Y-49515194D01*
X67514528Y-49511035D01*
X67513121Y-49511136D01*
X67499388Y-49319123D01*
X67499387Y-49319119D01*
X67498754Y-49310263D01*
X67476407Y-49207530D01*
X67455949Y-49113487D01*
X67455948Y-49113484D01*
X67454058Y-49104795D01*
X67380575Y-48907780D01*
X67279802Y-48723228D01*
X67262663Y-48700332D01*
X67159120Y-48562015D01*
X67153790Y-48554895D01*
X67005105Y-48406210D01*
X66997433Y-48400467D01*
X66843895Y-48285530D01*
X66843893Y-48285529D01*
X66836772Y-48280198D01*
X66652220Y-48179425D01*
X66489845Y-48118862D01*
X66463544Y-48109052D01*
X66463540Y-48109051D01*
X66455205Y-48105942D01*
X66446516Y-48104052D01*
X66446513Y-48104051D01*
X66258418Y-48063134D01*
X66258413Y-48063133D01*
X66249737Y-48061246D01*
X66240881Y-48060613D01*
X66240877Y-48060612D01*
X66129322Y-48052634D01*
X66049690Y-48046938D01*
X66040716Y-48044858D01*
X66040000Y-48044857D01*
X66026292Y-48047984D01*
X66021728Y-48048495D01*
X65994253Y-48050040D01*
X61683940Y-48053811D01*
X61588635Y-48034940D01*
X61507807Y-47981035D01*
X61453759Y-47900300D01*
X61434722Y-47805029D01*
X61453593Y-47709724D01*
X61507652Y-47628741D01*
X62885483Y-46250909D01*
X62908050Y-46228342D01*
X62916946Y-46210883D01*
X62921231Y-46204985D01*
X62926469Y-46196437D01*
X62929777Y-46189944D01*
X62941296Y-46174090D01*
X62947352Y-46155452D01*
X62950656Y-46148967D01*
X62954499Y-46139690D01*
X62956749Y-46132765D01*
X62965646Y-46115304D01*
X62968712Y-46095945D01*
X62970959Y-46089030D01*
X62973305Y-46079260D01*
X62974444Y-46072070D01*
X62980499Y-46053433D01*
X62980499Y-46021525D01*
X62980500Y-46021519D01*
X62980500Y-43411791D01*
X67816865Y-43411791D01*
X67817088Y-43421248D01*
X67822539Y-43652538D01*
X67822889Y-43667398D01*
X67867506Y-43919153D01*
X67949691Y-44161263D01*
X68067553Y-44388155D01*
X68218378Y-44594609D01*
X68398696Y-44775874D01*
X68406300Y-44781490D01*
X68406303Y-44781493D01*
X68507223Y-44856033D01*
X68604357Y-44927777D01*
X68830629Y-45046825D01*
X68839566Y-45049911D01*
X68839573Y-45049914D01*
X68948161Y-45087409D01*
X69072305Y-45130277D01*
X69081609Y-45131976D01*
X69081612Y-45131977D01*
X69199331Y-45153476D01*
X69323823Y-45176212D01*
X69331786Y-45176629D01*
X69331792Y-45176630D01*
X69364814Y-45178360D01*
X69405643Y-45180500D01*
X69565007Y-45180500D01*
X69672134Y-45172351D01*
X69745507Y-45166770D01*
X69745511Y-45166769D01*
X69754942Y-45166052D01*
X69764159Y-45163916D01*
X69764163Y-45163915D01*
X69994807Y-45110455D01*
X69994810Y-45110454D01*
X70004017Y-45108320D01*
X70241493Y-45013576D01*
X70461906Y-44884002D01*
X70660184Y-44722579D01*
X70831763Y-44533021D01*
X70927466Y-44388155D01*
X70967483Y-44327582D01*
X70967485Y-44327578D01*
X70972695Y-44319692D01*
X71079737Y-44087499D01*
X71150426Y-43841787D01*
X71175958Y-43643852D01*
X71181925Y-43597591D01*
X71181925Y-43597589D01*
X71183135Y-43588209D01*
X71177111Y-43332602D01*
X71132494Y-43080847D01*
X71050309Y-42838737D01*
X70932447Y-42611845D01*
X70781622Y-42405391D01*
X70601304Y-42224126D01*
X70593700Y-42218510D01*
X70593697Y-42218507D01*
X70454910Y-42115998D01*
X70395643Y-42072223D01*
X70169371Y-41953175D01*
X70160434Y-41950089D01*
X70160427Y-41950086D01*
X70012576Y-41899033D01*
X69927695Y-41869723D01*
X69918391Y-41868024D01*
X69918388Y-41868023D01*
X69743509Y-41836085D01*
X69676177Y-41823788D01*
X69668214Y-41823371D01*
X69668208Y-41823370D01*
X69635186Y-41821640D01*
X69594357Y-41819500D01*
X69434993Y-41819500D01*
X69327866Y-41827649D01*
X69254493Y-41833230D01*
X69254489Y-41833231D01*
X69245058Y-41833948D01*
X69235841Y-41836084D01*
X69235837Y-41836085D01*
X69005193Y-41889545D01*
X69005190Y-41889546D01*
X68995983Y-41891680D01*
X68758507Y-41986424D01*
X68538094Y-42115998D01*
X68339816Y-42277421D01*
X68168237Y-42466979D01*
X68163024Y-42474870D01*
X68044748Y-42653905D01*
X68027305Y-42680308D01*
X67920263Y-42912501D01*
X67849574Y-43158213D01*
X67816865Y-43411791D01*
X62980500Y-43411791D01*
X62980500Y-41899033D01*
X62999454Y-41803745D01*
X63053430Y-41722963D01*
X65105483Y-39670909D01*
X65128050Y-39648342D01*
X65136946Y-39630883D01*
X65141231Y-39624985D01*
X65146469Y-39616437D01*
X65149778Y-39609944D01*
X65161296Y-39594090D01*
X65167351Y-39575454D01*
X65170656Y-39568968D01*
X65174501Y-39559685D01*
X65176750Y-39552764D01*
X65185646Y-39535304D01*
X65188712Y-39515947D01*
X65190960Y-39509027D01*
X65193304Y-39499265D01*
X65194443Y-39492073D01*
X65200500Y-39473433D01*
X65200500Y-38877847D01*
X65219454Y-38782559D01*
X65273430Y-38701777D01*
X65337230Y-38655594D01*
X65354735Y-38646752D01*
X65354740Y-38646749D01*
X65365610Y-38641258D01*
X65527951Y-38514424D01*
X65662564Y-38358472D01*
X65683387Y-38321818D01*
X65758306Y-38189936D01*
X65758306Y-38189935D01*
X65764323Y-38179344D01*
X65829351Y-37983863D01*
X65855171Y-37779474D01*
X65855583Y-37750000D01*
X65835480Y-37544970D01*
X65775935Y-37347749D01*
X65679218Y-37165849D01*
X65549011Y-37006200D01*
X65390275Y-36874882D01*
X65336524Y-36845819D01*
X65219764Y-36782687D01*
X65219761Y-36782686D01*
X65209055Y-36776897D01*
X65179800Y-36767841D01*
X65023891Y-36719579D01*
X65023889Y-36719579D01*
X65012254Y-36715977D01*
X64807369Y-36694443D01*
X64602203Y-36713114D01*
X64404572Y-36771280D01*
X64222002Y-36866726D01*
X64061447Y-36995815D01*
X63929024Y-37153630D01*
X63923160Y-37164296D01*
X63923159Y-37164298D01*
X63916392Y-37176607D01*
X63829776Y-37334162D01*
X63826098Y-37345756D01*
X63826096Y-37345761D01*
X63767484Y-37530532D01*
X63764670Y-37529639D01*
X63734676Y-37599467D01*
X63665088Y-37667266D01*
X63574852Y-37703274D01*
X63477706Y-37702010D01*
X63388438Y-37663665D01*
X63320639Y-37594077D01*
X63291086Y-37530417D01*
X63263176Y-37437974D01*
X63235935Y-37347749D01*
X63139218Y-37165849D01*
X63009011Y-37006200D01*
X62850275Y-36874882D01*
X62796524Y-36845819D01*
X62679764Y-36782687D01*
X62679761Y-36782686D01*
X62669055Y-36776897D01*
X62639800Y-36767841D01*
X62483891Y-36719579D01*
X62483889Y-36719579D01*
X62472254Y-36715977D01*
X62267369Y-36694443D01*
X62062203Y-36713114D01*
X61864572Y-36771280D01*
X61682002Y-36866726D01*
X61521447Y-36995815D01*
X61389024Y-37153630D01*
X61383160Y-37164296D01*
X61383159Y-37164298D01*
X61376392Y-37176607D01*
X61289776Y-37334162D01*
X61286098Y-37345756D01*
X61286096Y-37345761D01*
X61256845Y-37437974D01*
X61209966Y-37523071D01*
X61134090Y-37583750D01*
X61040769Y-37610774D01*
X60944210Y-37600029D01*
X60859113Y-37553150D01*
X60798434Y-37477274D01*
X60771410Y-37383953D01*
X60770500Y-37362684D01*
X60770500Y-36880252D01*
X60766687Y-36861080D01*
X60763651Y-36845819D01*
X60763651Y-36845818D01*
X60758867Y-36821769D01*
X60714552Y-36755448D01*
X60648231Y-36711133D01*
X60624182Y-36706349D01*
X60624181Y-36706349D01*
X60601739Y-36701885D01*
X60601737Y-36701885D01*
X60589748Y-36699500D01*
X58850252Y-36699500D01*
X58838263Y-36701885D01*
X58838261Y-36701885D01*
X58815819Y-36706349D01*
X58815818Y-36706349D01*
X58791769Y-36711133D01*
X58725448Y-36755448D01*
X58681133Y-36821769D01*
X58676349Y-36845818D01*
X58676349Y-36845819D01*
X58673314Y-36861080D01*
X58669500Y-36880252D01*
X58669500Y-38619748D01*
X58671885Y-38631737D01*
X58671885Y-38631739D01*
X58674870Y-38646746D01*
X58681133Y-38678231D01*
X58725448Y-38744552D01*
X58791769Y-38788867D01*
X58815818Y-38793651D01*
X58815819Y-38793651D01*
X58838261Y-38798115D01*
X58838263Y-38798115D01*
X58850252Y-38800500D01*
X59070500Y-38800500D01*
X59165788Y-38819454D01*
X59246570Y-38873430D01*
X59300546Y-38954212D01*
X59319500Y-39049500D01*
X59319500Y-39583433D01*
X59325557Y-39602073D01*
X59326696Y-39609265D01*
X59329040Y-39619027D01*
X59331288Y-39625947D01*
X59334354Y-39645304D01*
X59343250Y-39662764D01*
X59345499Y-39669685D01*
X59349344Y-39678968D01*
X59352649Y-39685453D01*
X59358704Y-39704090D01*
X59370223Y-39719945D01*
X59373532Y-39726438D01*
X59378771Y-39734989D01*
X59383057Y-39740888D01*
X59391950Y-39758342D01*
X59414513Y-39780905D01*
X59414516Y-39780909D01*
X61356570Y-41722963D01*
X61410546Y-41803745D01*
X61429500Y-41899033D01*
X61429500Y-45220967D01*
X61410546Y-45316255D01*
X61356570Y-45397037D01*
X60487037Y-46266570D01*
X60406255Y-46320546D01*
X60310967Y-46339500D01*
X57676213Y-46339500D01*
X57580925Y-46320546D01*
X57500143Y-46266570D01*
X57446167Y-46185788D01*
X57427213Y-46090500D01*
X57446167Y-45995212D01*
X57500143Y-45914430D01*
X57517161Y-45898918D01*
X57517870Y-45898329D01*
X57532991Y-45889045D01*
X57544895Y-45875894D01*
X57544897Y-45875892D01*
X57609409Y-45804619D01*
X57629200Y-45782754D01*
X57691710Y-45653733D01*
X57715496Y-45512354D01*
X57715647Y-45500000D01*
X57708785Y-45452083D01*
X57697838Y-45375642D01*
X57697838Y-45375640D01*
X57695323Y-45358082D01*
X57635984Y-45227572D01*
X57542400Y-45118963D01*
X57422095Y-45040985D01*
X57405097Y-45035902D01*
X57405096Y-45035901D01*
X57301736Y-45004990D01*
X57301735Y-45004990D01*
X57284739Y-44999907D01*
X57211804Y-44999461D01*
X57159114Y-44999139D01*
X57159111Y-44999139D01*
X57141376Y-44999031D01*
X57124322Y-45003905D01*
X57020585Y-45033553D01*
X57020583Y-45033554D01*
X57003529Y-45038428D01*
X56882280Y-45114930D01*
X56878397Y-45119327D01*
X56801080Y-45162448D01*
X56724551Y-45174500D01*
X56097966Y-45174500D01*
X56002678Y-45155546D01*
X55921896Y-45101570D01*
X54081877Y-43261551D01*
X54027901Y-43180769D01*
X54011462Y-43120779D01*
X53997838Y-43025643D01*
X53997838Y-43025642D01*
X53995323Y-43008082D01*
X53935984Y-42877572D01*
X53842400Y-42768963D01*
X53722095Y-42690985D01*
X53705097Y-42685902D01*
X53705096Y-42685901D01*
X53601736Y-42654990D01*
X53601735Y-42654990D01*
X53584739Y-42649907D01*
X53511804Y-42649461D01*
X53459114Y-42649139D01*
X53459111Y-42649139D01*
X53441376Y-42649031D01*
X53424322Y-42653905D01*
X53320585Y-42683553D01*
X53320583Y-42683554D01*
X53303529Y-42688428D01*
X53182280Y-42764930D01*
X53087377Y-42872388D01*
X53079839Y-42888442D01*
X53079839Y-42888443D01*
X53077362Y-42893720D01*
X53026447Y-43002163D01*
X53004391Y-43143823D01*
X53022980Y-43285979D01*
X53080720Y-43417203D01*
X53172970Y-43526948D01*
X53292313Y-43606390D01*
X53309246Y-43611680D01*
X53309248Y-43611681D01*
X53412223Y-43643852D01*
X53412226Y-43643852D01*
X53429157Y-43649142D01*
X53450592Y-43649535D01*
X53460064Y-43651600D01*
X53464403Y-43652303D01*
X53464365Y-43652538D01*
X53545516Y-43670232D01*
X53622097Y-43722423D01*
X55612104Y-45712430D01*
X55626779Y-45728446D01*
X55647545Y-45753194D01*
X55666411Y-45764086D01*
X55666412Y-45764087D01*
X55675533Y-45769353D01*
X55693847Y-45781020D01*
X55720316Y-45799554D01*
X55734363Y-45803318D01*
X55746955Y-45810588D01*
X55768406Y-45814370D01*
X55768411Y-45814372D01*
X55778768Y-45816198D01*
X55799974Y-45820899D01*
X55810152Y-45823626D01*
X55810153Y-45823626D01*
X55831193Y-45829264D01*
X55852890Y-45827366D01*
X55852891Y-45827366D01*
X55863393Y-45826447D01*
X55885094Y-45825500D01*
X56724117Y-45825500D01*
X56819405Y-45844454D01*
X56872417Y-45877772D01*
X56872967Y-45876946D01*
X56882394Y-45883221D01*
X56884628Y-45885447D01*
X56890082Y-45888875D01*
X56900959Y-45898600D01*
X56899483Y-45900250D01*
X56951214Y-45951800D01*
X56988551Y-46041494D01*
X56988721Y-46138649D01*
X56951700Y-46228473D01*
X56883121Y-46297293D01*
X56793427Y-46334630D01*
X56744421Y-46339500D01*
X53603481Y-46339500D01*
X53603477Y-46339501D01*
X53571567Y-46339501D01*
X53552930Y-46345556D01*
X53545740Y-46346695D01*
X53535970Y-46349041D01*
X53529055Y-46351288D01*
X53509696Y-46354354D01*
X53492235Y-46363251D01*
X53485310Y-46365501D01*
X53476033Y-46369344D01*
X53469548Y-46372648D01*
X53450910Y-46378704D01*
X53435056Y-46390223D01*
X53428563Y-46393531D01*
X53420015Y-46398769D01*
X53414117Y-46403054D01*
X53396658Y-46411950D01*
X53374091Y-46434517D01*
X49532037Y-50276570D01*
X49451255Y-50330546D01*
X49355967Y-50349500D01*
X45749500Y-50349500D01*
X45654212Y-50330546D01*
X45573430Y-50276570D01*
X45519454Y-50195788D01*
X45500500Y-50100500D01*
X45500500Y-49920252D01*
X45488867Y-49861769D01*
X45444552Y-49795448D01*
X45378231Y-49751133D01*
X45354182Y-49746349D01*
X45354181Y-49746349D01*
X45331739Y-49741885D01*
X45331737Y-49741885D01*
X45319748Y-49739500D01*
X43631282Y-49739500D01*
X43535994Y-49720546D01*
X43455212Y-49666570D01*
X43401236Y-49585788D01*
X43382916Y-49508264D01*
X43369388Y-49319123D01*
X43369387Y-49319119D01*
X43368754Y-49310263D01*
X43346407Y-49207530D01*
X43325949Y-49113487D01*
X43325948Y-49113484D01*
X43324058Y-49104795D01*
X43250575Y-48907780D01*
X43149802Y-48723228D01*
X43132663Y-48700332D01*
X43029120Y-48562015D01*
X43023790Y-48554895D01*
X42875105Y-48406210D01*
X42867433Y-48400467D01*
X42713895Y-48285530D01*
X42713893Y-48285529D01*
X42706772Y-48280198D01*
X42525405Y-48181164D01*
X42450856Y-48118862D01*
X42405824Y-48032773D01*
X42397165Y-47936005D01*
X42426196Y-47843289D01*
X42488498Y-47768740D01*
X42514450Y-47750429D01*
X42532991Y-47739045D01*
X42540560Y-47730683D01*
X42621853Y-47686636D01*
X42695485Y-47675500D01*
X45264117Y-47675500D01*
X45359405Y-47694454D01*
X45412420Y-47727774D01*
X45412970Y-47726948D01*
X45532313Y-47806390D01*
X45549246Y-47811680D01*
X45549248Y-47811681D01*
X45616006Y-47832537D01*
X45669157Y-47849142D01*
X45735992Y-47850367D01*
X45794760Y-47851445D01*
X45794762Y-47851445D01*
X45812499Y-47851770D01*
X45950817Y-47814060D01*
X45965932Y-47804779D01*
X45965935Y-47804778D01*
X46057876Y-47748326D01*
X46057878Y-47748325D01*
X46072991Y-47739045D01*
X46169200Y-47632754D01*
X46231710Y-47503733D01*
X46255496Y-47362354D01*
X46255647Y-47350000D01*
X46235323Y-47208082D01*
X46175984Y-47077572D01*
X46082400Y-46968963D01*
X45962095Y-46890985D01*
X45945097Y-46885902D01*
X45945096Y-46885901D01*
X45841736Y-46854990D01*
X45841735Y-46854990D01*
X45824739Y-46849907D01*
X45751804Y-46849461D01*
X45699114Y-46849139D01*
X45699111Y-46849139D01*
X45681376Y-46849031D01*
X45664322Y-46853905D01*
X45560585Y-46883553D01*
X45560583Y-46883554D01*
X45543529Y-46888428D01*
X45422280Y-46964930D01*
X45418397Y-46969327D01*
X45341080Y-47012448D01*
X45264551Y-47024500D01*
X45227540Y-47024500D01*
X45132252Y-47005546D01*
X45051470Y-46951570D01*
X44997494Y-46870788D01*
X44978540Y-46775500D01*
X44988768Y-46709805D01*
X44991710Y-46703733D01*
X45015496Y-46562354D01*
X45015647Y-46550000D01*
X45010891Y-46516791D01*
X44997838Y-46425642D01*
X44997838Y-46425640D01*
X44995323Y-46408082D01*
X44935984Y-46277572D01*
X44906904Y-46243823D01*
X46954391Y-46243823D01*
X46972980Y-46385979D01*
X47030720Y-46517203D01*
X47122970Y-46626948D01*
X47242313Y-46706390D01*
X47259246Y-46711680D01*
X47259248Y-46711681D01*
X47362224Y-46743852D01*
X47379157Y-46749142D01*
X47445992Y-46750367D01*
X47504760Y-46751445D01*
X47504762Y-46751445D01*
X47522499Y-46751770D01*
X47660817Y-46714060D01*
X47675932Y-46704779D01*
X47675935Y-46704778D01*
X47767872Y-46648328D01*
X47782991Y-46639045D01*
X47790560Y-46630683D01*
X47871853Y-46586636D01*
X47945485Y-46575500D01*
X48974117Y-46575500D01*
X49069405Y-46594454D01*
X49122420Y-46627774D01*
X49122970Y-46626948D01*
X49242313Y-46706390D01*
X49259246Y-46711680D01*
X49259248Y-46711681D01*
X49362224Y-46743852D01*
X49379157Y-46749142D01*
X49445992Y-46750367D01*
X49504760Y-46751445D01*
X49504762Y-46751445D01*
X49522499Y-46751770D01*
X49660817Y-46714060D01*
X49675932Y-46704779D01*
X49675935Y-46704778D01*
X49767876Y-46648326D01*
X49767878Y-46648325D01*
X49782991Y-46639045D01*
X49879200Y-46532754D01*
X49941710Y-46403733D01*
X49965496Y-46262354D01*
X49965647Y-46250000D01*
X49962564Y-46228473D01*
X49947838Y-46125642D01*
X49947838Y-46125640D01*
X49945323Y-46108082D01*
X49885984Y-45977572D01*
X49792400Y-45868963D01*
X49672095Y-45790985D01*
X49655097Y-45785902D01*
X49655096Y-45785901D01*
X49551736Y-45754990D01*
X49551735Y-45754990D01*
X49534739Y-45749907D01*
X49461804Y-45749461D01*
X49409114Y-45749139D01*
X49409111Y-45749139D01*
X49391376Y-45749031D01*
X49374322Y-45753905D01*
X49270585Y-45783553D01*
X49270583Y-45783554D01*
X49253529Y-45788428D01*
X49132280Y-45864930D01*
X49128397Y-45869327D01*
X49051080Y-45912448D01*
X48974551Y-45924500D01*
X47945583Y-45924500D01*
X47850295Y-45905546D01*
X47793672Y-45870439D01*
X47792400Y-45868963D01*
X47777516Y-45859316D01*
X47777513Y-45859313D01*
X47686983Y-45800635D01*
X47672095Y-45790985D01*
X47655097Y-45785902D01*
X47655096Y-45785901D01*
X47551736Y-45754990D01*
X47551735Y-45754990D01*
X47534739Y-45749907D01*
X47461804Y-45749461D01*
X47409114Y-45749139D01*
X47409111Y-45749139D01*
X47391376Y-45749031D01*
X47374322Y-45753905D01*
X47270585Y-45783553D01*
X47270583Y-45783554D01*
X47253529Y-45788428D01*
X47132280Y-45864930D01*
X47037377Y-45972388D01*
X47029839Y-45988442D01*
X47029839Y-45988443D01*
X47001393Y-46049031D01*
X46976447Y-46102163D01*
X46973719Y-46119687D01*
X46973718Y-46119689D01*
X46957400Y-46224500D01*
X46954391Y-46243823D01*
X44906904Y-46243823D01*
X44842400Y-46168963D01*
X44810034Y-46147984D01*
X44766380Y-46119689D01*
X44722095Y-46090985D01*
X44705097Y-46085902D01*
X44705096Y-46085901D01*
X44601736Y-46054990D01*
X44601735Y-46054990D01*
X44584739Y-46049907D01*
X44526056Y-46049548D01*
X44509811Y-46049449D01*
X44414640Y-46029913D01*
X44334190Y-45975444D01*
X44280709Y-45894334D01*
X44262338Y-45798932D01*
X44263328Y-45778212D01*
X44263899Y-45771846D01*
X44265496Y-45762354D01*
X44265647Y-45750000D01*
X44264283Y-45740474D01*
X44247838Y-45625642D01*
X44247838Y-45625640D01*
X44245323Y-45608082D01*
X44185984Y-45477572D01*
X44145866Y-45431013D01*
X44098025Y-45346454D01*
X44085500Y-45268476D01*
X44085500Y-41954190D01*
X44104454Y-41858902D01*
X44158430Y-41778120D01*
X44239212Y-41724144D01*
X44334500Y-41705190D01*
X44408751Y-41716519D01*
X44432221Y-41723851D01*
X44449157Y-41729142D01*
X44515992Y-41730367D01*
X44574760Y-41731445D01*
X44574762Y-41731445D01*
X44592499Y-41731770D01*
X44730817Y-41694060D01*
X44745932Y-41684779D01*
X44745935Y-41684778D01*
X44837876Y-41628326D01*
X44837878Y-41628325D01*
X44852991Y-41619045D01*
X44949200Y-41512754D01*
X45011710Y-41383733D01*
X45035496Y-41242354D01*
X45035647Y-41230000D01*
X45020702Y-41125642D01*
X45017838Y-41105642D01*
X45017838Y-41105640D01*
X45015323Y-41088082D01*
X44955984Y-40957572D01*
X44862400Y-40848963D01*
X44742095Y-40770985D01*
X44725097Y-40765902D01*
X44725096Y-40765901D01*
X44621736Y-40734990D01*
X44621735Y-40734990D01*
X44604739Y-40729907D01*
X44531804Y-40729461D01*
X44479114Y-40729139D01*
X44479111Y-40729139D01*
X44461376Y-40729031D01*
X44444322Y-40733905D01*
X44340585Y-40763553D01*
X44340583Y-40763554D01*
X44323529Y-40768428D01*
X44202280Y-40844930D01*
X44198899Y-40848759D01*
X44122066Y-40891612D01*
X44044565Y-40900373D01*
X44044597Y-40900737D01*
X44030199Y-40901997D01*
X44023830Y-40902717D01*
X44001193Y-40900736D01*
X43980151Y-40906375D01*
X43980146Y-40906375D01*
X43969974Y-40909101D01*
X43948768Y-40913802D01*
X43938411Y-40915628D01*
X43938406Y-40915630D01*
X43916955Y-40919412D01*
X43904363Y-40926682D01*
X43890316Y-40930446D01*
X43863847Y-40948980D01*
X43845533Y-40960647D01*
X43836412Y-40965913D01*
X43836411Y-40965914D01*
X43817545Y-40976806D01*
X43796767Y-41001569D01*
X43782104Y-41017570D01*
X43547570Y-41252104D01*
X43531554Y-41266779D01*
X43506806Y-41287545D01*
X43495914Y-41306411D01*
X43495913Y-41306412D01*
X43490647Y-41315533D01*
X43478980Y-41333847D01*
X43460446Y-41360316D01*
X43456682Y-41374363D01*
X43449412Y-41386955D01*
X43445630Y-41408406D01*
X43445628Y-41408411D01*
X43443802Y-41418768D01*
X43439101Y-41439974D01*
X43436375Y-41450146D01*
X43436375Y-41450151D01*
X43430736Y-41471193D01*
X43432635Y-41492896D01*
X43433552Y-41503380D01*
X43434500Y-41525082D01*
X43434500Y-45168489D01*
X43415546Y-45263777D01*
X43361570Y-45344559D01*
X43280788Y-45398535D01*
X43185500Y-45417489D01*
X42698602Y-45417489D01*
X42603314Y-45398535D01*
X42546691Y-45363428D01*
X42545419Y-45361952D01*
X42530535Y-45352305D01*
X42530532Y-45352302D01*
X42440002Y-45293624D01*
X42425114Y-45283974D01*
X42408116Y-45278891D01*
X42408115Y-45278890D01*
X42304755Y-45247979D01*
X42304754Y-45247979D01*
X42287758Y-45242896D01*
X42214823Y-45242450D01*
X42162133Y-45242128D01*
X42162130Y-45242128D01*
X42144395Y-45242020D01*
X42127341Y-45246894D01*
X42023604Y-45276542D01*
X42023602Y-45276543D01*
X42006548Y-45281417D01*
X41885299Y-45357919D01*
X41790396Y-45465377D01*
X41782858Y-45481431D01*
X41782858Y-45481432D01*
X41763884Y-45521846D01*
X41729466Y-45595152D01*
X41726738Y-45612676D01*
X41726737Y-45612678D01*
X41713156Y-45699909D01*
X41707410Y-45736812D01*
X41725999Y-45878968D01*
X41783739Y-46010192D01*
X41790138Y-46017804D01*
X41822403Y-46103419D01*
X41819267Y-46200523D01*
X41789495Y-46269990D01*
X41787377Y-46272388D01*
X41779839Y-46288442D01*
X41779839Y-46288443D01*
X41741856Y-46369344D01*
X41726447Y-46402163D01*
X41723719Y-46419687D01*
X41723718Y-46419689D01*
X41708536Y-46517203D01*
X41704391Y-46543823D01*
X41722980Y-46685979D01*
X41780720Y-46817203D01*
X41786568Y-46824160D01*
X41818613Y-46909185D01*
X41815478Y-47006290D01*
X41787187Y-47072299D01*
X41787377Y-47072388D01*
X41779838Y-47088446D01*
X41749124Y-47153864D01*
X41726447Y-47202163D01*
X41704391Y-47343823D01*
X41722980Y-47485979D01*
X41780720Y-47617203D01*
X41792134Y-47630781D01*
X41792136Y-47630785D01*
X41800539Y-47640782D01*
X41847343Y-47725920D01*
X41858003Y-47822489D01*
X41830896Y-47915786D01*
X41770150Y-47991607D01*
X41685012Y-48038411D01*
X41609932Y-48050000D01*
X30525741Y-48050000D01*
X30497271Y-48048367D01*
X30494458Y-48048043D01*
X30480716Y-48044858D01*
X30480000Y-48044857D01*
X30475565Y-48045869D01*
X30475194Y-48045826D01*
X30471035Y-48045472D01*
X30471136Y-48046879D01*
X30279123Y-48060612D01*
X30279119Y-48060613D01*
X30270263Y-48061246D01*
X30261587Y-48063133D01*
X30261582Y-48063134D01*
X30073487Y-48104051D01*
X30073484Y-48104052D01*
X30064795Y-48105942D01*
X30056460Y-48109051D01*
X30056456Y-48109052D01*
X30030155Y-48118862D01*
X29867780Y-48179425D01*
X29683228Y-48280198D01*
X29676107Y-48285529D01*
X29676105Y-48285530D01*
X29522567Y-48400467D01*
X29514895Y-48406210D01*
X29366210Y-48554895D01*
X29360880Y-48562015D01*
X29257338Y-48700332D01*
X29240198Y-48723228D01*
X29139425Y-48907780D01*
X29065942Y-49104795D01*
X29064052Y-49113484D01*
X29064051Y-49113487D01*
X29043594Y-49207530D01*
X29021246Y-49310263D01*
X29020613Y-49319119D01*
X29020612Y-49319123D01*
X29019534Y-49334196D01*
X29006938Y-49510310D01*
X29004858Y-49519284D01*
X29004857Y-49520000D01*
X29007984Y-49533707D01*
X29008455Y-49537918D01*
X29010000Y-49565610D01*
X29010000Y-50466000D01*
X28991046Y-50561288D01*
X28937070Y-50642070D01*
X28856288Y-50696046D01*
X28761000Y-50715000D01*
X28430000Y-50715000D01*
X28430000Y-51490000D01*
X28434878Y-51490000D01*
X28435215Y-51491695D01*
X28440000Y-51540273D01*
X28440000Y-53316407D01*
X28437113Y-53316407D01*
X28437112Y-53338096D01*
X28440178Y-53338163D01*
X28440000Y-53346321D01*
X28440000Y-54851000D01*
X28421046Y-54946288D01*
X28367070Y-55027070D01*
X28286288Y-55081046D01*
X28191000Y-55100000D01*
X27689000Y-55100000D01*
X27593712Y-55081046D01*
X27512930Y-55027070D01*
X27458954Y-54946288D01*
X27440000Y-54851000D01*
X27440000Y-53343593D01*
X27442887Y-53343593D01*
X27442888Y-53321904D01*
X27439822Y-53321837D01*
X27440000Y-53313679D01*
X27440000Y-50828116D01*
X27434785Y-50801899D01*
X27430000Y-50753321D01*
X27430000Y-50715000D01*
X24579000Y-50715000D01*
X24483712Y-50696046D01*
X24402930Y-50642070D01*
X24348954Y-50561288D01*
X24330000Y-50466000D01*
X24330000Y-43411791D01*
X25316865Y-43411791D01*
X25317088Y-43421248D01*
X25322539Y-43652538D01*
X25322889Y-43667398D01*
X25367506Y-43919153D01*
X25449691Y-44161263D01*
X25567553Y-44388155D01*
X25718378Y-44594609D01*
X25898696Y-44775874D01*
X25906300Y-44781490D01*
X25906303Y-44781493D01*
X26007223Y-44856033D01*
X26104357Y-44927777D01*
X26330629Y-45046825D01*
X26339566Y-45049911D01*
X26339573Y-45049914D01*
X26448161Y-45087409D01*
X26572305Y-45130277D01*
X26581609Y-45131976D01*
X26581612Y-45131977D01*
X26699331Y-45153476D01*
X26823823Y-45176212D01*
X26831786Y-45176629D01*
X26831792Y-45176630D01*
X26864814Y-45178360D01*
X26905643Y-45180500D01*
X27065007Y-45180500D01*
X27172134Y-45172351D01*
X27245507Y-45166770D01*
X27245511Y-45166769D01*
X27254942Y-45166052D01*
X27264159Y-45163916D01*
X27264163Y-45163915D01*
X27494807Y-45110455D01*
X27494810Y-45110454D01*
X27504017Y-45108320D01*
X27741493Y-45013576D01*
X27961906Y-44884002D01*
X28160184Y-44722579D01*
X28331763Y-44533021D01*
X28427466Y-44388155D01*
X28467483Y-44327582D01*
X28467485Y-44327578D01*
X28472695Y-44319692D01*
X28579737Y-44087499D01*
X28650426Y-43841787D01*
X28675958Y-43643852D01*
X28681925Y-43597591D01*
X28681925Y-43597589D01*
X28683135Y-43588209D01*
X28677111Y-43332602D01*
X28632494Y-43080847D01*
X28550309Y-42838737D01*
X28432447Y-42611845D01*
X28281622Y-42405391D01*
X28101304Y-42224126D01*
X28093700Y-42218510D01*
X28093697Y-42218507D01*
X27954910Y-42115998D01*
X27895643Y-42072223D01*
X27669371Y-41953175D01*
X27660434Y-41950089D01*
X27660427Y-41950086D01*
X27512576Y-41899033D01*
X27427695Y-41869723D01*
X27418391Y-41868024D01*
X27418388Y-41868023D01*
X27243509Y-41836085D01*
X27176177Y-41823788D01*
X27168214Y-41823371D01*
X27168208Y-41823370D01*
X27135186Y-41821640D01*
X27094357Y-41819500D01*
X26934993Y-41819500D01*
X26827866Y-41827649D01*
X26754493Y-41833230D01*
X26754489Y-41833231D01*
X26745058Y-41833948D01*
X26735841Y-41836084D01*
X26735837Y-41836085D01*
X26505193Y-41889545D01*
X26505190Y-41889546D01*
X26495983Y-41891680D01*
X26258507Y-41986424D01*
X26038094Y-42115998D01*
X25839816Y-42277421D01*
X25668237Y-42466979D01*
X25663024Y-42474870D01*
X25544748Y-42653905D01*
X25527305Y-42680308D01*
X25420263Y-42912501D01*
X25349574Y-43158213D01*
X25316865Y-43411791D01*
X24330000Y-43411791D01*
X24330000Y-34258823D01*
X47579391Y-34258823D01*
X47597980Y-34400979D01*
X47655720Y-34532203D01*
X47747970Y-34641948D01*
X47867313Y-34721390D01*
X47884246Y-34726680D01*
X47884248Y-34726681D01*
X47934499Y-34742380D01*
X48004157Y-34764142D01*
X48009053Y-34764232D01*
X48091340Y-34794915D01*
X48162453Y-34861112D01*
X48202821Y-34949483D01*
X48209500Y-35006768D01*
X48209500Y-39489895D01*
X48190546Y-39585183D01*
X48147135Y-39654723D01*
X48103537Y-39704090D01*
X48087377Y-39722388D01*
X48026447Y-39852163D01*
X48004391Y-39993823D01*
X48022980Y-40135979D01*
X48080720Y-40267203D01*
X48172970Y-40376948D01*
X48292313Y-40456390D01*
X48309246Y-40461680D01*
X48309248Y-40461681D01*
X48412224Y-40493852D01*
X48429157Y-40499142D01*
X48495992Y-40500367D01*
X48554760Y-40501445D01*
X48554762Y-40501445D01*
X48572499Y-40501770D01*
X48645008Y-40482002D01*
X48741922Y-40475225D01*
X48834056Y-40506052D01*
X48907381Y-40569790D01*
X48950732Y-40656737D01*
X48959500Y-40722234D01*
X48959500Y-40739895D01*
X48940546Y-40835183D01*
X48897135Y-40904723D01*
X48858057Y-40948972D01*
X48837377Y-40972388D01*
X48829839Y-40988442D01*
X48829839Y-40988443D01*
X48819770Y-41009890D01*
X48776447Y-41102163D01*
X48754391Y-41243823D01*
X48772980Y-41385979D01*
X48830720Y-41517203D01*
X48922970Y-41626948D01*
X49042313Y-41706390D01*
X49059246Y-41711680D01*
X49059248Y-41711681D01*
X49123551Y-41731770D01*
X49179157Y-41749142D01*
X49245992Y-41750367D01*
X49304760Y-41751445D01*
X49304762Y-41751445D01*
X49322499Y-41751770D01*
X49460817Y-41714060D01*
X49475932Y-41704779D01*
X49475935Y-41704778D01*
X49567876Y-41648326D01*
X49567878Y-41648325D01*
X49582991Y-41639045D01*
X49679200Y-41532754D01*
X49741710Y-41403733D01*
X49765496Y-41262354D01*
X49765647Y-41250000D01*
X49745323Y-41108082D01*
X49685984Y-40977572D01*
X49626985Y-40909101D01*
X49620866Y-40901999D01*
X49573025Y-40817440D01*
X49560500Y-40739462D01*
X49560500Y-34540293D01*
X49579454Y-34445005D01*
X49583713Y-34435517D01*
X49583973Y-34434702D01*
X49591710Y-34418733D01*
X49597657Y-34383389D01*
X49613899Y-34286846D01*
X49615496Y-34277354D01*
X49615647Y-34265000D01*
X49595323Y-34123082D01*
X49535984Y-33992572D01*
X49442400Y-33883963D01*
X49322095Y-33805985D01*
X49305097Y-33800902D01*
X49305096Y-33800901D01*
X49201736Y-33769990D01*
X49201735Y-33769990D01*
X49184739Y-33764907D01*
X49111804Y-33764461D01*
X49059114Y-33764139D01*
X49059111Y-33764139D01*
X49041376Y-33764031D01*
X49024322Y-33768905D01*
X48920585Y-33798553D01*
X48920583Y-33798554D01*
X48903529Y-33803428D01*
X48782280Y-33879930D01*
X48770537Y-33893226D01*
X48758616Y-33903372D01*
X48673766Y-33950696D01*
X48577264Y-33961947D01*
X48483803Y-33935412D01*
X48433549Y-33901387D01*
X48428977Y-33897398D01*
X48417400Y-33883963D01*
X48297095Y-33805985D01*
X48280097Y-33800902D01*
X48280096Y-33800901D01*
X48176736Y-33769990D01*
X48176735Y-33769990D01*
X48159739Y-33764907D01*
X48086804Y-33764461D01*
X48034114Y-33764139D01*
X48034111Y-33764139D01*
X48016376Y-33764031D01*
X47999322Y-33768905D01*
X47895585Y-33798553D01*
X47895583Y-33798554D01*
X47878529Y-33803428D01*
X47757280Y-33879930D01*
X47662377Y-33987388D01*
X47654839Y-34003442D01*
X47654839Y-34003443D01*
X47652362Y-34008720D01*
X47601447Y-34117163D01*
X47579391Y-34258823D01*
X24330000Y-34258823D01*
X24330000Y-29411791D01*
X25316865Y-29411791D01*
X25322889Y-29667398D01*
X25367506Y-29919153D01*
X25449691Y-30161263D01*
X25567553Y-30388155D01*
X25718378Y-30594609D01*
X25898696Y-30775874D01*
X25906300Y-30781490D01*
X25906303Y-30781493D01*
X26007223Y-30856033D01*
X26104357Y-30927777D01*
X26330629Y-31046825D01*
X26339566Y-31049911D01*
X26339573Y-31049914D01*
X26448161Y-31087409D01*
X26572305Y-31130277D01*
X26581609Y-31131976D01*
X26581612Y-31131977D01*
X26699331Y-31153476D01*
X26823823Y-31176212D01*
X26831786Y-31176629D01*
X26831792Y-31176630D01*
X26864814Y-31178360D01*
X26905643Y-31180500D01*
X27065007Y-31180500D01*
X27172134Y-31172351D01*
X27245507Y-31166770D01*
X27245511Y-31166769D01*
X27254942Y-31166052D01*
X27264159Y-31163916D01*
X27264163Y-31163915D01*
X27494807Y-31110455D01*
X27494810Y-31110454D01*
X27504017Y-31108320D01*
X27741493Y-31013576D01*
X27961906Y-30884002D01*
X28160184Y-30722579D01*
X28331763Y-30533021D01*
X28427466Y-30388155D01*
X28467483Y-30327582D01*
X28467485Y-30327578D01*
X28472695Y-30319692D01*
X28579737Y-30087499D01*
X28650426Y-29841787D01*
X28683135Y-29588209D01*
X28677111Y-29332602D01*
X28632494Y-29080847D01*
X28561855Y-28872750D01*
X28553350Y-28847695D01*
X28553349Y-28847693D01*
X28550309Y-28838737D01*
X28432447Y-28611845D01*
X28293010Y-28420979D01*
X28287208Y-28413037D01*
X28287207Y-28413035D01*
X28281622Y-28405391D01*
X28101304Y-28224126D01*
X28093700Y-28218510D01*
X28093697Y-28218507D01*
X27954910Y-28115998D01*
X27895643Y-28072223D01*
X27669371Y-27953175D01*
X27660434Y-27950089D01*
X27660427Y-27950086D01*
X27551839Y-27912591D01*
X27427695Y-27869723D01*
X27418391Y-27868024D01*
X27418388Y-27868023D01*
X27243509Y-27836085D01*
X27176177Y-27823788D01*
X27168214Y-27823371D01*
X27168208Y-27823370D01*
X27135186Y-27821640D01*
X27094357Y-27819500D01*
X26934993Y-27819500D01*
X26827866Y-27827649D01*
X26754493Y-27833230D01*
X26754489Y-27833231D01*
X26745058Y-27833948D01*
X26735841Y-27836084D01*
X26735837Y-27836085D01*
X26505193Y-27889545D01*
X26505190Y-27889546D01*
X26495983Y-27891680D01*
X26258507Y-27986424D01*
X26202607Y-28019286D01*
X26048886Y-28109654D01*
X26038094Y-28115998D01*
X26030763Y-28121966D01*
X26030762Y-28121967D01*
X26013181Y-28136280D01*
X25839816Y-28277421D01*
X25668237Y-28466979D01*
X25663024Y-28474870D01*
X25537539Y-28664817D01*
X25527305Y-28680308D01*
X25420263Y-28912501D01*
X25349574Y-29158213D01*
X25316865Y-29411791D01*
X24330000Y-29411791D01*
X24330000Y-29232723D01*
X24331267Y-29232723D01*
X24330705Y-29229658D01*
X24335143Y-29210358D01*
X24331739Y-29195315D01*
X24332403Y-29192429D01*
X24331068Y-29192348D01*
X24346152Y-28942974D01*
X24349777Y-28913125D01*
X24395281Y-28664817D01*
X24402477Y-28635621D01*
X24477581Y-28394606D01*
X24488243Y-28366493D01*
X24591853Y-28136280D01*
X24605822Y-28109663D01*
X24736425Y-27893620D01*
X24753503Y-27868879D01*
X24909194Y-27670153D01*
X24929133Y-27647645D01*
X25107645Y-27469133D01*
X25130153Y-27449194D01*
X25328879Y-27293503D01*
X25353623Y-27276423D01*
X25569663Y-27145822D01*
X25596280Y-27131853D01*
X25826493Y-27028243D01*
X25854606Y-27017581D01*
X26095621Y-26942477D01*
X26124817Y-26935281D01*
X26373125Y-26889777D01*
X26402974Y-26886152D01*
X26500259Y-26880267D01*
X26652009Y-26871088D01*
X26669642Y-26875143D01*
X26688339Y-26870912D01*
X26705097Y-26871410D01*
X26719537Y-26870000D01*
X43861646Y-26870000D01*
X43956934Y-26888954D01*
G37*
%TD.AperFunction*%
%TD*%
M02*
