%TF.GenerationSoftware,KiCad,Pcbnew,(6.0.2)*%
%TF.CreationDate,2022-05-16T10:18:48+01:00*%
%TF.ProjectId,mcp_breadboard,6d63705f-6272-4656-9164-626f6172642e,rev?*%
%TF.SameCoordinates,Original*%
%TF.FileFunction,Legend,Top*%
%TF.FilePolarity,Positive*%
%FSLAX46Y46*%
G04 Gerber Fmt 4.6, Leading zero omitted, Abs format (unit mm)*
G04 Created by KiCad (PCBNEW (6.0.2)) date 2022-05-16 10:18:48*
%MOMM*%
%LPD*%
G01*
G04 APERTURE LIST*
%ADD10C,0.150000*%
%ADD11C,0.120000*%
G04 APERTURE END LIST*
D10*
X50000000Y-51270000D02*
X43904000Y-51270000D01*
X40000000Y-28740000D02*
X40000000Y-30240000D01*
X43904000Y-58890000D02*
X50000000Y-58890000D01*
X50000000Y-63716000D02*
X50000000Y-51270000D01*
X74765000Y-51270000D02*
X76035000Y-51270000D01*
X72860000Y-51905000D02*
X72860000Y-50635000D01*
X31000000Y-30240000D02*
X43000000Y-30240000D01*
X56096000Y-53810000D02*
X50000000Y-53810000D01*
X34000000Y-28740000D02*
X34000000Y-30240000D01*
X56096000Y-61430000D02*
X50000000Y-61430000D01*
X26505000Y-51270000D02*
X27775000Y-51270000D01*
X23965000Y-51270000D02*
X25235000Y-51270000D01*
X50000000Y-53810000D02*
X43904000Y-53810000D01*
X50000000Y-56350000D02*
X43904000Y-56350000D01*
X43000000Y-28740000D02*
X43000000Y-30240000D01*
X24600000Y-50635000D02*
X24600000Y-51905000D01*
X43904000Y-61430000D02*
X50000000Y-61430000D01*
X50000000Y-51270000D02*
X56096000Y-51270000D01*
X73495000Y-51270000D02*
X72225000Y-51270000D01*
X56096000Y-58890000D02*
X50000000Y-58890000D01*
X43000000Y-28740000D02*
X31000000Y-28740000D01*
X56096000Y-56350000D02*
X50000000Y-56350000D01*
X31000000Y-28740000D02*
X31000000Y-30240000D01*
X37000000Y-28740000D02*
X37000000Y-30240000D01*
X47458023Y-57120000D02*
X47362785Y-57072380D01*
X47219928Y-57072380D01*
X47077071Y-57120000D01*
X46981833Y-57215238D01*
X46934214Y-57310476D01*
X46886595Y-57500952D01*
X46886595Y-57643809D01*
X46934214Y-57834285D01*
X46981833Y-57929523D01*
X47077071Y-58024761D01*
X47219928Y-58072380D01*
X47315166Y-58072380D01*
X47458023Y-58024761D01*
X47505642Y-57977142D01*
X47505642Y-57643809D01*
X47315166Y-57643809D01*
X47934214Y-58072380D02*
X47934214Y-57072380D01*
X48315166Y-57072380D01*
X48410404Y-57120000D01*
X48458023Y-57167619D01*
X48505642Y-57262857D01*
X48505642Y-57405714D01*
X48458023Y-57500952D01*
X48410404Y-57548571D01*
X48315166Y-57596190D01*
X47934214Y-57596190D01*
X49458023Y-58072380D02*
X48886595Y-58072380D01*
X49172309Y-58072380D02*
X49172309Y-57072380D01*
X49077071Y-57215238D01*
X48981833Y-57310476D01*
X48886595Y-57358095D01*
X50541976Y-60564761D02*
X50684833Y-60612380D01*
X50922928Y-60612380D01*
X51018166Y-60564761D01*
X51065785Y-60517142D01*
X51113404Y-60421904D01*
X51113404Y-60326666D01*
X51065785Y-60231428D01*
X51018166Y-60183809D01*
X50922928Y-60136190D01*
X50732452Y-60088571D01*
X50637214Y-60040952D01*
X50589595Y-59993333D01*
X50541976Y-59898095D01*
X50541976Y-59802857D01*
X50589595Y-59707619D01*
X50637214Y-59660000D01*
X50732452Y-59612380D01*
X50970547Y-59612380D01*
X51113404Y-59660000D01*
X51541976Y-60612380D02*
X51541976Y-59612380D01*
X51780071Y-59612380D01*
X51922928Y-59660000D01*
X52018166Y-59755238D01*
X52065785Y-59850476D01*
X52113404Y-60040952D01*
X52113404Y-60183809D01*
X52065785Y-60374285D01*
X52018166Y-60469523D01*
X51922928Y-60564761D01*
X51780071Y-60612380D01*
X51541976Y-60612380D01*
X52494357Y-60326666D02*
X52970547Y-60326666D01*
X52399119Y-60612380D02*
X52732452Y-59612380D01*
X53065785Y-60612380D01*
X50446738Y-54532380D02*
X51018166Y-54532380D01*
X50732452Y-55532380D02*
X50732452Y-54532380D01*
X51256261Y-55532380D02*
X51780071Y-54865714D01*
X51256261Y-54865714D02*
X51780071Y-55532380D01*
X48553261Y-51992380D02*
X48077071Y-51992380D01*
X48029452Y-52468571D01*
X48077071Y-52420952D01*
X48172309Y-52373333D01*
X48410404Y-52373333D01*
X48505642Y-52420952D01*
X48553261Y-52468571D01*
X48600880Y-52563809D01*
X48600880Y-52801904D01*
X48553261Y-52897142D01*
X48505642Y-52944761D01*
X48410404Y-52992380D01*
X48172309Y-52992380D01*
X48077071Y-52944761D01*
X48029452Y-52897142D01*
X48886595Y-51992380D02*
X49219928Y-52992380D01*
X49553261Y-51992380D01*
X50494357Y-51992380D02*
X51113404Y-51992380D01*
X50780071Y-52373333D01*
X50922928Y-52373333D01*
X51018166Y-52420952D01*
X51065785Y-52468571D01*
X51113404Y-52563809D01*
X51113404Y-52801904D01*
X51065785Y-52897142D01*
X51018166Y-52944761D01*
X50922928Y-52992380D01*
X50637214Y-52992380D01*
X50541976Y-52944761D01*
X50494357Y-52897142D01*
X51399119Y-51992380D02*
X51732452Y-52992380D01*
X52065785Y-51992380D01*
X52303880Y-51992380D02*
X52922928Y-51992380D01*
X52589595Y-52373333D01*
X52732452Y-52373333D01*
X52827690Y-52420952D01*
X52875309Y-52468571D01*
X52922928Y-52563809D01*
X52922928Y-52801904D01*
X52875309Y-52897142D01*
X52827690Y-52944761D01*
X52732452Y-52992380D01*
X52446738Y-52992380D01*
X52351500Y-52944761D01*
X52303880Y-52897142D01*
X68366666Y-38147380D02*
X68700000Y-39147380D01*
X69033333Y-38147380D01*
X69366666Y-39147380D02*
X69366666Y-38147380D01*
X69604761Y-38147380D01*
X69747619Y-38195000D01*
X69842857Y-38290238D01*
X69890476Y-38385476D01*
X69938095Y-38575952D01*
X69938095Y-38718809D01*
X69890476Y-38909285D01*
X69842857Y-39004523D01*
X69747619Y-39099761D01*
X69604761Y-39147380D01*
X69366666Y-39147380D01*
X70366666Y-39147380D02*
X70366666Y-38147380D01*
X70604761Y-38147380D01*
X70747619Y-38195000D01*
X70842857Y-38290238D01*
X70890476Y-38385476D01*
X70938095Y-38575952D01*
X70938095Y-38718809D01*
X70890476Y-38909285D01*
X70842857Y-39004523D01*
X70747619Y-39099761D01*
X70604761Y-39147380D01*
X70366666Y-39147380D01*
X68461904Y-39757380D02*
X69080952Y-39757380D01*
X68747619Y-40138333D01*
X68890476Y-40138333D01*
X68985714Y-40185952D01*
X69033333Y-40233571D01*
X69080952Y-40328809D01*
X69080952Y-40566904D01*
X69033333Y-40662142D01*
X68985714Y-40709761D01*
X68890476Y-40757380D01*
X68604761Y-40757380D01*
X68509523Y-40709761D01*
X68461904Y-40662142D01*
X69366666Y-39757380D02*
X69700000Y-40757380D01*
X70033333Y-39757380D01*
X70271428Y-39757380D02*
X70890476Y-39757380D01*
X70557142Y-40138333D01*
X70700000Y-40138333D01*
X70795238Y-40185952D01*
X70842857Y-40233571D01*
X70890476Y-40328809D01*
X70890476Y-40566904D01*
X70842857Y-40662142D01*
X70795238Y-40709761D01*
X70700000Y-40757380D01*
X70414285Y-40757380D01*
X70319047Y-40709761D01*
X70271428Y-40662142D01*
X47458023Y-59660000D02*
X47362785Y-59612380D01*
X47219928Y-59612380D01*
X47077071Y-59660000D01*
X46981833Y-59755238D01*
X46934214Y-59850476D01*
X46886595Y-60040952D01*
X46886595Y-60183809D01*
X46934214Y-60374285D01*
X46981833Y-60469523D01*
X47077071Y-60564761D01*
X47219928Y-60612380D01*
X47315166Y-60612380D01*
X47458023Y-60564761D01*
X47505642Y-60517142D01*
X47505642Y-60183809D01*
X47315166Y-60183809D01*
X47934214Y-60612380D02*
X47934214Y-59612380D01*
X48315166Y-59612380D01*
X48410404Y-59660000D01*
X48458023Y-59707619D01*
X48505642Y-59802857D01*
X48505642Y-59945714D01*
X48458023Y-60040952D01*
X48410404Y-60088571D01*
X48315166Y-60136190D01*
X47934214Y-60136190D01*
X48886595Y-59707619D02*
X48934214Y-59660000D01*
X49029452Y-59612380D01*
X49267547Y-59612380D01*
X49362785Y-59660000D01*
X49410404Y-59707619D01*
X49458023Y-59802857D01*
X49458023Y-59898095D01*
X49410404Y-60040952D01*
X48838976Y-60612380D01*
X49458023Y-60612380D01*
X47458023Y-54580000D02*
X47362785Y-54532380D01*
X47219928Y-54532380D01*
X47077071Y-54580000D01*
X46981833Y-54675238D01*
X46934214Y-54770476D01*
X46886595Y-54960952D01*
X46886595Y-55103809D01*
X46934214Y-55294285D01*
X46981833Y-55389523D01*
X47077071Y-55484761D01*
X47219928Y-55532380D01*
X47315166Y-55532380D01*
X47458023Y-55484761D01*
X47505642Y-55437142D01*
X47505642Y-55103809D01*
X47315166Y-55103809D01*
X47934214Y-55532380D02*
X47934214Y-54532380D01*
X48315166Y-54532380D01*
X48410404Y-54580000D01*
X48458023Y-54627619D01*
X48505642Y-54722857D01*
X48505642Y-54865714D01*
X48458023Y-54960952D01*
X48410404Y-55008571D01*
X48315166Y-55056190D01*
X47934214Y-55056190D01*
X49124690Y-54532380D02*
X49219928Y-54532380D01*
X49315166Y-54580000D01*
X49362785Y-54627619D01*
X49410404Y-54722857D01*
X49458023Y-54913333D01*
X49458023Y-55151428D01*
X49410404Y-55341904D01*
X49362785Y-55437142D01*
X49315166Y-55484761D01*
X49219928Y-55532380D01*
X49124690Y-55532380D01*
X49029452Y-55484761D01*
X48981833Y-55437142D01*
X48934214Y-55341904D01*
X48886595Y-55151428D01*
X48886595Y-54913333D01*
X48934214Y-54722857D01*
X48981833Y-54627619D01*
X49029452Y-54580000D01*
X49124690Y-54532380D01*
X50541976Y-63104761D02*
X50684833Y-63152380D01*
X50922928Y-63152380D01*
X51018166Y-63104761D01*
X51065785Y-63057142D01*
X51113404Y-62961904D01*
X51113404Y-62866666D01*
X51065785Y-62771428D01*
X51018166Y-62723809D01*
X50922928Y-62676190D01*
X50732452Y-62628571D01*
X50637214Y-62580952D01*
X50589595Y-62533333D01*
X50541976Y-62438095D01*
X50541976Y-62342857D01*
X50589595Y-62247619D01*
X50637214Y-62200000D01*
X50732452Y-62152380D01*
X50970547Y-62152380D01*
X51113404Y-62200000D01*
X52113404Y-63057142D02*
X52065785Y-63104761D01*
X51922928Y-63152380D01*
X51827690Y-63152380D01*
X51684833Y-63104761D01*
X51589595Y-63009523D01*
X51541976Y-62914285D01*
X51494357Y-62723809D01*
X51494357Y-62580952D01*
X51541976Y-62390476D01*
X51589595Y-62295238D01*
X51684833Y-62200000D01*
X51827690Y-62152380D01*
X51922928Y-62152380D01*
X52065785Y-62200000D01*
X52113404Y-62247619D01*
X53018166Y-63152380D02*
X52541976Y-63152380D01*
X52541976Y-62152380D01*
X51161023Y-58072380D02*
X50827690Y-57596190D01*
X50589595Y-58072380D02*
X50589595Y-57072380D01*
X50970547Y-57072380D01*
X51065785Y-57120000D01*
X51113404Y-57167619D01*
X51161023Y-57262857D01*
X51161023Y-57405714D01*
X51113404Y-57500952D01*
X51065785Y-57548571D01*
X50970547Y-57596190D01*
X50589595Y-57596190D01*
X51494357Y-58072380D02*
X52018166Y-57405714D01*
X51494357Y-57405714D02*
X52018166Y-58072380D01*
X47458023Y-62200000D02*
X47362785Y-62152380D01*
X47219928Y-62152380D01*
X47077071Y-62200000D01*
X46981833Y-62295238D01*
X46934214Y-62390476D01*
X46886595Y-62580952D01*
X46886595Y-62723809D01*
X46934214Y-62914285D01*
X46981833Y-63009523D01*
X47077071Y-63104761D01*
X47219928Y-63152380D01*
X47315166Y-63152380D01*
X47458023Y-63104761D01*
X47505642Y-63057142D01*
X47505642Y-62723809D01*
X47315166Y-62723809D01*
X47934214Y-63152380D02*
X47934214Y-62152380D01*
X48315166Y-62152380D01*
X48410404Y-62200000D01*
X48458023Y-62247619D01*
X48505642Y-62342857D01*
X48505642Y-62485714D01*
X48458023Y-62580952D01*
X48410404Y-62628571D01*
X48315166Y-62676190D01*
X47934214Y-62676190D01*
X48838976Y-62152380D02*
X49458023Y-62152380D01*
X49124690Y-62533333D01*
X49267547Y-62533333D01*
X49362785Y-62580952D01*
X49410404Y-62628571D01*
X49458023Y-62723809D01*
X49458023Y-62961904D01*
X49410404Y-63057142D01*
X49362785Y-63104761D01*
X49267547Y-63152380D01*
X48981833Y-63152380D01*
X48886595Y-63104761D01*
X48838976Y-63057142D01*
X57016666Y-38147380D02*
X57350000Y-39147380D01*
X57683333Y-38147380D01*
X58016666Y-39147380D02*
X58016666Y-38147380D01*
X58254761Y-38147380D01*
X58397619Y-38195000D01*
X58492857Y-38290238D01*
X58540476Y-38385476D01*
X58588095Y-38575952D01*
X58588095Y-38718809D01*
X58540476Y-38909285D01*
X58492857Y-39004523D01*
X58397619Y-39099761D01*
X58254761Y-39147380D01*
X58016666Y-39147380D01*
X59016666Y-39147380D02*
X59016666Y-38147380D01*
X59254761Y-38147380D01*
X59397619Y-38195000D01*
X59492857Y-38290238D01*
X59540476Y-38385476D01*
X59588095Y-38575952D01*
X59588095Y-38718809D01*
X59540476Y-38909285D01*
X59492857Y-39004523D01*
X59397619Y-39099761D01*
X59254761Y-39147380D01*
X59016666Y-39147380D01*
X58159523Y-39757380D02*
X57683333Y-39757380D01*
X57635714Y-40233571D01*
X57683333Y-40185952D01*
X57778571Y-40138333D01*
X58016666Y-40138333D01*
X58111904Y-40185952D01*
X58159523Y-40233571D01*
X58207142Y-40328809D01*
X58207142Y-40566904D01*
X58159523Y-40662142D01*
X58111904Y-40709761D01*
X58016666Y-40757380D01*
X57778571Y-40757380D01*
X57683333Y-40709761D01*
X57635714Y-40662142D01*
X58492857Y-39757380D02*
X58826190Y-40757380D01*
X59159523Y-39757380D01*
%TO.C,C4*%
X68433333Y-33657142D02*
X68385714Y-33704761D01*
X68242857Y-33752380D01*
X68147619Y-33752380D01*
X68004761Y-33704761D01*
X67909523Y-33609523D01*
X67861904Y-33514285D01*
X67814285Y-33323809D01*
X67814285Y-33180952D01*
X67861904Y-32990476D01*
X67909523Y-32895238D01*
X68004761Y-32800000D01*
X68147619Y-32752380D01*
X68242857Y-32752380D01*
X68385714Y-32800000D01*
X68433333Y-32847619D01*
X69290476Y-33085714D02*
X69290476Y-33752380D01*
X69052380Y-32704761D02*
X68814285Y-33419047D01*
X69433333Y-33419047D01*
%TO.C,R2*%
X57433333Y-46102380D02*
X57100000Y-45626190D01*
X56861904Y-46102380D02*
X56861904Y-45102380D01*
X57242857Y-45102380D01*
X57338095Y-45150000D01*
X57385714Y-45197619D01*
X57433333Y-45292857D01*
X57433333Y-45435714D01*
X57385714Y-45530952D01*
X57338095Y-45578571D01*
X57242857Y-45626190D01*
X56861904Y-45626190D01*
X57814285Y-45197619D02*
X57861904Y-45150000D01*
X57957142Y-45102380D01*
X58195238Y-45102380D01*
X58290476Y-45150000D01*
X58338095Y-45197619D01*
X58385714Y-45292857D01*
X58385714Y-45388095D01*
X58338095Y-45530952D01*
X57766666Y-46102380D01*
X58385714Y-46102380D01*
%TO.C,D3*%
X34238095Y-28992380D02*
X34238095Y-29801904D01*
X34285714Y-29897142D01*
X34333333Y-29944761D01*
X34428571Y-29992380D01*
X34619047Y-29992380D01*
X34714285Y-29944761D01*
X34761904Y-29897142D01*
X34809523Y-29801904D01*
X34809523Y-28992380D01*
X35238095Y-29944761D02*
X35380952Y-29992380D01*
X35619047Y-29992380D01*
X35714285Y-29944761D01*
X35761904Y-29897142D01*
X35809523Y-29801904D01*
X35809523Y-29706666D01*
X35761904Y-29611428D01*
X35714285Y-29563809D01*
X35619047Y-29516190D01*
X35428571Y-29468571D01*
X35333333Y-29420952D01*
X35285714Y-29373333D01*
X35238095Y-29278095D01*
X35238095Y-29182857D01*
X35285714Y-29087619D01*
X35333333Y-29040000D01*
X35428571Y-28992380D01*
X35666666Y-28992380D01*
X35809523Y-29040000D01*
X36571428Y-29468571D02*
X36714285Y-29516190D01*
X36761904Y-29563809D01*
X36809523Y-29659047D01*
X36809523Y-29801904D01*
X36761904Y-29897142D01*
X36714285Y-29944761D01*
X36619047Y-29992380D01*
X36238095Y-29992380D01*
X36238095Y-28992380D01*
X36571428Y-28992380D01*
X36666666Y-29040000D01*
X36714285Y-29087619D01*
X36761904Y-29182857D01*
X36761904Y-29278095D01*
X36714285Y-29373333D01*
X36666666Y-29420952D01*
X36571428Y-29468571D01*
X36238095Y-29468571D01*
%TO.C,U2*%
X63562380Y-34051904D02*
X64371904Y-34051904D01*
X64467142Y-34004285D01*
X64514761Y-33956666D01*
X64562380Y-33861428D01*
X64562380Y-33670952D01*
X64514761Y-33575714D01*
X64467142Y-33528095D01*
X64371904Y-33480476D01*
X63562380Y-33480476D01*
X63657619Y-33051904D02*
X63610000Y-33004285D01*
X63562380Y-32909047D01*
X63562380Y-32670952D01*
X63610000Y-32575714D01*
X63657619Y-32528095D01*
X63752857Y-32480476D01*
X63848095Y-32480476D01*
X63990952Y-32528095D01*
X64562380Y-33099523D01*
X64562380Y-32480476D01*
%TO.C,R3*%
X57433333Y-44602380D02*
X57100000Y-44126190D01*
X56861904Y-44602380D02*
X56861904Y-43602380D01*
X57242857Y-43602380D01*
X57338095Y-43650000D01*
X57385714Y-43697619D01*
X57433333Y-43792857D01*
X57433333Y-43935714D01*
X57385714Y-44030952D01*
X57338095Y-44078571D01*
X57242857Y-44126190D01*
X56861904Y-44126190D01*
X57766666Y-43602380D02*
X58385714Y-43602380D01*
X58052380Y-43983333D01*
X58195238Y-43983333D01*
X58290476Y-44030952D01*
X58338095Y-44078571D01*
X58385714Y-44173809D01*
X58385714Y-44411904D01*
X58338095Y-44507142D01*
X58290476Y-44554761D01*
X58195238Y-44602380D01*
X57909523Y-44602380D01*
X57814285Y-44554761D01*
X57766666Y-44507142D01*
%TO.C,D4*%
X31523809Y-29992380D02*
X31523809Y-28992380D01*
X31952380Y-29087619D02*
X32000000Y-29040000D01*
X32095238Y-28992380D01*
X32333333Y-28992380D01*
X32428571Y-29040000D01*
X32476190Y-29087619D01*
X32523809Y-29182857D01*
X32523809Y-29278095D01*
X32476190Y-29420952D01*
X31904761Y-29992380D01*
X32523809Y-29992380D01*
X33523809Y-29897142D02*
X33476190Y-29944761D01*
X33333333Y-29992380D01*
X33238095Y-29992380D01*
X33095238Y-29944761D01*
X33000000Y-29849523D01*
X32952380Y-29754285D01*
X32904761Y-29563809D01*
X32904761Y-29420952D01*
X32952380Y-29230476D01*
X33000000Y-29135238D01*
X33095238Y-29040000D01*
X33238095Y-28992380D01*
X33333333Y-28992380D01*
X33476190Y-29040000D01*
X33523809Y-29087619D01*
%TO.C,C3*%
X59233333Y-33657142D02*
X59185714Y-33704761D01*
X59042857Y-33752380D01*
X58947619Y-33752380D01*
X58804761Y-33704761D01*
X58709523Y-33609523D01*
X58661904Y-33514285D01*
X58614285Y-33323809D01*
X58614285Y-33180952D01*
X58661904Y-32990476D01*
X58709523Y-32895238D01*
X58804761Y-32800000D01*
X58947619Y-32752380D01*
X59042857Y-32752380D01*
X59185714Y-32800000D01*
X59233333Y-32847619D01*
X59566666Y-32752380D02*
X60185714Y-32752380D01*
X59852380Y-33133333D01*
X59995238Y-33133333D01*
X60090476Y-33180952D01*
X60138095Y-33228571D01*
X60185714Y-33323809D01*
X60185714Y-33561904D01*
X60138095Y-33657142D01*
X60090476Y-33704761D01*
X59995238Y-33752380D01*
X59709523Y-33752380D01*
X59614285Y-33704761D01*
X59566666Y-33657142D01*
%TO.C,D6*%
X49083380Y-35400446D02*
X48083380Y-35400446D01*
X48083380Y-35162351D01*
X48131000Y-35019493D01*
X48226238Y-34924255D01*
X48321476Y-34876636D01*
X48511952Y-34829017D01*
X48654809Y-34829017D01*
X48845285Y-34876636D01*
X48940523Y-34924255D01*
X49035761Y-35019493D01*
X49083380Y-35162351D01*
X49083380Y-35400446D01*
X48083380Y-33971874D02*
X48083380Y-34162351D01*
X48131000Y-34257589D01*
X48178619Y-34305208D01*
X48321476Y-34400446D01*
X48511952Y-34448065D01*
X48892904Y-34448065D01*
X48988142Y-34400446D01*
X49035761Y-34352827D01*
X49083380Y-34257589D01*
X49083380Y-34067112D01*
X49035761Y-33971874D01*
X48988142Y-33924255D01*
X48892904Y-33876636D01*
X48654809Y-33876636D01*
X48559571Y-33924255D01*
X48511952Y-33971874D01*
X48464333Y-34067112D01*
X48464333Y-34257589D01*
X48511952Y-34352827D01*
X48559571Y-34400446D01*
X48654809Y-34448065D01*
%TO.C,J5*%
X44916666Y-31742380D02*
X44916666Y-32456666D01*
X44869047Y-32599523D01*
X44773809Y-32694761D01*
X44630952Y-32742380D01*
X44535714Y-32742380D01*
X45869047Y-31742380D02*
X45392857Y-31742380D01*
X45345238Y-32218571D01*
X45392857Y-32170952D01*
X45488095Y-32123333D01*
X45726190Y-32123333D01*
X45821428Y-32170952D01*
X45869047Y-32218571D01*
X45916666Y-32313809D01*
X45916666Y-32551904D01*
X45869047Y-32647142D01*
X45821428Y-32694761D01*
X45726190Y-32742380D01*
X45488095Y-32742380D01*
X45392857Y-32694761D01*
X45345238Y-32647142D01*
%TO.C,D1*%
X41404761Y-29992380D02*
X41071428Y-29516190D01*
X40833333Y-29992380D02*
X40833333Y-28992380D01*
X41214285Y-28992380D01*
X41309523Y-29040000D01*
X41357142Y-29087619D01*
X41404761Y-29182857D01*
X41404761Y-29325714D01*
X41357142Y-29420952D01*
X41309523Y-29468571D01*
X41214285Y-29516190D01*
X40833333Y-29516190D01*
X41738095Y-29992380D02*
X42261904Y-29325714D01*
X41738095Y-29325714D02*
X42261904Y-29992380D01*
%TO.C,SW1*%
X63452380Y-49452380D02*
X63119047Y-48976190D01*
X62880952Y-49452380D02*
X62880952Y-48452380D01*
X63261904Y-48452380D01*
X63357142Y-48500000D01*
X63404761Y-48547619D01*
X63452380Y-48642857D01*
X63452380Y-48785714D01*
X63404761Y-48880952D01*
X63357142Y-48928571D01*
X63261904Y-48976190D01*
X62880952Y-48976190D01*
X63833333Y-49404761D02*
X63976190Y-49452380D01*
X64214285Y-49452380D01*
X64309523Y-49404761D01*
X64357142Y-49357142D01*
X64404761Y-49261904D01*
X64404761Y-49166666D01*
X64357142Y-49071428D01*
X64309523Y-49023809D01*
X64214285Y-48976190D01*
X64023809Y-48928571D01*
X63928571Y-48880952D01*
X63880952Y-48833333D01*
X63833333Y-48738095D01*
X63833333Y-48642857D01*
X63880952Y-48547619D01*
X63928571Y-48500000D01*
X64023809Y-48452380D01*
X64261904Y-48452380D01*
X64404761Y-48500000D01*
X64690476Y-48452380D02*
X65261904Y-48452380D01*
X64976190Y-49452380D02*
X64976190Y-48452380D01*
%TO.C,U1*%
X49238095Y-43702380D02*
X49238095Y-44511904D01*
X49285714Y-44607142D01*
X49333333Y-44654761D01*
X49428571Y-44702380D01*
X49619047Y-44702380D01*
X49714285Y-44654761D01*
X49761904Y-44607142D01*
X49809523Y-44511904D01*
X49809523Y-43702380D01*
X50809523Y-44702380D02*
X50238095Y-44702380D01*
X50523809Y-44702380D02*
X50523809Y-43702380D01*
X50428571Y-43845238D01*
X50333333Y-43940476D01*
X50238095Y-43988095D01*
%TO.C,C1*%
X44608333Y-42107142D02*
X44560714Y-42154761D01*
X44417857Y-42202380D01*
X44322619Y-42202380D01*
X44179761Y-42154761D01*
X44084523Y-42059523D01*
X44036904Y-41964285D01*
X43989285Y-41773809D01*
X43989285Y-41630952D01*
X44036904Y-41440476D01*
X44084523Y-41345238D01*
X44179761Y-41250000D01*
X44322619Y-41202380D01*
X44417857Y-41202380D01*
X44560714Y-41250000D01*
X44608333Y-41297619D01*
X45560714Y-42202380D02*
X44989285Y-42202380D01*
X45275000Y-42202380D02*
X45275000Y-41202380D01*
X45179761Y-41345238D01*
X45084523Y-41440476D01*
X44989285Y-41488095D01*
%TO.C,D5*%
X55666666Y-30379380D02*
X55666666Y-29379380D01*
X56047619Y-29379380D01*
X56142857Y-29427000D01*
X56190476Y-29474619D01*
X56238095Y-29569857D01*
X56238095Y-29712714D01*
X56190476Y-29807952D01*
X56142857Y-29855571D01*
X56047619Y-29903190D01*
X55666666Y-29903190D01*
X56571428Y-29379380D02*
X56809523Y-30379380D01*
X57000000Y-29665095D01*
X57190476Y-30379380D01*
X57428571Y-29379380D01*
X58380952Y-30379380D02*
X58047619Y-29903190D01*
X57809523Y-30379380D02*
X57809523Y-29379380D01*
X58190476Y-29379380D01*
X58285714Y-29427000D01*
X58333333Y-29474619D01*
X58380952Y-29569857D01*
X58380952Y-29712714D01*
X58333333Y-29807952D01*
X58285714Y-29855571D01*
X58190476Y-29903190D01*
X57809523Y-29903190D01*
%TO.C,D2*%
X37809523Y-28992380D02*
X38380952Y-28992380D01*
X38095238Y-29992380D02*
X38095238Y-28992380D01*
X38619047Y-29992380D02*
X39142857Y-29325714D01*
X38619047Y-29325714D02*
X39142857Y-29992380D01*
%TO.C,C2*%
X57433333Y-43007142D02*
X57385714Y-43054761D01*
X57242857Y-43102380D01*
X57147619Y-43102380D01*
X57004761Y-43054761D01*
X56909523Y-42959523D01*
X56861904Y-42864285D01*
X56814285Y-42673809D01*
X56814285Y-42530952D01*
X56861904Y-42340476D01*
X56909523Y-42245238D01*
X57004761Y-42150000D01*
X57147619Y-42102380D01*
X57242857Y-42102380D01*
X57385714Y-42150000D01*
X57433333Y-42197619D01*
X57814285Y-42197619D02*
X57861904Y-42150000D01*
X57957142Y-42102380D01*
X58195238Y-42102380D01*
X58290476Y-42150000D01*
X58338095Y-42197619D01*
X58385714Y-42292857D01*
X58385714Y-42388095D01*
X58338095Y-42530952D01*
X57766666Y-43102380D01*
X58385714Y-43102380D01*
%TO.C,R4*%
X56224380Y-35698666D02*
X55748190Y-36032000D01*
X56224380Y-36270095D02*
X55224380Y-36270095D01*
X55224380Y-35889142D01*
X55272000Y-35793904D01*
X55319619Y-35746285D01*
X55414857Y-35698666D01*
X55557714Y-35698666D01*
X55652952Y-35746285D01*
X55700571Y-35793904D01*
X55748190Y-35889142D01*
X55748190Y-36270095D01*
X55557714Y-34841523D02*
X56224380Y-34841523D01*
X55176761Y-35079619D02*
X55891047Y-35317714D01*
X55891047Y-34698666D01*
%TO.C,R1*%
X57433333Y-47602380D02*
X57100000Y-47126190D01*
X56861904Y-47602380D02*
X56861904Y-46602380D01*
X57242857Y-46602380D01*
X57338095Y-46650000D01*
X57385714Y-46697619D01*
X57433333Y-46792857D01*
X57433333Y-46935714D01*
X57385714Y-47030952D01*
X57338095Y-47078571D01*
X57242857Y-47126190D01*
X56861904Y-47126190D01*
X58385714Y-47602380D02*
X57814285Y-47602380D01*
X58100000Y-47602380D02*
X58100000Y-46602380D01*
X58004761Y-46745238D01*
X57909523Y-46840476D01*
X57814285Y-46888095D01*
%TO.C,RN1*%
X40402380Y-48690476D02*
X39926190Y-49023809D01*
X40402380Y-49261904D02*
X39402380Y-49261904D01*
X39402380Y-48880952D01*
X39450000Y-48785714D01*
X39497619Y-48738095D01*
X39592857Y-48690476D01*
X39735714Y-48690476D01*
X39830952Y-48738095D01*
X39878571Y-48785714D01*
X39926190Y-48880952D01*
X39926190Y-49261904D01*
X40402380Y-48261904D02*
X39402380Y-48261904D01*
X40402380Y-47690476D01*
X39402380Y-47690476D01*
X40402380Y-46690476D02*
X40402380Y-47261904D01*
X40402380Y-46976190D02*
X39402380Y-46976190D01*
X39545238Y-47071428D01*
X39640476Y-47166666D01*
X39688095Y-47261904D01*
%TO.C,J2*%
X72796666Y-49198380D02*
X73130000Y-50198380D01*
X73463333Y-49198380D01*
X73796666Y-50198380D02*
X73796666Y-49198380D01*
X74034761Y-49198380D01*
X74177619Y-49246000D01*
X74272857Y-49341238D01*
X74320476Y-49436476D01*
X74368095Y-49626952D01*
X74368095Y-49769809D01*
X74320476Y-49960285D01*
X74272857Y-50055523D01*
X74177619Y-50150761D01*
X74034761Y-50198380D01*
X73796666Y-50198380D01*
X74796666Y-50198380D02*
X74796666Y-49198380D01*
X75034761Y-49198380D01*
X75177619Y-49246000D01*
X75272857Y-49341238D01*
X75320476Y-49436476D01*
X75368095Y-49626952D01*
X75368095Y-49769809D01*
X75320476Y-49960285D01*
X75272857Y-50055523D01*
X75177619Y-50150761D01*
X75034761Y-50198380D01*
X74796666Y-50198380D01*
%TO.C,J1*%
X24536666Y-49198380D02*
X24870000Y-50198380D01*
X25203333Y-49198380D01*
X25536666Y-50198380D02*
X25536666Y-49198380D01*
X25774761Y-49198380D01*
X25917619Y-49246000D01*
X26012857Y-49341238D01*
X26060476Y-49436476D01*
X26108095Y-49626952D01*
X26108095Y-49769809D01*
X26060476Y-49960285D01*
X26012857Y-50055523D01*
X25917619Y-50150761D01*
X25774761Y-50198380D01*
X25536666Y-50198380D01*
X26536666Y-50198380D02*
X26536666Y-49198380D01*
X26774761Y-49198380D01*
X26917619Y-49246000D01*
X27012857Y-49341238D01*
X27060476Y-49436476D01*
X27108095Y-49626952D01*
X27108095Y-49769809D01*
X27060476Y-49960285D01*
X27012857Y-50055523D01*
X26917619Y-50150761D01*
X26774761Y-50198380D01*
X26536666Y-50198380D01*
D11*
%TO.C,C4*%
X69335000Y-35761252D02*
X69335000Y-35238748D01*
X67865000Y-35761252D02*
X67865000Y-35238748D01*
%TO.C,R2*%
X55012742Y-45127500D02*
X55487258Y-45127500D01*
X55012742Y-46172500D02*
X55487258Y-46172500D01*
%TO.C,D3*%
X34540000Y-33425000D02*
X36460000Y-33425000D01*
X36460000Y-33425000D02*
X36460000Y-30740000D01*
X34540000Y-30740000D02*
X34540000Y-33425000D01*
%TO.C,U2*%
X67420000Y-35140000D02*
X67420000Y-31380000D01*
X67420000Y-31380000D02*
X66160000Y-31380000D01*
X60600000Y-31380000D02*
X61860000Y-31380000D01*
X60600000Y-37390000D02*
X60600000Y-31380000D01*
%TO.C,R3*%
X55012742Y-43627500D02*
X55487258Y-43627500D01*
X55012742Y-44672500D02*
X55487258Y-44672500D01*
%TO.C,D4*%
X31540000Y-33425000D02*
X33460000Y-33425000D01*
X31540000Y-30740000D02*
X31540000Y-33425000D01*
X33460000Y-33425000D02*
X33460000Y-30740000D01*
%TO.C,C3*%
X58665000Y-35761252D02*
X58665000Y-35238748D01*
X60135000Y-35761252D02*
X60135000Y-35238748D01*
%TO.C,D6*%
X51231000Y-34012351D02*
X51231000Y-35312351D01*
X49431000Y-35662351D02*
X49431000Y-34012351D01*
%TO.C,J5*%
X51700000Y-33312500D02*
X51700000Y-32862500D01*
X53900000Y-28362500D02*
X53900000Y-28612500D01*
X46100000Y-30912500D02*
X46100000Y-32762500D01*
X53900000Y-30912500D02*
X53900000Y-32762500D01*
X46100000Y-28362500D02*
X46100000Y-28612500D01*
X53900000Y-32762500D02*
X53450000Y-32762500D01*
X51700000Y-33312500D02*
X51250000Y-33312500D01*
X46100000Y-32762500D02*
X46550000Y-32762500D01*
%TO.C,SW3*%
X62730000Y-38170000D02*
X67870000Y-38170000D01*
X62730000Y-40830000D02*
X62730000Y-38170000D01*
X62730000Y-40830000D02*
X67870000Y-40830000D01*
X61460000Y-40830000D02*
X60130000Y-40830000D01*
X60130000Y-40830000D02*
X60130000Y-39500000D01*
X67870000Y-40830000D02*
X67870000Y-38170000D01*
%TO.C,D1*%
X42460000Y-33425000D02*
X42460000Y-30740000D01*
X40540000Y-30740000D02*
X40540000Y-33425000D01*
X40540000Y-33425000D02*
X42460000Y-33425000D01*
%TO.C,SW1*%
X60770000Y-41800000D02*
X60770000Y-41770000D01*
X67230000Y-43700000D02*
X67230000Y-46300000D01*
X60770000Y-41770000D02*
X67230000Y-41770000D01*
X60770000Y-48230000D02*
X60770000Y-48200000D01*
X60770000Y-48230000D02*
X67230000Y-48230000D01*
X67230000Y-41770000D02*
X67230000Y-41800000D01*
X67230000Y-48230000D02*
X67230000Y-48200000D01*
X60770000Y-43700000D02*
X60770000Y-46300000D01*
%TO.C,kibuzzard-627C3F81*%
G36*
X46483092Y-38177142D02*
G01*
X46537662Y-38203931D01*
X46572786Y-38252152D01*
X46584494Y-38325375D01*
X46572587Y-38402567D01*
X46536869Y-38453169D01*
X46477734Y-38481148D01*
X46395581Y-38490475D01*
X46316206Y-38490475D01*
X46316206Y-38172975D01*
X46364625Y-38169006D01*
X46413044Y-38168212D01*
X46483092Y-38177142D01*
G37*
G36*
X50428625Y-38305531D02*
G01*
X50454025Y-38403956D01*
X50475456Y-38501588D01*
X50494506Y-38603188D01*
X50302419Y-38603188D01*
X50322263Y-38501588D01*
X50344488Y-38403956D01*
X50369888Y-38305531D01*
X50399256Y-38199962D01*
X50428625Y-38305531D01*
G37*
G36*
X55233392Y-38412092D02*
G01*
X55280025Y-38457931D01*
X55306814Y-38528773D01*
X55315744Y-38619063D01*
X55306020Y-38709550D01*
X55276850Y-38780988D01*
X55228630Y-38827422D01*
X55161756Y-38842900D01*
X55093295Y-38827422D01*
X55046663Y-38780988D01*
X55019873Y-38709550D01*
X55010944Y-38619063D01*
X55020667Y-38528773D01*
X55049838Y-38457931D01*
X55098058Y-38412092D01*
X55164931Y-38396812D01*
X55233392Y-38412092D01*
G37*
G36*
X53645892Y-38412092D02*
G01*
X53692525Y-38457931D01*
X53719314Y-38528773D01*
X53728244Y-38619063D01*
X53718520Y-38709550D01*
X53689350Y-38780988D01*
X53641130Y-38827422D01*
X53574256Y-38842900D01*
X53505795Y-38827422D01*
X53459163Y-38780988D01*
X53432373Y-38709550D01*
X53423444Y-38619063D01*
X53433167Y-38528773D01*
X53462338Y-38457931D01*
X53510558Y-38412092D01*
X53577431Y-38396812D01*
X53645892Y-38412092D01*
G37*
G36*
X52039342Y-38177142D02*
G01*
X52093913Y-38203931D01*
X52129036Y-38252152D01*
X52140744Y-38325375D01*
X52128838Y-38402567D01*
X52093119Y-38453169D01*
X52033984Y-38481148D01*
X51951831Y-38490475D01*
X51872456Y-38490475D01*
X51872456Y-38172975D01*
X51920875Y-38169006D01*
X51969294Y-38168212D01*
X52039342Y-38177142D01*
G37*
G36*
X43288006Y-38500000D02*
G01*
X43971601Y-37474607D01*
X56028399Y-37474607D01*
X56711994Y-38500000D01*
X56028399Y-39525393D01*
X43971601Y-39525393D01*
X43616089Y-38992125D01*
X44484231Y-38992125D01*
X44663619Y-38992125D01*
X44655681Y-38228537D01*
X44771569Y-38644463D01*
X44914444Y-38644463D01*
X45035094Y-38228537D01*
X45025569Y-38992125D01*
X45204956Y-38992125D01*
X45201384Y-38866514D01*
X45197019Y-38743681D01*
X45191661Y-38622634D01*
X45185112Y-38502381D01*
X45184955Y-38500000D01*
X45284331Y-38500000D01*
X45291177Y-38615987D01*
X45311716Y-38717884D01*
X45345946Y-38805693D01*
X45393869Y-38879413D01*
X45477830Y-38953496D01*
X45583663Y-38997946D01*
X45711369Y-39012763D01*
X45798086Y-39007405D01*
X45870333Y-38992125D01*
X46120944Y-38992125D01*
X46316206Y-38992125D01*
X46316206Y-38660338D01*
X46386056Y-38660338D01*
X46503443Y-38651606D01*
X46601603Y-38625413D01*
X46680537Y-38581756D01*
X46738305Y-38518521D01*
X46772965Y-38433590D01*
X46784519Y-38326962D01*
X46773053Y-38221394D01*
X46738658Y-38137521D01*
X46720118Y-38117412D01*
X46897231Y-38117412D01*
X46994069Y-38253937D01*
X47094081Y-38179325D01*
X47190919Y-38157100D01*
X47282994Y-38189644D01*
X47319506Y-38282512D01*
X47290137Y-38366650D01*
X47215525Y-38452375D01*
X47168694Y-38497817D01*
X47118687Y-38545244D01*
X47068681Y-38595647D01*
X47021850Y-38650019D01*
X46980575Y-38708955D01*
X46947237Y-38773050D01*
X46925211Y-38842900D01*
X46917869Y-38919100D01*
X46917075Y-38952438D01*
X46921044Y-38992125D01*
X47562394Y-38992125D01*
X47562394Y-38830200D01*
X47140119Y-38830200D01*
X47156787Y-38777813D01*
X47197269Y-38721456D01*
X47248069Y-38667481D01*
X47295694Y-38622238D01*
X47376656Y-38542863D01*
X47448094Y-38457137D01*
X47498894Y-38365856D01*
X47517944Y-38268225D01*
X47492544Y-38145194D01*
X47471019Y-38117412D01*
X47690981Y-38117412D01*
X47787819Y-38253937D01*
X47887831Y-38179325D01*
X47984669Y-38157100D01*
X48076744Y-38189644D01*
X48113256Y-38282512D01*
X48083887Y-38366650D01*
X48009275Y-38452375D01*
X47962444Y-38497817D01*
X47912437Y-38545244D01*
X47862431Y-38595647D01*
X47815600Y-38650019D01*
X47774325Y-38708955D01*
X47740987Y-38773050D01*
X47718961Y-38842900D01*
X47711619Y-38919100D01*
X47710825Y-38952438D01*
X47714794Y-38992125D01*
X48356144Y-38992125D01*
X48356144Y-38830200D01*
X47933869Y-38830200D01*
X47950537Y-38777813D01*
X47991019Y-38721456D01*
X48041819Y-38667481D01*
X48089444Y-38622238D01*
X48170406Y-38542863D01*
X48241844Y-38457137D01*
X48292644Y-38365856D01*
X48311694Y-38268225D01*
X48286294Y-38145194D01*
X48264769Y-38117412D01*
X48484731Y-38117412D01*
X48581569Y-38253937D01*
X48681581Y-38179325D01*
X48778419Y-38157100D01*
X48870494Y-38189644D01*
X48907006Y-38282512D01*
X48877637Y-38366650D01*
X48803025Y-38452375D01*
X48756194Y-38497817D01*
X48706187Y-38545244D01*
X48656181Y-38595647D01*
X48609350Y-38650019D01*
X48568075Y-38708955D01*
X48534737Y-38773050D01*
X48512711Y-38842900D01*
X48505369Y-38919100D01*
X48504575Y-38952438D01*
X48508544Y-38992125D01*
X49149894Y-38992125D01*
X49149894Y-38830200D01*
X48727619Y-38830200D01*
X48744287Y-38777813D01*
X48784769Y-38721456D01*
X48835569Y-38667481D01*
X48883194Y-38622238D01*
X48964156Y-38542863D01*
X49035594Y-38457137D01*
X49086394Y-38365856D01*
X49105444Y-38268225D01*
X49094301Y-38214250D01*
X49286419Y-38214250D01*
X49349919Y-38376175D01*
X49446756Y-38337281D01*
X49548356Y-38280925D01*
X49548356Y-38830200D01*
X49341981Y-38830200D01*
X49341981Y-38992125D01*
X49938881Y-38992125D01*
X50018256Y-38992125D01*
X50221456Y-38992125D01*
X50265906Y-38765113D01*
X50527844Y-38765113D01*
X50573881Y-38992125D01*
X50783431Y-38992125D01*
X51677194Y-38992125D01*
X51872456Y-38992125D01*
X52526506Y-38992125D01*
X52723356Y-38992125D01*
X52723356Y-38617475D01*
X53225006Y-38617475D01*
X53231356Y-38702208D01*
X53250406Y-38778606D01*
X53281164Y-38845877D01*
X53322638Y-38903225D01*
X53373834Y-38949659D01*
X53433763Y-38984188D01*
X53501827Y-39005619D01*
X53577431Y-39012763D01*
X53653036Y-39005619D01*
X53721100Y-38984188D01*
X53780830Y-38949659D01*
X53831431Y-38903225D01*
X53872309Y-38845877D01*
X53902869Y-38778606D01*
X53921919Y-38702208D01*
X53928269Y-38617475D01*
X53921919Y-38533933D01*
X53902869Y-38457931D01*
X53879937Y-38407925D01*
X54029869Y-38407925D01*
X54199731Y-38407925D01*
X54199731Y-38714313D01*
X54204494Y-38799045D01*
X54218781Y-38865919D01*
X54274344Y-38955613D01*
X54363244Y-38998475D01*
X54483894Y-39009588D01*
X54605338Y-39000062D01*
X54722019Y-38968313D01*
X54695031Y-38800038D01*
X54645025Y-38820675D01*
X54600575Y-38832581D01*
X54556125Y-38838138D01*
X54506119Y-38839725D01*
X54460081Y-38834963D01*
X54425156Y-38815913D01*
X54402931Y-38776225D01*
X54394994Y-38709550D01*
X54394994Y-38617475D01*
X54812506Y-38617475D01*
X54818856Y-38702208D01*
X54837906Y-38778606D01*
X54868664Y-38845877D01*
X54910138Y-38903225D01*
X54961334Y-38949659D01*
X55021263Y-38984188D01*
X55089327Y-39005619D01*
X55164931Y-39012763D01*
X55240536Y-39005619D01*
X55308600Y-38984188D01*
X55368330Y-38949659D01*
X55418931Y-38903225D01*
X55459809Y-38845877D01*
X55490369Y-38778606D01*
X55509419Y-38702208D01*
X55515769Y-38617475D01*
X55509419Y-38533933D01*
X55490369Y-38457931D01*
X55459611Y-38390859D01*
X55418138Y-38334106D01*
X55366941Y-38288466D01*
X55307013Y-38254731D01*
X55239345Y-38233895D01*
X55164931Y-38226950D01*
X55091509Y-38233895D01*
X55023644Y-38254731D01*
X54963120Y-38288466D01*
X54911725Y-38334106D01*
X54870053Y-38390859D01*
X54838700Y-38457931D01*
X54819055Y-38533933D01*
X54812506Y-38617475D01*
X54394994Y-38617475D01*
X54394994Y-38407925D01*
X54707731Y-38407925D01*
X54707731Y-38246000D01*
X54394994Y-38246000D01*
X54394994Y-38026925D01*
X54199731Y-38058675D01*
X54199731Y-38246000D01*
X54029869Y-38246000D01*
X54029869Y-38407925D01*
X53879937Y-38407925D01*
X53872111Y-38390859D01*
X53830638Y-38334106D01*
X53779441Y-38288466D01*
X53719513Y-38254731D01*
X53651845Y-38233895D01*
X53577431Y-38226950D01*
X53504009Y-38233895D01*
X53436144Y-38254731D01*
X53375620Y-38288466D01*
X53324225Y-38334106D01*
X53282553Y-38390859D01*
X53251200Y-38457931D01*
X53231555Y-38533933D01*
X53225006Y-38617475D01*
X52723356Y-38617475D01*
X52723356Y-38438087D01*
X52804319Y-38423006D01*
X52885281Y-38419037D01*
X52928144Y-38420625D01*
X52980531Y-38426181D01*
X53033713Y-38434912D01*
X53078956Y-38444437D01*
X53113881Y-38263462D01*
X53052763Y-38248381D01*
X52985294Y-38238856D01*
X52922588Y-38233300D01*
X52877344Y-38231712D01*
X52774752Y-38236078D01*
X52686050Y-38249175D01*
X52605286Y-38269416D01*
X52526506Y-38295212D01*
X52526506Y-38992125D01*
X51872456Y-38992125D01*
X51872456Y-38660338D01*
X51942306Y-38660338D01*
X52059693Y-38651606D01*
X52157853Y-38625413D01*
X52236788Y-38581756D01*
X52294555Y-38518521D01*
X52329215Y-38433590D01*
X52340769Y-38326962D01*
X52329303Y-38221394D01*
X52294908Y-38137521D01*
X52237581Y-38075344D01*
X52159441Y-38032569D01*
X52062603Y-38006905D01*
X51947069Y-37998350D01*
X51885156Y-37999938D01*
X51813719Y-38003906D01*
X51741488Y-38011050D01*
X51677194Y-38022162D01*
X51677194Y-38992125D01*
X50783431Y-38992125D01*
X50757238Y-38880714D01*
X50730726Y-38772542D01*
X50703898Y-38667608D01*
X50676751Y-38565913D01*
X50649288Y-38467456D01*
X50614710Y-38348046D01*
X50580033Y-38231911D01*
X50545257Y-38119050D01*
X50510381Y-38009462D01*
X50297656Y-38009462D01*
X50264021Y-38118157D01*
X50229791Y-38229927D01*
X50194965Y-38344772D01*
X50159544Y-38462694D01*
X50131032Y-38560325D01*
X50102648Y-38662084D01*
X50074390Y-38767970D01*
X50046260Y-38877984D01*
X50018256Y-38992125D01*
X49938881Y-38992125D01*
X49938881Y-38830200D01*
X49743619Y-38830200D01*
X49743619Y-38009462D01*
X49610269Y-38009462D01*
X49542006Y-38071375D01*
X49457869Y-38128525D01*
X49368969Y-38177737D01*
X49286419Y-38214250D01*
X49094301Y-38214250D01*
X49080044Y-38145194D01*
X49011781Y-38057087D01*
X48913356Y-38004700D01*
X48797469Y-37987237D01*
X48714720Y-37995175D01*
X48631575Y-38018987D01*
X48553192Y-38059469D01*
X48484731Y-38117412D01*
X48264769Y-38117412D01*
X48218031Y-38057087D01*
X48119606Y-38004700D01*
X48003719Y-37987237D01*
X47920970Y-37995175D01*
X47837825Y-38018987D01*
X47759442Y-38059469D01*
X47690981Y-38117412D01*
X47471019Y-38117412D01*
X47424281Y-38057087D01*
X47325856Y-38004700D01*
X47209969Y-37987237D01*
X47127220Y-37995175D01*
X47044075Y-38018987D01*
X46965692Y-38059469D01*
X46897231Y-38117412D01*
X46720118Y-38117412D01*
X46681331Y-38075344D01*
X46603191Y-38032569D01*
X46506353Y-38006905D01*
X46390819Y-37998350D01*
X46328906Y-37999938D01*
X46257469Y-38003906D01*
X46185237Y-38011050D01*
X46120944Y-38022162D01*
X46120944Y-38992125D01*
X45870333Y-38992125D01*
X45874087Y-38991331D01*
X45986006Y-38944500D01*
X45936794Y-38790513D01*
X45856625Y-38825438D01*
X45730419Y-38842900D01*
X45617111Y-38820477D01*
X45540712Y-38753206D01*
X45508522Y-38684679D01*
X45489207Y-38598690D01*
X45482769Y-38495237D01*
X45488127Y-38406337D01*
X45504200Y-38333312D01*
X45559762Y-38229331D01*
X45637550Y-38173769D01*
X45727244Y-38157100D01*
X45845512Y-38173769D01*
X45933619Y-38214250D01*
X45984419Y-38058675D01*
X45951875Y-38039625D01*
X45898694Y-38015812D01*
X45824875Y-37995969D01*
X45730419Y-37987237D01*
X45637352Y-37995770D01*
X45551825Y-38021369D01*
X45475625Y-38063437D01*
X45410537Y-38121381D01*
X45357555Y-38194605D01*
X45317669Y-38282512D01*
X45292666Y-38384509D01*
X45284331Y-38500000D01*
X45184955Y-38500000D01*
X45177175Y-38381930D01*
X45167650Y-38260287D01*
X45157133Y-38136462D01*
X45146219Y-38009462D01*
X44984294Y-38009462D01*
X44955719Y-38093600D01*
X44920794Y-38202344D01*
X44881106Y-38322994D01*
X44841419Y-38444437D01*
X44804906Y-38330137D01*
X44766806Y-38207900D01*
X44731087Y-38095187D01*
X44703306Y-38009462D01*
X44541381Y-38009462D01*
X44530864Y-38117016D01*
X44521537Y-38233300D01*
X44513402Y-38355934D01*
X44506456Y-38482537D01*
X44500305Y-38611522D01*
X44494550Y-38741300D01*
X44489192Y-38869094D01*
X44484231Y-38992125D01*
X43616089Y-38992125D01*
X43288006Y-38500000D01*
G37*
%TO.C,U1*%
X50000000Y-48685000D02*
X48050000Y-48685000D01*
X50000000Y-48685000D02*
X51950000Y-48685000D01*
X50000000Y-39815000D02*
X46550000Y-39815000D01*
X50000000Y-39815000D02*
X51950000Y-39815000D01*
%TO.C,C1*%
X44890580Y-40960000D02*
X44609420Y-40960000D01*
X44890580Y-39940000D02*
X44609420Y-39940000D01*
%TO.C,D5*%
X57960000Y-30565000D02*
X56040000Y-30565000D01*
X56040000Y-30565000D02*
X56040000Y-33250000D01*
X57960000Y-33250000D02*
X57960000Y-30565000D01*
%TO.C,D2*%
X37540000Y-30740000D02*
X37540000Y-33425000D01*
X37540000Y-33425000D02*
X39460000Y-33425000D01*
X39460000Y-33425000D02*
X39460000Y-30740000D01*
%TO.C,C2*%
X55109420Y-43160000D02*
X55390580Y-43160000D01*
X55109420Y-42140000D02*
X55390580Y-42140000D01*
%TO.C,SW2*%
X35405000Y-38190000D02*
X35405000Y-39396667D01*
X36245000Y-38190000D02*
X36245000Y-39396667D01*
X32865000Y-38190000D02*
X32865000Y-39396667D01*
X37635000Y-38190000D02*
X37635000Y-41810000D01*
X34930000Y-43410000D02*
X33990000Y-43410000D01*
X33105000Y-38190000D02*
X33105000Y-39396667D01*
X37470000Y-36590000D02*
X36530000Y-36590000D01*
X33825000Y-39396667D02*
X32555000Y-39396667D01*
X40845000Y-38190000D02*
X40845000Y-39396667D01*
X41445000Y-38190000D02*
X40175000Y-38190000D01*
X40965000Y-38190000D02*
X40965000Y-39396667D01*
X38545000Y-38190000D02*
X38545000Y-39396667D01*
X43160000Y-36350000D02*
X43160000Y-37733000D01*
X38305000Y-38190000D02*
X38305000Y-39396667D01*
X32745000Y-38190000D02*
X32745000Y-39396667D01*
X35095000Y-38190000D02*
X35095000Y-41810000D01*
X32390000Y-43410000D02*
X31080000Y-43410000D01*
X41205000Y-38190000D02*
X41205000Y-39396667D01*
X40485000Y-38190000D02*
X40485000Y-39396667D01*
X37635000Y-41810000D02*
X38905000Y-41810000D01*
X35095000Y-41810000D02*
X36365000Y-41810000D01*
X37705000Y-38190000D02*
X37705000Y-39396667D01*
X35285000Y-38190000D02*
X35285000Y-39396667D01*
X36005000Y-38190000D02*
X36005000Y-39396667D01*
X35165000Y-38190000D02*
X35165000Y-39396667D01*
X38665000Y-38190000D02*
X38665000Y-39396667D01*
X38185000Y-38190000D02*
X38185000Y-39396667D01*
X36365000Y-39396667D02*
X35095000Y-39396667D01*
X35765000Y-38190000D02*
X35765000Y-39396667D01*
X43160000Y-36350000D02*
X41777000Y-36350000D01*
X35645000Y-38190000D02*
X35645000Y-39396667D01*
X33345000Y-38190000D02*
X33345000Y-39396667D01*
X38905000Y-41810000D02*
X38905000Y-38190000D01*
X38065000Y-38190000D02*
X38065000Y-39396667D01*
X40245000Y-38190000D02*
X40245000Y-39396667D01*
X33225000Y-38190000D02*
X33225000Y-39396667D01*
X42920000Y-43410000D02*
X41610000Y-43410000D01*
X35525000Y-38190000D02*
X35525000Y-39396667D01*
X32555000Y-38190000D02*
X32555000Y-41810000D01*
X41325000Y-38190000D02*
X41325000Y-39396667D01*
X36125000Y-38190000D02*
X36125000Y-39396667D01*
X37945000Y-38190000D02*
X37945000Y-39396667D01*
X36365000Y-38190000D02*
X35095000Y-38190000D01*
X38905000Y-38190000D02*
X37635000Y-38190000D01*
X37825000Y-38190000D02*
X37825000Y-39396667D01*
X33465000Y-38190000D02*
X33465000Y-39396667D01*
X40365000Y-38190000D02*
X40365000Y-39396667D01*
X40175000Y-41810000D02*
X41445000Y-41810000D01*
X32985000Y-38190000D02*
X32985000Y-39396667D01*
X36365000Y-41810000D02*
X36365000Y-38190000D01*
X40175000Y-38190000D02*
X40175000Y-41810000D01*
X34930000Y-36590000D02*
X33990000Y-36590000D01*
X33585000Y-38190000D02*
X33585000Y-39396667D01*
X33825000Y-38190000D02*
X32555000Y-38190000D01*
X38425000Y-38190000D02*
X38425000Y-39396667D01*
X33825000Y-41810000D02*
X33825000Y-38190000D01*
X41085000Y-38190000D02*
X41085000Y-39396667D01*
X37470000Y-43410000D02*
X36530000Y-43410000D01*
X40010000Y-43410000D02*
X39070000Y-43410000D01*
X35885000Y-38190000D02*
X35885000Y-39396667D01*
X32555000Y-41810000D02*
X33825000Y-41810000D01*
X38905000Y-39396667D02*
X37635000Y-39396667D01*
X41445000Y-41810000D02*
X41445000Y-38190000D01*
X42920000Y-36590000D02*
X41610000Y-36590000D01*
X32625000Y-38190000D02*
X32625000Y-39396667D01*
X42920000Y-36590000D02*
X42920000Y-43410000D01*
X40725000Y-38190000D02*
X40725000Y-39396667D01*
X32390000Y-36590000D02*
X31080000Y-36590000D01*
X31080000Y-36590000D02*
X31080000Y-43410000D01*
X33705000Y-38190000D02*
X33705000Y-39396667D01*
X40010000Y-36590000D02*
X39070000Y-36590000D01*
X41445000Y-39396667D02*
X40175000Y-39396667D01*
X40605000Y-38190000D02*
X40605000Y-39396667D01*
X38785000Y-38190000D02*
X38785000Y-39396667D01*
%TO.C,R4*%
X57522500Y-35262742D02*
X57522500Y-35737258D01*
X56477500Y-35262742D02*
X56477500Y-35737258D01*
%TO.C,R1*%
X55012742Y-46627500D02*
X55487258Y-46627500D01*
X55012742Y-47672500D02*
X55487258Y-47672500D01*
%TO.C,RN1*%
X42850000Y-49555000D02*
X41850000Y-49555000D01*
X42850000Y-46195000D02*
X41850000Y-46195000D01*
%TD*%
M02*
