M48
; DRILL file {KiCad (6.0.2)} date Mon May 16 10:18:51 2022
; FORMAT={-:-/ absolute / inch / decimal}
; #@! TF.CreationDate,2022-05-16T10:18:51+01:00
; #@! TF.GenerationSoftware,Kicad,Pcbnew,(6.0.2)
; #@! TF.FileFunction,MixedPlating,1,2
FMAT,2
INCH
; #@! TA.AperFunction,Plated,PTH,ViaDrill
T1C0.0118
; #@! TA.AperFunction,Plated,PTH,ComponentDrill
T2C0.0236
; #@! TA.AperFunction,Plated,PTH,ComponentDrill
T3C0.0335
; #@! TA.AperFunction,Plated,PTH,ComponentDrill
T4C0.0394
; #@! TA.AperFunction,NonPlated,NPTH,ComponentDrill
T5C0.1260
%
G90
G05
T1
X1.7008Y-1.5925
X1.7303Y-1.9016
X1.7303Y-1.9331
X1.7304Y-1.8698
X1.7913Y-1.8701
X1.8209Y-1.9016
X1.8504Y-1.9331
X1.9173Y-1.3165
X1.937Y-1.8898
X1.9616Y-1.4179
X1.9783Y-1.6437
X1.9815Y-1.3608
X2.002Y-1.4179
X2.0079Y-1.6929
X2.0157Y-1.8898
X2.1142Y-1.5945
X2.1693Y-1.7382
X2.2362Y-1.6791
X2.2441Y-1.2629
X2.2972Y-1.3602
X2.313Y-1.8602
X2.3622Y-1.6831
X2.3799Y-1.3602
X2.4567Y-1.1594
X2.4567Y-1.2146
X2.5004Y-1.3835
X2.502Y-1.4862
X2.5197Y-1.1594
X2.5197Y-1.2146
X2.5374Y-1.4862
X2.5398Y-1.3835
X2.5827Y-1.1594
X2.5827Y-1.2146
X2.6594Y-1.3602
X2.6772Y-1.6831
X2.7421Y-1.3602
T3
X1.8701Y-1.2781
X2.0669Y-1.2781
T4
X0.9685Y-2.1185
X0.9685Y-2.2185
X1.0685Y-2.1185
X1.0685Y-2.2185
X1.7685Y-2.0685
X1.7685Y-2.1685
X1.7685Y-2.2685
X1.7685Y-2.3685
X1.7685Y-2.4685
X2.1685Y-2.0685
X2.1685Y-2.1685
X2.1685Y-2.2685
X2.1685Y-2.3685
X2.1685Y-2.4685
X2.4197Y-1.5551
X2.5197Y-1.5551
X2.6197Y-1.5551
X2.8685Y-2.1185
X2.8685Y-2.2185
X2.9685Y-2.1185
X2.9685Y-2.2185
T5
X1.063Y-1.2598
X1.063Y-1.7717
X2.8685Y-1.2685
X2.874Y-1.7717
T2
G00X1.8307Y-1.1855
M15
G01X1.8307Y-1.158
M16
G05
G00X2.1063Y-1.158
M15
G01X2.1063Y-1.1855
M16
G05
T0
M30
