%TF.GenerationSoftware,KiCad,Pcbnew,(6.0.2)*%
%TF.CreationDate,2022-05-14T01:06:09+01:00*%
%TF.ProjectId,mcp_breadboard,6d63705f-6272-4656-9164-626f6172642e,rev?*%
%TF.SameCoordinates,Original*%
%TF.FileFunction,Legend,Bot*%
%TF.FilePolarity,Positive*%
%FSLAX46Y46*%
G04 Gerber Fmt 4.6, Leading zero omitted, Abs format (unit mm)*
G04 Created by KiCad (PCBNEW (6.0.2)) date 2022-05-14 01:06:09*
%MOMM*%
%LPD*%
G01*
G04 APERTURE LIST*
%ADD10C,0.150000*%
%ADD11C,0.120000*%
G04 APERTURE END LIST*
D10*
X61107142Y-37482380D02*
X61107142Y-36482380D01*
X60773809Y-37196666D01*
X60440476Y-36482380D01*
X60440476Y-37482380D01*
X59392857Y-37387142D02*
X59440476Y-37434761D01*
X59583333Y-37482380D01*
X59678571Y-37482380D01*
X59821428Y-37434761D01*
X59916666Y-37339523D01*
X59964285Y-37244285D01*
X60011904Y-37053809D01*
X60011904Y-36910952D01*
X59964285Y-36720476D01*
X59916666Y-36625238D01*
X59821428Y-36530000D01*
X59678571Y-36482380D01*
X59583333Y-36482380D01*
X59440476Y-36530000D01*
X59392857Y-36577619D01*
X58964285Y-37482380D02*
X58964285Y-36482380D01*
X58583333Y-36482380D01*
X58488095Y-36530000D01*
X58440476Y-36577619D01*
X58392857Y-36672857D01*
X58392857Y-36815714D01*
X58440476Y-36910952D01*
X58488095Y-36958571D01*
X58583333Y-37006190D01*
X58964285Y-37006190D01*
X58011904Y-36577619D02*
X57964285Y-36530000D01*
X57869047Y-36482380D01*
X57630952Y-36482380D01*
X57535714Y-36530000D01*
X57488095Y-36577619D01*
X57440476Y-36672857D01*
X57440476Y-36768095D01*
X57488095Y-36910952D01*
X58059523Y-37482380D01*
X57440476Y-37482380D01*
X57059523Y-36577619D02*
X57011904Y-36530000D01*
X56916666Y-36482380D01*
X56678571Y-36482380D01*
X56583333Y-36530000D01*
X56535714Y-36577619D01*
X56488095Y-36672857D01*
X56488095Y-36768095D01*
X56535714Y-36910952D01*
X57107142Y-37482380D01*
X56488095Y-37482380D01*
X56107142Y-36577619D02*
X56059523Y-36530000D01*
X55964285Y-36482380D01*
X55726190Y-36482380D01*
X55630952Y-36530000D01*
X55583333Y-36577619D01*
X55535714Y-36672857D01*
X55535714Y-36768095D01*
X55583333Y-36910952D01*
X56154761Y-37482380D01*
X55535714Y-37482380D01*
X54583333Y-37482380D02*
X55154761Y-37482380D01*
X54869047Y-37482380D02*
X54869047Y-36482380D01*
X54964285Y-36625238D01*
X55059523Y-36720476D01*
X55154761Y-36768095D01*
X54202380Y-37196666D02*
X53726190Y-37196666D01*
X54297619Y-37482380D02*
X53964285Y-36482380D01*
X53630952Y-37482380D01*
X52535714Y-37482380D02*
X52535714Y-36482380D01*
X52154761Y-36482380D01*
X52059523Y-36530000D01*
X52011904Y-36577619D01*
X51964285Y-36672857D01*
X51964285Y-36815714D01*
X52011904Y-36910952D01*
X52059523Y-36958571D01*
X52154761Y-37006190D01*
X52535714Y-37006190D01*
X51535714Y-37482380D02*
X51535714Y-36815714D01*
X51535714Y-37006190D02*
X51488095Y-36910952D01*
X51440476Y-36863333D01*
X51345238Y-36815714D01*
X51250000Y-36815714D01*
X50773809Y-37482380D02*
X50869047Y-37434761D01*
X50916666Y-37387142D01*
X50964285Y-37291904D01*
X50964285Y-37006190D01*
X50916666Y-36910952D01*
X50869047Y-36863333D01*
X50773809Y-36815714D01*
X50630952Y-36815714D01*
X50535714Y-36863333D01*
X50488095Y-36910952D01*
X50440476Y-37006190D01*
X50440476Y-37291904D01*
X50488095Y-37387142D01*
X50535714Y-37434761D01*
X50630952Y-37482380D01*
X50773809Y-37482380D01*
X50154761Y-36815714D02*
X49773809Y-36815714D01*
X50011904Y-36482380D02*
X50011904Y-37339523D01*
X49964285Y-37434761D01*
X49869047Y-37482380D01*
X49773809Y-37482380D01*
X49297619Y-37482380D02*
X49392857Y-37434761D01*
X49440476Y-37387142D01*
X49488095Y-37291904D01*
X49488095Y-37006190D01*
X49440476Y-36910952D01*
X49392857Y-36863333D01*
X49297619Y-36815714D01*
X49154761Y-36815714D01*
X49059523Y-36863333D01*
X49011904Y-36910952D01*
X48964285Y-37006190D01*
X48964285Y-37291904D01*
X49011904Y-37387142D01*
X49059523Y-37434761D01*
X49154761Y-37482380D01*
X49297619Y-37482380D01*
X48678571Y-36815714D02*
X48297619Y-36815714D01*
X48535714Y-36482380D02*
X48535714Y-37339523D01*
X48488095Y-37434761D01*
X48392857Y-37482380D01*
X48297619Y-37482380D01*
X48059523Y-36815714D02*
X47821428Y-37482380D01*
X47583333Y-36815714D02*
X47821428Y-37482380D01*
X47916666Y-37720476D01*
X47964285Y-37768095D01*
X48059523Y-37815714D01*
X47202380Y-36815714D02*
X47202380Y-37815714D01*
X47202380Y-36863333D02*
X47107142Y-36815714D01*
X46916666Y-36815714D01*
X46821428Y-36863333D01*
X46773809Y-36910952D01*
X46726190Y-37006190D01*
X46726190Y-37291904D01*
X46773809Y-37387142D01*
X46821428Y-37434761D01*
X46916666Y-37482380D01*
X47107142Y-37482380D01*
X47202380Y-37434761D01*
X46297619Y-37482380D02*
X46297619Y-36815714D01*
X46297619Y-36482380D02*
X46345238Y-36530000D01*
X46297619Y-36577619D01*
X46250000Y-36530000D01*
X46297619Y-36482380D01*
X46297619Y-36577619D01*
X45821428Y-36815714D02*
X45821428Y-37482380D01*
X45821428Y-36910952D02*
X45773809Y-36863333D01*
X45678571Y-36815714D01*
X45535714Y-36815714D01*
X45440476Y-36863333D01*
X45392857Y-36958571D01*
X45392857Y-37482380D01*
X44488095Y-36815714D02*
X44488095Y-37625238D01*
X44535714Y-37720476D01*
X44583333Y-37768095D01*
X44678571Y-37815714D01*
X44821428Y-37815714D01*
X44916666Y-37768095D01*
X44488095Y-37434761D02*
X44583333Y-37482380D01*
X44773809Y-37482380D01*
X44869047Y-37434761D01*
X44916666Y-37387142D01*
X44964285Y-37291904D01*
X44964285Y-37006190D01*
X44916666Y-36910952D01*
X44869047Y-36863333D01*
X44773809Y-36815714D01*
X44583333Y-36815714D01*
X44488095Y-36863333D01*
X42916666Y-36958571D02*
X42773809Y-37006190D01*
X42726190Y-37053809D01*
X42678571Y-37149047D01*
X42678571Y-37291904D01*
X42726190Y-37387142D01*
X42773809Y-37434761D01*
X42869047Y-37482380D01*
X43250000Y-37482380D01*
X43250000Y-36482380D01*
X42916666Y-36482380D01*
X42821428Y-36530000D01*
X42773809Y-36577619D01*
X42726190Y-36672857D01*
X42726190Y-36768095D01*
X42773809Y-36863333D01*
X42821428Y-36910952D01*
X42916666Y-36958571D01*
X43250000Y-36958571D01*
X42107142Y-37482380D02*
X42202380Y-37434761D01*
X42250000Y-37387142D01*
X42297619Y-37291904D01*
X42297619Y-37006190D01*
X42250000Y-36910952D01*
X42202380Y-36863333D01*
X42107142Y-36815714D01*
X41964285Y-36815714D01*
X41869047Y-36863333D01*
X41821428Y-36910952D01*
X41773809Y-37006190D01*
X41773809Y-37291904D01*
X41821428Y-37387142D01*
X41869047Y-37434761D01*
X41964285Y-37482380D01*
X42107142Y-37482380D01*
X40916666Y-37482380D02*
X40916666Y-36958571D01*
X40964285Y-36863333D01*
X41059523Y-36815714D01*
X41250000Y-36815714D01*
X41345238Y-36863333D01*
X40916666Y-37434761D02*
X41011904Y-37482380D01*
X41250000Y-37482380D01*
X41345238Y-37434761D01*
X41392857Y-37339523D01*
X41392857Y-37244285D01*
X41345238Y-37149047D01*
X41250000Y-37101428D01*
X41011904Y-37101428D01*
X40916666Y-37053809D01*
X40440476Y-37482380D02*
X40440476Y-36815714D01*
X40440476Y-37006190D02*
X40392857Y-36910952D01*
X40345238Y-36863333D01*
X40250000Y-36815714D01*
X40154761Y-36815714D01*
X39392857Y-37482380D02*
X39392857Y-36482380D01*
X39392857Y-37434761D02*
X39488095Y-37482380D01*
X39678571Y-37482380D01*
X39773809Y-37434761D01*
X39821428Y-37387142D01*
X39869047Y-37291904D01*
X39869047Y-37006190D01*
X39821428Y-36910952D01*
X39773809Y-36863333D01*
X39678571Y-36815714D01*
X39488095Y-36815714D01*
X39392857Y-36863333D01*
X51226190Y-39092380D02*
X51559523Y-38616190D01*
X51797619Y-39092380D02*
X51797619Y-38092380D01*
X51416666Y-38092380D01*
X51321428Y-38140000D01*
X51273809Y-38187619D01*
X51226190Y-38282857D01*
X51226190Y-38425714D01*
X51273809Y-38520952D01*
X51321428Y-38568571D01*
X51416666Y-38616190D01*
X51797619Y-38616190D01*
X50416666Y-39044761D02*
X50511904Y-39092380D01*
X50702380Y-39092380D01*
X50797619Y-39044761D01*
X50845238Y-38949523D01*
X50845238Y-38568571D01*
X50797619Y-38473333D01*
X50702380Y-38425714D01*
X50511904Y-38425714D01*
X50416666Y-38473333D01*
X50369047Y-38568571D01*
X50369047Y-38663809D01*
X50845238Y-38759047D01*
X50035714Y-38425714D02*
X49797619Y-39092380D01*
X49559523Y-38425714D01*
X48654761Y-39092380D02*
X49226190Y-39092380D01*
X48940476Y-39092380D02*
X48940476Y-38092380D01*
X49035714Y-38235238D01*
X49130952Y-38330476D01*
X49226190Y-38378095D01*
X56750000Y-39702380D02*
X56178571Y-39702380D01*
X56464285Y-40702380D02*
X56464285Y-39702380D01*
X55845238Y-40702380D02*
X55845238Y-39702380D01*
X55416666Y-40702380D02*
X55416666Y-40178571D01*
X55464285Y-40083333D01*
X55559523Y-40035714D01*
X55702380Y-40035714D01*
X55797619Y-40083333D01*
X55845238Y-40130952D01*
X54797619Y-40702380D02*
X54892857Y-40654761D01*
X54940476Y-40607142D01*
X54988095Y-40511904D01*
X54988095Y-40226190D01*
X54940476Y-40130952D01*
X54892857Y-40083333D01*
X54797619Y-40035714D01*
X54654761Y-40035714D01*
X54559523Y-40083333D01*
X54511904Y-40130952D01*
X54464285Y-40226190D01*
X54464285Y-40511904D01*
X54511904Y-40607142D01*
X54559523Y-40654761D01*
X54654761Y-40702380D01*
X54797619Y-40702380D01*
X54035714Y-40702380D02*
X54035714Y-40035714D01*
X54035714Y-40130952D02*
X53988095Y-40083333D01*
X53892857Y-40035714D01*
X53750000Y-40035714D01*
X53654761Y-40083333D01*
X53607142Y-40178571D01*
X53607142Y-40702380D01*
X53607142Y-40178571D02*
X53559523Y-40083333D01*
X53464285Y-40035714D01*
X53321428Y-40035714D01*
X53226190Y-40083333D01*
X53178571Y-40178571D01*
X53178571Y-40702380D01*
X52273809Y-40702380D02*
X52273809Y-40178571D01*
X52321428Y-40083333D01*
X52416666Y-40035714D01*
X52607142Y-40035714D01*
X52702380Y-40083333D01*
X52273809Y-40654761D02*
X52369047Y-40702380D01*
X52607142Y-40702380D01*
X52702380Y-40654761D01*
X52750000Y-40559523D01*
X52750000Y-40464285D01*
X52702380Y-40369047D01*
X52607142Y-40321428D01*
X52369047Y-40321428D01*
X52273809Y-40273809D01*
X51845238Y-40654761D02*
X51750000Y-40702380D01*
X51559523Y-40702380D01*
X51464285Y-40654761D01*
X51416666Y-40559523D01*
X51416666Y-40511904D01*
X51464285Y-40416666D01*
X51559523Y-40369047D01*
X51702380Y-40369047D01*
X51797619Y-40321428D01*
X51845238Y-40226190D01*
X51845238Y-40178571D01*
X51797619Y-40083333D01*
X51702380Y-40035714D01*
X51559523Y-40035714D01*
X51464285Y-40083333D01*
X49892857Y-40178571D02*
X49750000Y-40226190D01*
X49702380Y-40273809D01*
X49654761Y-40369047D01*
X49654761Y-40511904D01*
X49702380Y-40607142D01*
X49750000Y-40654761D01*
X49845238Y-40702380D01*
X50226190Y-40702380D01*
X50226190Y-39702380D01*
X49892857Y-39702380D01*
X49797619Y-39750000D01*
X49750000Y-39797619D01*
X49702380Y-39892857D01*
X49702380Y-39988095D01*
X49750000Y-40083333D01*
X49797619Y-40130952D01*
X49892857Y-40178571D01*
X50226190Y-40178571D01*
X49321428Y-40035714D02*
X49083333Y-40702380D01*
X48845238Y-40035714D02*
X49083333Y-40702380D01*
X49178571Y-40940476D01*
X49226190Y-40988095D01*
X49321428Y-41035714D01*
X48607142Y-40035714D02*
X48226190Y-40035714D01*
X48464285Y-39702380D02*
X48464285Y-40559523D01*
X48416666Y-40654761D01*
X48321428Y-40702380D01*
X48226190Y-40702380D01*
X47892857Y-40702380D02*
X47892857Y-39702380D01*
X47464285Y-40702380D02*
X47464285Y-40178571D01*
X47511904Y-40083333D01*
X47607142Y-40035714D01*
X47750000Y-40035714D01*
X47845238Y-40083333D01*
X47892857Y-40130952D01*
X46607142Y-40654761D02*
X46702380Y-40702380D01*
X46892857Y-40702380D01*
X46988095Y-40654761D01*
X47035714Y-40559523D01*
X47035714Y-40178571D01*
X46988095Y-40083333D01*
X46892857Y-40035714D01*
X46702380Y-40035714D01*
X46607142Y-40083333D01*
X46559523Y-40178571D01*
X46559523Y-40273809D01*
X47035714Y-40369047D01*
X46226190Y-40035714D02*
X46035714Y-40702380D01*
X45845238Y-40226190D01*
X45654761Y-40702380D01*
X45464285Y-40035714D01*
X44654761Y-40702380D02*
X44654761Y-40178571D01*
X44702380Y-40083333D01*
X44797619Y-40035714D01*
X44988095Y-40035714D01*
X45083333Y-40083333D01*
X44654761Y-40654761D02*
X44750000Y-40702380D01*
X44988095Y-40702380D01*
X45083333Y-40654761D01*
X45130952Y-40559523D01*
X45130952Y-40464285D01*
X45083333Y-40369047D01*
X44988095Y-40321428D01*
X44750000Y-40321428D01*
X44654761Y-40273809D01*
X44273809Y-40035714D02*
X44035714Y-40702380D01*
X43797619Y-40035714D02*
X44035714Y-40702380D01*
X44130952Y-40940476D01*
X44178571Y-40988095D01*
X44273809Y-41035714D01*
X63964285Y-41645714D02*
X63964285Y-42455238D01*
X64011904Y-42550476D01*
X64059523Y-42598095D01*
X64154761Y-42645714D01*
X64297619Y-42645714D01*
X64392857Y-42598095D01*
X63964285Y-42264761D02*
X64059523Y-42312380D01*
X64250000Y-42312380D01*
X64345238Y-42264761D01*
X64392857Y-42217142D01*
X64440476Y-42121904D01*
X64440476Y-41836190D01*
X64392857Y-41740952D01*
X64345238Y-41693333D01*
X64250000Y-41645714D01*
X64059523Y-41645714D01*
X63964285Y-41693333D01*
X63488095Y-42312380D02*
X63488095Y-41312380D01*
X63059523Y-42312380D02*
X63059523Y-41788571D01*
X63107142Y-41693333D01*
X63202380Y-41645714D01*
X63345238Y-41645714D01*
X63440476Y-41693333D01*
X63488095Y-41740952D01*
X62154761Y-41645714D02*
X62154761Y-42312380D01*
X62583333Y-41645714D02*
X62583333Y-42169523D01*
X62535714Y-42264761D01*
X62440476Y-42312380D01*
X62297619Y-42312380D01*
X62202380Y-42264761D01*
X62154761Y-42217142D01*
X61678571Y-42312380D02*
X61678571Y-41312380D01*
X61678571Y-41693333D02*
X61583333Y-41645714D01*
X61392857Y-41645714D01*
X61297619Y-41693333D01*
X61250000Y-41740952D01*
X61202380Y-41836190D01*
X61202380Y-42121904D01*
X61250000Y-42217142D01*
X61297619Y-42264761D01*
X61392857Y-42312380D01*
X61583333Y-42312380D01*
X61678571Y-42264761D01*
X60773809Y-42217142D02*
X60726190Y-42264761D01*
X60773809Y-42312380D01*
X60821428Y-42264761D01*
X60773809Y-42217142D01*
X60773809Y-42312380D01*
X60773809Y-41693333D02*
X60726190Y-41740952D01*
X60773809Y-41788571D01*
X60821428Y-41740952D01*
X60773809Y-41693333D01*
X60773809Y-41788571D01*
X60297619Y-42312380D02*
X60297619Y-41312380D01*
X60297619Y-41788571D02*
X59726190Y-41788571D01*
X59726190Y-42312380D02*
X59726190Y-41312380D01*
X58821428Y-42312380D02*
X58821428Y-41788571D01*
X58869047Y-41693333D01*
X58964285Y-41645714D01*
X59154761Y-41645714D01*
X59250000Y-41693333D01*
X58821428Y-42264761D02*
X58916666Y-42312380D01*
X59154761Y-42312380D01*
X59250000Y-42264761D01*
X59297619Y-42169523D01*
X59297619Y-42074285D01*
X59250000Y-41979047D01*
X59154761Y-41931428D01*
X58916666Y-41931428D01*
X58821428Y-41883809D01*
X58345238Y-42312380D02*
X58345238Y-41645714D01*
X58345238Y-41836190D02*
X58297619Y-41740952D01*
X58250000Y-41693333D01*
X58154761Y-41645714D01*
X58059523Y-41645714D01*
X57726190Y-42312380D02*
X57726190Y-41312380D01*
X57630952Y-41931428D02*
X57345238Y-42312380D01*
X57345238Y-41645714D02*
X57726190Y-42026666D01*
X56773809Y-42312380D02*
X56869047Y-42264761D01*
X56916666Y-42217142D01*
X56964285Y-42121904D01*
X56964285Y-41836190D01*
X56916666Y-41740952D01*
X56869047Y-41693333D01*
X56773809Y-41645714D01*
X56630952Y-41645714D01*
X56535714Y-41693333D01*
X56488095Y-41740952D01*
X56440476Y-41836190D01*
X56440476Y-42121904D01*
X56488095Y-42217142D01*
X56535714Y-42264761D01*
X56630952Y-42312380D01*
X56773809Y-42312380D01*
X56011904Y-41645714D02*
X56011904Y-42312380D01*
X56011904Y-41740952D02*
X55964285Y-41693333D01*
X55869047Y-41645714D01*
X55726190Y-41645714D01*
X55630952Y-41693333D01*
X55583333Y-41788571D01*
X55583333Y-42312380D01*
X54726190Y-42264761D02*
X54821428Y-42312380D01*
X55011904Y-42312380D01*
X55107142Y-42264761D01*
X55154761Y-42169523D01*
X55154761Y-41788571D01*
X55107142Y-41693333D01*
X55011904Y-41645714D01*
X54821428Y-41645714D01*
X54726190Y-41693333D01*
X54678571Y-41788571D01*
X54678571Y-41883809D01*
X55154761Y-41979047D01*
X54250000Y-41645714D02*
X54250000Y-42312380D01*
X54250000Y-41740952D02*
X54202380Y-41693333D01*
X54107142Y-41645714D01*
X53964285Y-41645714D01*
X53869047Y-41693333D01*
X53821428Y-41788571D01*
X53821428Y-42312380D01*
X53011904Y-41788571D02*
X52869047Y-41836190D01*
X52821428Y-41883809D01*
X52773809Y-41979047D01*
X52773809Y-42121904D01*
X52821428Y-42217142D01*
X52869047Y-42264761D01*
X52964285Y-42312380D01*
X53345238Y-42312380D01*
X53345238Y-41312380D01*
X53011904Y-41312380D01*
X52916666Y-41360000D01*
X52869047Y-41407619D01*
X52821428Y-41502857D01*
X52821428Y-41598095D01*
X52869047Y-41693333D01*
X52916666Y-41740952D01*
X53011904Y-41788571D01*
X53345238Y-41788571D01*
X51916666Y-42312380D02*
X51916666Y-41788571D01*
X51964285Y-41693333D01*
X52059523Y-41645714D01*
X52250000Y-41645714D01*
X52345238Y-41693333D01*
X51916666Y-42264761D02*
X52011904Y-42312380D01*
X52250000Y-42312380D01*
X52345238Y-42264761D01*
X52392857Y-42169523D01*
X52392857Y-42074285D01*
X52345238Y-41979047D01*
X52250000Y-41931428D01*
X52011904Y-41931428D01*
X51916666Y-41883809D01*
X51011904Y-42312380D02*
X51011904Y-41312380D01*
X51011904Y-42264761D02*
X51107142Y-42312380D01*
X51297619Y-42312380D01*
X51392857Y-42264761D01*
X51440476Y-42217142D01*
X51488095Y-42121904D01*
X51488095Y-41836190D01*
X51440476Y-41740952D01*
X51392857Y-41693333D01*
X51297619Y-41645714D01*
X51107142Y-41645714D01*
X51011904Y-41693333D01*
X50154761Y-42264761D02*
X50250000Y-42312380D01*
X50440476Y-42312380D01*
X50535714Y-42264761D01*
X50583333Y-42169523D01*
X50583333Y-41788571D01*
X50535714Y-41693333D01*
X50440476Y-41645714D01*
X50250000Y-41645714D01*
X50154761Y-41693333D01*
X50107142Y-41788571D01*
X50107142Y-41883809D01*
X50583333Y-41979047D01*
X48964285Y-41264761D02*
X49821428Y-42550476D01*
X48630952Y-42312380D02*
X48630952Y-41312380D01*
X48297619Y-42026666D01*
X47964285Y-41312380D01*
X47964285Y-42312380D01*
X46916666Y-42217142D02*
X46964285Y-42264761D01*
X47107142Y-42312380D01*
X47202380Y-42312380D01*
X47345238Y-42264761D01*
X47440476Y-42169523D01*
X47488095Y-42074285D01*
X47535714Y-41883809D01*
X47535714Y-41740952D01*
X47488095Y-41550476D01*
X47440476Y-41455238D01*
X47345238Y-41360000D01*
X47202380Y-41312380D01*
X47107142Y-41312380D01*
X46964285Y-41360000D01*
X46916666Y-41407619D01*
X46488095Y-42312380D02*
X46488095Y-41312380D01*
X46107142Y-41312380D01*
X46011904Y-41360000D01*
X45964285Y-41407619D01*
X45916666Y-41502857D01*
X45916666Y-41645714D01*
X45964285Y-41740952D01*
X46011904Y-41788571D01*
X46107142Y-41836190D01*
X46488095Y-41836190D01*
X45535714Y-41407619D02*
X45488095Y-41360000D01*
X45392857Y-41312380D01*
X45154761Y-41312380D01*
X45059523Y-41360000D01*
X45011904Y-41407619D01*
X44964285Y-41502857D01*
X44964285Y-41598095D01*
X45011904Y-41740952D01*
X45583333Y-42312380D01*
X44964285Y-42312380D01*
X44583333Y-41407619D02*
X44535714Y-41360000D01*
X44440476Y-41312380D01*
X44202380Y-41312380D01*
X44107142Y-41360000D01*
X44059523Y-41407619D01*
X44011904Y-41502857D01*
X44011904Y-41598095D01*
X44059523Y-41740952D01*
X44630952Y-42312380D01*
X44011904Y-42312380D01*
X43630952Y-41407619D02*
X43583333Y-41360000D01*
X43488095Y-41312380D01*
X43250000Y-41312380D01*
X43154761Y-41360000D01*
X43107142Y-41407619D01*
X43059523Y-41502857D01*
X43059523Y-41598095D01*
X43107142Y-41740952D01*
X43678571Y-42312380D01*
X43059523Y-42312380D01*
X42107142Y-42312380D02*
X42678571Y-42312380D01*
X42392857Y-42312380D02*
X42392857Y-41312380D01*
X42488095Y-41455238D01*
X42583333Y-41550476D01*
X42678571Y-41598095D01*
X41250000Y-42312380D02*
X41250000Y-41788571D01*
X41297619Y-41693333D01*
X41392857Y-41645714D01*
X41583333Y-41645714D01*
X41678571Y-41693333D01*
X41250000Y-42264761D02*
X41345238Y-42312380D01*
X41583333Y-42312380D01*
X41678571Y-42264761D01*
X41726190Y-42169523D01*
X41726190Y-42074285D01*
X41678571Y-41979047D01*
X41583333Y-41931428D01*
X41345238Y-41931428D01*
X41250000Y-41883809D01*
X40773809Y-41931428D02*
X40011904Y-41931428D01*
X39535714Y-41645714D02*
X39535714Y-42645714D01*
X39535714Y-41693333D02*
X39440476Y-41645714D01*
X39250000Y-41645714D01*
X39154761Y-41693333D01*
X39107142Y-41740952D01*
X39059523Y-41836190D01*
X39059523Y-42121904D01*
X39107142Y-42217142D01*
X39154761Y-42264761D01*
X39250000Y-42312380D01*
X39440476Y-42312380D01*
X39535714Y-42264761D01*
X38630952Y-42312380D02*
X38630952Y-41645714D01*
X38630952Y-41836190D02*
X38583333Y-41740952D01*
X38535714Y-41693333D01*
X38440476Y-41645714D01*
X38345238Y-41645714D01*
X37869047Y-42312380D02*
X37964285Y-42264761D01*
X38011904Y-42217142D01*
X38059523Y-42121904D01*
X38059523Y-41836190D01*
X38011904Y-41740952D01*
X37964285Y-41693333D01*
X37869047Y-41645714D01*
X37726190Y-41645714D01*
X37630952Y-41693333D01*
X37583333Y-41740952D01*
X37535714Y-41836190D01*
X37535714Y-42121904D01*
X37583333Y-42217142D01*
X37630952Y-42264761D01*
X37726190Y-42312380D01*
X37869047Y-42312380D01*
X37250000Y-41645714D02*
X36869047Y-41645714D01*
X37107142Y-41312380D02*
X37107142Y-42169523D01*
X37059523Y-42264761D01*
X36964285Y-42312380D01*
X36869047Y-42312380D01*
X36392857Y-42312380D02*
X36488095Y-42264761D01*
X36535714Y-42217142D01*
X36583333Y-42121904D01*
X36583333Y-41836190D01*
X36535714Y-41740952D01*
X36488095Y-41693333D01*
X36392857Y-41645714D01*
X36250000Y-41645714D01*
X36154761Y-41693333D01*
X36107142Y-41740952D01*
X36059523Y-41836190D01*
X36059523Y-42121904D01*
X36107142Y-42217142D01*
X36154761Y-42264761D01*
X36250000Y-42312380D01*
X36392857Y-42312380D01*
X55107142Y-43017619D02*
X55059523Y-42970000D01*
X54964285Y-42922380D01*
X54726190Y-42922380D01*
X54630952Y-42970000D01*
X54583333Y-43017619D01*
X54535714Y-43112857D01*
X54535714Y-43208095D01*
X54583333Y-43350952D01*
X55154761Y-43922380D01*
X54535714Y-43922380D01*
X53916666Y-42922380D02*
X53821428Y-42922380D01*
X53726190Y-42970000D01*
X53678571Y-43017619D01*
X53630952Y-43112857D01*
X53583333Y-43303333D01*
X53583333Y-43541428D01*
X53630952Y-43731904D01*
X53678571Y-43827142D01*
X53726190Y-43874761D01*
X53821428Y-43922380D01*
X53916666Y-43922380D01*
X54011904Y-43874761D01*
X54059523Y-43827142D01*
X54107142Y-43731904D01*
X54154761Y-43541428D01*
X54154761Y-43303333D01*
X54107142Y-43112857D01*
X54059523Y-43017619D01*
X54011904Y-42970000D01*
X53916666Y-42922380D01*
X53202380Y-43017619D02*
X53154761Y-42970000D01*
X53059523Y-42922380D01*
X52821428Y-42922380D01*
X52726190Y-42970000D01*
X52678571Y-43017619D01*
X52630952Y-43112857D01*
X52630952Y-43208095D01*
X52678571Y-43350952D01*
X53250000Y-43922380D01*
X52630952Y-43922380D01*
X52250000Y-43017619D02*
X52202380Y-42970000D01*
X52107142Y-42922380D01*
X51869047Y-42922380D01*
X51773809Y-42970000D01*
X51726190Y-43017619D01*
X51678571Y-43112857D01*
X51678571Y-43208095D01*
X51726190Y-43350952D01*
X52297619Y-43922380D01*
X51678571Y-43922380D01*
X51250000Y-43541428D02*
X50488095Y-43541428D01*
X49821428Y-42922380D02*
X49726190Y-42922380D01*
X49630952Y-42970000D01*
X49583333Y-43017619D01*
X49535714Y-43112857D01*
X49488095Y-43303333D01*
X49488095Y-43541428D01*
X49535714Y-43731904D01*
X49583333Y-43827142D01*
X49630952Y-43874761D01*
X49726190Y-43922380D01*
X49821428Y-43922380D01*
X49916666Y-43874761D01*
X49964285Y-43827142D01*
X50011904Y-43731904D01*
X50059523Y-43541428D01*
X50059523Y-43303333D01*
X50011904Y-43112857D01*
X49964285Y-43017619D01*
X49916666Y-42970000D01*
X49821428Y-42922380D01*
X48583333Y-42922380D02*
X49059523Y-42922380D01*
X49107142Y-43398571D01*
X49059523Y-43350952D01*
X48964285Y-43303333D01*
X48726190Y-43303333D01*
X48630952Y-43350952D01*
X48583333Y-43398571D01*
X48535714Y-43493809D01*
X48535714Y-43731904D01*
X48583333Y-43827142D01*
X48630952Y-43874761D01*
X48726190Y-43922380D01*
X48964285Y-43922380D01*
X49059523Y-43874761D01*
X49107142Y-43827142D01*
X48107142Y-43541428D02*
X47345238Y-43541428D01*
X46345238Y-43922380D02*
X46916666Y-43922380D01*
X46630952Y-43922380D02*
X46630952Y-42922380D01*
X46726190Y-43065238D01*
X46821428Y-43160476D01*
X46916666Y-43208095D01*
X45488095Y-43255714D02*
X45488095Y-43922380D01*
X45726190Y-42874761D02*
X45964285Y-43589047D01*
X45345238Y-43589047D01*
D11*
%TO.C,J3*%
X46250000Y-51210000D02*
X44920000Y-51210000D01*
X46250000Y-53810000D02*
X43590000Y-53810000D01*
X43590000Y-53810000D02*
X43590000Y-64030000D01*
X46250000Y-53810000D02*
X46250000Y-64030000D01*
X46250000Y-52540000D02*
X46250000Y-51210000D01*
X46250000Y-64030000D02*
X43590000Y-64030000D01*
%TO.C,J4*%
X56410000Y-53810000D02*
X53750000Y-53810000D01*
X56410000Y-53810000D02*
X56410000Y-64030000D01*
X53750000Y-53810000D02*
X53750000Y-64030000D01*
X56410000Y-51210000D02*
X55080000Y-51210000D01*
X56410000Y-64030000D02*
X53750000Y-64030000D01*
X56410000Y-52540000D02*
X56410000Y-51210000D01*
%TO.C,J2*%
X74130000Y-55080000D02*
X71530000Y-55080000D01*
X74130000Y-52480000D02*
X76730000Y-52480000D01*
X74130000Y-52480000D02*
X74130000Y-55080000D01*
X71530000Y-55080000D02*
X71530000Y-57680000D01*
X76730000Y-52480000D02*
X76730000Y-57680000D01*
X71530000Y-52480000D02*
X71530000Y-53810000D01*
X71530000Y-57680000D02*
X76730000Y-57680000D01*
X72860000Y-52480000D02*
X71530000Y-52480000D01*
%TO.C,J1*%
X25870000Y-55080000D02*
X23270000Y-55080000D01*
X28470000Y-52480000D02*
X28470000Y-57680000D01*
X25870000Y-52480000D02*
X28470000Y-52480000D01*
X25870000Y-52480000D02*
X25870000Y-55080000D01*
X24600000Y-52480000D02*
X23270000Y-52480000D01*
X23270000Y-52480000D02*
X23270000Y-53810000D01*
X23270000Y-55080000D02*
X23270000Y-57680000D01*
X23270000Y-57680000D02*
X28470000Y-57680000D01*
%TD*%
M02*
