%TF.GenerationSoftware,KiCad,Pcbnew,(6.0.2)*%
%TF.CreationDate,2022-06-08T20:40:01+01:00*%
%TF.ProjectId,mcp_breadboard,6d63705f-6272-4656-9164-626f6172642e,rev?*%
%TF.SameCoordinates,Original*%
%TF.FileFunction,Legend,Bot*%
%TF.FilePolarity,Positive*%
%FSLAX46Y46*%
G04 Gerber Fmt 4.6, Leading zero omitted, Abs format (unit mm)*
G04 Created by KiCad (PCBNEW (6.0.2)) date 2022-06-08 20:40:01*
%MOMM*%
%LPD*%
G01*
G04 APERTURE LIST*
%ADD10C,0.150000*%
%ADD11C,0.120000*%
G04 APERTURE END LIST*
D10*
X59367142Y-35732380D02*
X59367142Y-34732380D01*
X59033809Y-35446666D01*
X58700476Y-34732380D01*
X58700476Y-35732380D01*
X57652857Y-35637142D02*
X57700476Y-35684761D01*
X57843333Y-35732380D01*
X57938571Y-35732380D01*
X58081428Y-35684761D01*
X58176666Y-35589523D01*
X58224285Y-35494285D01*
X58271904Y-35303809D01*
X58271904Y-35160952D01*
X58224285Y-34970476D01*
X58176666Y-34875238D01*
X58081428Y-34780000D01*
X57938571Y-34732380D01*
X57843333Y-34732380D01*
X57700476Y-34780000D01*
X57652857Y-34827619D01*
X57224285Y-35732380D02*
X57224285Y-34732380D01*
X56843333Y-34732380D01*
X56748095Y-34780000D01*
X56700476Y-34827619D01*
X56652857Y-34922857D01*
X56652857Y-35065714D01*
X56700476Y-35160952D01*
X56748095Y-35208571D01*
X56843333Y-35256190D01*
X57224285Y-35256190D01*
X56271904Y-34827619D02*
X56224285Y-34780000D01*
X56129047Y-34732380D01*
X55890952Y-34732380D01*
X55795714Y-34780000D01*
X55748095Y-34827619D01*
X55700476Y-34922857D01*
X55700476Y-35018095D01*
X55748095Y-35160952D01*
X56319523Y-35732380D01*
X55700476Y-35732380D01*
X55319523Y-34827619D02*
X55271904Y-34780000D01*
X55176666Y-34732380D01*
X54938571Y-34732380D01*
X54843333Y-34780000D01*
X54795714Y-34827619D01*
X54748095Y-34922857D01*
X54748095Y-35018095D01*
X54795714Y-35160952D01*
X55367142Y-35732380D01*
X54748095Y-35732380D01*
X54367142Y-34827619D02*
X54319523Y-34780000D01*
X54224285Y-34732380D01*
X53986190Y-34732380D01*
X53890952Y-34780000D01*
X53843333Y-34827619D01*
X53795714Y-34922857D01*
X53795714Y-35018095D01*
X53843333Y-35160952D01*
X54414761Y-35732380D01*
X53795714Y-35732380D01*
X52843333Y-35732380D02*
X53414761Y-35732380D01*
X53129047Y-35732380D02*
X53129047Y-34732380D01*
X53224285Y-34875238D01*
X53319523Y-34970476D01*
X53414761Y-35018095D01*
X52462380Y-35446666D02*
X51986190Y-35446666D01*
X52557619Y-35732380D02*
X52224285Y-34732380D01*
X51890952Y-35732380D01*
X50795714Y-35732380D02*
X50795714Y-34732380D01*
X50414761Y-34732380D01*
X50319523Y-34780000D01*
X50271904Y-34827619D01*
X50224285Y-34922857D01*
X50224285Y-35065714D01*
X50271904Y-35160952D01*
X50319523Y-35208571D01*
X50414761Y-35256190D01*
X50795714Y-35256190D01*
X49795714Y-35732380D02*
X49795714Y-35065714D01*
X49795714Y-35256190D02*
X49748095Y-35160952D01*
X49700476Y-35113333D01*
X49605238Y-35065714D01*
X49510000Y-35065714D01*
X49033809Y-35732380D02*
X49129047Y-35684761D01*
X49176666Y-35637142D01*
X49224285Y-35541904D01*
X49224285Y-35256190D01*
X49176666Y-35160952D01*
X49129047Y-35113333D01*
X49033809Y-35065714D01*
X48890952Y-35065714D01*
X48795714Y-35113333D01*
X48748095Y-35160952D01*
X48700476Y-35256190D01*
X48700476Y-35541904D01*
X48748095Y-35637142D01*
X48795714Y-35684761D01*
X48890952Y-35732380D01*
X49033809Y-35732380D01*
X48414761Y-35065714D02*
X48033809Y-35065714D01*
X48271904Y-34732380D02*
X48271904Y-35589523D01*
X48224285Y-35684761D01*
X48129047Y-35732380D01*
X48033809Y-35732380D01*
X47557619Y-35732380D02*
X47652857Y-35684761D01*
X47700476Y-35637142D01*
X47748095Y-35541904D01*
X47748095Y-35256190D01*
X47700476Y-35160952D01*
X47652857Y-35113333D01*
X47557619Y-35065714D01*
X47414761Y-35065714D01*
X47319523Y-35113333D01*
X47271904Y-35160952D01*
X47224285Y-35256190D01*
X47224285Y-35541904D01*
X47271904Y-35637142D01*
X47319523Y-35684761D01*
X47414761Y-35732380D01*
X47557619Y-35732380D01*
X46938571Y-35065714D02*
X46557619Y-35065714D01*
X46795714Y-34732380D02*
X46795714Y-35589523D01*
X46748095Y-35684761D01*
X46652857Y-35732380D01*
X46557619Y-35732380D01*
X46319523Y-35065714D02*
X46081428Y-35732380D01*
X45843333Y-35065714D02*
X46081428Y-35732380D01*
X46176666Y-35970476D01*
X46224285Y-36018095D01*
X46319523Y-36065714D01*
X45462380Y-35065714D02*
X45462380Y-36065714D01*
X45462380Y-35113333D02*
X45367142Y-35065714D01*
X45176666Y-35065714D01*
X45081428Y-35113333D01*
X45033809Y-35160952D01*
X44986190Y-35256190D01*
X44986190Y-35541904D01*
X45033809Y-35637142D01*
X45081428Y-35684761D01*
X45176666Y-35732380D01*
X45367142Y-35732380D01*
X45462380Y-35684761D01*
X44557619Y-35732380D02*
X44557619Y-35065714D01*
X44557619Y-34732380D02*
X44605238Y-34780000D01*
X44557619Y-34827619D01*
X44510000Y-34780000D01*
X44557619Y-34732380D01*
X44557619Y-34827619D01*
X44081428Y-35065714D02*
X44081428Y-35732380D01*
X44081428Y-35160952D02*
X44033809Y-35113333D01*
X43938571Y-35065714D01*
X43795714Y-35065714D01*
X43700476Y-35113333D01*
X43652857Y-35208571D01*
X43652857Y-35732380D01*
X42748095Y-35065714D02*
X42748095Y-35875238D01*
X42795714Y-35970476D01*
X42843333Y-36018095D01*
X42938571Y-36065714D01*
X43081428Y-36065714D01*
X43176666Y-36018095D01*
X42748095Y-35684761D02*
X42843333Y-35732380D01*
X43033809Y-35732380D01*
X43129047Y-35684761D01*
X43176666Y-35637142D01*
X43224285Y-35541904D01*
X43224285Y-35256190D01*
X43176666Y-35160952D01*
X43129047Y-35113333D01*
X43033809Y-35065714D01*
X42843333Y-35065714D01*
X42748095Y-35113333D01*
X41176666Y-35208571D02*
X41033809Y-35256190D01*
X40986190Y-35303809D01*
X40938571Y-35399047D01*
X40938571Y-35541904D01*
X40986190Y-35637142D01*
X41033809Y-35684761D01*
X41129047Y-35732380D01*
X41510000Y-35732380D01*
X41510000Y-34732380D01*
X41176666Y-34732380D01*
X41081428Y-34780000D01*
X41033809Y-34827619D01*
X40986190Y-34922857D01*
X40986190Y-35018095D01*
X41033809Y-35113333D01*
X41081428Y-35160952D01*
X41176666Y-35208571D01*
X41510000Y-35208571D01*
X40367142Y-35732380D02*
X40462380Y-35684761D01*
X40510000Y-35637142D01*
X40557619Y-35541904D01*
X40557619Y-35256190D01*
X40510000Y-35160952D01*
X40462380Y-35113333D01*
X40367142Y-35065714D01*
X40224285Y-35065714D01*
X40129047Y-35113333D01*
X40081428Y-35160952D01*
X40033809Y-35256190D01*
X40033809Y-35541904D01*
X40081428Y-35637142D01*
X40129047Y-35684761D01*
X40224285Y-35732380D01*
X40367142Y-35732380D01*
X39176666Y-35732380D02*
X39176666Y-35208571D01*
X39224285Y-35113333D01*
X39319523Y-35065714D01*
X39510000Y-35065714D01*
X39605238Y-35113333D01*
X39176666Y-35684761D02*
X39271904Y-35732380D01*
X39510000Y-35732380D01*
X39605238Y-35684761D01*
X39652857Y-35589523D01*
X39652857Y-35494285D01*
X39605238Y-35399047D01*
X39510000Y-35351428D01*
X39271904Y-35351428D01*
X39176666Y-35303809D01*
X38700476Y-35732380D02*
X38700476Y-35065714D01*
X38700476Y-35256190D02*
X38652857Y-35160952D01*
X38605238Y-35113333D01*
X38510000Y-35065714D01*
X38414761Y-35065714D01*
X37652857Y-35732380D02*
X37652857Y-34732380D01*
X37652857Y-35684761D02*
X37748095Y-35732380D01*
X37938571Y-35732380D01*
X38033809Y-35684761D01*
X38081428Y-35637142D01*
X38129047Y-35541904D01*
X38129047Y-35256190D01*
X38081428Y-35160952D01*
X38033809Y-35113333D01*
X37938571Y-35065714D01*
X37748095Y-35065714D01*
X37652857Y-35113333D01*
X49486190Y-37342380D02*
X49819523Y-36866190D01*
X50057619Y-37342380D02*
X50057619Y-36342380D01*
X49676666Y-36342380D01*
X49581428Y-36390000D01*
X49533809Y-36437619D01*
X49486190Y-36532857D01*
X49486190Y-36675714D01*
X49533809Y-36770952D01*
X49581428Y-36818571D01*
X49676666Y-36866190D01*
X50057619Y-36866190D01*
X48676666Y-37294761D02*
X48771904Y-37342380D01*
X48962380Y-37342380D01*
X49057619Y-37294761D01*
X49105238Y-37199523D01*
X49105238Y-36818571D01*
X49057619Y-36723333D01*
X48962380Y-36675714D01*
X48771904Y-36675714D01*
X48676666Y-36723333D01*
X48629047Y-36818571D01*
X48629047Y-36913809D01*
X49105238Y-37009047D01*
X48295714Y-36675714D02*
X48057619Y-37342380D01*
X47819523Y-36675714D01*
X46914761Y-37342380D02*
X47486190Y-37342380D01*
X47200476Y-37342380D02*
X47200476Y-36342380D01*
X47295714Y-36485238D01*
X47390952Y-36580476D01*
X47486190Y-36628095D01*
X55010000Y-37952380D02*
X54438571Y-37952380D01*
X54724285Y-38952380D02*
X54724285Y-37952380D01*
X54105238Y-38952380D02*
X54105238Y-37952380D01*
X53676666Y-38952380D02*
X53676666Y-38428571D01*
X53724285Y-38333333D01*
X53819523Y-38285714D01*
X53962380Y-38285714D01*
X54057619Y-38333333D01*
X54105238Y-38380952D01*
X53057619Y-38952380D02*
X53152857Y-38904761D01*
X53200476Y-38857142D01*
X53248095Y-38761904D01*
X53248095Y-38476190D01*
X53200476Y-38380952D01*
X53152857Y-38333333D01*
X53057619Y-38285714D01*
X52914761Y-38285714D01*
X52819523Y-38333333D01*
X52771904Y-38380952D01*
X52724285Y-38476190D01*
X52724285Y-38761904D01*
X52771904Y-38857142D01*
X52819523Y-38904761D01*
X52914761Y-38952380D01*
X53057619Y-38952380D01*
X52295714Y-38952380D02*
X52295714Y-38285714D01*
X52295714Y-38380952D02*
X52248095Y-38333333D01*
X52152857Y-38285714D01*
X52010000Y-38285714D01*
X51914761Y-38333333D01*
X51867142Y-38428571D01*
X51867142Y-38952380D01*
X51867142Y-38428571D02*
X51819523Y-38333333D01*
X51724285Y-38285714D01*
X51581428Y-38285714D01*
X51486190Y-38333333D01*
X51438571Y-38428571D01*
X51438571Y-38952380D01*
X50533809Y-38952380D02*
X50533809Y-38428571D01*
X50581428Y-38333333D01*
X50676666Y-38285714D01*
X50867142Y-38285714D01*
X50962380Y-38333333D01*
X50533809Y-38904761D02*
X50629047Y-38952380D01*
X50867142Y-38952380D01*
X50962380Y-38904761D01*
X51010000Y-38809523D01*
X51010000Y-38714285D01*
X50962380Y-38619047D01*
X50867142Y-38571428D01*
X50629047Y-38571428D01*
X50533809Y-38523809D01*
X50105238Y-38904761D02*
X50010000Y-38952380D01*
X49819523Y-38952380D01*
X49724285Y-38904761D01*
X49676666Y-38809523D01*
X49676666Y-38761904D01*
X49724285Y-38666666D01*
X49819523Y-38619047D01*
X49962380Y-38619047D01*
X50057619Y-38571428D01*
X50105238Y-38476190D01*
X50105238Y-38428571D01*
X50057619Y-38333333D01*
X49962380Y-38285714D01*
X49819523Y-38285714D01*
X49724285Y-38333333D01*
X48152857Y-38428571D02*
X48010000Y-38476190D01*
X47962380Y-38523809D01*
X47914761Y-38619047D01*
X47914761Y-38761904D01*
X47962380Y-38857142D01*
X48010000Y-38904761D01*
X48105238Y-38952380D01*
X48486190Y-38952380D01*
X48486190Y-37952380D01*
X48152857Y-37952380D01*
X48057619Y-38000000D01*
X48010000Y-38047619D01*
X47962380Y-38142857D01*
X47962380Y-38238095D01*
X48010000Y-38333333D01*
X48057619Y-38380952D01*
X48152857Y-38428571D01*
X48486190Y-38428571D01*
X47581428Y-38285714D02*
X47343333Y-38952380D01*
X47105238Y-38285714D02*
X47343333Y-38952380D01*
X47438571Y-39190476D01*
X47486190Y-39238095D01*
X47581428Y-39285714D01*
X46867142Y-38285714D02*
X46486190Y-38285714D01*
X46724285Y-37952380D02*
X46724285Y-38809523D01*
X46676666Y-38904761D01*
X46581428Y-38952380D01*
X46486190Y-38952380D01*
X46152857Y-38952380D02*
X46152857Y-37952380D01*
X45724285Y-38952380D02*
X45724285Y-38428571D01*
X45771904Y-38333333D01*
X45867142Y-38285714D01*
X46010000Y-38285714D01*
X46105238Y-38333333D01*
X46152857Y-38380952D01*
X44867142Y-38904761D02*
X44962380Y-38952380D01*
X45152857Y-38952380D01*
X45248095Y-38904761D01*
X45295714Y-38809523D01*
X45295714Y-38428571D01*
X45248095Y-38333333D01*
X45152857Y-38285714D01*
X44962380Y-38285714D01*
X44867142Y-38333333D01*
X44819523Y-38428571D01*
X44819523Y-38523809D01*
X45295714Y-38619047D01*
X44486190Y-38285714D02*
X44295714Y-38952380D01*
X44105238Y-38476190D01*
X43914761Y-38952380D01*
X43724285Y-38285714D01*
X42914761Y-38952380D02*
X42914761Y-38428571D01*
X42962380Y-38333333D01*
X43057619Y-38285714D01*
X43248095Y-38285714D01*
X43343333Y-38333333D01*
X42914761Y-38904761D02*
X43010000Y-38952380D01*
X43248095Y-38952380D01*
X43343333Y-38904761D01*
X43390952Y-38809523D01*
X43390952Y-38714285D01*
X43343333Y-38619047D01*
X43248095Y-38571428D01*
X43010000Y-38571428D01*
X42914761Y-38523809D01*
X42533809Y-38285714D02*
X42295714Y-38952380D01*
X42057619Y-38285714D02*
X42295714Y-38952380D01*
X42390952Y-39190476D01*
X42438571Y-39238095D01*
X42533809Y-39285714D01*
X62224285Y-39895714D02*
X62224285Y-40705238D01*
X62271904Y-40800476D01*
X62319523Y-40848095D01*
X62414761Y-40895714D01*
X62557619Y-40895714D01*
X62652857Y-40848095D01*
X62224285Y-40514761D02*
X62319523Y-40562380D01*
X62510000Y-40562380D01*
X62605238Y-40514761D01*
X62652857Y-40467142D01*
X62700476Y-40371904D01*
X62700476Y-40086190D01*
X62652857Y-39990952D01*
X62605238Y-39943333D01*
X62510000Y-39895714D01*
X62319523Y-39895714D01*
X62224285Y-39943333D01*
X61748095Y-40562380D02*
X61748095Y-39562380D01*
X61319523Y-40562380D02*
X61319523Y-40038571D01*
X61367142Y-39943333D01*
X61462380Y-39895714D01*
X61605238Y-39895714D01*
X61700476Y-39943333D01*
X61748095Y-39990952D01*
X60414761Y-39895714D02*
X60414761Y-40562380D01*
X60843333Y-39895714D02*
X60843333Y-40419523D01*
X60795714Y-40514761D01*
X60700476Y-40562380D01*
X60557619Y-40562380D01*
X60462380Y-40514761D01*
X60414761Y-40467142D01*
X59938571Y-40562380D02*
X59938571Y-39562380D01*
X59938571Y-39943333D02*
X59843333Y-39895714D01*
X59652857Y-39895714D01*
X59557619Y-39943333D01*
X59510000Y-39990952D01*
X59462380Y-40086190D01*
X59462380Y-40371904D01*
X59510000Y-40467142D01*
X59557619Y-40514761D01*
X59652857Y-40562380D01*
X59843333Y-40562380D01*
X59938571Y-40514761D01*
X59033809Y-40467142D02*
X58986190Y-40514761D01*
X59033809Y-40562380D01*
X59081428Y-40514761D01*
X59033809Y-40467142D01*
X59033809Y-40562380D01*
X59033809Y-39943333D02*
X58986190Y-39990952D01*
X59033809Y-40038571D01*
X59081428Y-39990952D01*
X59033809Y-39943333D01*
X59033809Y-40038571D01*
X58557619Y-40562380D02*
X58557619Y-39562380D01*
X58557619Y-40038571D02*
X57986190Y-40038571D01*
X57986190Y-40562380D02*
X57986190Y-39562380D01*
X57081428Y-40562380D02*
X57081428Y-40038571D01*
X57129047Y-39943333D01*
X57224285Y-39895714D01*
X57414761Y-39895714D01*
X57510000Y-39943333D01*
X57081428Y-40514761D02*
X57176666Y-40562380D01*
X57414761Y-40562380D01*
X57510000Y-40514761D01*
X57557619Y-40419523D01*
X57557619Y-40324285D01*
X57510000Y-40229047D01*
X57414761Y-40181428D01*
X57176666Y-40181428D01*
X57081428Y-40133809D01*
X56605238Y-40562380D02*
X56605238Y-39895714D01*
X56605238Y-40086190D02*
X56557619Y-39990952D01*
X56510000Y-39943333D01*
X56414761Y-39895714D01*
X56319523Y-39895714D01*
X55986190Y-40562380D02*
X55986190Y-39562380D01*
X55890952Y-40181428D02*
X55605238Y-40562380D01*
X55605238Y-39895714D02*
X55986190Y-40276666D01*
X55033809Y-40562380D02*
X55129047Y-40514761D01*
X55176666Y-40467142D01*
X55224285Y-40371904D01*
X55224285Y-40086190D01*
X55176666Y-39990952D01*
X55129047Y-39943333D01*
X55033809Y-39895714D01*
X54890952Y-39895714D01*
X54795714Y-39943333D01*
X54748095Y-39990952D01*
X54700476Y-40086190D01*
X54700476Y-40371904D01*
X54748095Y-40467142D01*
X54795714Y-40514761D01*
X54890952Y-40562380D01*
X55033809Y-40562380D01*
X54271904Y-39895714D02*
X54271904Y-40562380D01*
X54271904Y-39990952D02*
X54224285Y-39943333D01*
X54129047Y-39895714D01*
X53986190Y-39895714D01*
X53890952Y-39943333D01*
X53843333Y-40038571D01*
X53843333Y-40562380D01*
X52986190Y-40514761D02*
X53081428Y-40562380D01*
X53271904Y-40562380D01*
X53367142Y-40514761D01*
X53414761Y-40419523D01*
X53414761Y-40038571D01*
X53367142Y-39943333D01*
X53271904Y-39895714D01*
X53081428Y-39895714D01*
X52986190Y-39943333D01*
X52938571Y-40038571D01*
X52938571Y-40133809D01*
X53414761Y-40229047D01*
X52510000Y-39895714D02*
X52510000Y-40562380D01*
X52510000Y-39990952D02*
X52462380Y-39943333D01*
X52367142Y-39895714D01*
X52224285Y-39895714D01*
X52129047Y-39943333D01*
X52081428Y-40038571D01*
X52081428Y-40562380D01*
X51271904Y-40038571D02*
X51129047Y-40086190D01*
X51081428Y-40133809D01*
X51033809Y-40229047D01*
X51033809Y-40371904D01*
X51081428Y-40467142D01*
X51129047Y-40514761D01*
X51224285Y-40562380D01*
X51605238Y-40562380D01*
X51605238Y-39562380D01*
X51271904Y-39562380D01*
X51176666Y-39610000D01*
X51129047Y-39657619D01*
X51081428Y-39752857D01*
X51081428Y-39848095D01*
X51129047Y-39943333D01*
X51176666Y-39990952D01*
X51271904Y-40038571D01*
X51605238Y-40038571D01*
X50176666Y-40562380D02*
X50176666Y-40038571D01*
X50224285Y-39943333D01*
X50319523Y-39895714D01*
X50510000Y-39895714D01*
X50605238Y-39943333D01*
X50176666Y-40514761D02*
X50271904Y-40562380D01*
X50510000Y-40562380D01*
X50605238Y-40514761D01*
X50652857Y-40419523D01*
X50652857Y-40324285D01*
X50605238Y-40229047D01*
X50510000Y-40181428D01*
X50271904Y-40181428D01*
X50176666Y-40133809D01*
X49271904Y-40562380D02*
X49271904Y-39562380D01*
X49271904Y-40514761D02*
X49367142Y-40562380D01*
X49557619Y-40562380D01*
X49652857Y-40514761D01*
X49700476Y-40467142D01*
X49748095Y-40371904D01*
X49748095Y-40086190D01*
X49700476Y-39990952D01*
X49652857Y-39943333D01*
X49557619Y-39895714D01*
X49367142Y-39895714D01*
X49271904Y-39943333D01*
X48414761Y-40514761D02*
X48510000Y-40562380D01*
X48700476Y-40562380D01*
X48795714Y-40514761D01*
X48843333Y-40419523D01*
X48843333Y-40038571D01*
X48795714Y-39943333D01*
X48700476Y-39895714D01*
X48510000Y-39895714D01*
X48414761Y-39943333D01*
X48367142Y-40038571D01*
X48367142Y-40133809D01*
X48843333Y-40229047D01*
X47224285Y-39514761D02*
X48081428Y-40800476D01*
X46890952Y-40562380D02*
X46890952Y-39562380D01*
X46557619Y-40276666D01*
X46224285Y-39562380D01*
X46224285Y-40562380D01*
X45176666Y-40467142D02*
X45224285Y-40514761D01*
X45367142Y-40562380D01*
X45462380Y-40562380D01*
X45605238Y-40514761D01*
X45700476Y-40419523D01*
X45748095Y-40324285D01*
X45795714Y-40133809D01*
X45795714Y-39990952D01*
X45748095Y-39800476D01*
X45700476Y-39705238D01*
X45605238Y-39610000D01*
X45462380Y-39562380D01*
X45367142Y-39562380D01*
X45224285Y-39610000D01*
X45176666Y-39657619D01*
X44748095Y-40562380D02*
X44748095Y-39562380D01*
X44367142Y-39562380D01*
X44271904Y-39610000D01*
X44224285Y-39657619D01*
X44176666Y-39752857D01*
X44176666Y-39895714D01*
X44224285Y-39990952D01*
X44271904Y-40038571D01*
X44367142Y-40086190D01*
X44748095Y-40086190D01*
X43795714Y-39657619D02*
X43748095Y-39610000D01*
X43652857Y-39562380D01*
X43414761Y-39562380D01*
X43319523Y-39610000D01*
X43271904Y-39657619D01*
X43224285Y-39752857D01*
X43224285Y-39848095D01*
X43271904Y-39990952D01*
X43843333Y-40562380D01*
X43224285Y-40562380D01*
X42843333Y-39657619D02*
X42795714Y-39610000D01*
X42700476Y-39562380D01*
X42462380Y-39562380D01*
X42367142Y-39610000D01*
X42319523Y-39657619D01*
X42271904Y-39752857D01*
X42271904Y-39848095D01*
X42319523Y-39990952D01*
X42890952Y-40562380D01*
X42271904Y-40562380D01*
X41890952Y-39657619D02*
X41843333Y-39610000D01*
X41748095Y-39562380D01*
X41510000Y-39562380D01*
X41414761Y-39610000D01*
X41367142Y-39657619D01*
X41319523Y-39752857D01*
X41319523Y-39848095D01*
X41367142Y-39990952D01*
X41938571Y-40562380D01*
X41319523Y-40562380D01*
X40367142Y-40562380D02*
X40938571Y-40562380D01*
X40652857Y-40562380D02*
X40652857Y-39562380D01*
X40748095Y-39705238D01*
X40843333Y-39800476D01*
X40938571Y-39848095D01*
X39510000Y-40562380D02*
X39510000Y-40038571D01*
X39557619Y-39943333D01*
X39652857Y-39895714D01*
X39843333Y-39895714D01*
X39938571Y-39943333D01*
X39510000Y-40514761D02*
X39605238Y-40562380D01*
X39843333Y-40562380D01*
X39938571Y-40514761D01*
X39986190Y-40419523D01*
X39986190Y-40324285D01*
X39938571Y-40229047D01*
X39843333Y-40181428D01*
X39605238Y-40181428D01*
X39510000Y-40133809D01*
X39033809Y-40181428D02*
X38271904Y-40181428D01*
X37795714Y-39895714D02*
X37795714Y-40895714D01*
X37795714Y-39943333D02*
X37700476Y-39895714D01*
X37510000Y-39895714D01*
X37414761Y-39943333D01*
X37367142Y-39990952D01*
X37319523Y-40086190D01*
X37319523Y-40371904D01*
X37367142Y-40467142D01*
X37414761Y-40514761D01*
X37510000Y-40562380D01*
X37700476Y-40562380D01*
X37795714Y-40514761D01*
X36890952Y-40562380D02*
X36890952Y-39895714D01*
X36890952Y-40086190D02*
X36843333Y-39990952D01*
X36795714Y-39943333D01*
X36700476Y-39895714D01*
X36605238Y-39895714D01*
X36129047Y-40562380D02*
X36224285Y-40514761D01*
X36271904Y-40467142D01*
X36319523Y-40371904D01*
X36319523Y-40086190D01*
X36271904Y-39990952D01*
X36224285Y-39943333D01*
X36129047Y-39895714D01*
X35986190Y-39895714D01*
X35890952Y-39943333D01*
X35843333Y-39990952D01*
X35795714Y-40086190D01*
X35795714Y-40371904D01*
X35843333Y-40467142D01*
X35890952Y-40514761D01*
X35986190Y-40562380D01*
X36129047Y-40562380D01*
X35510000Y-39895714D02*
X35129047Y-39895714D01*
X35367142Y-39562380D02*
X35367142Y-40419523D01*
X35319523Y-40514761D01*
X35224285Y-40562380D01*
X35129047Y-40562380D01*
X34652857Y-40562380D02*
X34748095Y-40514761D01*
X34795714Y-40467142D01*
X34843333Y-40371904D01*
X34843333Y-40086190D01*
X34795714Y-39990952D01*
X34748095Y-39943333D01*
X34652857Y-39895714D01*
X34510000Y-39895714D01*
X34414761Y-39943333D01*
X34367142Y-39990952D01*
X34319523Y-40086190D01*
X34319523Y-40371904D01*
X34367142Y-40467142D01*
X34414761Y-40514761D01*
X34510000Y-40562380D01*
X34652857Y-40562380D01*
X53367142Y-41267619D02*
X53319523Y-41220000D01*
X53224285Y-41172380D01*
X52986190Y-41172380D01*
X52890952Y-41220000D01*
X52843333Y-41267619D01*
X52795714Y-41362857D01*
X52795714Y-41458095D01*
X52843333Y-41600952D01*
X53414761Y-42172380D01*
X52795714Y-42172380D01*
X52176666Y-41172380D02*
X52081428Y-41172380D01*
X51986190Y-41220000D01*
X51938571Y-41267619D01*
X51890952Y-41362857D01*
X51843333Y-41553333D01*
X51843333Y-41791428D01*
X51890952Y-41981904D01*
X51938571Y-42077142D01*
X51986190Y-42124761D01*
X52081428Y-42172380D01*
X52176666Y-42172380D01*
X52271904Y-42124761D01*
X52319523Y-42077142D01*
X52367142Y-41981904D01*
X52414761Y-41791428D01*
X52414761Y-41553333D01*
X52367142Y-41362857D01*
X52319523Y-41267619D01*
X52271904Y-41220000D01*
X52176666Y-41172380D01*
X51462380Y-41267619D02*
X51414761Y-41220000D01*
X51319523Y-41172380D01*
X51081428Y-41172380D01*
X50986190Y-41220000D01*
X50938571Y-41267619D01*
X50890952Y-41362857D01*
X50890952Y-41458095D01*
X50938571Y-41600952D01*
X51510000Y-42172380D01*
X50890952Y-42172380D01*
X50510000Y-41267619D02*
X50462380Y-41220000D01*
X50367142Y-41172380D01*
X50129047Y-41172380D01*
X50033809Y-41220000D01*
X49986190Y-41267619D01*
X49938571Y-41362857D01*
X49938571Y-41458095D01*
X49986190Y-41600952D01*
X50557619Y-42172380D01*
X49938571Y-42172380D01*
X49510000Y-41791428D02*
X48748095Y-41791428D01*
X48081428Y-41172380D02*
X47986190Y-41172380D01*
X47890952Y-41220000D01*
X47843333Y-41267619D01*
X47795714Y-41362857D01*
X47748095Y-41553333D01*
X47748095Y-41791428D01*
X47795714Y-41981904D01*
X47843333Y-42077142D01*
X47890952Y-42124761D01*
X47986190Y-42172380D01*
X48081428Y-42172380D01*
X48176666Y-42124761D01*
X48224285Y-42077142D01*
X48271904Y-41981904D01*
X48319523Y-41791428D01*
X48319523Y-41553333D01*
X48271904Y-41362857D01*
X48224285Y-41267619D01*
X48176666Y-41220000D01*
X48081428Y-41172380D01*
X46843333Y-41172380D02*
X47319523Y-41172380D01*
X47367142Y-41648571D01*
X47319523Y-41600952D01*
X47224285Y-41553333D01*
X46986190Y-41553333D01*
X46890952Y-41600952D01*
X46843333Y-41648571D01*
X46795714Y-41743809D01*
X46795714Y-41981904D01*
X46843333Y-42077142D01*
X46890952Y-42124761D01*
X46986190Y-42172380D01*
X47224285Y-42172380D01*
X47319523Y-42124761D01*
X47367142Y-42077142D01*
X46367142Y-41791428D02*
X45605238Y-41791428D01*
X44605238Y-42172380D02*
X45176666Y-42172380D01*
X44890952Y-42172380D02*
X44890952Y-41172380D01*
X44986190Y-41315238D01*
X45081428Y-41410476D01*
X45176666Y-41458095D01*
X43748095Y-41505714D02*
X43748095Y-42172380D01*
X43986190Y-41124761D02*
X44224285Y-41839047D01*
X43605238Y-41839047D01*
D11*
%TO.C,J3*%
X45780000Y-62280000D02*
X43120000Y-62280000D01*
X45780000Y-50790000D02*
X45780000Y-49460000D01*
X45780000Y-52060000D02*
X45780000Y-62280000D01*
X43120000Y-52060000D02*
X43120000Y-62280000D01*
X45780000Y-52060000D02*
X43120000Y-52060000D01*
X45780000Y-49460000D02*
X44450000Y-49460000D01*
%TO.C,J4*%
X53400000Y-50790000D02*
X53400000Y-49460000D01*
X53400000Y-62280000D02*
X50740000Y-62280000D01*
X53400000Y-49460000D02*
X52070000Y-49460000D01*
X50740000Y-52060000D02*
X50740000Y-62280000D01*
X53400000Y-52060000D02*
X53400000Y-62280000D01*
X53400000Y-52060000D02*
X50740000Y-52060000D01*
%TO.C,J2*%
X68580000Y-50730000D02*
X67250000Y-50730000D01*
X67250000Y-55930000D02*
X72450000Y-55930000D01*
X67250000Y-50730000D02*
X67250000Y-52060000D01*
X72450000Y-50730000D02*
X72450000Y-55930000D01*
X67250000Y-53330000D02*
X67250000Y-55930000D01*
X69850000Y-50730000D02*
X69850000Y-53330000D01*
X69850000Y-50730000D02*
X72450000Y-50730000D01*
X69850000Y-53330000D02*
X67250000Y-53330000D01*
%TO.C,J1*%
X24070000Y-55930000D02*
X29270000Y-55930000D01*
X24070000Y-53330000D02*
X24070000Y-55930000D01*
X24070000Y-50730000D02*
X24070000Y-52060000D01*
X25400000Y-50730000D02*
X24070000Y-50730000D01*
X26670000Y-50730000D02*
X26670000Y-53330000D01*
X26670000Y-50730000D02*
X29270000Y-50730000D01*
X29270000Y-50730000D02*
X29270000Y-55930000D01*
X26670000Y-53330000D02*
X24070000Y-53330000D01*
%TD*%
M02*
