%TF.GenerationSoftware,KiCad,Pcbnew,(6.0.2)*%
%TF.CreationDate,2022-05-16T10:18:48+01:00*%
%TF.ProjectId,mcp_breadboard,6d63705f-6272-4656-9164-626f6172642e,rev?*%
%TF.SameCoordinates,Original*%
%TF.FileFunction,Soldermask,Top*%
%TF.FilePolarity,Negative*%
%FSLAX46Y46*%
G04 Gerber Fmt 4.6, Leading zero omitted, Abs format (unit mm)*
G04 Created by KiCad (PCBNEW (6.0.2)) date 2022-05-16 10:18:48*
%MOMM*%
%LPD*%
G01*
G04 APERTURE LIST*
G04 Aperture macros list*
%AMRoundRect*
0 Rectangle with rounded corners*
0 $1 Rounding radius*
0 $2 $3 $4 $5 $6 $7 $8 $9 X,Y pos of 4 corners*
0 Add a 4 corners polygon primitive as box body*
4,1,4,$2,$3,$4,$5,$6,$7,$8,$9,$2,$3,0*
0 Add four circle primitives for the rounded corners*
1,1,$1+$1,$2,$3*
1,1,$1+$1,$4,$5*
1,1,$1+$1,$6,$7*
1,1,$1+$1,$8,$9*
0 Add four rect primitives between the rounded corners*
20,1,$1+$1,$2,$3,$4,$5,0*
20,1,$1+$1,$4,$5,$6,$7,0*
20,1,$1+$1,$6,$7,$8,$9,0*
20,1,$1+$1,$8,$9,$2,$3,0*%
G04 Aperture macros list end*
%ADD10RoundRect,0.250000X0.475000X-0.250000X0.475000X0.250000X-0.475000X0.250000X-0.475000X-0.250000X0*%
%ADD11RoundRect,0.200000X-0.200000X-0.275000X0.200000X-0.275000X0.200000X0.275000X-0.200000X0.275000X0*%
%ADD12RoundRect,0.243750X0.456250X-0.243750X0.456250X0.243750X-0.456250X0.243750X-0.456250X-0.243750X0*%
%ADD13R,1.500000X2.000000*%
%ADD14R,3.800000X2.000000*%
%ADD15C,3.200000*%
%ADD16R,0.400000X0.510000*%
%ADD17R,0.400000X1.350000*%
%ADD18C,1.450000*%
%ADD19O,1.200000X1.900000*%
%ADD20R,1.200000X1.900000*%
%ADD21R,1.500000X1.900000*%
%ADD22R,1.700000X1.700000*%
%ADD23O,1.700000X1.700000*%
%ADD24R,1.550000X1.300000*%
%ADD25RoundRect,0.150000X-0.825000X-0.150000X0.825000X-0.150000X0.825000X0.150000X-0.825000X0.150000X0*%
%ADD26RoundRect,0.225000X0.225000X0.250000X-0.225000X0.250000X-0.225000X-0.250000X0.225000X-0.250000X0*%
%ADD27RoundRect,0.243750X-0.456250X0.243750X-0.456250X-0.243750X0.456250X-0.243750X0.456250X0.243750X0*%
%ADD28RoundRect,0.225000X-0.225000X-0.250000X0.225000X-0.250000X0.225000X0.250000X-0.225000X0.250000X0*%
%ADD29R,1.120000X2.440000*%
%ADD30RoundRect,0.200000X-0.275000X0.200000X-0.275000X-0.200000X0.275000X-0.200000X0.275000X0.200000X0*%
%ADD31R,0.800000X0.500000*%
%ADD32R,0.800000X0.400000*%
G04 APERTURE END LIST*
D10*
%TO.C,C4*%
X68600000Y-36450000D03*
X68600000Y-34550000D03*
%TD*%
D11*
%TO.C,R2*%
X54425000Y-45650000D03*
X56075000Y-45650000D03*
%TD*%
D12*
%TO.C,D3*%
X35500000Y-32677500D03*
X35500000Y-30802500D03*
%TD*%
D13*
%TO.C,U2*%
X61710000Y-36440000D03*
D14*
X64010000Y-30140000D03*
D13*
X64010000Y-36440000D03*
X66310000Y-36440000D03*
%TD*%
D11*
%TO.C,R3*%
X54425000Y-44150000D03*
X56075000Y-44150000D03*
%TD*%
D15*
%TO.C,H1*%
X27000000Y-45000000D03*
%TD*%
%TO.C,H4*%
X73000000Y-45000000D03*
%TD*%
D12*
%TO.C,D4*%
X32500000Y-32677500D03*
X32500000Y-30802500D03*
%TD*%
D10*
%TO.C,C3*%
X59400000Y-36450000D03*
X59400000Y-34550000D03*
%TD*%
D16*
%TO.C,D6*%
X49831000Y-35307351D03*
X50831000Y-35307351D03*
X50331000Y-34017351D03*
%TD*%
D17*
%TO.C,J5*%
X51300000Y-32462500D03*
X50650000Y-32462500D03*
X50000000Y-32462500D03*
X49350000Y-32462500D03*
X48700000Y-32462500D03*
D18*
X47500000Y-32462500D03*
X52500000Y-32462500D03*
D19*
X46500000Y-29762500D03*
D20*
X47100000Y-29762500D03*
D19*
X53500000Y-29762500D03*
D21*
X49000000Y-29762500D03*
D20*
X52900000Y-29762500D03*
D21*
X51000000Y-29762500D03*
%TD*%
D22*
%TO.C,SW3*%
X61460000Y-39500000D03*
D23*
X64000000Y-39500000D03*
X66540000Y-39500000D03*
%TD*%
D12*
%TO.C,D1*%
X41500000Y-32677500D03*
X41500000Y-30802500D03*
%TD*%
D24*
%TO.C,SW1*%
X67975000Y-42750000D03*
X60025000Y-42750000D03*
X67975000Y-47250000D03*
X60025000Y-47250000D03*
%TD*%
D25*
%TO.C,U1*%
X47525000Y-40440000D03*
X47525000Y-41710000D03*
X47525000Y-42980000D03*
X47525000Y-44250000D03*
X47525000Y-45520000D03*
X47525000Y-46790000D03*
X47525000Y-48060000D03*
X52475000Y-48060000D03*
X52475000Y-46790000D03*
X52475000Y-45520000D03*
X52475000Y-44250000D03*
X52475000Y-42980000D03*
X52475000Y-41710000D03*
X52475000Y-40440000D03*
%TD*%
D26*
%TO.C,C1*%
X45525000Y-40450000D03*
X43975000Y-40450000D03*
%TD*%
D15*
%TO.C,H2*%
X27000000Y-32000000D03*
%TD*%
D27*
%TO.C,D5*%
X57000000Y-31312500D03*
X57000000Y-33187500D03*
%TD*%
D15*
%TO.C,H3*%
X72860000Y-32220000D03*
%TD*%
D12*
%TO.C,D2*%
X38500000Y-32677500D03*
X38500000Y-30802500D03*
%TD*%
D28*
%TO.C,C2*%
X54475000Y-42650000D03*
X56025000Y-42650000D03*
%TD*%
D29*
%TO.C,SW2*%
X40810000Y-35695000D03*
X38270000Y-35695000D03*
X35730000Y-35695000D03*
X33190000Y-35695000D03*
X33190000Y-44305000D03*
X35730000Y-44305000D03*
X38270000Y-44305000D03*
X40810000Y-44305000D03*
%TD*%
D30*
%TO.C,R4*%
X57000000Y-34675000D03*
X57000000Y-36325000D03*
%TD*%
D11*
%TO.C,R1*%
X54425000Y-47150000D03*
X56075000Y-47150000D03*
%TD*%
D31*
%TO.C,RN1*%
X41450000Y-46675000D03*
D32*
X41450000Y-47475000D03*
X41450000Y-48275000D03*
D31*
X41450000Y-49075000D03*
X43250000Y-49075000D03*
D32*
X43250000Y-48275000D03*
X43250000Y-47475000D03*
D31*
X43250000Y-46675000D03*
%TD*%
D22*
%TO.C,J3*%
X44920000Y-52540000D03*
D23*
X44920000Y-55080000D03*
X44920000Y-57620000D03*
X44920000Y-60160000D03*
X44920000Y-62700000D03*
%TD*%
D22*
%TO.C,J4*%
X55080000Y-52540000D03*
D23*
X55080000Y-55080000D03*
X55080000Y-57620000D03*
X55080000Y-60160000D03*
X55080000Y-62700000D03*
%TD*%
D22*
%TO.C,J2*%
X72860000Y-53810000D03*
D23*
X72860000Y-56350000D03*
X75400000Y-53810000D03*
X75400000Y-56350000D03*
%TD*%
D22*
%TO.C,J1*%
X24600000Y-53810000D03*
D23*
X24600000Y-56350000D03*
X27140000Y-53810000D03*
X27140000Y-56350000D03*
%TD*%
M02*
