%TF.GenerationSoftware,KiCad,Pcbnew,(6.0.2)*%
%TF.CreationDate,2022-05-18T10:00:36+01:00*%
%TF.ProjectId,mcp_breadboard,6d63705f-6272-4656-9164-626f6172642e,rev?*%
%TF.SameCoordinates,Original*%
%TF.FileFunction,Copper,L2,Bot*%
%TF.FilePolarity,Positive*%
%FSLAX46Y46*%
G04 Gerber Fmt 4.6, Leading zero omitted, Abs format (unit mm)*
G04 Created by KiCad (PCBNEW (6.0.2)) date 2022-05-18 10:00:36*
%MOMM*%
%LPD*%
G01*
G04 APERTURE LIST*
%TA.AperFunction,ComponentPad*%
%ADD10R,1.700000X1.700000*%
%TD*%
%TA.AperFunction,ComponentPad*%
%ADD11O,1.700000X1.700000*%
%TD*%
%TA.AperFunction,ComponentPad*%
%ADD12C,1.450000*%
%TD*%
%TA.AperFunction,ComponentPad*%
%ADD13O,1.200000X1.900000*%
%TD*%
%TA.AperFunction,ViaPad*%
%ADD14C,0.600000*%
%TD*%
%TA.AperFunction,Conductor*%
%ADD15C,0.250000*%
%TD*%
%TA.AperFunction,Conductor*%
%ADD16C,0.400000*%
%TD*%
%TA.AperFunction,Conductor*%
%ADD17C,0.200000*%
%TD*%
G04 APERTURE END LIST*
D10*
%TO.P,SW3,1,A*%
%TO.N,+5V*%
X61460000Y-39500000D03*
D11*
%TO.P,SW3,2,B*%
%TO.N,VDD*%
X64000000Y-39500000D03*
%TO.P,SW3,3,C*%
%TO.N,+3V3*%
X66540000Y-39500000D03*
%TD*%
D12*
%TO.P,J5,6,Shield*%
%TO.N,unconnected-(J5-Pad6)*%
X47500000Y-32462500D03*
X52500000Y-32462500D03*
D13*
X46500000Y-29762500D03*
X53500000Y-29762500D03*
%TD*%
D10*
%TO.P,J3,1,Pin_1*%
%TO.N,+5V*%
X44920000Y-52540000D03*
D11*
%TO.P,J3,2,Pin_2*%
%TO.N,G0*%
X44920000Y-55080000D03*
%TO.P,J3,3,Pin_3*%
%TO.N,G1*%
X44920000Y-57620000D03*
%TO.P,J3,4,Pin_4*%
%TO.N,G2*%
X44920000Y-60160000D03*
%TO.P,J3,5,Pin_5*%
%TO.N,G3*%
X44920000Y-62700000D03*
%TD*%
D10*
%TO.P,J4,1,Pin_1*%
%TO.N,+3V3*%
X55080000Y-52540000D03*
D11*
%TO.P,J4,2,Pin_2*%
%TO.N,SCL*%
X55080000Y-55080000D03*
%TO.P,J4,3,Pin_3*%
%TO.N,SDA*%
X55080000Y-57620000D03*
%TO.P,J4,4,Pin_4*%
%TO.N,Rx*%
X55080000Y-60160000D03*
%TO.P,J4,5,Pin_5*%
%TO.N,Tx*%
X55080000Y-62700000D03*
%TD*%
D10*
%TO.P,J2,1,Pin_1*%
%TO.N,VDD*%
X72860000Y-53810000D03*
D11*
%TO.P,J2,2,Pin_2*%
X72860000Y-56350000D03*
%TO.P,J2,3,Pin_3*%
%TO.N,GND*%
X75400000Y-53810000D03*
%TO.P,J2,4,Pin_4*%
X75400000Y-56350000D03*
%TD*%
D10*
%TO.P,J1,1,Pin_1*%
%TO.N,VDD*%
X24600000Y-53810000D03*
D11*
%TO.P,J1,2,Pin_2*%
X24600000Y-56350000D03*
%TO.P,J1,3,Pin_3*%
%TO.N,GND*%
X27140000Y-53810000D03*
%TO.P,J1,4,Pin_4*%
X27140000Y-56350000D03*
%TD*%
D14*
%TO.N,Net-(R3-Pad1)*%
X55250000Y-44900000D03*
%TO.N,G1*%
X46270000Y-42980000D03*
%TO.N,GND*%
X67550000Y-34550000D03*
X64450000Y-37750000D03*
X64510000Y-35140000D03*
X60000000Y-42750000D03*
X48700000Y-33440000D03*
X53700000Y-40500000D03*
X65600000Y-30850000D03*
X58350000Y-34550000D03*
X69650000Y-34550000D03*
X57000000Y-32077000D03*
X62400000Y-29450000D03*
X63510000Y-35140000D03*
X56800000Y-44150000D03*
X43200000Y-40450000D03*
X63550000Y-37750000D03*
X62400000Y-30850000D03*
X64000000Y-29450000D03*
X68000000Y-42750000D03*
X60450000Y-34550000D03*
X65600000Y-29450000D03*
X50330500Y-34565000D03*
X64000000Y-30850000D03*
%TO.N,G1*%
X45500000Y-47500000D03*
X43953019Y-47492989D03*
%TO.N,G2*%
X46250000Y-48300000D03*
X43950000Y-48300000D03*
%TO.N,G3*%
X43950000Y-49100000D03*
X47000000Y-49100000D03*
X51200000Y-48000000D03*
X49200000Y-48000000D03*
%TO.N,Net-(R3-Pad1)*%
X58950000Y-47250000D03*
%TO.N,D-*%
X51000000Y-43000000D03*
X50850000Y-36015000D03*
%TO.N,D+*%
X49825000Y-36015000D03*
X50250000Y-41750000D03*
%TD*%
D15*
%TO.N,Net-(R3-Pad1)*%
X57600000Y-47250000D02*
X55250000Y-44900000D01*
X58950000Y-47250000D02*
X57600000Y-47250000D01*
%TO.N,G1*%
X45770000Y-42980000D02*
X45500000Y-43250000D01*
X46270000Y-42980000D02*
X45770000Y-42980000D01*
X45500000Y-43250000D02*
X45500000Y-47500000D01*
D16*
%TO.N,+5V*%
X56320000Y-48490000D02*
X52270000Y-52540000D01*
X61460000Y-39500000D02*
X61460000Y-41270000D01*
X62320000Y-48490000D02*
X56320000Y-48490000D01*
X63570000Y-47240000D02*
X62320000Y-48490000D01*
X61460000Y-41270000D02*
X63570000Y-43380000D01*
X63570000Y-43390000D02*
X63570000Y-47240000D01*
X52270000Y-52540000D02*
X44920000Y-52540000D01*
%TO.N,+3V3*%
X64320000Y-43390000D02*
X64320000Y-47740000D01*
X66540000Y-39500000D02*
X66540000Y-41160000D01*
X55080000Y-50980000D02*
X55080000Y-52540000D01*
X56820000Y-49240000D02*
X55080000Y-50980000D01*
X64320000Y-47740000D02*
X62820000Y-49240000D01*
X62820000Y-49240000D02*
X56820000Y-49240000D01*
X66540000Y-41160000D02*
X64320000Y-43380000D01*
D15*
%TO.N,G1*%
X45500000Y-47500000D02*
X45492989Y-47492989D01*
X45492989Y-47492989D02*
X43953019Y-47492989D01*
%TO.N,G2*%
X46250000Y-48300000D02*
X43950000Y-48300000D01*
%TO.N,G3*%
X49200000Y-48000000D02*
X51200000Y-48000000D01*
X47000000Y-49100000D02*
X43950000Y-49100000D01*
D17*
%TO.N,D-*%
X51000000Y-43000000D02*
X51000000Y-36165000D01*
X51000000Y-36165000D02*
X50850000Y-36015000D01*
%TO.N,D+*%
X50250000Y-41750000D02*
X50250000Y-36440000D01*
X50250000Y-36440000D02*
X49825000Y-36015000D01*
D15*
%TO.N,unconnected-(J5-Pad6)*%
X53500000Y-31462500D02*
X53500000Y-29762500D01*
X47500000Y-32462500D02*
X46500000Y-31462500D01*
X52500000Y-32462500D02*
X53500000Y-31462500D01*
X46500000Y-31462500D02*
X46500000Y-29762500D01*
%TD*%
%TA.AperFunction,Conductor*%
%TO.N,GND*%
G36*
X45703378Y-28628954D02*
G01*
X45784160Y-28682930D01*
X45838136Y-28763712D01*
X45857090Y-28859000D01*
X45838136Y-28954288D01*
X45817391Y-28993885D01*
X45785988Y-29042613D01*
X45785986Y-29042618D01*
X45778446Y-29054317D01*
X45717022Y-29223078D01*
X45699500Y-29361783D01*
X45699500Y-30157655D01*
X45700276Y-30164571D01*
X45700276Y-30164575D01*
X45704550Y-30202679D01*
X45714454Y-30290972D01*
X45773515Y-30460573D01*
X45780894Y-30472381D01*
X45780894Y-30472382D01*
X45798085Y-30499893D01*
X45868684Y-30612875D01*
X45995230Y-30740307D01*
X46006984Y-30747766D01*
X46006986Y-30747768D01*
X46058922Y-30780728D01*
X46129220Y-30847790D01*
X46168504Y-30936649D01*
X46174500Y-30990965D01*
X46174500Y-31437418D01*
X46173553Y-31459107D01*
X46170736Y-31491307D01*
X46176374Y-31512348D01*
X46176375Y-31512354D01*
X46179101Y-31522526D01*
X46183802Y-31543732D01*
X46185628Y-31554089D01*
X46185630Y-31554094D01*
X46189412Y-31575545D01*
X46196682Y-31588137D01*
X46200446Y-31602184D01*
X46218980Y-31628653D01*
X46230647Y-31646967D01*
X46235913Y-31656088D01*
X46246806Y-31674955D01*
X46271569Y-31695733D01*
X46287570Y-31710396D01*
X46544735Y-31967561D01*
X46598711Y-32048343D01*
X46617665Y-32143631D01*
X46605479Y-32220573D01*
X46589738Y-32269018D01*
X46569402Y-32462500D01*
X46589738Y-32655982D01*
X46649856Y-32841008D01*
X46747130Y-33009492D01*
X46755860Y-33019188D01*
X46755864Y-33019193D01*
X46788035Y-33054922D01*
X46877308Y-33154069D01*
X46946896Y-33204627D01*
X47024139Y-33260749D01*
X47024144Y-33260752D01*
X47034701Y-33268422D01*
X47046625Y-33273731D01*
X47046627Y-33273732D01*
X47082250Y-33289592D01*
X47212429Y-33347551D01*
X47402726Y-33388000D01*
X47597274Y-33388000D01*
X47787571Y-33347551D01*
X47917750Y-33289592D01*
X47953373Y-33273732D01*
X47953375Y-33273731D01*
X47965299Y-33268422D01*
X47975856Y-33260752D01*
X47975861Y-33260749D01*
X48053104Y-33204627D01*
X48122692Y-33154069D01*
X48211965Y-33054922D01*
X48244136Y-33019193D01*
X48244140Y-33019188D01*
X48252870Y-33009492D01*
X48350144Y-32841008D01*
X48410262Y-32655982D01*
X48430598Y-32462500D01*
X48410262Y-32269018D01*
X48399319Y-32235337D01*
X48354178Y-32096408D01*
X48350144Y-32083992D01*
X48252870Y-31915508D01*
X48244140Y-31905812D01*
X48244136Y-31905807D01*
X48131424Y-31780629D01*
X48122692Y-31770931D01*
X48039373Y-31710396D01*
X47975861Y-31664251D01*
X47975856Y-31664248D01*
X47965299Y-31656578D01*
X47953375Y-31651269D01*
X47953373Y-31651268D01*
X47799493Y-31582757D01*
X47787571Y-31577449D01*
X47597274Y-31537000D01*
X47402726Y-31537000D01*
X47231558Y-31573383D01*
X47134414Y-31574655D01*
X47044176Y-31538653D01*
X47003720Y-31505894D01*
X46898430Y-31400604D01*
X46844454Y-31319822D01*
X46825500Y-31224534D01*
X46825500Y-30991320D01*
X46844454Y-30896032D01*
X46898430Y-30815250D01*
X46944024Y-30779242D01*
X46995955Y-30747294D01*
X47124268Y-30621641D01*
X47221554Y-30470683D01*
X47260214Y-30364466D01*
X47278215Y-30315009D01*
X47278216Y-30315007D01*
X47282978Y-30301922D01*
X47300500Y-30163217D01*
X47300500Y-29367345D01*
X47299006Y-29354021D01*
X47287097Y-29247859D01*
X47285546Y-29234028D01*
X47226485Y-29064427D01*
X47196558Y-29016533D01*
X47180572Y-28990951D01*
X47146150Y-28900098D01*
X47149117Y-28802988D01*
X47189020Y-28714406D01*
X47259784Y-28647837D01*
X47350637Y-28613415D01*
X47391735Y-28610000D01*
X52608090Y-28610000D01*
X52703378Y-28628954D01*
X52784160Y-28682930D01*
X52838136Y-28763712D01*
X52857090Y-28859000D01*
X52838136Y-28954288D01*
X52817391Y-28993885D01*
X52785988Y-29042613D01*
X52785986Y-29042618D01*
X52778446Y-29054317D01*
X52717022Y-29223078D01*
X52699500Y-29361783D01*
X52699500Y-30157655D01*
X52700276Y-30164571D01*
X52700276Y-30164575D01*
X52704550Y-30202679D01*
X52714454Y-30290972D01*
X52773515Y-30460573D01*
X52780894Y-30472381D01*
X52780894Y-30472382D01*
X52798085Y-30499893D01*
X52868684Y-30612875D01*
X52995230Y-30740307D01*
X53006984Y-30747766D01*
X53006986Y-30747768D01*
X53058922Y-30780728D01*
X53129220Y-30847790D01*
X53168504Y-30936649D01*
X53174500Y-30990965D01*
X53174500Y-31224534D01*
X53155546Y-31319822D01*
X53101570Y-31400604D01*
X52996280Y-31505894D01*
X52915498Y-31559870D01*
X52820210Y-31578824D01*
X52768445Y-31573384D01*
X52597274Y-31537000D01*
X52402726Y-31537000D01*
X52212429Y-31577449D01*
X52200507Y-31582757D01*
X52046627Y-31651268D01*
X52046625Y-31651269D01*
X52034701Y-31656578D01*
X52024144Y-31664248D01*
X52024139Y-31664251D01*
X51960627Y-31710396D01*
X51877308Y-31770931D01*
X51868576Y-31780629D01*
X51755864Y-31905807D01*
X51755860Y-31905812D01*
X51747130Y-31915508D01*
X51649856Y-32083992D01*
X51645822Y-32096408D01*
X51600682Y-32235337D01*
X51589738Y-32269018D01*
X51569402Y-32462500D01*
X51589738Y-32655982D01*
X51649856Y-32841008D01*
X51747130Y-33009492D01*
X51755860Y-33019188D01*
X51755864Y-33019193D01*
X51788035Y-33054922D01*
X51877308Y-33154069D01*
X51946896Y-33204627D01*
X52024139Y-33260749D01*
X52024144Y-33260752D01*
X52034701Y-33268422D01*
X52046625Y-33273731D01*
X52046627Y-33273732D01*
X52082250Y-33289592D01*
X52212429Y-33347551D01*
X52402726Y-33388000D01*
X52597274Y-33388000D01*
X52787571Y-33347551D01*
X52917750Y-33289592D01*
X52953373Y-33273732D01*
X52953375Y-33273731D01*
X52965299Y-33268422D01*
X52975856Y-33260752D01*
X52975861Y-33260749D01*
X53053104Y-33204627D01*
X53122692Y-33154069D01*
X53211965Y-33054922D01*
X53244136Y-33019193D01*
X53244140Y-33019188D01*
X53252870Y-33009492D01*
X53350144Y-32841008D01*
X53410262Y-32655982D01*
X53430598Y-32462500D01*
X53410262Y-32269018D01*
X53394522Y-32220574D01*
X53390856Y-32189600D01*
X70924808Y-32189600D01*
X70939830Y-32462574D01*
X70941548Y-32471209D01*
X70941548Y-32471212D01*
X70953511Y-32531350D01*
X70993166Y-32730708D01*
X71083749Y-32988652D01*
X71087801Y-32996453D01*
X71087803Y-32996457D01*
X71205716Y-33223449D01*
X71205719Y-33223454D01*
X71209774Y-33231260D01*
X71214893Y-33238423D01*
X71214894Y-33238425D01*
X71363605Y-33446526D01*
X71363609Y-33446531D01*
X71368725Y-33453690D01*
X71385918Y-33471713D01*
X71551346Y-33645127D01*
X71551351Y-33645132D01*
X71557431Y-33651505D01*
X71564352Y-33656961D01*
X71564353Y-33656962D01*
X71765207Y-33815303D01*
X71765212Y-33815306D01*
X71772126Y-33820757D01*
X71779739Y-33825179D01*
X71779742Y-33825181D01*
X71916283Y-33904490D01*
X72008528Y-33958070D01*
X72261919Y-34060704D01*
X72270467Y-34062827D01*
X72270466Y-34062827D01*
X72518703Y-34124490D01*
X72518708Y-34124491D01*
X72527243Y-34126611D01*
X72535998Y-34127508D01*
X72754082Y-34149853D01*
X72754090Y-34149853D01*
X72760401Y-34150500D01*
X72929642Y-34150500D01*
X72934017Y-34150190D01*
X72934023Y-34150190D01*
X72992136Y-34146075D01*
X73132705Y-34136122D01*
X73141318Y-34134268D01*
X73141323Y-34134267D01*
X73279558Y-34104505D01*
X73399968Y-34078582D01*
X73656458Y-33983958D01*
X73885384Y-33860436D01*
X73889308Y-33858319D01*
X73889312Y-33858316D01*
X73897056Y-33854138D01*
X74116962Y-33691713D01*
X74217296Y-33592942D01*
X74305518Y-33506096D01*
X74305523Y-33506091D01*
X74311788Y-33499923D01*
X74333318Y-33471713D01*
X74472308Y-33289592D01*
X74472309Y-33289590D01*
X74477647Y-33282596D01*
X74506397Y-33231260D01*
X74606930Y-33051744D01*
X74611230Y-33044066D01*
X74709871Y-32789095D01*
X74712801Y-32776457D01*
X74769614Y-32531350D01*
X74769614Y-32531347D01*
X74771603Y-32522768D01*
X74795192Y-32250400D01*
X74780170Y-31977426D01*
X74768197Y-31917232D01*
X74737569Y-31763260D01*
X74726834Y-31709292D01*
X74695487Y-31620027D01*
X74639165Y-31459645D01*
X74639163Y-31459641D01*
X74636251Y-31451348D01*
X74621369Y-31422699D01*
X74514284Y-31216551D01*
X74514281Y-31216546D01*
X74510226Y-31208740D01*
X74492499Y-31183933D01*
X74356395Y-30993474D01*
X74356391Y-30993469D01*
X74351275Y-30986310D01*
X74265154Y-30896032D01*
X74168654Y-30794873D01*
X74168649Y-30794868D01*
X74162569Y-30788495D01*
X74143515Y-30773474D01*
X73954793Y-30624697D01*
X73954788Y-30624694D01*
X73947874Y-30619243D01*
X73931867Y-30609945D01*
X73719085Y-30486352D01*
X73711472Y-30481930D01*
X73458081Y-30379296D01*
X73378645Y-30359564D01*
X73201297Y-30315510D01*
X73201292Y-30315509D01*
X73192757Y-30313389D01*
X73172838Y-30311348D01*
X72965918Y-30290147D01*
X72965910Y-30290147D01*
X72959599Y-30289500D01*
X72790358Y-30289500D01*
X72785983Y-30289810D01*
X72785977Y-30289810D01*
X72727864Y-30293925D01*
X72587295Y-30303878D01*
X72578682Y-30305732D01*
X72578677Y-30305733D01*
X72440442Y-30335495D01*
X72320032Y-30361418D01*
X72063542Y-30456042D01*
X71948236Y-30518258D01*
X71830692Y-30581681D01*
X71830688Y-30581684D01*
X71822944Y-30585862D01*
X71603038Y-30748287D01*
X71567737Y-30783038D01*
X71414482Y-30933904D01*
X71414477Y-30933909D01*
X71408212Y-30940077D01*
X71402873Y-30947073D01*
X71402871Y-30947075D01*
X71247692Y-31150408D01*
X71242353Y-31157404D01*
X71238057Y-31165074D01*
X71238055Y-31165078D01*
X71209229Y-31216551D01*
X71108770Y-31395934D01*
X71010129Y-31650905D01*
X71008143Y-31659472D01*
X71008142Y-31659476D01*
X70985438Y-31757426D01*
X70948397Y-31917232D01*
X70924808Y-32189600D01*
X53390856Y-32189600D01*
X53383102Y-32124096D01*
X53409474Y-32030588D01*
X53455265Y-31967561D01*
X53712430Y-31710396D01*
X53728446Y-31695721D01*
X53736506Y-31688958D01*
X53736506Y-31688957D01*
X53753194Y-31674955D01*
X53764087Y-31656088D01*
X53769353Y-31646967D01*
X53781020Y-31628653D01*
X53799554Y-31602184D01*
X53803318Y-31588137D01*
X53810588Y-31575545D01*
X53814370Y-31554094D01*
X53814372Y-31554089D01*
X53816198Y-31543732D01*
X53820899Y-31522526D01*
X53823626Y-31512348D01*
X53823626Y-31512347D01*
X53829264Y-31491307D01*
X53826447Y-31459107D01*
X53825500Y-31437406D01*
X53825500Y-30991320D01*
X53844454Y-30896032D01*
X53898430Y-30815250D01*
X53944024Y-30779242D01*
X53995955Y-30747294D01*
X54124268Y-30621641D01*
X54221554Y-30470683D01*
X54260214Y-30364466D01*
X54278215Y-30315009D01*
X54278216Y-30315007D01*
X54282978Y-30301922D01*
X54300500Y-30163217D01*
X54300500Y-29367345D01*
X54299006Y-29354021D01*
X54287097Y-29247859D01*
X54285546Y-29234028D01*
X54226485Y-29064427D01*
X54196558Y-29016533D01*
X54180572Y-28990951D01*
X54146150Y-28900098D01*
X54149117Y-28802988D01*
X54189020Y-28714406D01*
X54259784Y-28647837D01*
X54350637Y-28613415D01*
X54391735Y-28610000D01*
X72837277Y-28610000D01*
X72837277Y-28611268D01*
X72840343Y-28610705D01*
X72859642Y-28615143D01*
X72878273Y-28610927D01*
X72881271Y-28611045D01*
X73201623Y-28626783D01*
X73225941Y-28629178D01*
X73552175Y-28677570D01*
X73576141Y-28682337D01*
X73896067Y-28762474D01*
X73919451Y-28769568D01*
X74229980Y-28880678D01*
X74252537Y-28890021D01*
X74550689Y-29031036D01*
X74572226Y-29042548D01*
X74613688Y-29067399D01*
X74855124Y-29212110D01*
X74875428Y-29225677D01*
X75140350Y-29422156D01*
X75159212Y-29437636D01*
X75363758Y-29623026D01*
X75403592Y-29659129D01*
X75420871Y-29676408D01*
X75642364Y-29920788D01*
X75657844Y-29939650D01*
X75854323Y-30204572D01*
X75867890Y-30224876D01*
X75959173Y-30377173D01*
X76024613Y-30486352D01*
X76037450Y-30507770D01*
X76048964Y-30529311D01*
X76189979Y-30827463D01*
X76199322Y-30850020D01*
X76251752Y-30996551D01*
X76310432Y-31160549D01*
X76317526Y-31183933D01*
X76386457Y-31459120D01*
X76397663Y-31503859D01*
X76402430Y-31527825D01*
X76450822Y-31854059D01*
X76453217Y-31878377D01*
X76461116Y-32039171D01*
X76469080Y-32201277D01*
X76464857Y-32219642D01*
X76469088Y-32238342D01*
X76468591Y-32255103D01*
X76470000Y-32269537D01*
X76470000Y-52216000D01*
X76451046Y-52311288D01*
X76397070Y-52392070D01*
X76316288Y-52446046D01*
X76221000Y-52465000D01*
X75895000Y-52465000D01*
X75895000Y-53140000D01*
X75897524Y-53140000D01*
X75900000Y-53165137D01*
X75900000Y-55066407D01*
X75897113Y-55066407D01*
X75897112Y-55088096D01*
X75900178Y-55088163D01*
X75900000Y-55096321D01*
X75900000Y-56601000D01*
X75881046Y-56696288D01*
X75827070Y-56777070D01*
X75746288Y-56831046D01*
X75651000Y-56850000D01*
X75149000Y-56850000D01*
X75053712Y-56831046D01*
X74972930Y-56777070D01*
X74918954Y-56696288D01*
X74900000Y-56601000D01*
X74900000Y-55093593D01*
X74902887Y-55093593D01*
X74902888Y-55071904D01*
X74899822Y-55071837D01*
X74900000Y-55063679D01*
X74900000Y-52578120D01*
X74899784Y-52577034D01*
X74895000Y-52528457D01*
X74895000Y-52465000D01*
X72039000Y-52465000D01*
X71943712Y-52446046D01*
X71862930Y-52392070D01*
X71808954Y-52311288D01*
X71790000Y-52216000D01*
X71790000Y-51315741D01*
X71791633Y-51287271D01*
X71791957Y-51284458D01*
X71795142Y-51270716D01*
X71795143Y-51270000D01*
X71794131Y-51265565D01*
X71794174Y-51265194D01*
X71794528Y-51261035D01*
X71793121Y-51261136D01*
X71779388Y-51069123D01*
X71779387Y-51069119D01*
X71778754Y-51060263D01*
X71759587Y-50972149D01*
X71735949Y-50863487D01*
X71735948Y-50863484D01*
X71734058Y-50854795D01*
X71660575Y-50657780D01*
X71559802Y-50473228D01*
X71542663Y-50450332D01*
X71439120Y-50312015D01*
X71433790Y-50304895D01*
X71285105Y-50156210D01*
X71116772Y-50030198D01*
X70932220Y-49929425D01*
X70856499Y-49901182D01*
X70743544Y-49859052D01*
X70743540Y-49859051D01*
X70735205Y-49855942D01*
X70726516Y-49854052D01*
X70726513Y-49854051D01*
X70538418Y-49813134D01*
X70538413Y-49813133D01*
X70529737Y-49811246D01*
X70520881Y-49810613D01*
X70520877Y-49810612D01*
X70409322Y-49802634D01*
X70329690Y-49796938D01*
X70320716Y-49794858D01*
X70320000Y-49794857D01*
X70306293Y-49797984D01*
X70302082Y-49798455D01*
X70274390Y-49800000D01*
X63427533Y-49800000D01*
X63332245Y-49781046D01*
X63251463Y-49727070D01*
X63197487Y-49646288D01*
X63178533Y-49551000D01*
X63197487Y-49455712D01*
X63251463Y-49374930D01*
X64625483Y-48000909D01*
X64648050Y-47978342D01*
X64656946Y-47960883D01*
X64661231Y-47954985D01*
X64666469Y-47946437D01*
X64669777Y-47939944D01*
X64681296Y-47924090D01*
X64687352Y-47905452D01*
X64690656Y-47898967D01*
X64694499Y-47889690D01*
X64696749Y-47882765D01*
X64705646Y-47865304D01*
X64708712Y-47845945D01*
X64710959Y-47839030D01*
X64713305Y-47829260D01*
X64714444Y-47822070D01*
X64720499Y-47803433D01*
X64720499Y-47771525D01*
X64720500Y-47771519D01*
X64720500Y-44969600D01*
X71064808Y-44969600D01*
X71079830Y-45242574D01*
X71081548Y-45251209D01*
X71081548Y-45251212D01*
X71093511Y-45311350D01*
X71133166Y-45510708D01*
X71223749Y-45768652D01*
X71227801Y-45776453D01*
X71227803Y-45776457D01*
X71345716Y-46003449D01*
X71345719Y-46003454D01*
X71349774Y-46011260D01*
X71354893Y-46018423D01*
X71354894Y-46018425D01*
X71503605Y-46226526D01*
X71503609Y-46226531D01*
X71508725Y-46233690D01*
X71514803Y-46240061D01*
X71691346Y-46425127D01*
X71691351Y-46425132D01*
X71697431Y-46431505D01*
X71704352Y-46436961D01*
X71704353Y-46436962D01*
X71905207Y-46595303D01*
X71905212Y-46595306D01*
X71912126Y-46600757D01*
X71919739Y-46605179D01*
X71919742Y-46605181D01*
X72123277Y-46723403D01*
X72148528Y-46738070D01*
X72401919Y-46840704D01*
X72410467Y-46842827D01*
X72410466Y-46842827D01*
X72658703Y-46904490D01*
X72658708Y-46904491D01*
X72667243Y-46906611D01*
X72675998Y-46907508D01*
X72894082Y-46929853D01*
X72894090Y-46929853D01*
X72900401Y-46930500D01*
X73069642Y-46930500D01*
X73074017Y-46930190D01*
X73074023Y-46930190D01*
X73132136Y-46926075D01*
X73272705Y-46916122D01*
X73281318Y-46914268D01*
X73281323Y-46914267D01*
X73429324Y-46882403D01*
X73539968Y-46858582D01*
X73796458Y-46763958D01*
X73927021Y-46693510D01*
X74029308Y-46638319D01*
X74029312Y-46638316D01*
X74037056Y-46634138D01*
X74256962Y-46471713D01*
X74357296Y-46372942D01*
X74445518Y-46286096D01*
X74445523Y-46286091D01*
X74451788Y-46279923D01*
X74492540Y-46226526D01*
X74612308Y-46069592D01*
X74612309Y-46069590D01*
X74617647Y-46062596D01*
X74646397Y-46011260D01*
X74746930Y-45831744D01*
X74751230Y-45824066D01*
X74849871Y-45569095D01*
X74861481Y-45519009D01*
X74909614Y-45311350D01*
X74909614Y-45311347D01*
X74911603Y-45302768D01*
X74935192Y-45030400D01*
X74926075Y-44864722D01*
X74920654Y-44766216D01*
X74920654Y-44766212D01*
X74920170Y-44757426D01*
X74915930Y-44736107D01*
X74875409Y-44532403D01*
X74866834Y-44489292D01*
X74843448Y-44422699D01*
X74779165Y-44239645D01*
X74779163Y-44239641D01*
X74776251Y-44231348D01*
X74772197Y-44223543D01*
X74654284Y-43996551D01*
X74654281Y-43996546D01*
X74650226Y-43988740D01*
X74613541Y-43937404D01*
X74496395Y-43773474D01*
X74496391Y-43773469D01*
X74491275Y-43766310D01*
X74423594Y-43695362D01*
X74308654Y-43574873D01*
X74308649Y-43574868D01*
X74302569Y-43568495D01*
X74259400Y-43534463D01*
X74094793Y-43404697D01*
X74094788Y-43404694D01*
X74087874Y-43399243D01*
X74066411Y-43386776D01*
X73859085Y-43266352D01*
X73851472Y-43261930D01*
X73598081Y-43159296D01*
X73478352Y-43129555D01*
X73341297Y-43095510D01*
X73341292Y-43095509D01*
X73332757Y-43093389D01*
X73312838Y-43091348D01*
X73105918Y-43070147D01*
X73105910Y-43070147D01*
X73099599Y-43069500D01*
X72930358Y-43069500D01*
X72925983Y-43069810D01*
X72925977Y-43069810D01*
X72867864Y-43073925D01*
X72727295Y-43083878D01*
X72718682Y-43085732D01*
X72718677Y-43085733D01*
X72604495Y-43110316D01*
X72460032Y-43141418D01*
X72203542Y-43236042D01*
X72116970Y-43282754D01*
X71970692Y-43361681D01*
X71970688Y-43361684D01*
X71962944Y-43365862D01*
X71743038Y-43528287D01*
X71707737Y-43563038D01*
X71554482Y-43713904D01*
X71554477Y-43713909D01*
X71548212Y-43720077D01*
X71542873Y-43727073D01*
X71542871Y-43727075D01*
X71387692Y-43930408D01*
X71382353Y-43937404D01*
X71378057Y-43945074D01*
X71378055Y-43945078D01*
X71349229Y-43996551D01*
X71248770Y-44175934D01*
X71150129Y-44430905D01*
X71148143Y-44439472D01*
X71148142Y-44439476D01*
X71090386Y-44688650D01*
X71088397Y-44697232D01*
X71064808Y-44969600D01*
X64720500Y-44969600D01*
X64720500Y-43649033D01*
X64739454Y-43553745D01*
X64793430Y-43472963D01*
X66845483Y-41420909D01*
X66868050Y-41398342D01*
X66876946Y-41380883D01*
X66881231Y-41374985D01*
X66886469Y-41366437D01*
X66889778Y-41359944D01*
X66901296Y-41344090D01*
X66907351Y-41325454D01*
X66910656Y-41318968D01*
X66914501Y-41309685D01*
X66916750Y-41302764D01*
X66925646Y-41285304D01*
X66928712Y-41265947D01*
X66930960Y-41259027D01*
X66933304Y-41249265D01*
X66934443Y-41242073D01*
X66940500Y-41223433D01*
X66940500Y-40627847D01*
X66959454Y-40532559D01*
X67013430Y-40451777D01*
X67077230Y-40405594D01*
X67094735Y-40396752D01*
X67094740Y-40396749D01*
X67105610Y-40391258D01*
X67267951Y-40264424D01*
X67402564Y-40108472D01*
X67423387Y-40071818D01*
X67498306Y-39939936D01*
X67498306Y-39939935D01*
X67504323Y-39929344D01*
X67569351Y-39733863D01*
X67595171Y-39529474D01*
X67595583Y-39500000D01*
X67575480Y-39294970D01*
X67515935Y-39097749D01*
X67419218Y-38915849D01*
X67289011Y-38756200D01*
X67130275Y-38624882D01*
X67076524Y-38595819D01*
X66959764Y-38532687D01*
X66959761Y-38532686D01*
X66949055Y-38526897D01*
X66919800Y-38517841D01*
X66763891Y-38469579D01*
X66763889Y-38469579D01*
X66752254Y-38465977D01*
X66547369Y-38444443D01*
X66342203Y-38463114D01*
X66144572Y-38521280D01*
X65962002Y-38616726D01*
X65801447Y-38745815D01*
X65669024Y-38903630D01*
X65663160Y-38914296D01*
X65663159Y-38914298D01*
X65656392Y-38926607D01*
X65569776Y-39084162D01*
X65566098Y-39095756D01*
X65566096Y-39095761D01*
X65507484Y-39280532D01*
X65504670Y-39279639D01*
X65474676Y-39349467D01*
X65405088Y-39417266D01*
X65314852Y-39453274D01*
X65217706Y-39452010D01*
X65128438Y-39413665D01*
X65060639Y-39344077D01*
X65031086Y-39280417D01*
X65003176Y-39187974D01*
X64975935Y-39097749D01*
X64879218Y-38915849D01*
X64749011Y-38756200D01*
X64590275Y-38624882D01*
X64536524Y-38595819D01*
X64419764Y-38532687D01*
X64419761Y-38532686D01*
X64409055Y-38526897D01*
X64379800Y-38517841D01*
X64223891Y-38469579D01*
X64223889Y-38469579D01*
X64212254Y-38465977D01*
X64007369Y-38444443D01*
X63802203Y-38463114D01*
X63604572Y-38521280D01*
X63422002Y-38616726D01*
X63261447Y-38745815D01*
X63129024Y-38903630D01*
X63123160Y-38914296D01*
X63123159Y-38914298D01*
X63116392Y-38926607D01*
X63029776Y-39084162D01*
X63026098Y-39095756D01*
X63026096Y-39095761D01*
X62996845Y-39187974D01*
X62949966Y-39273071D01*
X62874090Y-39333750D01*
X62780769Y-39360774D01*
X62684210Y-39350029D01*
X62599113Y-39303150D01*
X62538434Y-39227274D01*
X62511410Y-39133953D01*
X62510500Y-39112684D01*
X62510500Y-38630252D01*
X62506687Y-38611080D01*
X62503651Y-38595819D01*
X62503651Y-38595818D01*
X62498867Y-38571769D01*
X62454552Y-38505448D01*
X62388231Y-38461133D01*
X62364182Y-38456349D01*
X62364181Y-38456349D01*
X62341739Y-38451885D01*
X62341737Y-38451885D01*
X62329748Y-38449500D01*
X60590252Y-38449500D01*
X60578263Y-38451885D01*
X60578261Y-38451885D01*
X60555819Y-38456349D01*
X60555818Y-38456349D01*
X60531769Y-38461133D01*
X60465448Y-38505448D01*
X60421133Y-38571769D01*
X60416349Y-38595818D01*
X60416349Y-38595819D01*
X60413314Y-38611080D01*
X60409500Y-38630252D01*
X60409500Y-40369748D01*
X60411885Y-40381737D01*
X60411885Y-40381739D01*
X60414870Y-40396746D01*
X60421133Y-40428231D01*
X60465448Y-40494552D01*
X60531769Y-40538867D01*
X60555818Y-40543651D01*
X60555819Y-40543651D01*
X60578261Y-40548115D01*
X60578263Y-40548115D01*
X60590252Y-40550500D01*
X60810500Y-40550500D01*
X60905788Y-40569454D01*
X60986570Y-40623430D01*
X61040546Y-40704212D01*
X61059500Y-40799500D01*
X61059500Y-41333433D01*
X61065557Y-41352073D01*
X61066696Y-41359265D01*
X61069040Y-41369027D01*
X61071288Y-41375947D01*
X61074354Y-41395304D01*
X61083250Y-41412764D01*
X61085499Y-41419685D01*
X61089344Y-41428968D01*
X61092649Y-41435453D01*
X61098704Y-41454090D01*
X61110223Y-41469945D01*
X61113532Y-41476438D01*
X61118771Y-41484989D01*
X61123057Y-41490888D01*
X61131950Y-41508342D01*
X61154513Y-41530905D01*
X61154516Y-41530909D01*
X63096570Y-43472963D01*
X63150546Y-43553745D01*
X63169500Y-43649033D01*
X63169500Y-46970967D01*
X63150546Y-47066255D01*
X63096570Y-47147037D01*
X62227037Y-48016570D01*
X62146255Y-48070546D01*
X62050967Y-48089500D01*
X59416213Y-48089500D01*
X59320925Y-48070546D01*
X59240143Y-48016570D01*
X59186167Y-47935788D01*
X59167213Y-47840500D01*
X59186167Y-47745212D01*
X59240143Y-47664430D01*
X59257161Y-47648918D01*
X59257870Y-47648329D01*
X59272991Y-47639045D01*
X59284895Y-47625894D01*
X59284897Y-47625892D01*
X59349409Y-47554619D01*
X59369200Y-47532754D01*
X59431710Y-47403733D01*
X59455496Y-47262354D01*
X59455647Y-47250000D01*
X59448785Y-47202083D01*
X59437838Y-47125642D01*
X59437838Y-47125640D01*
X59435323Y-47108082D01*
X59375984Y-46977572D01*
X59282400Y-46868963D01*
X59162095Y-46790985D01*
X59145097Y-46785902D01*
X59145096Y-46785901D01*
X59041736Y-46754990D01*
X59041735Y-46754990D01*
X59024739Y-46749907D01*
X58951804Y-46749461D01*
X58899114Y-46749139D01*
X58899111Y-46749139D01*
X58881376Y-46749031D01*
X58864322Y-46753905D01*
X58760585Y-46783553D01*
X58760583Y-46783554D01*
X58743529Y-46788428D01*
X58622280Y-46864930D01*
X58618397Y-46869327D01*
X58541080Y-46912448D01*
X58464551Y-46924500D01*
X57837966Y-46924500D01*
X57742678Y-46905546D01*
X57661896Y-46851570D01*
X55821877Y-45011551D01*
X55767901Y-44930769D01*
X55751462Y-44870779D01*
X55737838Y-44775643D01*
X55737838Y-44775642D01*
X55735323Y-44758082D01*
X55675984Y-44627572D01*
X55582400Y-44518963D01*
X55462095Y-44440985D01*
X55445097Y-44435902D01*
X55445096Y-44435901D01*
X55341736Y-44404990D01*
X55341735Y-44404990D01*
X55324739Y-44399907D01*
X55251804Y-44399461D01*
X55199114Y-44399139D01*
X55199111Y-44399139D01*
X55181376Y-44399031D01*
X55164322Y-44403905D01*
X55060585Y-44433553D01*
X55060583Y-44433554D01*
X55043529Y-44438428D01*
X54922280Y-44514930D01*
X54827377Y-44622388D01*
X54819839Y-44638442D01*
X54819839Y-44638443D01*
X54788116Y-44706011D01*
X54766447Y-44752163D01*
X54744391Y-44893823D01*
X54762980Y-45035979D01*
X54820720Y-45167203D01*
X54912970Y-45276948D01*
X55032313Y-45356390D01*
X55049246Y-45361680D01*
X55049248Y-45361681D01*
X55152223Y-45393852D01*
X55152226Y-45393852D01*
X55169157Y-45399142D01*
X55190592Y-45399535D01*
X55200064Y-45401600D01*
X55204403Y-45402303D01*
X55204365Y-45402538D01*
X55285516Y-45420232D01*
X55362097Y-45472423D01*
X57352104Y-47462430D01*
X57366779Y-47478446D01*
X57387545Y-47503194D01*
X57406411Y-47514086D01*
X57406412Y-47514087D01*
X57415533Y-47519353D01*
X57433847Y-47531020D01*
X57460316Y-47549554D01*
X57474363Y-47553318D01*
X57486955Y-47560588D01*
X57508406Y-47564370D01*
X57508411Y-47564372D01*
X57518768Y-47566198D01*
X57539974Y-47570899D01*
X57550152Y-47573626D01*
X57550153Y-47573626D01*
X57571193Y-47579264D01*
X57592890Y-47577366D01*
X57592891Y-47577366D01*
X57603393Y-47576447D01*
X57625094Y-47575500D01*
X58464117Y-47575500D01*
X58559405Y-47594454D01*
X58612417Y-47627772D01*
X58612967Y-47626946D01*
X58622394Y-47633221D01*
X58624628Y-47635447D01*
X58630082Y-47638875D01*
X58640959Y-47648600D01*
X58639483Y-47650250D01*
X58691214Y-47701800D01*
X58728551Y-47791494D01*
X58728721Y-47888649D01*
X58691700Y-47978473D01*
X58623121Y-48047293D01*
X58533427Y-48084630D01*
X58484421Y-48089500D01*
X56256567Y-48089500D01*
X56237927Y-48095557D01*
X56230735Y-48096696D01*
X56220973Y-48099040D01*
X56214053Y-48101288D01*
X56194696Y-48104354D01*
X56177236Y-48113250D01*
X56170315Y-48115499D01*
X56161032Y-48119344D01*
X56154547Y-48122649D01*
X56135910Y-48128704D01*
X56120055Y-48140223D01*
X56113562Y-48143532D01*
X56105011Y-48148771D01*
X56099112Y-48153057D01*
X56081658Y-48161950D01*
X56059095Y-48184513D01*
X56059091Y-48184516D01*
X52177037Y-52066570D01*
X52096255Y-52120546D01*
X52000967Y-52139500D01*
X46219500Y-52139500D01*
X46124212Y-52120546D01*
X46043430Y-52066570D01*
X45989454Y-51985788D01*
X45970500Y-51890500D01*
X45970500Y-51670252D01*
X45958867Y-51611769D01*
X45914552Y-51545448D01*
X45848231Y-51501133D01*
X45824182Y-51496349D01*
X45824181Y-51496349D01*
X45801739Y-51491885D01*
X45801737Y-51491885D01*
X45789748Y-51489500D01*
X44101282Y-51489500D01*
X44005994Y-51470546D01*
X43925212Y-51416570D01*
X43871236Y-51335788D01*
X43852916Y-51258264D01*
X43839388Y-51069123D01*
X43839387Y-51069119D01*
X43838754Y-51060263D01*
X43819587Y-50972149D01*
X43795949Y-50863487D01*
X43795948Y-50863484D01*
X43794058Y-50854795D01*
X43720575Y-50657780D01*
X43619802Y-50473228D01*
X43602663Y-50450332D01*
X43499120Y-50312015D01*
X43493790Y-50304895D01*
X43345105Y-50156210D01*
X43176772Y-50030198D01*
X42992220Y-49929425D01*
X42916499Y-49901182D01*
X42803544Y-49859052D01*
X42803540Y-49859051D01*
X42795205Y-49855942D01*
X42786516Y-49854052D01*
X42786513Y-49854051D01*
X42598418Y-49813134D01*
X42598413Y-49813133D01*
X42589737Y-49811246D01*
X42580881Y-49810613D01*
X42580877Y-49810612D01*
X42469322Y-49802634D01*
X42389690Y-49796938D01*
X42380716Y-49794858D01*
X42380000Y-49794857D01*
X42366293Y-49797984D01*
X42362082Y-49798455D01*
X42334390Y-49800000D01*
X29725741Y-49800000D01*
X29697271Y-49798367D01*
X29694458Y-49798043D01*
X29680716Y-49794858D01*
X29680000Y-49794857D01*
X29675565Y-49795869D01*
X29675194Y-49795826D01*
X29671035Y-49795472D01*
X29671136Y-49796879D01*
X29479123Y-49810612D01*
X29479119Y-49810613D01*
X29470263Y-49811246D01*
X29461587Y-49813133D01*
X29461582Y-49813134D01*
X29273487Y-49854051D01*
X29273484Y-49854052D01*
X29264795Y-49855942D01*
X29256460Y-49859051D01*
X29256456Y-49859052D01*
X29143501Y-49901182D01*
X29067780Y-49929425D01*
X28883228Y-50030198D01*
X28714895Y-50156210D01*
X28566210Y-50304895D01*
X28560880Y-50312015D01*
X28457338Y-50450332D01*
X28440198Y-50473228D01*
X28339425Y-50657780D01*
X28265942Y-50854795D01*
X28264052Y-50863484D01*
X28264051Y-50863487D01*
X28240414Y-50972149D01*
X28221246Y-51060263D01*
X28206938Y-51260310D01*
X28204858Y-51269284D01*
X28204857Y-51270000D01*
X28207984Y-51283707D01*
X28208455Y-51287918D01*
X28210000Y-51315610D01*
X28210000Y-52216000D01*
X28191046Y-52311288D01*
X28137070Y-52392070D01*
X28056288Y-52446046D01*
X27961000Y-52465000D01*
X27645000Y-52465000D01*
X27645000Y-52523258D01*
X27640000Y-52564715D01*
X27640000Y-55066407D01*
X27637113Y-55066407D01*
X27637112Y-55088096D01*
X27640178Y-55088163D01*
X27640000Y-55096321D01*
X27640000Y-56601000D01*
X27621046Y-56696288D01*
X27567070Y-56777070D01*
X27486288Y-56831046D01*
X27391000Y-56850000D01*
X26889000Y-56850000D01*
X26793712Y-56831046D01*
X26712930Y-56777070D01*
X26658954Y-56696288D01*
X26640000Y-56601000D01*
X26640000Y-55093593D01*
X26642887Y-55093593D01*
X26642888Y-55071904D01*
X26639822Y-55071837D01*
X26640000Y-55063679D01*
X26640000Y-53265137D01*
X26642476Y-53240000D01*
X26645000Y-53240000D01*
X26645000Y-52465000D01*
X23779000Y-52465000D01*
X23683712Y-52446046D01*
X23602930Y-52392070D01*
X23548954Y-52311288D01*
X23530000Y-52216000D01*
X23530000Y-49093823D01*
X43444391Y-49093823D01*
X43462980Y-49235979D01*
X43520720Y-49367203D01*
X43612970Y-49476948D01*
X43732313Y-49556390D01*
X43749246Y-49561680D01*
X43749248Y-49561681D01*
X43816006Y-49582537D01*
X43869157Y-49599142D01*
X43935992Y-49600367D01*
X43994760Y-49601445D01*
X43994762Y-49601445D01*
X44012499Y-49601770D01*
X44150817Y-49564060D01*
X44165932Y-49554779D01*
X44165935Y-49554778D01*
X44257872Y-49498328D01*
X44272991Y-49489045D01*
X44280560Y-49480683D01*
X44361853Y-49436636D01*
X44435485Y-49425500D01*
X46514117Y-49425500D01*
X46609405Y-49444454D01*
X46662420Y-49477774D01*
X46662970Y-49476948D01*
X46782313Y-49556390D01*
X46799246Y-49561680D01*
X46799248Y-49561681D01*
X46866006Y-49582537D01*
X46919157Y-49599142D01*
X46985992Y-49600367D01*
X47044760Y-49601445D01*
X47044762Y-49601445D01*
X47062499Y-49601770D01*
X47200817Y-49564060D01*
X47215932Y-49554779D01*
X47215935Y-49554778D01*
X47307876Y-49498326D01*
X47307878Y-49498325D01*
X47322991Y-49489045D01*
X47419200Y-49382754D01*
X47481710Y-49253733D01*
X47505496Y-49112354D01*
X47505647Y-49100000D01*
X47485323Y-48958082D01*
X47425984Y-48827572D01*
X47332400Y-48718963D01*
X47212095Y-48640985D01*
X47195097Y-48635902D01*
X47195096Y-48635901D01*
X47091736Y-48604990D01*
X47091735Y-48604990D01*
X47074739Y-48599907D01*
X47016056Y-48599548D01*
X46999811Y-48599449D01*
X46904640Y-48579913D01*
X46824190Y-48525444D01*
X46770709Y-48444334D01*
X46752338Y-48348932D01*
X46753328Y-48328212D01*
X46753899Y-48321846D01*
X46755496Y-48312354D01*
X46755647Y-48300000D01*
X46750891Y-48266791D01*
X46737838Y-48175642D01*
X46737838Y-48175640D01*
X46735323Y-48158082D01*
X46675984Y-48027572D01*
X46646904Y-47993823D01*
X48694391Y-47993823D01*
X48712980Y-48135979D01*
X48770720Y-48267203D01*
X48862970Y-48376948D01*
X48982313Y-48456390D01*
X48999246Y-48461680D01*
X48999248Y-48461681D01*
X49102224Y-48493852D01*
X49119157Y-48499142D01*
X49185992Y-48500367D01*
X49244760Y-48501445D01*
X49244762Y-48501445D01*
X49262499Y-48501770D01*
X49400817Y-48464060D01*
X49415932Y-48454779D01*
X49415935Y-48454778D01*
X49507872Y-48398328D01*
X49522991Y-48389045D01*
X49530560Y-48380683D01*
X49611853Y-48336636D01*
X49685485Y-48325500D01*
X50714117Y-48325500D01*
X50809405Y-48344454D01*
X50862420Y-48377774D01*
X50862970Y-48376948D01*
X50982313Y-48456390D01*
X50999246Y-48461680D01*
X50999248Y-48461681D01*
X51102224Y-48493852D01*
X51119157Y-48499142D01*
X51185992Y-48500367D01*
X51244760Y-48501445D01*
X51244762Y-48501445D01*
X51262499Y-48501770D01*
X51400817Y-48464060D01*
X51415932Y-48454779D01*
X51415935Y-48454778D01*
X51507876Y-48398326D01*
X51507878Y-48398325D01*
X51522991Y-48389045D01*
X51619200Y-48282754D01*
X51681710Y-48153733D01*
X51705496Y-48012354D01*
X51705647Y-48000000D01*
X51702564Y-47978473D01*
X51687838Y-47875642D01*
X51687838Y-47875640D01*
X51685323Y-47858082D01*
X51625984Y-47727572D01*
X51532400Y-47618963D01*
X51412095Y-47540985D01*
X51395097Y-47535902D01*
X51395096Y-47535901D01*
X51291736Y-47504990D01*
X51291735Y-47504990D01*
X51274739Y-47499907D01*
X51201804Y-47499461D01*
X51149114Y-47499139D01*
X51149111Y-47499139D01*
X51131376Y-47499031D01*
X51114322Y-47503905D01*
X51010585Y-47533553D01*
X51010583Y-47533554D01*
X50993529Y-47538428D01*
X50872280Y-47614930D01*
X50868397Y-47619327D01*
X50791080Y-47662448D01*
X50714551Y-47674500D01*
X49685583Y-47674500D01*
X49590295Y-47655546D01*
X49533672Y-47620439D01*
X49532400Y-47618963D01*
X49517516Y-47609316D01*
X49517513Y-47609313D01*
X49426983Y-47550635D01*
X49412095Y-47540985D01*
X49395097Y-47535902D01*
X49395096Y-47535901D01*
X49291736Y-47504990D01*
X49291735Y-47504990D01*
X49274739Y-47499907D01*
X49201804Y-47499461D01*
X49149114Y-47499139D01*
X49149111Y-47499139D01*
X49131376Y-47499031D01*
X49114322Y-47503905D01*
X49010585Y-47533553D01*
X49010583Y-47533554D01*
X48993529Y-47538428D01*
X48872280Y-47614930D01*
X48777377Y-47722388D01*
X48769839Y-47738442D01*
X48769839Y-47738443D01*
X48741393Y-47799031D01*
X48716447Y-47852163D01*
X48713719Y-47869687D01*
X48713718Y-47869689D01*
X48697400Y-47974500D01*
X48694391Y-47993823D01*
X46646904Y-47993823D01*
X46582400Y-47918963D01*
X46550034Y-47897984D01*
X46506380Y-47869689D01*
X46462095Y-47840985D01*
X46445097Y-47835902D01*
X46445096Y-47835901D01*
X46341736Y-47804990D01*
X46341735Y-47804990D01*
X46324739Y-47799907D01*
X46266056Y-47799548D01*
X46249811Y-47799449D01*
X46154640Y-47779913D01*
X46074190Y-47725444D01*
X46020709Y-47644334D01*
X46002338Y-47548932D01*
X46003328Y-47528212D01*
X46003899Y-47521846D01*
X46005496Y-47512354D01*
X46005647Y-47500000D01*
X46004283Y-47490474D01*
X45987838Y-47375642D01*
X45987838Y-47375640D01*
X45985323Y-47358082D01*
X45925984Y-47227572D01*
X45885866Y-47181013D01*
X45838025Y-47096454D01*
X45825500Y-47018476D01*
X45825500Y-43704190D01*
X45844454Y-43608902D01*
X45898430Y-43528120D01*
X45979212Y-43474144D01*
X46074500Y-43455190D01*
X46148751Y-43466519D01*
X46172221Y-43473851D01*
X46189157Y-43479142D01*
X46255992Y-43480367D01*
X46314760Y-43481445D01*
X46314762Y-43481445D01*
X46332499Y-43481770D01*
X46470817Y-43444060D01*
X46485932Y-43434779D01*
X46485935Y-43434778D01*
X46577876Y-43378326D01*
X46577878Y-43378325D01*
X46592991Y-43369045D01*
X46689200Y-43262754D01*
X46751710Y-43133733D01*
X46775496Y-42992354D01*
X46775647Y-42980000D01*
X46760702Y-42875642D01*
X46757838Y-42855642D01*
X46757838Y-42855640D01*
X46755323Y-42838082D01*
X46695984Y-42707572D01*
X46602400Y-42598963D01*
X46482095Y-42520985D01*
X46465097Y-42515902D01*
X46465096Y-42515901D01*
X46361736Y-42484990D01*
X46361735Y-42484990D01*
X46344739Y-42479907D01*
X46271804Y-42479461D01*
X46219114Y-42479139D01*
X46219111Y-42479139D01*
X46201376Y-42479031D01*
X46184322Y-42483905D01*
X46080585Y-42513553D01*
X46080583Y-42513554D01*
X46063529Y-42518428D01*
X45942280Y-42594930D01*
X45938899Y-42598759D01*
X45862066Y-42641612D01*
X45784565Y-42650373D01*
X45784597Y-42650737D01*
X45770199Y-42651997D01*
X45763830Y-42652717D01*
X45741193Y-42650736D01*
X45720151Y-42656375D01*
X45720146Y-42656375D01*
X45709974Y-42659101D01*
X45688768Y-42663802D01*
X45678411Y-42665628D01*
X45678406Y-42665630D01*
X45656955Y-42669412D01*
X45644363Y-42676682D01*
X45630316Y-42680446D01*
X45603847Y-42698980D01*
X45585533Y-42710647D01*
X45576412Y-42715913D01*
X45576411Y-42715914D01*
X45557545Y-42726806D01*
X45536767Y-42751569D01*
X45522104Y-42767570D01*
X45287570Y-43002104D01*
X45271554Y-43016779D01*
X45246806Y-43037545D01*
X45235914Y-43056411D01*
X45235913Y-43056412D01*
X45230647Y-43065533D01*
X45218980Y-43083847D01*
X45200446Y-43110316D01*
X45196682Y-43124363D01*
X45189412Y-43136955D01*
X45185630Y-43158406D01*
X45185628Y-43158411D01*
X45183802Y-43168768D01*
X45179101Y-43189974D01*
X45176375Y-43200146D01*
X45176375Y-43200151D01*
X45170736Y-43221193D01*
X45172635Y-43242896D01*
X45173552Y-43253380D01*
X45174500Y-43275082D01*
X45174500Y-46918489D01*
X45155546Y-47013777D01*
X45101570Y-47094559D01*
X45020788Y-47148535D01*
X44925500Y-47167489D01*
X44438602Y-47167489D01*
X44343314Y-47148535D01*
X44286691Y-47113428D01*
X44285419Y-47111952D01*
X44270535Y-47102305D01*
X44270532Y-47102302D01*
X44180002Y-47043624D01*
X44165114Y-47033974D01*
X44148116Y-47028891D01*
X44148115Y-47028890D01*
X44044755Y-46997979D01*
X44044754Y-46997979D01*
X44027758Y-46992896D01*
X43954823Y-46992450D01*
X43902133Y-46992128D01*
X43902130Y-46992128D01*
X43884395Y-46992020D01*
X43867341Y-46996894D01*
X43763604Y-47026542D01*
X43763602Y-47026543D01*
X43746548Y-47031417D01*
X43625299Y-47107919D01*
X43530396Y-47215377D01*
X43522858Y-47231431D01*
X43522858Y-47231432D01*
X43503884Y-47271846D01*
X43469466Y-47345152D01*
X43466738Y-47362676D01*
X43466737Y-47362678D01*
X43453156Y-47449909D01*
X43447410Y-47486812D01*
X43465999Y-47628968D01*
X43523739Y-47760192D01*
X43530138Y-47767804D01*
X43562403Y-47853419D01*
X43559267Y-47950523D01*
X43529495Y-48019990D01*
X43527377Y-48022388D01*
X43519839Y-48038442D01*
X43519839Y-48038443D01*
X43481856Y-48119344D01*
X43466447Y-48152163D01*
X43463719Y-48169687D01*
X43463718Y-48169689D01*
X43448536Y-48267203D01*
X43444391Y-48293823D01*
X43462980Y-48435979D01*
X43520720Y-48567203D01*
X43526568Y-48574160D01*
X43558613Y-48659185D01*
X43555478Y-48756290D01*
X43527187Y-48822299D01*
X43527377Y-48822388D01*
X43519838Y-48838446D01*
X43474734Y-48934513D01*
X43466447Y-48952163D01*
X43444391Y-49093823D01*
X23530000Y-49093823D01*
X23530000Y-44969600D01*
X25064808Y-44969600D01*
X25079830Y-45242574D01*
X25081548Y-45251209D01*
X25081548Y-45251212D01*
X25093511Y-45311350D01*
X25133166Y-45510708D01*
X25223749Y-45768652D01*
X25227801Y-45776453D01*
X25227803Y-45776457D01*
X25345716Y-46003449D01*
X25345719Y-46003454D01*
X25349774Y-46011260D01*
X25354893Y-46018423D01*
X25354894Y-46018425D01*
X25503605Y-46226526D01*
X25503609Y-46226531D01*
X25508725Y-46233690D01*
X25514803Y-46240061D01*
X25691346Y-46425127D01*
X25691351Y-46425132D01*
X25697431Y-46431505D01*
X25704352Y-46436961D01*
X25704353Y-46436962D01*
X25905207Y-46595303D01*
X25905212Y-46595306D01*
X25912126Y-46600757D01*
X25919739Y-46605179D01*
X25919742Y-46605181D01*
X26123277Y-46723403D01*
X26148528Y-46738070D01*
X26401919Y-46840704D01*
X26410467Y-46842827D01*
X26410466Y-46842827D01*
X26658703Y-46904490D01*
X26658708Y-46904491D01*
X26667243Y-46906611D01*
X26675998Y-46907508D01*
X26894082Y-46929853D01*
X26894090Y-46929853D01*
X26900401Y-46930500D01*
X27069642Y-46930500D01*
X27074017Y-46930190D01*
X27074023Y-46930190D01*
X27132136Y-46926075D01*
X27272705Y-46916122D01*
X27281318Y-46914268D01*
X27281323Y-46914267D01*
X27429324Y-46882403D01*
X27539968Y-46858582D01*
X27796458Y-46763958D01*
X27927021Y-46693510D01*
X28029308Y-46638319D01*
X28029312Y-46638316D01*
X28037056Y-46634138D01*
X28256962Y-46471713D01*
X28357296Y-46372942D01*
X28445518Y-46286096D01*
X28445523Y-46286091D01*
X28451788Y-46279923D01*
X28492540Y-46226526D01*
X28612308Y-46069592D01*
X28612309Y-46069590D01*
X28617647Y-46062596D01*
X28646397Y-46011260D01*
X28746930Y-45831744D01*
X28751230Y-45824066D01*
X28849871Y-45569095D01*
X28861481Y-45519009D01*
X28909614Y-45311350D01*
X28909614Y-45311347D01*
X28911603Y-45302768D01*
X28935192Y-45030400D01*
X28926075Y-44864722D01*
X28920654Y-44766216D01*
X28920654Y-44766212D01*
X28920170Y-44757426D01*
X28915930Y-44736107D01*
X28875409Y-44532403D01*
X28866834Y-44489292D01*
X28843448Y-44422699D01*
X28779165Y-44239645D01*
X28779163Y-44239641D01*
X28776251Y-44231348D01*
X28772197Y-44223543D01*
X28654284Y-43996551D01*
X28654281Y-43996546D01*
X28650226Y-43988740D01*
X28613541Y-43937404D01*
X28496395Y-43773474D01*
X28496391Y-43773469D01*
X28491275Y-43766310D01*
X28423594Y-43695362D01*
X28308654Y-43574873D01*
X28308649Y-43574868D01*
X28302569Y-43568495D01*
X28259400Y-43534463D01*
X28094793Y-43404697D01*
X28094788Y-43404694D01*
X28087874Y-43399243D01*
X28066411Y-43386776D01*
X27859085Y-43266352D01*
X27851472Y-43261930D01*
X27598081Y-43159296D01*
X27478352Y-43129555D01*
X27341297Y-43095510D01*
X27341292Y-43095509D01*
X27332757Y-43093389D01*
X27312838Y-43091348D01*
X27105918Y-43070147D01*
X27105910Y-43070147D01*
X27099599Y-43069500D01*
X26930358Y-43069500D01*
X26925983Y-43069810D01*
X26925977Y-43069810D01*
X26867864Y-43073925D01*
X26727295Y-43083878D01*
X26718682Y-43085732D01*
X26718677Y-43085733D01*
X26604495Y-43110316D01*
X26460032Y-43141418D01*
X26203542Y-43236042D01*
X26116970Y-43282754D01*
X25970692Y-43361681D01*
X25970688Y-43361684D01*
X25962944Y-43365862D01*
X25743038Y-43528287D01*
X25707737Y-43563038D01*
X25554482Y-43713904D01*
X25554477Y-43713909D01*
X25548212Y-43720077D01*
X25542873Y-43727073D01*
X25542871Y-43727075D01*
X25387692Y-43930408D01*
X25382353Y-43937404D01*
X25378057Y-43945074D01*
X25378055Y-43945078D01*
X25349229Y-43996551D01*
X25248770Y-44175934D01*
X25150129Y-44430905D01*
X25148143Y-44439472D01*
X25148142Y-44439476D01*
X25090386Y-44688650D01*
X25088397Y-44697232D01*
X25064808Y-44969600D01*
X23530000Y-44969600D01*
X23530000Y-36008823D01*
X49319391Y-36008823D01*
X49337980Y-36150979D01*
X49395720Y-36282203D01*
X49487970Y-36391948D01*
X49607313Y-36471390D01*
X49624246Y-36476680D01*
X49624248Y-36476681D01*
X49674499Y-36492380D01*
X49744157Y-36514142D01*
X49749053Y-36514232D01*
X49831340Y-36544915D01*
X49902453Y-36611112D01*
X49942821Y-36699483D01*
X49949500Y-36756768D01*
X49949500Y-41239895D01*
X49930546Y-41335183D01*
X49887135Y-41404723D01*
X49843537Y-41454090D01*
X49827377Y-41472388D01*
X49766447Y-41602163D01*
X49744391Y-41743823D01*
X49762980Y-41885979D01*
X49820720Y-42017203D01*
X49912970Y-42126948D01*
X50032313Y-42206390D01*
X50049246Y-42211680D01*
X50049248Y-42211681D01*
X50152224Y-42243852D01*
X50169157Y-42249142D01*
X50235992Y-42250367D01*
X50294760Y-42251445D01*
X50294762Y-42251445D01*
X50312499Y-42251770D01*
X50385008Y-42232002D01*
X50481922Y-42225225D01*
X50574056Y-42256052D01*
X50647381Y-42319790D01*
X50690732Y-42406737D01*
X50699500Y-42472234D01*
X50699500Y-42489895D01*
X50680546Y-42585183D01*
X50637135Y-42654723D01*
X50598057Y-42698972D01*
X50577377Y-42722388D01*
X50569839Y-42738442D01*
X50569839Y-42738443D01*
X50559770Y-42759890D01*
X50516447Y-42852163D01*
X50494391Y-42993823D01*
X50512980Y-43135979D01*
X50570720Y-43267203D01*
X50662970Y-43376948D01*
X50782313Y-43456390D01*
X50799246Y-43461680D01*
X50799248Y-43461681D01*
X50863551Y-43481770D01*
X50919157Y-43499142D01*
X50985992Y-43500367D01*
X51044760Y-43501445D01*
X51044762Y-43501445D01*
X51062499Y-43501770D01*
X51200817Y-43464060D01*
X51215932Y-43454779D01*
X51215935Y-43454778D01*
X51307876Y-43398326D01*
X51307878Y-43398325D01*
X51322991Y-43389045D01*
X51347760Y-43361681D01*
X51407297Y-43295904D01*
X51419200Y-43282754D01*
X51481710Y-43153733D01*
X51505496Y-43012354D01*
X51505647Y-43000000D01*
X51485323Y-42858082D01*
X51425984Y-42727572D01*
X51366985Y-42659101D01*
X51360866Y-42651999D01*
X51313025Y-42567440D01*
X51300500Y-42489462D01*
X51300500Y-36290293D01*
X51319454Y-36195005D01*
X51323713Y-36185517D01*
X51323973Y-36184702D01*
X51331710Y-36168733D01*
X51337657Y-36133389D01*
X51353899Y-36036846D01*
X51355496Y-36027354D01*
X51355647Y-36015000D01*
X51335323Y-35873082D01*
X51275984Y-35742572D01*
X51182400Y-35633963D01*
X51062095Y-35555985D01*
X51045097Y-35550902D01*
X51045096Y-35550901D01*
X50941736Y-35519990D01*
X50941735Y-35519990D01*
X50924739Y-35514907D01*
X50851804Y-35514461D01*
X50799114Y-35514139D01*
X50799111Y-35514139D01*
X50781376Y-35514031D01*
X50764322Y-35518905D01*
X50660585Y-35548553D01*
X50660583Y-35548554D01*
X50643529Y-35553428D01*
X50522280Y-35629930D01*
X50510537Y-35643226D01*
X50498616Y-35653372D01*
X50413766Y-35700696D01*
X50317264Y-35711947D01*
X50223803Y-35685412D01*
X50173549Y-35651387D01*
X50168977Y-35647398D01*
X50157400Y-35633963D01*
X50037095Y-35555985D01*
X50020097Y-35550902D01*
X50020096Y-35550901D01*
X49916736Y-35519990D01*
X49916735Y-35519990D01*
X49899739Y-35514907D01*
X49826804Y-35514461D01*
X49774114Y-35514139D01*
X49774111Y-35514139D01*
X49756376Y-35514031D01*
X49739322Y-35518905D01*
X49635585Y-35548553D01*
X49635583Y-35548554D01*
X49618529Y-35553428D01*
X49497280Y-35629930D01*
X49402377Y-35737388D01*
X49394839Y-35753442D01*
X49394839Y-35753443D01*
X49392362Y-35758720D01*
X49341447Y-35867163D01*
X49319391Y-36008823D01*
X23530000Y-36008823D01*
X23530000Y-32242723D01*
X23531268Y-32242723D01*
X23530705Y-32239657D01*
X23535143Y-32220358D01*
X23530927Y-32201727D01*
X23531045Y-32198729D01*
X23542301Y-31969600D01*
X25064808Y-31969600D01*
X25070481Y-32072685D01*
X25078588Y-32220000D01*
X25079830Y-32242574D01*
X25081548Y-32251209D01*
X25081548Y-32251212D01*
X25093511Y-32311350D01*
X25133166Y-32510708D01*
X25223749Y-32768652D01*
X25227801Y-32776453D01*
X25227803Y-32776457D01*
X25345716Y-33003449D01*
X25345719Y-33003454D01*
X25349774Y-33011260D01*
X25354893Y-33018423D01*
X25354894Y-33018425D01*
X25503605Y-33226526D01*
X25503609Y-33226531D01*
X25508725Y-33233690D01*
X25552829Y-33279923D01*
X25691346Y-33425127D01*
X25691351Y-33425132D01*
X25697431Y-33431505D01*
X25704352Y-33436961D01*
X25704353Y-33436962D01*
X25905207Y-33595303D01*
X25905212Y-33595306D01*
X25912126Y-33600757D01*
X25919739Y-33605179D01*
X25919742Y-33605181D01*
X25999495Y-33651505D01*
X26148528Y-33738070D01*
X26401919Y-33840704D01*
X26410467Y-33842827D01*
X26410466Y-33842827D01*
X26658703Y-33904490D01*
X26658708Y-33904491D01*
X26667243Y-33906611D01*
X26675998Y-33907508D01*
X26894082Y-33929853D01*
X26894090Y-33929853D01*
X26900401Y-33930500D01*
X27069642Y-33930500D01*
X27074017Y-33930190D01*
X27074023Y-33930190D01*
X27132136Y-33926075D01*
X27272705Y-33916122D01*
X27281318Y-33914268D01*
X27281323Y-33914267D01*
X27419558Y-33884505D01*
X27539968Y-33858582D01*
X27796458Y-33763958D01*
X27994756Y-33656962D01*
X28029308Y-33638319D01*
X28029312Y-33638316D01*
X28037056Y-33634138D01*
X28256962Y-33471713D01*
X28380334Y-33350264D01*
X28445518Y-33286096D01*
X28445523Y-33286091D01*
X28451788Y-33279923D01*
X28460566Y-33268422D01*
X28612308Y-33069592D01*
X28612309Y-33069590D01*
X28617647Y-33062596D01*
X28623725Y-33051744D01*
X28746930Y-32831744D01*
X28751230Y-32824066D01*
X28849871Y-32569095D01*
X28861481Y-32519009D01*
X28909614Y-32311350D01*
X28909614Y-32311347D01*
X28911603Y-32302768D01*
X28935192Y-32030400D01*
X28920170Y-31757426D01*
X28910596Y-31709292D01*
X28892839Y-31620027D01*
X28866834Y-31489292D01*
X28856423Y-31459645D01*
X28779165Y-31239645D01*
X28779163Y-31239641D01*
X28776251Y-31231348D01*
X28764507Y-31208740D01*
X28654284Y-30996551D01*
X28654281Y-30996546D01*
X28650226Y-30988740D01*
X28611040Y-30933904D01*
X28496395Y-30773474D01*
X28496391Y-30773469D01*
X28491275Y-30766310D01*
X28423594Y-30695362D01*
X28308654Y-30574873D01*
X28308649Y-30574868D01*
X28302569Y-30568495D01*
X28252877Y-30529321D01*
X28094793Y-30404697D01*
X28094788Y-30404694D01*
X28087874Y-30399243D01*
X28059227Y-30382603D01*
X27859085Y-30266352D01*
X27851472Y-30261930D01*
X27598081Y-30159296D01*
X27518645Y-30139564D01*
X27341297Y-30095510D01*
X27341292Y-30095509D01*
X27332757Y-30093389D01*
X27312838Y-30091348D01*
X27105918Y-30070147D01*
X27105910Y-30070147D01*
X27099599Y-30069500D01*
X26930358Y-30069500D01*
X26925983Y-30069810D01*
X26925977Y-30069810D01*
X26867864Y-30073925D01*
X26727295Y-30083878D01*
X26718682Y-30085732D01*
X26718677Y-30085733D01*
X26621049Y-30106752D01*
X26460032Y-30141418D01*
X26203542Y-30236042D01*
X26107047Y-30288108D01*
X25970692Y-30361681D01*
X25970688Y-30361684D01*
X25962944Y-30365862D01*
X25743038Y-30528287D01*
X25657111Y-30612875D01*
X25554482Y-30713904D01*
X25554477Y-30713909D01*
X25548212Y-30720077D01*
X25542873Y-30727073D01*
X25542871Y-30727075D01*
X25413927Y-30896032D01*
X25382353Y-30937404D01*
X25378057Y-30945074D01*
X25378055Y-30945078D01*
X25350952Y-30993474D01*
X25248770Y-31175934D01*
X25150129Y-31430905D01*
X25148143Y-31439472D01*
X25148142Y-31439476D01*
X25090386Y-31688650D01*
X25088397Y-31697232D01*
X25064808Y-31969600D01*
X23542301Y-31969600D01*
X23546783Y-31878377D01*
X23549178Y-31854059D01*
X23597570Y-31527825D01*
X23602337Y-31503859D01*
X23613544Y-31459120D01*
X23682474Y-31183933D01*
X23689568Y-31160549D01*
X23748248Y-30996551D01*
X23800678Y-30850020D01*
X23810021Y-30827463D01*
X23951036Y-30529311D01*
X23962550Y-30507770D01*
X23975388Y-30486352D01*
X24040827Y-30377173D01*
X24132110Y-30224876D01*
X24145677Y-30204572D01*
X24342156Y-29939650D01*
X24357636Y-29920788D01*
X24579129Y-29676408D01*
X24596408Y-29659129D01*
X24636242Y-29623026D01*
X24840788Y-29437636D01*
X24859650Y-29422156D01*
X25124572Y-29225677D01*
X25144876Y-29212110D01*
X25386312Y-29067399D01*
X25427774Y-29042548D01*
X25449311Y-29031036D01*
X25747463Y-28890021D01*
X25770020Y-28880678D01*
X26080549Y-28769568D01*
X26103933Y-28762474D01*
X26423859Y-28682337D01*
X26447825Y-28677570D01*
X26774059Y-28629178D01*
X26798377Y-28626783D01*
X27119267Y-28611019D01*
X27119268Y-28611019D01*
X27121277Y-28610920D01*
X27139642Y-28615143D01*
X27158342Y-28610912D01*
X27175103Y-28611409D01*
X27189537Y-28610000D01*
X45608090Y-28610000D01*
X45703378Y-28628954D01*
G37*
%TD.AperFunction*%
%TD*%
M02*
