M48
; DRILL file {KiCad (6.0.2)} date Wed Jun  8 20:40:00 2022
; FORMAT={-:-/ absolute / inch / decimal}
; #@! TF.CreationDate,2022-06-08T20:40:00+01:00
; #@! TF.GenerationSoftware,Kicad,Pcbnew,(6.0.2)
; #@! TF.FileFunction,MixedPlating,1,2
FMAT,2
INCH
; #@! TA.AperFunction,Plated,PTH,ViaDrill
T1C0.0118
; #@! TA.AperFunction,Plated,PTH,ComponentDrill
T2C0.0236
; #@! TA.AperFunction,Plated,PTH,ComponentDrill
T3C0.0335
; #@! TA.AperFunction,Plated,PTH,ComponentDrill
T4C0.0394
; #@! TA.AperFunction,NonPlated,NPTH,ComponentDrill
T5C0.1063
%
G90
G05
T1
X1.6323Y-1.5236
X1.6618Y-1.8327
X1.6618Y-1.8642
X1.6619Y-1.8009
X1.7228Y-1.8012
X1.7524Y-1.8327
X1.7531Y-1.6232
X1.8012Y-1.8642
X1.8488Y-1.2476
X1.8685Y-1.8209
X1.8931Y-1.349
X1.9098Y-1.5748
X1.913Y-1.2919
X1.9335Y-1.349
X1.9394Y-1.624
X1.9472Y-1.8209
X2.0457Y-1.5256
X2.1067Y-1.6988
X2.1677Y-1.6693
X2.1756Y-1.194
X2.2287Y-1.2913
X2.2524Y-1.7913
X2.2937Y-1.6142
X2.3114Y-1.2913
X2.3882Y-1.0906
X2.3882Y-1.1457
X2.4319Y-1.3146
X2.4335Y-1.4173
X2.4512Y-1.0906
X2.4512Y-1.1457
X2.4689Y-1.4173
X2.4713Y-1.3146
X2.5142Y-1.0906
X2.5142Y-1.1457
X2.5909Y-1.2913
X2.6087Y-1.6142
X2.6736Y-1.2913
T3
X1.8016Y-1.2092
X1.9984Y-1.2092
T4
X1.0Y-2.0496
X1.0Y-2.1496
X1.1Y-2.0496
X1.1Y-2.1496
X1.75Y-1.9996
X1.75Y-2.0996
X1.75Y-2.1996
X1.75Y-2.2996
X1.75Y-2.3996
X2.05Y-1.9996
X2.05Y-2.0996
X2.05Y-2.1996
X2.05Y-2.2996
X2.05Y-2.3996
X2.3512Y-1.4862
X2.4512Y-1.4862
X2.5512Y-1.4862
X2.7Y-2.0496
X2.7Y-2.1496
X2.8Y-2.0496
X2.8Y-2.1496
T5
X1.063Y-1.1614
X1.063Y-1.7126
X2.7362Y-1.1614
X2.7362Y-1.7126
T2
G00X1.7622Y-1.1166
M15
G01X1.7622Y-1.0891
M16
G05
G00X2.0378Y-1.0891
M15
G01X2.0378Y-1.1166
M16
G05
T0
M30
