%TF.GenerationSoftware,KiCad,Pcbnew,(6.0.2)*%
%TF.CreationDate,2022-06-08T20:40:01+01:00*%
%TF.ProjectId,mcp_breadboard,6d63705f-6272-4656-9164-626f6172642e,rev?*%
%TF.SameCoordinates,Original*%
%TF.FileFunction,Profile,NP*%
%FSLAX46Y46*%
G04 Gerber Fmt 4.6, Leading zero omitted, Abs format (unit mm)*
G04 Created by KiCad (PCBNEW (6.0.2)) date 2022-06-08 20:40:01*
%MOMM*%
%LPD*%
G01*
G04 APERTURE LIST*
%TA.AperFunction,Profile*%
%ADD10C,0.100000*%
%TD*%
G04 APERTURE END LIST*
D10*
X24130000Y-54600000D02*
G75*
G03*
X25400000Y-55870000I1269999J-1D01*
G01*
X24130000Y-29210000D02*
X24130000Y-54600000D01*
X69850000Y-26670000D02*
X26670000Y-26670000D01*
X71120000Y-55870000D02*
G75*
G03*
X72390000Y-54600000I1J1269999D01*
G01*
X25400000Y-55870000D02*
X27940000Y-55870000D01*
X67310000Y-49520000D02*
X67310000Y-54600000D01*
X67310000Y-49520000D02*
G75*
G03*
X66040000Y-48250000I-1269999J1D01*
G01*
X72390000Y-29210000D02*
G75*
G03*
X69850000Y-26670000I-2540001J-1D01*
G01*
X53340000Y-60949999D02*
X53340000Y-49530000D01*
X68580000Y-55870000D02*
X71120000Y-55870000D01*
X54610000Y-48260000D02*
G75*
G03*
X53340000Y-49530000I-1J-1269999D01*
G01*
X43180000Y-49520000D02*
G75*
G03*
X41910000Y-48250000I-1269999J1D01*
G01*
X43180001Y-60949999D02*
G75*
G03*
X44450001Y-62219999I1269999J-1D01*
G01*
X30480000Y-48250000D02*
G75*
G03*
X29210000Y-49520000I-1J-1269999D01*
G01*
X29210000Y-54600000D02*
X29210000Y-49520000D01*
X44450001Y-62219999D02*
X52070000Y-62219999D01*
X43180000Y-49520000D02*
X43180001Y-60949999D01*
X67310000Y-54600000D02*
G75*
G03*
X68580000Y-55870000I1269999J-1D01*
G01*
X72390000Y-54600000D02*
X72390000Y-29210000D01*
X30480000Y-48250000D02*
X41910000Y-48250000D01*
X26670000Y-26670000D02*
G75*
G03*
X24130000Y-29210000I1J-2540001D01*
G01*
X27940000Y-55870000D02*
G75*
G03*
X29210000Y-54600000I1J1269999D01*
G01*
X54610000Y-48260000D02*
X66040000Y-48250000D01*
X52070000Y-62219999D02*
G75*
G03*
X53340000Y-60949999I1J1269999D01*
G01*
M02*
